<svg width="38" height="16" viewBox="0 0 38 16" fill="none" xmlns="http://www.w3.org/2000/svg">
<path d="M2.88702 6.42663L6.39202 4.65902C6.47259 4.60866 6.53302 4.56334 6.57331 4.52305C6.6136 4.48277 6.63374 4.41226 6.63374 4.31155V2.12092C6.63374 1.95977 6.55317 1.8792 6.39202 1.8792H1.55754V0.232457L5.93878 0.156919C6.89561 0.136775 7.57042 0.353319 7.96322 0.806551C8.35602 1.24971 8.55242 1.86913 8.55242 2.6648V4.19068C8.55242 4.73456 8.42149 5.14751 8.15962 5.42952C7.90783 5.71153 7.49992 5.99858 6.9359 6.29066L3.53665 7.99783C3.39565 8.06834 3.305 8.14891 3.26472 8.23956C3.22443 8.3302 3.20428 8.46617 3.20428 8.64747V10.5661H8.5071V12.2129H1.30071V8.64747C1.30071 8.17409 1.3561 7.8115 1.4669 7.55971C1.58776 7.30791 1.76401 7.10144 1.99567 6.94029C2.23739 6.77914 2.53451 6.60792 2.88702 6.42663ZM10.578 2.49862C10.578 1.66266 10.7946 1.05331 11.2277 0.670581C11.6708 0.287852 12.3507 0.0964875 13.2672 0.0964875H15.6996C16.606 0.0964875 17.2808 0.287852 17.724 0.670581C18.1672 1.05331 18.3887 1.66266 18.3887 2.49862V9.96184C18.3887 10.7877 18.1672 11.392 17.724 11.7748C17.2808 12.1575 16.606 12.3489 15.6996 12.3489H13.2672C12.3507 12.3489 11.6708 12.1575 11.2277 11.7748C10.7946 11.392 10.578 10.7877 10.578 9.96184V2.49862ZM12.7233 1.80366C12.5823 1.80366 12.5118 1.86913 12.5118 2.00006V10.4453C12.5118 10.5762 12.5823 10.6417 12.7233 10.6417H16.2434C16.3844 10.6417 16.4549 10.5762 16.4549 10.4453V2.00006C16.4549 1.86913 16.3844 1.80366 16.2434 1.80366H12.7233ZM27.4142 12.2129H20.7517V10.6719H23.4258V2.24179L20.9179 3.76767L20.1323 2.45329L23.5768 0.232457H25.3293V10.6719H27.4142V12.2129ZM32.5359 12.2884L28.3511 12.2129V10.5661H33.2309C33.3921 10.5661 33.4726 10.4856 33.4726 10.3244V7.12158C33.4726 6.96043 33.3921 6.87986 33.2309 6.87986H29.4691V5.23312H33.1252C33.2964 5.23312 33.382 5.15254 33.382 4.99139V2.12092C33.382 1.9497 33.2964 1.86409 33.1252 1.86409H28.4115V0.232457L32.4906 0.156919C33.4273 0.136775 34.1323 0.348283 34.6057 0.791443C35.0892 1.22453 35.3309 1.86913 35.3309 2.72523V4.17558C35.3309 4.62881 35.2402 5.01154 35.0589 5.32376C34.8776 5.62592 34.6208 5.86261 34.2884 6.03383C35.0438 6.35613 35.4215 7.02087 35.4215 8.02805V9.6899C35.4215 10.5259 35.1748 11.1755 34.6812 11.6388C34.1877 12.092 33.4726 12.3086 32.5359 12.2884Z" fill="white"/>
<path d="M1.16064 15.9992C0.947257 15.9992 0.775695 15.9719 0.645956 15.9173V15.6715C0.719361 15.6988 0.797887 15.721 0.881534 15.7381C0.966889 15.7551 1.05139 15.7637 1.13504 15.7637C1.26648 15.7637 1.36464 15.7483 1.42951 15.7176C1.49609 15.6868 1.52937 15.6254 1.52937 15.5332C1.52937 15.4769 1.51572 15.4316 1.4884 15.3975C1.46109 15.3633 1.41585 15.3343 1.35269 15.3104C1.28953 15.2848 1.20247 15.2584 1.09151 15.231C0.913969 15.185 0.789352 15.1269 0.717654 15.0569C0.645956 14.9852 0.610107 14.8871 0.610107 14.7625C0.610107 14.6174 0.663027 14.5038 0.768866 14.4219C0.874706 14.3399 1.03261 14.299 1.24258 14.299C1.33818 14.299 1.4278 14.3058 1.51145 14.3195C1.5968 14.3331 1.66338 14.3485 1.71118 14.3656V14.6114C1.58144 14.5619 1.43805 14.5371 1.28099 14.5371C1.15808 14.5371 1.06249 14.5533 0.994202 14.5858C0.925919 14.6182 0.891777 14.6771 0.891777 14.7625C0.891777 14.812 0.903726 14.8521 0.927626 14.8828C0.951525 14.9135 0.992495 14.94 1.05054 14.9622C1.11028 14.9844 1.19222 15.0091 1.29636 15.0364C1.43122 15.0706 1.53535 15.1116 1.60875 15.1594C1.68387 15.2054 1.73593 15.2601 1.76495 15.3232C1.79568 15.3847 1.81104 15.4547 1.81104 15.5332C1.81104 15.6783 1.75727 15.7927 1.64972 15.8763C1.54218 15.9583 1.37915 15.9992 1.16064 15.9992ZM2.08167 15.9736V14.3246H2.36078V15.9736H2.08167ZM2.68432 15.9736V14.3246H2.93014L3.79051 15.5383V14.3246H4.06706V15.9736H3.82124L2.96343 14.7625V15.9736H2.68432ZM5.16555 15.9992C4.89413 15.9992 4.68842 15.925 4.54844 15.7765C4.41017 15.6279 4.34103 15.4274 4.34103 15.1747C4.34103 14.9938 4.37005 14.8384 4.42809 14.7087C4.48784 14.5772 4.57831 14.4765 4.69952 14.4065C4.82072 14.3348 4.97521 14.299 5.16299 14.299C5.25859 14.299 5.34565 14.3067 5.42418 14.322C5.50441 14.3357 5.57867 14.3545 5.64695 14.3784V14.6216C5.57867 14.5943 5.50526 14.5738 5.42674 14.5602C5.34992 14.5448 5.26883 14.5371 5.18348 14.5371C4.97863 14.5371 4.83352 14.5917 4.74817 14.701C4.66452 14.8103 4.6227 14.9682 4.6227 15.1747C4.6227 15.3676 4.66879 15.5144 4.76097 15.6151C4.85316 15.7142 4.9957 15.7637 5.1886 15.7637C5.26713 15.7637 5.34565 15.7577 5.42418 15.7457C5.50441 15.7321 5.57952 15.7116 5.64951 15.6843V15.9301C5.58123 15.9523 5.50697 15.9694 5.42674 15.9813C5.34821 15.9933 5.26115 15.9992 5.16555 15.9992ZM5.92012 15.9736V14.3246H7.06984V14.5422H6.19923V15.0416H6.9751V15.2567H6.19923V15.7585H7.06984V15.9736H5.92012Z" fill="white"/>
</svg>
