<svg width="68" height="67" viewBox="0 0 68 67" fill="none" xmlns="http://www.w3.org/2000/svg">
<path d="M41.3779 66.792V64.4549L46.3159 59.8373C46.6678 59.5106 46.9253 59.2216 47.0887 58.9703C47.2646 58.719 47.3777 58.4929 47.4279 58.2918C47.4908 58.0782 47.5222 57.8835 47.5222 57.7075C47.5222 57.2803 47.3777 56.9474 47.0887 56.7086C46.8123 56.4699 46.3913 56.3505 45.8259 56.3505C45.3484 56.3505 44.9024 56.4573 44.4877 56.6709C44.0731 56.8845 43.7338 57.2049 43.47 57.6322L40.6994 56.0867C41.1894 55.2574 41.8994 54.5914 42.8292 54.0888C43.759 53.5862 44.871 53.3349 46.1652 53.3349C47.1829 53.3349 48.075 53.4983 48.8415 53.825C49.608 54.1517 50.2048 54.6166 50.632 55.2197C51.0718 55.8228 51.2917 56.5327 51.2917 57.3494C51.2917 57.7767 51.2351 58.2039 51.122 58.6311C51.0089 59.0457 50.7891 59.4918 50.4624 59.9692C50.1482 60.4341 49.6771 60.9556 49.0488 61.5336L45.1286 65.1523L44.5066 63.8329H51.6498V66.792H41.3779ZM53.4145 66.792V53.5988H59.653C61.1105 53.5988 62.3921 53.869 63.4979 54.4092C64.6036 54.9495 65.4643 55.7097 66.0799 56.6898C66.7082 57.6698 67.0223 58.8384 67.0223 60.1954C67.0223 61.5398 66.7082 62.7084 66.0799 63.701C65.4643 64.6811 64.6036 65.4413 63.4979 65.9816C62.3921 66.5218 61.1105 66.792 59.653 66.792H53.4145ZM57.1463 63.8141H59.5022C60.2561 63.8141 60.9095 63.6759 61.4623 63.3995C62.0278 63.1105 62.4675 62.6958 62.7817 62.1555C63.0958 61.6027 63.2528 60.9493 63.2528 60.1954C63.2528 59.4289 63.0958 58.7756 62.7817 58.2353C62.4675 57.695 62.0278 57.2866 61.4623 57.0102C60.9095 56.7212 60.2561 56.5767 59.5022 56.5767H57.1463V63.8141Z" fill="white"/>
<path d="M5.2386 14.0754C4.32136 14.0754 3.40412 13.9623 2.48688 13.7361C1.58221 13.51 0.790617 13.1896 0.11211 12.7749L1.46912 9.96665C1.99685 10.3185 2.58112 10.5886 3.22193 10.7771C3.87531 10.9656 4.50984 11.0598 5.12552 11.0598C5.76633 11.0598 6.27521 10.9404 6.65216 10.7017C7.02911 10.463 7.21758 10.1237 7.21758 9.68394C7.21758 9.29443 7.06052 8.98659 6.7464 8.76042C6.43227 8.52169 5.91711 8.40232 5.20091 8.40232H3.63657V6.04639L7.17989 2.22037L7.53799 3.50199H0.790617V0.618341H10.3274V2.95542L6.78409 6.78144L4.95589 5.74483H5.97365C7.61966 5.74483 8.86359 6.1155 9.70544 6.85683C10.5599 7.5856 10.9871 8.52797 10.9871 9.68394C10.9871 10.4378 10.7797 11.1478 10.3651 11.8137C9.96302 12.4796 9.34106 13.0262 8.4992 13.4534C7.65735 13.8681 6.57049 14.0754 5.2386 14.0754ZM12.8631 13.8115V0.618341H19.1016C20.5591 0.618341 21.8408 0.888487 22.9465 1.42878C24.0522 1.96907 24.9129 2.72925 25.5286 3.70932C26.1568 4.68938 26.4709 5.85792 26.4709 7.21493C26.4709 8.55938 26.1568 9.72792 25.5286 10.7205C24.9129 11.7006 24.0522 12.4608 22.9465 13.0011C21.8408 13.5414 20.5591 13.8115 19.1016 13.8115H12.8631ZM16.5949 10.8336H18.9508C19.7047 10.8336 20.3581 10.6954 20.911 10.419C21.4764 10.13 21.9162 9.71535 22.2303 9.17506C22.5444 8.6222 22.7015 7.96883 22.7015 7.21493C22.7015 6.44847 22.5444 5.79509 22.2303 5.2548C21.9162 4.71451 21.4764 4.30615 20.911 4.02972C20.3581 3.74073 19.7047 3.59623 18.9508 3.59623H16.5949V10.8336Z" fill="white"/>
</svg>
