<svg width="641" height="117" viewBox="0 0 641 117" fill="none" xmlns="http://www.w3.org/2000/svg">
<g filter="url(#filter0_d_106_1465)">
<path d="M89.8252 42.4681L79.5879 69.1348H68.4011L71.6622 60.5899H59.6911L56.43 69.1348H45.2432L53.9532 46.431L50.7334 42.4681H89.8252ZM64.108 49.1141L62.2504 53.9851H74.2215L76.0791 49.1141H64.108ZM94.8297 46.431L91.6099 42.4681H107.379L114.933 54.3979L119.515 42.4681H130.702L120.464 69.1348H109.443L101.889 57.205L97.3065 69.1348H86.1197L94.8297 46.431ZM127.037 69.1348L135.747 46.431L132.527 42.4681H171.619L164.477 61.0852L151.103 69.1348H127.037ZM157.872 49.1141H145.901L140.741 62.53H146.768L154.611 57.5765L157.872 49.1141ZM193.675 46.431L190.455 42.4681H243.5L233.262 69.1348H222.075L229.795 49.0729H222.406L214.686 69.1348H203.5L211.219 49.0729H203.871L196.152 69.1348H184.965L193.675 46.431ZM284.412 42.4681L274.175 69.1348H262.988L266.249 60.5899H254.278L251.017 69.1348H239.83L248.54 46.431L245.32 42.4681H284.412ZM258.695 49.1141L256.837 53.9851H268.808L270.666 49.1141H258.695ZM289.416 46.431L286.197 42.4681H301.965L309.52 54.3979L314.102 42.4681H325.288L315.051 69.1348H304.029L296.475 57.205L291.893 69.1348H280.706L289.416 46.431ZM366.205 42.4681L362.903 51.0956L347.795 60.2596L344.368 69.1348H333.182L336.608 60.2596L328.558 51.0956L330.333 46.431L327.113 42.4681H343.047L341.066 47.5868L345.194 52.4991L353.037 47.5868L355.018 42.4681H366.205ZM388.262 46.431L385.042 42.4681H438.086L427.849 69.1348H416.662L424.381 49.0729H416.992L409.273 69.1348H398.086L405.806 49.0729H398.458L390.739 69.1348H379.552L388.262 46.431ZM443.127 46.431L439.907 42.4681H478.999L468.761 69.1348H434.417L443.127 46.431ZM453.281 49.1141L448.121 62.53H460.093L465.252 49.1141H453.281ZM519.915 42.4681L513.228 59.8881H507.077L509.637 69.1348H498.409L495.684 59.8881H490.07L486.52 69.1348H475.333L484.043 46.431L480.824 42.4681H519.915ZM494.198 49.1141L492.588 53.2834H504.559L506.169 49.1141H494.198ZM535.075 49.1141L533.795 52.4991H556.953L554.394 59.1038H531.236L529.915 62.53H553.073L550.555 69.1348H516.21L524.92 46.431L521.7 42.4681H560.792L558.233 49.1141H535.075ZM553.824 69.1348L556.342 62.53H567.612L565.094 69.1348H553.824ZM568.337 69.1348L570.855 62.53H582.124L579.606 69.1348H568.337ZM582.849 69.1348L585.367 62.53H596.637L594.118 69.1348H582.849Z" fill="url(#paint0_linear_106_1465)"/>
</g>
<defs>
<filter id="filter0_d_106_1465" x="0.873112" y="0.872741" width="640.133" height="115.404" filterUnits="userSpaceOnUse" color-interpolation-filters="sRGB">
<feFlood flood-opacity="0" result="BackgroundImageFix"/>
<feColorMatrix in="SourceAlpha" type="matrix" values="0 0 0 0 0 0 0 0 0 0 0 0 0 0 0 0 0 0 127 0" result="hardAlpha"/>
<feOffset dy="2.77307"/>
<feGaussianBlur stdDeviation="22.1845"/>
<feComposite in2="hardAlpha" operator="out"/>
<feColorMatrix type="matrix" values="0 0 0 0 0.336111 0 0 0 0 0.00416667 0 0 0 0 1 0 0 0 1 0"/>
<feBlend mode="normal" in2="BackgroundImageFix" result="effect1_dropShadow_106_1465"/>
<feBlend mode="normal" in="SourceGraphic" in2="effect1_dropShadow_106_1465" result="shape"/>
</filter>
<linearGradient id="paint0_linear_106_1465" x1="40" y1="56.1348" x2="596" y2="56.1348" gradientUnits="userSpaceOnUse">
<stop stop-color="#B6CDFF"/>
<stop offset="1" stop-color="#FF797B"/>
</linearGradient>
</defs>
</svg>
