<svg width="375" height="1836" viewBox="0 0 375 1836" fill="none" xmlns="http://www.w3.org/2000/svg">
<g clip-path="url(#clip0_269_2578)">
<path fill-rule="evenodd" clip-rule="evenodd" d="M41.8396 0.838098C41.3365 0.838098 41.5042 1.50814 40.9172 1.34063C40.8333 1.08936 40.7495 0.921853 40.4141 0.838098C40.4141 -0.25072 41.9235 -0.25072 41.8396 0.838098Z" fill="#163C6C"/>
<path fill-rule="evenodd" clip-rule="evenodd" d="M51.9055 0.838098C51.4023 0.838098 51.57 1.50814 50.9831 1.34063C50.8992 1.08936 50.8154 0.921853 50.4799 0.838098C50.3961 -0.25072 51.9055 -0.25072 51.9055 0.838098Z" fill="#163C6C"/>
<path fill-rule="evenodd" clip-rule="evenodd" d="M62.132 0.838098C61.6289 0.838098 61.7966 1.50814 61.2096 1.34063C61.1258 1.08936 60.9581 0.921853 60.7065 0.838098C60.6226 -0.25072 62.132 -0.25072 62.132 0.838098Z" fill="#163C6C"/>
<path fill-rule="evenodd" clip-rule="evenodd" d="M72.1086 0.838098C71.6055 0.838098 71.7732 1.50814 71.1862 1.34063C71.1023 1.08936 71.0185 0.921853 70.6831 0.838098C70.5992 -0.25072 72.1086 -0.25072 72.1086 0.838098Z" fill="#163C6C"/>
<path fill-rule="evenodd" clip-rule="evenodd" d="M82.085 0.838098C81.5819 0.838098 81.7496 1.50814 81.1626 1.34063C81.0787 1.08936 80.9949 0.921853 80.6594 0.838098C80.5756 -0.25072 82.1688 -0.25072 82.085 0.838098Z" fill="#163C6C"/>
<path fill-rule="evenodd" clip-rule="evenodd" d="M92.3272 0.838098C91.824 0.838098 91.9918 1.50814 91.4048 1.34063C91.3209 1.08936 91.2371 0.921853 90.9016 0.838098C90.8178 -0.25072 92.411 -0.25072 92.3272 0.838098Z" fill="#163C6C"/>
<path fill-rule="evenodd" clip-rule="evenodd" d="M102.301 0.838098C101.797 0.838098 101.965 1.50814 101.378 1.34063C101.294 1.08936 101.21 0.921853 100.875 0.838098C100.875 -0.25072 102.384 -0.25072 102.301 0.838098Z" fill="#163C6C"/>
<path fill-rule="evenodd" clip-rule="evenodd" d="M112.527 0.838098C112.024 0.838098 112.192 1.50814 111.605 1.34063C111.521 1.08936 111.437 0.921853 111.102 0.838098C111.102 -0.25072 112.611 -0.25072 112.527 0.838098Z" fill="#163C6C"/>
<path fill-rule="evenodd" clip-rule="evenodd" d="M122.504 0.838098C122.001 0.838098 122.168 1.50814 121.581 1.34063C121.497 1.08936 121.414 0.921853 121.078 0.838098C121.078 -0.25072 122.588 -0.25072 122.504 0.838098Z" fill="#163C6C"/>
<path fill-rule="evenodd" clip-rule="evenodd" d="M132.738 0.838098C132.235 0.838098 132.403 1.50814 131.816 1.34063C131.732 1.08936 131.564 0.921853 131.312 0.838098C131.312 -0.25072 132.822 -0.25072 132.738 0.838098Z" fill="#163C6C"/>
<path fill-rule="evenodd" clip-rule="evenodd" d="M20.7047 0.167969C20.8724 0.167969 21.0401 0.167969 21.2078 0.167969C21.124 0.335479 21.2917 0.419234 21.4594 0.419234C21.4594 0.586745 21.4594 0.754255 21.4594 0.921766C21.2917 0.83801 21.2078 1.00552 21.2078 1.17303C21.0401 1.17303 20.8724 1.17303 20.7047 1.17303C20.7885 1.00552 20.6208 0.921766 20.4531 0.921766C20.4531 0.754255 20.4531 0.586745 20.4531 0.419234C20.6208 0.419234 20.7047 0.335479 20.7047 0.167969Z" fill="#163C6C"/>
<path fill-rule="evenodd" clip-rule="evenodd" d="M30.6891 0.167969C30.8568 0.167969 31.0245 0.167969 31.1922 0.167969C31.1083 0.335479 31.2761 0.419234 31.4438 0.419234C31.4438 0.586745 31.4438 0.754255 31.4438 0.921766C31.2761 0.83801 31.1922 1.00552 31.1922 1.17303C31.0245 1.17303 30.8568 1.17303 30.6891 1.17303C30.7729 1.00552 30.6052 0.921766 30.4375 0.921766C30.4375 0.754255 30.4375 0.586745 30.4375 0.419234C30.6891 0.419234 30.6891 0.335479 30.6891 0.167969Z" fill="#163C6C"/>
<path fill-rule="evenodd" clip-rule="evenodd" d="M141.798 0.167969C141.966 0.167969 142.134 0.167969 142.302 0.167969C142.218 0.335479 142.385 0.419234 142.553 0.419234C142.553 0.586745 142.553 0.754255 142.553 0.921766C142.385 0.83801 142.302 1.00552 142.302 1.17303C142.134 1.17303 141.966 1.17303 141.798 1.17303C141.882 1.00552 141.715 0.921766 141.547 0.921766C141.547 0.754255 141.547 0.586745 141.547 0.419234C141.798 0.419234 141.798 0.335479 141.798 0.167969Z" fill="#163C6C"/>
<path fill-rule="evenodd" clip-rule="evenodd" d="M151.775 0.167969C151.943 0.167969 152.11 0.167969 152.278 0.167969C152.194 0.335479 152.362 0.419234 152.53 0.419234C152.53 0.586745 152.53 0.754255 152.53 0.921766C152.362 0.83801 152.278 1.00552 152.278 1.17303C152.11 1.17303 151.943 1.17303 151.775 1.17303C151.859 1.00552 151.691 0.921766 151.523 0.921766C151.523 0.754255 151.523 0.586745 151.523 0.419234C151.775 0.419234 151.775 0.335479 151.775 0.167969Z" fill="#163C6C"/>
<path fill-rule="evenodd" clip-rule="evenodd" d="M162.002 0.167969C162.169 0.167969 162.337 0.167969 162.505 0.167969C162.421 0.335479 162.589 0.419234 162.756 0.419234C162.756 0.586745 162.756 0.754255 162.756 0.921766C162.589 0.83801 162.505 1.00552 162.505 1.17303C162.337 1.17303 162.169 1.17303 162.002 1.17303C162.085 1.00552 161.918 0.921766 161.75 0.921766C161.75 0.754255 161.75 0.586745 161.75 0.419234C162.002 0.419234 162.002 0.335479 162.002 0.167969Z" fill="#163C6C"/>
<path fill-rule="evenodd" clip-rule="evenodd" d="M172.064 0.167969C172.232 0.167969 172.399 0.167969 172.567 0.167969C172.483 0.335479 172.651 0.419234 172.819 0.419234C172.819 0.586745 172.819 0.754255 172.819 0.921766C172.651 0.83801 172.567 1.00552 172.567 1.17303C172.399 1.17303 172.232 1.17303 172.064 1.17303C172.148 1.00552 171.98 0.921766 171.812 0.921766C171.812 0.754255 171.812 0.586745 171.812 0.419234C171.98 0.419234 171.98 0.335479 172.064 0.167969Z" fill="#163C6C"/>
<path fill-rule="evenodd" clip-rule="evenodd" d="M182.298 0.167969C182.466 0.167969 182.634 0.167969 182.802 0.167969C182.718 0.335479 182.885 0.419234 183.053 0.419234C183.053 0.586745 183.053 0.754255 183.053 0.921766C182.885 0.83801 182.802 1.00552 182.802 1.17303C182.634 1.17303 182.466 1.17303 182.298 1.17303C182.382 1.00552 182.215 0.921766 182.047 0.921766C182.047 0.754255 182.047 0.586745 182.047 0.419234C182.215 0.419234 182.298 0.335479 182.298 0.167969Z" fill="#163C6C"/>
<path fill-rule="evenodd" clip-rule="evenodd" d="M192.275 0.167969C192.443 0.167969 192.61 0.167969 192.778 0.167969C192.694 0.335479 192.862 0.419234 193.03 0.419234C193.03 0.586745 193.03 0.754255 193.03 0.921766C192.862 0.83801 192.778 1.00552 192.778 1.17303C192.61 1.17303 192.443 1.17303 192.275 1.17303C192.359 1.00552 192.191 0.921766 192.023 0.921766C192.023 0.754255 192.023 0.586745 192.023 0.419234C192.191 0.419234 192.275 0.335479 192.275 0.167969Z" fill="#163C6C"/>
<path fill-rule="evenodd" clip-rule="evenodd" d="M202.509 0.167969C202.677 0.167969 202.845 0.167969 203.013 0.167969C202.929 0.335479 203.096 0.419234 203.264 0.419234C203.264 0.586745 203.264 0.754255 203.264 0.921766C203.096 0.83801 203.013 1.00552 203.013 1.17303C202.845 1.17303 202.677 1.17303 202.509 1.17303C202.593 1.00552 202.426 0.921766 202.258 0.921766C202.258 0.754255 202.258 0.586745 202.258 0.419234C202.426 0.419234 202.509 0.335479 202.509 0.167969Z" fill="#163C6C"/>
<path fill-rule="evenodd" clip-rule="evenodd" d="M212.486 0.167969C212.654 0.167969 212.821 0.167969 212.989 0.167969C212.905 0.335479 213.073 0.419234 213.241 0.419234C213.241 0.586745 213.241 0.754255 213.241 0.921766C212.989 0.83801 212.989 1.00552 212.989 1.08928C212.821 1.08928 212.654 1.08928 212.486 1.08928C212.57 0.921766 212.402 0.83801 212.234 0.83801C212.234 0.6705 212.234 0.50299 212.234 0.335479C212.486 0.419234 212.486 0.335479 212.486 0.167969Z" fill="#163C6C"/>
<path fill-rule="evenodd" clip-rule="evenodd" d="M222.462 0.167969C222.63 0.167969 222.798 0.167969 222.966 0.167969C222.882 0.335479 223.049 0.419234 223.217 0.419234C223.217 0.586745 223.217 0.754255 223.217 0.921766C223.049 0.83801 222.966 1.00552 222.966 1.17303C222.798 1.17303 222.63 1.17303 222.462 1.17303C222.546 1.00552 222.379 0.921766 222.211 0.921766C222.211 0.754255 222.211 0.586745 222.211 0.419234C222.463 0.419234 222.462 0.335479 222.462 0.167969Z" fill="#163C6C"/>
<path fill-rule="evenodd" clip-rule="evenodd" d="M232.705 0.167969C232.872 0.167969 233.04 0.167969 233.208 0.167969C233.124 0.335479 233.292 0.419234 233.459 0.419234C233.459 0.586745 233.459 0.754255 233.459 0.921766C233.292 0.83801 233.208 1.00552 233.208 1.17303C233.04 1.17303 232.872 1.17303 232.705 1.17303C232.789 1.00552 232.621 0.921766 232.453 0.921766C232.453 0.754255 232.453 0.586745 232.453 0.419234C232.705 0.419234 232.705 0.335479 232.705 0.167969Z" fill="#163C6C"/>
<path fill-rule="evenodd" clip-rule="evenodd" d="M242.681 0.167969C242.849 0.167969 243.017 0.167969 243.184 0.167969C243.101 0.335479 243.268 0.419234 243.436 0.419234C243.436 0.586745 243.436 0.754255 243.436 0.921766C243.268 0.83801 243.184 1.00552 243.184 1.08928C243.017 1.08928 242.849 1.08928 242.681 1.08928C242.765 0.921766 242.597 0.83801 242.43 0.83801C242.43 0.6705 242.43 0.50299 242.43 0.335479C242.681 0.419234 242.681 0.335479 242.681 0.167969Z" fill="#163C6C"/>
<path fill-rule="evenodd" clip-rule="evenodd" d="M252.9 0.167969C253.068 0.167969 253.235 0.167969 253.403 0.167969C253.319 0.335479 253.487 0.419234 253.655 0.419234C253.655 0.586745 253.655 0.754255 253.655 0.921766C253.487 0.83801 253.403 1.00552 253.403 1.17303C253.235 1.17303 253.068 1.17303 252.9 1.17303C252.984 1.00552 252.816 0.921766 252.648 0.921766C252.648 0.754255 252.648 0.586745 252.648 0.419234C252.9 0.419234 252.9 0.335479 252.9 0.167969Z" fill="#163C6C"/>
<path fill-rule="evenodd" clip-rule="evenodd" d="M262.963 0.167969C263.13 0.167969 263.298 0.167969 263.466 0.167969C263.382 0.335479 263.549 0.419234 263.717 0.419234C263.717 0.586745 263.717 0.754255 263.717 0.921766C263.549 0.83801 263.466 1.00552 263.466 1.17303C263.298 1.17303 263.13 1.17303 262.963 1.17303C263.046 1.00552 262.879 0.921766 262.711 0.921766C262.711 0.754255 262.711 0.586745 262.711 0.419234C262.879 0.419234 262.879 0.335479 262.963 0.167969Z" fill="#163C6C"/>
<path fill-rule="evenodd" clip-rule="evenodd" d="M283.166 0.167969C283.333 0.167969 283.501 0.167969 283.669 0.167969C283.585 0.335479 283.753 0.419234 283.92 0.419234C283.92 0.586745 283.92 0.754255 283.92 0.921766C283.753 0.83801 283.669 1.00552 283.669 1.17303C283.501 1.17303 283.333 1.17303 283.166 1.17303C283.249 1.00552 283.082 0.921766 282.914 0.921766C282.914 0.754255 282.914 0.586745 282.914 0.419234C283.082 0.419234 283.166 0.335479 283.166 0.167969Z" fill="#163C6C"/>
<path fill-rule="evenodd" clip-rule="evenodd" d="M293.15 0.167969C293.318 0.167969 293.485 0.167969 293.653 0.167969C293.653 0.335479 293.737 0.419234 293.905 0.419234C293.905 0.586745 293.905 0.754255 293.905 0.921766C293.737 0.83801 293.653 1.00552 293.653 1.17303C293.485 1.17303 293.318 1.17303 293.15 1.17303C293.234 1.00552 293.066 0.921766 292.898 0.921766C292.898 0.754255 292.898 0.586745 292.898 0.419234C293.15 0.419234 293.15 0.335479 293.15 0.167969Z" fill="#163C6C"/>
<path fill-rule="evenodd" clip-rule="evenodd" d="M40.6689 9.46502C41.759 9.04624 42.6814 9.46502 42.8492 10.6376C43.3523 14.8253 36.8116 10.8051 40.6689 9.46502Z" fill="#163C6C"/>
<path fill-rule="evenodd" clip-rule="evenodd" d="M50.6455 9.46502C51.7356 9.04624 52.658 9.46502 52.8257 10.6376C53.3288 14.8253 46.7882 10.8051 50.6455 9.46502Z" fill="#163C6C"/>
<path fill-rule="evenodd" clip-rule="evenodd" d="M60.872 9.46502C61.9622 9.04624 62.8846 9.46502 63.0523 10.6376C63.5554 14.8253 57.0147 10.8051 60.872 9.46502Z" fill="#163C6C"/>
<path fill-rule="evenodd" clip-rule="evenodd" d="M70.9402 9.46502C72.0304 9.04624 72.9528 9.46502 73.1205 10.6376C73.5397 14.8253 66.9991 10.8051 70.9402 9.46502Z" fill="#163C6C"/>
<path fill-rule="evenodd" clip-rule="evenodd" d="M80.9136 9.46502C82.0037 9.04624 82.9261 9.46502 83.0938 10.6376C83.5131 14.8253 77.0563 10.8051 80.9136 9.46502Z" fill="#163C6C"/>
<path fill-rule="evenodd" clip-rule="evenodd" d="M91.1402 9.46502C92.2303 9.04624 93.1527 9.46502 93.3204 10.6376C93.7397 14.8253 87.2828 10.8051 91.1402 9.46502Z" fill="#163C6C"/>
<path fill-rule="evenodd" clip-rule="evenodd" d="M101.377 9.46458C102.216 9.29707 102.803 9.54833 103.054 9.96711C104.731 12.6473 100.119 13.3173 99.9516 11.1397C99.8677 10.3859 99.7839 9.7996 101.377 9.46458Z" fill="#163C6C"/>
<path fill-rule="evenodd" clip-rule="evenodd" d="M111.604 9.46458C112.442 9.29707 113.029 9.54833 113.281 9.96711C114.958 12.6473 110.346 13.3173 110.178 11.1397C110.094 10.3859 110.01 9.7996 111.604 9.46458Z" fill="#163C6C"/>
<path fill-rule="evenodd" clip-rule="evenodd" d="M30.4345 9.63195C30.9377 9.46444 32.1116 9.04566 32.3632 10.5533C32.8663 13.9035 27.0803 11.0558 30.4345 9.63195Z" fill="#163C6C"/>
<path fill-rule="evenodd" clip-rule="evenodd" d="M121.084 9.63415C122.174 8.96411 123.096 9.71791 123.264 10.3879C124.103 13.5706 118.317 12.1468 121.084 9.63415Z" fill="#163C6C"/>
<path fill-rule="evenodd" clip-rule="evenodd" d="M131.31 9.63415C132.4 8.96411 133.323 9.71791 133.491 10.3879C134.329 13.5706 128.543 12.1468 131.31 9.63415Z" fill="#163C6C"/>
<path fill-rule="evenodd" clip-rule="evenodd" d="M141.374 9.63415C142.464 8.96411 143.386 9.71791 143.554 10.3879C144.309 13.5706 138.523 12.1468 141.374 9.63415Z" fill="#163C6C"/>
<path fill-rule="evenodd" clip-rule="evenodd" d="M151.601 9.63195C152.104 9.46444 153.278 9.04566 153.53 10.5533C153.949 13.9035 148.247 11.0558 151.601 9.63195Z" fill="#163C6C"/>
<path fill-rule="evenodd" clip-rule="evenodd" d="M161.835 9.63195C162.338 9.46444 163.512 9.04566 163.764 10.5533C164.183 13.9035 158.481 11.0558 161.835 9.63195Z" fill="#163C6C"/>
<path fill-rule="evenodd" clip-rule="evenodd" d="M173.742 10.6377C173.574 11.6427 173.071 12.1453 172.065 12.3128C171.645 11.9778 171.226 11.559 170.891 11.1402C170.974 9.21383 173.155 9.13008 173.742 10.6377Z" fill="#163C6C"/>
<path fill-rule="evenodd" clip-rule="evenodd" d="M183.719 10.1352C183.97 11.6428 183.3 12.3128 181.79 12.0616C180.197 10.8052 182.461 8.54385 183.719 10.1352Z" fill="#163C6C"/>
<path fill-rule="evenodd" clip-rule="evenodd" d="M193.703 10.1352C193.955 11.6428 193.284 12.3128 191.775 12.0616C190.181 10.8052 192.445 8.54385 193.703 10.1352Z" fill="#163C6C"/>
<path fill-rule="evenodd" clip-rule="evenodd" d="M201.744 11.8082C200.905 10.4681 202.247 9.12803 203.672 9.88183C204.511 11.3057 203.169 12.6457 201.744 11.8082Z" fill="#163C6C"/>
<path fill-rule="evenodd" clip-rule="evenodd" d="M213.903 11.0552C213.4 12.144 211.974 12.144 211.555 11.0552C211.555 9.38005 213.903 9.38005 213.903 11.0552Z" fill="#163C6C"/>
<path fill-rule="evenodd" clip-rule="evenodd" d="M223.887 11.0552C223.384 12.144 221.958 12.144 221.539 11.0552C221.539 9.38005 223.887 9.38005 223.887 11.0552Z" fill="#163C6C"/>
<path fill-rule="evenodd" clip-rule="evenodd" d="M21.8819 10.136C21.8819 10.6386 21.8819 11.0573 21.8819 11.5599C21.5465 11.8949 20.8756 11.8111 20.2048 11.8111C19.1985 10.6386 20.7079 9.13096 21.8819 10.136Z" fill="#163C6C"/>
<path fill-rule="evenodd" clip-rule="evenodd" d="M233.879 10.136C233.879 10.6386 233.879 11.0573 233.879 11.5599C233.544 11.8949 232.873 11.8111 232.202 11.8111C231.279 10.6386 232.705 9.13096 233.879 10.136Z" fill="#163C6C"/>
<path fill-rule="evenodd" clip-rule="evenodd" d="M243.921 10.6367C244.005 11.5581 243.502 11.8931 242.496 11.8093C242.412 11.5581 242.328 11.3905 241.993 11.3068C241.573 9.79919 243.67 9.46417 243.921 10.6367Z" fill="#163C6C"/>
<path fill-rule="evenodd" clip-rule="evenodd" d="M254.156 10.6367C254.24 11.5581 253.737 11.8931 252.73 11.8093C252.646 11.5581 252.563 11.3905 252.227 11.3068C251.808 9.79919 253.904 9.46417 254.156 10.6367Z" fill="#163C6C"/>
<path fill-rule="evenodd" clip-rule="evenodd" d="M262.211 11.0554C264.81 13.568 263.636 7.62142 262.211 11.0554Z" fill="#163C6C"/>
<path fill-rule="evenodd" clip-rule="evenodd" d="M10.2218 10.3861C11.8989 9.12981 11.5635 12.7313 9.97025 11.3074C9.97025 10.9724 9.8864 10.3861 10.2218 10.3861Z" fill="#163C6C"/>
<path fill-rule="evenodd" clip-rule="evenodd" d="M272.683 10.3861C274.36 9.12981 274.024 12.7313 272.431 11.3074C272.431 10.9724 272.347 10.3861 272.683 10.3861Z" fill="#163C6C"/>
<path fill-rule="evenodd" clip-rule="evenodd" d="M282.917 10.3861C284.594 9.12981 284.259 12.7313 282.666 11.3074C282.666 10.9724 282.582 10.3861 282.917 10.3861Z" fill="#163C6C"/>
<path fill-rule="evenodd" clip-rule="evenodd" d="M292.908 10.3861C294.585 9.12981 294.249 12.7313 292.656 11.3074C292.74 10.9724 292.572 10.3861 292.908 10.3861Z" fill="#163C6C"/>
<path fill-rule="evenodd" clip-rule="evenodd" d="M303.127 10.3861C304.804 9.12981 304.468 12.7313 302.875 11.3074C302.959 10.9724 302.791 10.3861 303.127 10.3861Z" fill="#163C6C"/>
<path fill-rule="evenodd" clip-rule="evenodd" d="M314.366 11.0549C313.863 11.0549 314.031 11.7249 313.444 11.5574C313.36 11.3062 313.192 11.1386 312.941 11.0549C312.857 9.96608 314.366 9.96608 314.366 11.0549Z" fill="#163C6C"/>
<path fill-rule="evenodd" clip-rule="evenodd" d="M324.601 11.0549C324.098 11.0549 324.265 11.7249 323.678 11.5574C323.595 11.3062 323.427 11.1386 323.175 11.0549C323.091 9.96608 324.601 9.96608 324.601 11.0549Z" fill="#163C6C"/>
<path fill-rule="evenodd" clip-rule="evenodd" d="M333.58 10.3867C333.747 10.3867 333.915 10.3867 334.083 10.3867C333.999 10.5542 334.167 10.638 334.334 10.638C334.334 10.8055 334.334 10.973 334.334 11.1405C334.167 11.0568 334.083 11.2243 334.083 11.3918C333.915 11.3918 333.747 11.3918 333.58 11.3918C333.664 11.2243 333.496 11.1405 333.328 11.1405C333.328 10.973 333.328 10.8055 333.328 10.638C333.58 10.638 333.58 10.5542 333.58 10.3867Z" fill="#163C6C"/>
<path fill-rule="evenodd" clip-rule="evenodd" d="M343.627 10.3867C343.794 10.3867 343.962 10.3867 344.13 10.3867C344.046 10.5542 344.214 10.638 344.381 10.638C344.381 10.8055 344.381 10.973 344.381 11.1405C344.214 11.0568 344.13 11.2243 344.13 11.3918C343.962 11.3918 343.794 11.3918 343.627 11.3918C343.71 11.2243 343.543 11.1405 343.375 11.1405C343.375 10.973 343.375 10.8055 343.375 10.638C343.543 10.638 343.543 10.5542 343.627 10.3867Z" fill="#163C6C"/>
<path fill-rule="evenodd" clip-rule="evenodd" d="M50.6435 18.2584C54.1654 17.5883 55.2556 23.4512 51.3982 23.7025C48.2956 23.87 46.7862 18.9284 50.6435 18.2584Z" fill="#163C6C"/>
<path fill-rule="evenodd" clip-rule="evenodd" d="M61.1214 18.2582C62.5469 18.0907 64.1402 19.2633 64.224 20.6033C64.4756 24.5398 58.6896 24.1211 58.5219 21.1059C58.438 19.347 59.1927 18.5095 61.1214 18.2582Z" fill="#163C6C"/>
<path fill-rule="evenodd" clip-rule="evenodd" d="M40.25 18.4274C42.598 17.5899 43.6042 18.8462 43.8558 20.1025C44.6105 24.039 39.2438 24.6253 38.6568 21.5264C38.1537 19.5163 38.9084 18.93 40.25 18.4274Z" fill="#163C6C"/>
<path fill-rule="evenodd" clip-rule="evenodd" d="M73.277 18.6791C75.4572 21.1918 72.5223 24.9608 69.5035 22.9506C68.6649 22.0293 68.5811 20.0192 69.2519 18.9304C70.0905 18.0928 72.1868 18.0091 73.277 18.6791Z" fill="#163C6C"/>
<path fill-rule="evenodd" clip-rule="evenodd" d="M80.4127 18.4274C82.7606 17.5899 83.7669 18.8462 84.0184 20.1025C84.7731 24.039 79.4064 24.6253 78.8194 21.5264C78.4001 19.5163 79.071 18.93 80.4127 18.4274Z" fill="#163C6C"/>
<path fill-rule="evenodd" clip-rule="evenodd" d="M90.647 18.4274C92.995 17.5899 94.0012 18.8462 94.2528 20.1025C95.0075 24.039 89.6408 24.6253 89.0538 21.5264C88.6345 19.5163 89.3054 18.93 90.647 18.4274Z" fill="#163C6C"/>
<path fill-rule="evenodd" clip-rule="evenodd" d="M100.868 18.4256C103.132 17.8393 104.054 18.9282 104.222 20.352C104.725 24.0372 99.1907 24.7073 99.023 21.1058C98.8553 19.3469 99.3584 18.8444 100.868 18.4256Z" fill="#163C6C"/>
<path fill-rule="evenodd" clip-rule="evenodd" d="M111.108 18.4268C112.953 17.9243 114.295 18.7619 114.463 20.6045C114.882 27.3886 104.735 20.2694 111.108 18.4268Z" fill="#163C6C"/>
<path fill-rule="evenodd" clip-rule="evenodd" d="M121.589 18.426C124.356 18.091 125.279 22.1112 123.015 23.2001C119.828 24.6239 117.313 19.0123 121.589 18.426Z" fill="#163C6C"/>
<path fill-rule="evenodd" clip-rule="evenodd" d="M30.186 18.68C32.2824 18.0099 33.2048 19.1825 33.2887 20.6063C33.5402 23.7053 28.7605 24.3753 28.5089 21.1089C28.4251 19.7688 28.9282 19.0988 30.186 18.68Z" fill="#163C6C"/>
<path fill-rule="evenodd" clip-rule="evenodd" d="M131.15 18.6773C132.576 18.0911 134.085 18.5936 134.505 19.8499C135.679 23.7027 129.138 24.7077 129.725 20.3524C129.725 19.9337 129.893 19.1799 131.15 18.6773Z" fill="#163C6C"/>
<path fill-rule="evenodd" clip-rule="evenodd" d="M141.38 18.6781C143.476 18.0081 144.315 19.1806 144.482 20.3532C145.405 26.8024 135.51 20.5207 141.38 18.6781Z" fill="#163C6C"/>
<path fill-rule="evenodd" clip-rule="evenodd" d="M151.35 18.68C153.446 18.0099 154.369 19.1825 154.453 20.6063C154.704 23.7053 149.925 24.3753 149.673 21.1089C149.589 19.7688 150.092 19.0988 151.35 18.68Z" fill="#163C6C"/>
<path fill-rule="evenodd" clip-rule="evenodd" d="M164.179 19.4326C164.598 20.2701 164.514 21.9452 163.927 22.5315C163.089 23.2853 160.909 23.1178 160.322 22.2803C158.812 19.4326 162.418 17.5062 164.179 19.4326Z" fill="#163C6C"/>
<path fill-rule="evenodd" clip-rule="evenodd" d="M171.308 18.9285C173.069 18.1747 174.159 19.1797 174.411 19.8498C176.255 25.1263 166.277 22.2787 171.308 18.9285Z" fill="#163C6C"/>
<path fill-rule="evenodd" clip-rule="evenodd" d="M181.801 18.9287C183.813 18.1749 184.568 19.2638 184.652 20.6039C185.071 26.0479 176.853 20.6876 181.801 18.9287Z" fill="#163C6C"/>
<path fill-rule="evenodd" clip-rule="evenodd" d="M192.273 18.9291C194.201 18.5941 195.375 21.2743 193.95 22.5306C191.769 24.2895 188.08 19.6829 192.273 18.9291Z" fill="#163C6C"/>
<path fill-rule="evenodd" clip-rule="evenodd" d="M20.7037 19.1817C22.1292 18.9304 22.7162 19.6842 22.8839 20.6055C23.3032 25.5471 15.5885 20.1868 20.7037 19.1817Z" fill="#163C6C"/>
<path fill-rule="evenodd" clip-rule="evenodd" d="M201.753 19.1812C201.92 18.6787 203.094 19.0975 203.681 18.93C206.532 20.7726 202.675 24.6253 200.83 21.7776C200.663 20.4376 200.914 19.4325 201.753 19.1812Z" fill="#163C6C"/>
<path fill-rule="evenodd" clip-rule="evenodd" d="M211.978 19.1811C212.565 18.9298 213.068 18.8461 213.403 18.9298C216.841 19.8512 212.062 25.5465 210.804 21.5263C210.301 19.8512 210.972 19.5999 211.978 19.1811Z" fill="#163C6C"/>
<path fill-rule="evenodd" clip-rule="evenodd" d="M222.465 19.1817C223.891 18.9304 224.478 19.6842 224.646 20.6055C225.149 25.5471 217.35 20.1868 222.465 19.1817Z" fill="#163C6C"/>
<path fill-rule="evenodd" clip-rule="evenodd" d="M234.364 19.6835C235.538 21.7774 233.106 23.4525 231.513 22.0287C230.339 19.9348 232.77 18.2597 234.364 19.6835Z" fill="#163C6C"/>
<path fill-rule="evenodd" clip-rule="evenodd" d="M242.503 19.4318C243.593 19.013 244.515 19.4318 244.683 20.6044C245.102 24.7921 238.562 20.7719 242.503 19.4318Z" fill="#163C6C"/>
<path fill-rule="evenodd" clip-rule="evenodd" d="M252.895 19.4314C253.734 19.2639 254.321 19.5151 254.572 19.9339C256.249 22.6141 251.637 23.2841 251.47 21.1065C251.47 20.3527 251.386 19.7664 252.895 19.4314Z" fill="#163C6C"/>
<path fill-rule="evenodd" clip-rule="evenodd" d="M262.716 19.6808C263.219 19.5133 264.393 19.0945 264.644 20.6021C265.148 23.8685 259.362 21.0209 262.716 19.6808Z" fill="#163C6C"/>
<path fill-rule="evenodd" clip-rule="evenodd" d="M274.617 20.6045C274.449 21.6095 273.946 22.1121 272.94 22.2796C272.52 21.9446 272.101 21.5258 271.766 21.107C271.849 19.1806 274.03 19.0969 274.617 20.6045Z" fill="#163C6C"/>
<path fill-rule="evenodd" clip-rule="evenodd" d="M282.423 21.775C281.585 20.4349 282.927 19.0948 284.352 19.8486C285.191 21.2725 283.849 22.6125 282.423 21.775Z" fill="#163C6C"/>
<path fill-rule="evenodd" clip-rule="evenodd" d="M11.6553 20.1009C11.6553 20.6034 11.6553 21.0222 11.6553 21.5247C11.3199 21.8597 10.6491 21.776 9.97821 21.776C8.97195 20.6034 10.4813 19.0958 11.6553 20.1009Z" fill="#163C6C"/>
<path fill-rule="evenodd" clip-rule="evenodd" d="M294.324 20.1009C294.324 20.6034 294.324 21.0222 294.324 21.5247C293.989 21.8597 293.318 21.776 292.647 21.776C291.725 20.6034 293.15 19.0958 294.324 20.1009Z" fill="#163C6C"/>
<path fill-rule="evenodd" clip-rule="evenodd" d="M304.562 20.6055C304.646 21.5268 304.143 21.8618 303.137 21.7781C303.053 21.5268 302.885 21.3593 302.633 21.2755C302.214 19.7679 304.31 19.4329 304.562 20.6055Z" fill="#163C6C"/>
<path fill-rule="evenodd" clip-rule="evenodd" d="M312.695 21.1072C315.295 23.5361 314.121 17.6732 312.695 21.1072Z" fill="#163C6C"/>
<path fill-rule="evenodd" clip-rule="evenodd" d="M323.338 20.3529C325.015 19.0966 324.679 22.6981 323.086 21.2742C323.17 20.9392 323.002 20.4367 323.338 20.3529Z" fill="#163C6C"/>
<path fill-rule="evenodd" clip-rule="evenodd" d="M334.577 21.1079C334.074 21.1079 334.242 21.778 333.655 21.6105C333.571 21.3592 333.487 21.1917 333.152 21.1079C333.068 19.9354 334.577 19.9354 334.577 21.1079Z" fill="#163C6C"/>
<path fill-rule="evenodd" clip-rule="evenodd" d="M343.627 20.3516C343.794 20.3516 343.962 20.3516 344.13 20.3516C344.046 20.5191 344.214 20.6028 344.381 20.6028C344.381 20.7703 344.381 20.9379 344.381 21.1054C344.214 21.0216 344.13 21.1891 344.13 21.3566C343.962 21.3566 343.794 21.3566 343.627 21.3566C343.71 21.1891 343.543 21.1054 343.375 21.1054C343.375 20.9379 343.375 20.7703 343.375 20.6028C343.543 20.6028 343.543 20.5191 343.627 20.3516Z" fill="#163C6C"/>
<path fill-rule="evenodd" clip-rule="evenodd" d="M50.4776 27.4726C53.4964 26.97 54.922 28.6451 55.0058 30.8228C55.2574 35.9318 47.375 36.2668 47.375 31.074C47.375 28.8964 48.3813 27.8913 50.4776 27.4726Z" fill="#163C6C"/>
<path fill-rule="evenodd" clip-rule="evenodd" d="M60.7042 27.4726C63.723 26.97 65.1485 28.6451 65.2324 30.8228C65.4839 35.9318 57.6016 36.2668 57.6016 31.074C57.6016 28.8964 58.6078 27.8913 60.7042 27.4726Z" fill="#163C6C"/>
<path fill-rule="evenodd" clip-rule="evenodd" d="M70.9328 27.47C72.2745 27.3025 73.5323 27.6375 74.287 28.3913C79.0667 33.6679 67.6624 37.8557 67.6624 30.9877C67.5786 29.1451 68.3333 27.8888 70.9328 27.47Z" fill="#163C6C"/>
<path fill-rule="evenodd" clip-rule="evenodd" d="M39.9894 27.7246C42.9244 26.887 44.3499 28.3109 44.7692 29.9022C46.1947 35.5138 36.7191 37.0214 37.6415 30.4048C37.7253 29.3997 38.3123 28.2271 39.9894 27.7246Z" fill="#163C6C"/>
<path fill-rule="evenodd" clip-rule="evenodd" d="M80.1572 27.723C82.9245 26.9692 85.7755 28.7281 84.937 32.2458C83.9307 36.2661 76.4676 35.5123 77.8093 29.9007C77.977 29.3144 78.7317 28.1418 80.1572 27.723Z" fill="#163C6C"/>
<path fill-rule="evenodd" clip-rule="evenodd" d="M90.3879 27.7246C93.3228 26.887 94.7483 28.3109 95.1676 29.9022C96.5931 35.5138 87.1175 37.0214 88.0399 30.4048C88.2076 29.3997 88.7108 28.2271 90.3879 27.7246Z" fill="#163C6C"/>
<path fill-rule="evenodd" clip-rule="evenodd" d="M100.621 27.7213C103.556 26.9675 104.897 28.5588 105.149 30.3177C105.904 35.4267 97.4344 36.6831 98.0214 30.5689C98.1052 29.3964 98.7761 28.2238 100.621 27.7213Z" fill="#163C6C"/>
<path fill-rule="evenodd" clip-rule="evenodd" d="M111.356 27.7238C116.807 26.8863 116.136 34.5917 111.859 34.5917C108.169 34.5917 106.744 28.4776 111.356 27.7238Z" fill="#163C6C"/>
<path fill-rule="evenodd" clip-rule="evenodd" d="M120.654 27.9735C122.75 27.3034 124.679 28.0572 125.182 29.8998C126.524 35.2602 116.797 36.6002 118.558 29.8998C118.642 29.2298 119.396 28.3922 120.654 27.9735Z" fill="#163C6C"/>
<path fill-rule="evenodd" clip-rule="evenodd" d="M131.148 27.9739C133.915 27.2201 135.257 28.7277 135.425 30.5703C135.928 35.0931 128.465 36.2656 128.8 30.8215C128.8 29.5652 129.387 28.4764 131.148 27.9739Z" fill="#163C6C"/>
<path fill-rule="evenodd" clip-rule="evenodd" d="M141.379 27.9758C144.062 27.3895 145.32 28.8971 145.404 30.8235C145.655 35.2625 138.779 35.765 138.779 31.0747C138.695 29.2321 139.534 28.3946 141.379 27.9758Z" fill="#163C6C"/>
<path fill-rule="evenodd" clip-rule="evenodd" d="M29.7632 28.2243C32.4465 27.303 34.7945 29.4806 34.0398 32.2445C33.0335 35.7623 27.1637 34.4222 27.8345 30.3182C27.9184 29.7319 28.0861 28.8106 29.7632 28.2243Z" fill="#163C6C"/>
<path fill-rule="evenodd" clip-rule="evenodd" d="M150.849 28.2243C153.532 27.303 155.88 29.4806 155.126 32.2445C154.119 35.7623 148.25 34.4222 148.92 30.3182C149.088 29.7319 149.172 28.8106 150.849 28.2243Z" fill="#163C6C"/>
<path fill-rule="evenodd" clip-rule="evenodd" d="M161.591 28.2269C163.184 27.8918 164.442 28.3944 164.945 29.1482C168.215 34.0897 159.243 36.2674 159.243 31.0745C159.159 29.8182 159.327 28.7294 161.591 28.2269Z" fill="#163C6C"/>
<path fill-rule="evenodd" clip-rule="evenodd" d="M171.818 28.2264C174.082 27.8076 175.256 29.2315 175.424 30.8228C175.676 34.9268 169.219 35.2618 169.219 31.0741C169.219 29.4827 170.141 28.4777 171.818 28.2264Z" fill="#163C6C"/>
<path fill-rule="evenodd" clip-rule="evenodd" d="M181.539 28.4781C183.048 28.0593 184.139 28.4781 184.642 28.9806C189.002 33.3359 178.94 36.7698 179.61 30.6557C179.694 30.0694 179.61 29.0643 181.539 28.4781Z" fill="#163C6C"/>
<path fill-rule="evenodd" clip-rule="evenodd" d="M191.779 28.4792C196.559 27.2229 195.888 33.9233 192.533 33.9233C190.102 33.9233 188.089 29.4005 191.779 28.4792Z" fill="#163C6C"/>
<path fill-rule="evenodd" clip-rule="evenodd" d="M201.749 28.6442C204.097 27.8067 205.103 29.063 205.354 30.3193C206.109 34.2558 200.742 34.8421 200.155 31.7432C199.736 29.7331 200.407 29.1468 201.749 28.6442Z" fill="#163C6C"/>
<path fill-rule="evenodd" clip-rule="evenodd" d="M211.983 28.6436C213.828 28.1411 215.17 28.9786 215.338 30.8213C215.757 37.6054 205.61 30.4862 211.983 28.6436Z" fill="#163C6C"/>
<path fill-rule="evenodd" clip-rule="evenodd" d="M19.9551 28.8941C21.3806 28.3079 22.89 28.8104 23.3093 30.0667C24.4833 33.9195 17.9426 34.9245 18.5296 30.5692C18.6134 30.1505 18.7811 29.3967 19.9551 28.8941Z" fill="#163C6C"/>
<path fill-rule="evenodd" clip-rule="evenodd" d="M221.791 28.8941C223.217 28.3079 224.726 28.8104 225.145 30.0667C226.319 33.9195 219.779 34.9245 220.365 30.5692C220.365 30.1505 220.617 29.3967 221.791 28.8941Z" fill="#163C6C"/>
<path fill-rule="evenodd" clip-rule="evenodd" d="M232.278 28.8968C234.374 28.2268 235.213 29.3994 235.381 30.572C236.303 37.0211 226.408 30.7395 232.278 28.8968Z" fill="#163C6C"/>
<path fill-rule="evenodd" clip-rule="evenodd" d="M244.859 29.6513C245.278 30.4889 245.194 32.164 244.607 32.7503C243.769 33.5041 241.588 33.3366 241.001 32.499C239.492 29.6513 243.098 27.725 244.859 29.6513Z" fill="#163C6C"/>
<path fill-rule="evenodd" clip-rule="evenodd" d="M252.48 29.1494C254.493 28.3957 255.248 29.4845 255.332 30.8246C255.751 36.2686 247.533 30.9083 252.48 29.1494Z" fill="#163C6C"/>
<path fill-rule="evenodd" clip-rule="evenodd" d="M262.214 29.4C262.382 28.8975 263.556 29.3162 264.143 29.1487C266.994 30.9913 263.137 34.8441 261.292 31.9964C261.124 30.6563 261.292 29.6512 262.214 29.4Z" fill="#163C6C"/>
<path fill-rule="evenodd" clip-rule="evenodd" d="M272.7 29.3982C276.641 28.2256 274.544 35.1773 271.777 32.4972C270.855 31.6596 271.19 29.817 272.7 29.3982Z" fill="#163C6C"/>
<path fill-rule="evenodd" clip-rule="evenodd" d="M284.856 29.9003C286.03 31.9942 283.598 33.6693 282.005 32.2455C280.747 30.1516 283.262 28.4765 284.856 29.9003Z" fill="#163C6C"/>
<path fill-rule="evenodd" clip-rule="evenodd" d="M293.158 29.6501C293.997 29.4826 294.584 29.7339 294.835 30.1527C296.513 32.8328 291.901 33.5029 291.733 31.3252C291.649 30.5714 291.565 29.9851 293.158 29.6501Z" fill="#163C6C"/>
<path fill-rule="evenodd" clip-rule="evenodd" d="M10.2158 29.9034C10.7189 29.7359 11.8929 29.3171 12.1445 30.8247C12.6476 34.1749 6.86159 31.2435 10.2158 29.9034Z" fill="#163C6C"/>
<path fill-rule="evenodd" clip-rule="evenodd" d="M303.13 29.9034C303.633 29.7359 304.807 29.3171 305.059 30.8247C305.562 34.1749 299.776 31.2435 303.13 29.9034Z" fill="#163C6C"/>
<path fill-rule="evenodd" clip-rule="evenodd" d="M314.778 30.3188C315.029 31.8264 314.358 32.4964 312.849 32.2452C311.34 30.9888 313.52 28.7274 314.778 30.3188Z" fill="#163C6C"/>
<path fill-rule="evenodd" clip-rule="evenodd" d="M324.77 30.3216C324.77 30.8241 324.77 31.2429 324.77 31.7454C324.434 32.0804 323.763 31.9967 323.093 31.9967C322.17 30.8241 323.596 29.3165 324.77 30.3216Z" fill="#163C6C"/>
<path fill-rule="evenodd" clip-rule="evenodd" d="M332.891 31.324C335.49 33.7529 334.316 27.89 332.891 31.324Z" fill="#163C6C"/>
<path fill-rule="evenodd" clip-rule="evenodd" d="M343.386 30.5697C345.063 29.3134 344.728 32.9149 343.134 31.491C343.134 31.156 343.05 30.6535 343.386 30.5697Z" fill="#163C6C"/>
<path fill-rule="evenodd" clip-rule="evenodd" d="M354.788 31.3247C354.285 31.3247 354.453 31.9948 353.866 31.8273C353.782 31.576 353.698 31.4085 353.363 31.3247C353.279 30.1522 354.788 30.1522 354.788 31.3247Z" fill="#163C6C"/>
<path fill-rule="evenodd" clip-rule="evenodd" d="M0.501565 30.5723C0.669276 30.5723 0.836986 30.5723 1.0047 30.5723C0.920841 30.7398 1.08855 30.8235 1.25626 30.8235C1.25626 30.991 1.25626 31.1586 1.25626 31.3261C1.08855 31.2423 1.0047 31.4098 1.0047 31.5773C0.836986 31.5773 0.669276 31.5773 0.501565 31.5773C0.58542 31.4098 0.41771 31.3261 0.25 31.3261C0.25 31.1586 0.25 30.991 0.25 30.8235C0.41771 30.8235 0.501565 30.7398 0.501565 30.5723Z" fill="#163C6C"/>
<path fill-rule="evenodd" clip-rule="evenodd" d="M40.408 36.7678C47.368 35.5952 46.6133 45.5621 41.1627 45.5621C36.2991 45.5621 34.8736 37.6891 40.408 36.7678Z" fill="#163C6C"/>
<path fill-rule="evenodd" clip-rule="evenodd" d="M49.9761 36.7697C57.6069 35.0109 57.2715 46.9041 49.9761 45.564C46.7896 44.9777 44.4416 38.026 49.9761 36.7697Z" fill="#163C6C"/>
<path fill-rule="evenodd" clip-rule="evenodd" d="M60.2032 36.77C62.7189 36.1837 64.983 37.1887 65.6538 39.1151C68.8403 47.4069 54.8365 47.3231 57.1006 39.6176C57.436 38.5288 57.6037 37.3563 60.2032 36.77Z" fill="#163C6C"/>
<path fill-rule="evenodd" clip-rule="evenodd" d="M70.4325 36.7698C77.644 35.2622 76.9732 45.5641 71.3549 45.5641C66.7428 45.5641 64.8142 37.9424 70.4325 36.7698Z" fill="#163C6C"/>
<path fill-rule="evenodd" clip-rule="evenodd" d="M80.6613 36.7694C87.1181 35.7643 87.4536 45.3124 81.5837 45.5637C76.6363 45.7312 74.9591 37.6907 80.6613 36.7694Z" fill="#163C6C"/>
<path fill-rule="evenodd" clip-rule="evenodd" d="M90.1386 37.0206C98.0209 34.7592 97.1824 47.0712 90.1386 45.3123C87.6229 44.726 85.4427 38.3606 90.1386 37.0206Z" fill="#163C6C"/>
<path fill-rule="evenodd" clip-rule="evenodd" d="M100.456 37.0205C108.087 35.0941 107.08 46.7361 100.456 45.3123C97.6047 44.726 95.4244 38.2768 100.456 37.0205Z" fill="#163C6C"/>
<path fill-rule="evenodd" clip-rule="evenodd" d="M110.855 37.019C117.815 35.5114 117.06 45.3108 111.777 45.3108C107.584 45.3108 105.572 38.1078 110.855 37.019Z" fill="#163C6C"/>
<path fill-rule="evenodd" clip-rule="evenodd" d="M121.576 37.0217C126.356 36.6029 127.698 43.7221 123.254 45.0622C117.887 46.7373 114.952 37.6079 121.576 37.0217Z" fill="#163C6C"/>
<path fill-rule="evenodd" clip-rule="evenodd" d="M130.887 37.2731C139.776 35.0118 135.499 49.7527 129.21 44.1411C126.862 42.0472 127.701 38.0269 130.887 37.2731Z" fill="#163C6C"/>
<path fill-rule="evenodd" clip-rule="evenodd" d="M141.384 37.2704C144.403 36.6841 146.08 38.6105 146.164 40.8719C146.415 46.316 138.114 46.5672 138.114 41.1232C138.03 38.778 139.204 37.6054 141.384 37.2704Z" fill="#163C6C"/>
<path fill-rule="evenodd" clip-rule="evenodd" d="M29.7682 37.4389C35.1349 36.0151 36.6443 43.8043 32.1162 44.8094C27.3364 45.8982 24.7369 38.8627 29.7682 37.4389Z" fill="#163C6C"/>
<path fill-rule="evenodd" clip-rule="evenodd" d="M150.849 37.4389C156.215 36.0151 157.725 43.8043 153.197 44.8094C148.417 45.8982 145.901 38.8627 150.849 37.4389Z" fill="#163C6C"/>
<path fill-rule="evenodd" clip-rule="evenodd" d="M161.579 37.4393C164.598 36.9368 166.024 38.6119 166.107 40.7896C166.359 45.8986 158.477 46.2336 158.477 41.0408C158.477 38.8632 159.483 37.8581 161.579 37.4393Z" fill="#163C6C"/>
<path fill-rule="evenodd" clip-rule="evenodd" d="M171.06 37.6914C173.995 36.8538 175.42 38.2777 175.839 39.869C177.265 45.4806 167.789 46.9882 168.712 40.3716C168.88 39.3665 169.383 38.1939 171.06 37.6914Z" fill="#163C6C"/>
<path fill-rule="evenodd" clip-rule="evenodd" d="M181.796 37.6892C184.647 37.1029 185.989 38.6943 186.073 40.7882C186.325 45.5622 178.945 45.981 178.945 41.0394C178.945 39.1131 179.868 38.108 181.796 37.6892Z" fill="#163C6C"/>
<path fill-rule="evenodd" clip-rule="evenodd" d="M191.271 37.9422C193.368 37.2722 195.296 38.026 195.799 39.8686C197.141 45.2289 187.414 46.569 189.175 39.8686C189.343 39.1985 190.013 38.361 191.271 37.9422Z" fill="#163C6C"/>
<path fill-rule="evenodd" clip-rule="evenodd" d="M201.998 37.9407C204.681 37.3544 205.939 38.862 206.023 40.7883C206.275 45.2274 199.398 45.7299 199.398 41.0396C199.398 39.197 200.153 38.3594 201.998 37.9407Z" fill="#163C6C"/>
<path fill-rule="evenodd" clip-rule="evenodd" d="M211.568 38.193C214.251 37.2717 216.599 39.4494 215.844 42.2133C214.838 45.731 208.968 44.3909 209.639 40.2869C209.723 39.7006 209.891 38.7793 211.568 38.193Z" fill="#163C6C"/>
<path fill-rule="evenodd" clip-rule="evenodd" d="M222.209 38.1912C224.473 37.7725 225.647 39.1963 225.815 40.7877C226.066 44.8917 219.609 45.2267 219.609 41.0389C219.609 39.4476 220.616 38.5263 222.209 38.1912Z" fill="#163C6C"/>
<path fill-rule="evenodd" clip-rule="evenodd" d="M19.7841 38.4447C21.6289 37.7746 23.3898 38.3609 23.8091 39.8685C25.2347 44.6425 16.346 45.8151 18.107 39.8685C18.2747 39.2822 18.8617 38.7797 19.7841 38.4447Z" fill="#163C6C"/>
<path fill-rule="evenodd" clip-rule="evenodd" d="M232.023 38.4449C233.533 38.0261 234.623 38.4449 235.126 38.9474C239.487 43.3027 229.424 46.7366 230.095 40.6225C230.179 40.0362 230.095 39.0311 232.023 38.4449Z" fill="#163C6C"/>
<path fill-rule="evenodd" clip-rule="evenodd" d="M242.668 38.4437C244.093 38.2762 245.687 39.4488 245.77 40.7889C246.022 44.7254 240.236 44.3066 240.068 41.2914C239.984 39.5326 240.823 38.695 242.668 38.4437Z" fill="#163C6C"/>
<path fill-rule="evenodd" clip-rule="evenodd" d="M252.479 38.6964C254.324 38.1938 255.666 39.0314 255.833 40.874C256.253 47.5744 246.022 40.4552 252.479 38.6964Z" fill="#163C6C"/>
<path fill-rule="evenodd" clip-rule="evenodd" d="M262.205 38.8629C263.631 38.2766 265.14 38.7791 265.559 40.0355C266.733 43.8882 260.193 44.8933 260.78 40.538C260.863 40.1192 261.031 39.3654 262.205 38.8629Z" fill="#163C6C"/>
<path fill-rule="evenodd" clip-rule="evenodd" d="M272.686 38.8611C274.112 38.526 275.37 39.0286 275.538 40.7874C275.789 44.2214 270.758 44.0539 270.758 41.0387C270.758 40.2849 271.009 39.2798 272.686 38.8611Z" fill="#163C6C"/>
<path fill-rule="evenodd" clip-rule="evenodd" d="M282.67 39.1143C284.683 38.3605 285.437 39.4493 285.521 40.7894C286.024 46.2335 277.807 40.8732 282.67 39.1143Z" fill="#163C6C"/>
<path fill-rule="evenodd" clip-rule="evenodd" d="M292.65 39.3647C293.237 39.1134 293.74 39.0297 294.075 39.1134C297.513 40.0347 292.734 45.7301 291.476 41.7098C290.973 40.0347 291.643 39.7835 292.65 39.3647Z" fill="#163C6C"/>
<path fill-rule="evenodd" clip-rule="evenodd" d="M9.97681 39.6187C11.2346 39.0324 12.2409 39.6187 12.3247 40.7912C12.9117 44.8953 6.53875 41.2938 9.97681 39.6187Z" fill="#163C6C"/>
<path fill-rule="evenodd" clip-rule="evenodd" d="M302.71 39.6168C303.465 38.9468 304.974 39.5331 305.309 40.1194C306.399 44.7259 299.44 42.0457 302.71 39.6168Z" fill="#163C6C"/>
<path fill-rule="evenodd" clip-rule="evenodd" d="M313.106 39.6174C314.197 39.1986 315.119 39.6174 315.287 40.7899C315.79 44.9777 309.249 41.0412 313.106 39.6174Z" fill="#163C6C"/>
<path fill-rule="evenodd" clip-rule="evenodd" d="M323.338 39.8683C323.841 39.7008 325.015 39.282 325.267 40.7896C325.77 44.1398 320.068 41.2921 323.338 39.8683Z" fill="#163C6C"/>
<path fill-rule="evenodd" clip-rule="evenodd" d="M332.908 41.9625C332.069 40.6224 333.411 39.2823 334.836 40.0361C335.591 41.46 334.249 42.8 332.908 41.9625Z" fill="#163C6C"/>
<path fill-rule="evenodd" clip-rule="evenodd" d="M344.804 40.7891C344.888 41.7104 344.385 42.0454 343.379 41.9617C343.295 41.7104 343.127 41.5429 342.876 41.4591C342.456 39.9515 344.553 39.6165 344.804 40.7891Z" fill="#163C6C"/>
<path fill-rule="evenodd" clip-rule="evenodd" d="M353.612 40.5404C355.29 39.2841 354.954 42.8856 353.361 41.4617C353.361 41.1267 353.277 40.6242 353.612 40.5404Z" fill="#163C6C"/>
<path fill-rule="evenodd" clip-rule="evenodd" d="M0.501565 40.5371C0.669276 40.5371 0.836986 40.5371 1.0047 40.5371C0.920841 40.7046 1.08855 40.7884 1.25626 40.7884C1.25626 40.9559 1.25626 41.1234 1.25626 41.2909C1.08855 41.2071 1.0047 41.3747 1.0047 41.5422C0.836986 41.5422 0.669276 41.5422 0.501565 41.5422C0.58542 41.3747 0.41771 41.2909 0.25 41.2909C0.25 41.1234 0.25 40.9559 0.25 40.7884C0.41771 40.8721 0.501565 40.7046 0.501565 40.5371Z" fill="#163C6C"/>
<path fill-rule="evenodd" clip-rule="evenodd" d="M363.845 40.5371C364.013 40.5371 364.181 40.5371 364.348 40.5371C364.265 40.7046 364.432 40.7884 364.6 40.7884C364.6 40.9559 364.6 41.1234 364.6 41.2909C364.432 41.2071 364.348 41.3747 364.348 41.5422C364.181 41.5422 364.013 41.5422 363.845 41.5422C363.929 41.3747 363.761 41.2909 363.594 41.2909C363.594 41.1234 363.594 40.9559 363.594 40.7884C363.761 40.8721 363.845 40.7046 363.845 40.5371Z" fill="#163C6C"/>
<path fill-rule="evenodd" clip-rule="evenodd" d="M56.1829 49.8363C56.9376 45.0622 65.2393 44.5597 66.4132 49.3338C67.5872 44.8947 75.4696 44.811 76.392 49.585C77.2305 48.7475 77.1467 47.8262 77.8175 47.2399C83.5197 41.8795 90.5635 53.019 83.2681 55.7829C84.4421 56.6205 85.9515 57.2067 86.3708 58.8819C87.5447 57.8768 88.2156 56.2854 90.1442 56.0342C89.138 55.1129 88.2156 55.0291 87.5447 54.1078C82.5973 47.4074 95.5948 42.047 96.6011 50.5063C97.9428 41.4608 111.192 48.4962 105.154 54.5266C104.483 55.1966 103.729 55.4479 102.303 55.6991C104.232 56.5367 106.244 57.2905 106.58 59.7194C107.586 55.1129 115.972 54.6941 116.81 59.7194C118.99 51.8464 131.233 58.7143 125.615 64.7447C124.944 65.4985 124.189 65.5823 123.015 66.1686C127.963 67.0899 127.963 75.2141 123.015 76.1354C120.332 76.638 117.649 75.2141 117.062 72.3664C116.139 77.1405 107.67 77.643 106.831 72.3664C106.328 76.973 97.8589 77.8943 96.8526 73.1202C95.6787 77.308 87.964 77.7268 86.6223 73.3715C85.7838 77.2242 78.0691 77.978 76.6436 74.1253C75.3857 75.2979 74.3795 76.638 72.3669 76.973C77.3983 77.8105 76.8113 86.4373 70.9414 86.0185C66.3294 85.6835 65.3231 78.2293 70.4383 77.2242C69.0966 76.3867 67.2518 75.9679 66.6648 74.3766C65.407 75.2979 64.6523 76.8055 62.6398 76.973C63.9814 77.8105 65.2393 78.3968 65.7424 79.5694C69.0127 88.0287 54.0865 87.6099 57.1892 79.5694C57.6084 78.4806 58.5309 77.8105 60.2918 77.2242C58.7824 76.5542 57.3569 75.7166 56.5183 74.3766C55.3444 75.3816 54.5058 76.7217 52.5771 76.8892C56.8538 78.1455 56.3506 85.181 52.3256 85.9348C46.7073 87.0236 44.2755 79.1506 49.7261 77.1405C48.3005 76.3867 46.7911 75.8004 46.1203 74.2928C43.6885 77.8943 35.89 77.2242 35.6384 72.1152C34.3806 77.643 26.1628 76.5542 26.1628 71.1939C26.1628 66.1686 34.2129 64.4934 35.4707 70.2726C36.3093 68.8487 36.8124 67.0061 38.5733 66.5036C37.3994 65.331 35.9738 64.4934 35.7223 62.4833C33.2066 70.2726 21.97 63.0696 27.6722 57.7093C30.0201 55.5316 35.0514 56.6205 35.5546 60.0544C36.3931 58.2956 37.2317 56.5367 39.328 56.0342C32.9551 53.2702 37.7348 42.8008 44.1078 46.7373C45.0302 47.3236 45.4495 48.2449 46.0364 49.585C46.7911 44.8947 55.6798 44.476 56.1829 49.8363ZM93.0792 56.0342C95.0078 56.3692 95.8464 57.793 96.8526 59.1331C97.3558 57.2067 99.2006 56.5367 100.878 55.7829C98.2782 55.5316 97.1881 53.689 96.6011 51.5114C96.3495 53.9403 94.7563 55.0291 93.0792 56.0342ZM53.7511 55.7829C54.9251 56.2017 55.6798 57.0392 56.3506 57.9605C57.0215 56.9555 58.0277 56.3692 58.9501 55.6154C57.4407 55.0291 56.7699 53.689 56.0991 52.2652C56.0152 54.024 54.7574 54.6941 53.7511 55.7829ZM43.1015 56.0342C44.6109 56.2017 44.9463 57.5418 46.2042 57.9605C46.4557 56.6205 47.8813 56.4529 48.5521 55.6154C47.2104 55.1129 46.7073 53.6053 45.9526 52.5165C45.6172 54.2753 44.0239 54.7778 43.1015 56.0342ZM73.5409 55.7829C74.9665 56.2854 75.7212 57.3743 76.6436 58.3793C77.1467 57.123 78.153 56.3692 79.4946 56.0342C78.3207 54.9454 77.0628 54.024 76.392 52.4327C75.805 53.9403 74.8826 55.0291 73.5409 55.7829ZM63.8137 55.7829C65.407 55.8667 65.6585 57.9605 66.6648 57.9605C67.5034 57.9605 68.0065 55.8667 69.2643 55.6154C67.6711 55.3641 67.2518 53.8565 66.4132 52.7677C65.9101 54.1078 64.82 54.8616 63.8137 55.7829ZM103.477 66.5036C105.406 66.9223 106.077 68.5137 106.831 70.105C107.251 68.1787 108.676 67.1736 110.186 66.3361C108.425 65.666 107.502 64.2422 106.58 62.7346C106.412 64.7447 104.735 65.331 103.477 66.5036ZM113.54 66.5036C115.552 66.8386 116.139 68.5974 117.146 70.105C117.481 67.9274 119.074 67.0899 120.751 66.3361C118.823 65.7498 117.733 64.4934 116.978 62.7346C116.391 64.661 114.798 65.331 113.54 66.5036ZM94.0016 66.5036C95.4271 66.9223 96.0141 68.2624 96.8526 69.3513C97.1881 67.6761 98.5297 67.0899 99.7037 66.2523C98.2782 65.7498 97.3558 64.5772 96.6011 63.4046C96.2656 64.9122 94.8401 65.4148 94.0016 66.5036ZM84.0228 66.5036C85.4483 66.7548 85.8676 68.1787 86.6223 69.1C87.1254 67.8437 88.2156 67.0899 89.2218 66.2523C87.964 65.666 87.377 64.4934 86.3708 63.6559C86.1192 65.0797 84.7775 65.4985 84.0228 66.5036ZM74.4633 66.5036C75.4696 66.8386 75.7212 67.9274 76.6436 68.4299C77.0628 67.4249 77.9852 66.9223 78.8238 66.2523C77.7337 65.8335 77.1467 64.9122 76.4758 64.0747C76.1404 65.2472 74.9665 65.4985 74.4633 66.5036ZM43.7724 66.5036C44.9463 66.6711 45.0302 67.9274 46.1203 68.1787C46.3719 67.3411 47.1266 67.0061 47.5458 66.2523C46.7073 65.9173 46.5396 64.9122 45.6172 64.5772C45.2818 65.4148 44.3593 65.7498 43.7724 66.5036ZM56.4345 68.0949C58.1954 66.8386 58.1954 65.5823 56.1829 64.4934C54.7574 66.0848 54.6735 66.8386 56.4345 68.0949ZM66.6648 68.0949C67.0002 67.1736 67.8388 66.9223 68.3419 66.1686C67.5872 65.7498 67.2518 64.9122 66.4132 64.4934C64.6523 65.8335 64.6523 67.0061 66.6648 68.0949Z" fill="#163C6C"/>
<path fill-rule="evenodd" clip-rule="evenodd" d="M110.687 46.4838C118.318 44.7249 118.15 57.1207 110.687 55.7806C106.41 55.0268 105.488 47.6564 110.687 46.4838Z" fill="#163C6C"/>
<path fill-rule="evenodd" clip-rule="evenodd" d="M120.913 46.4865C127.873 45.1464 128.292 55.5321 122.087 55.7833C116.72 55.9508 115.211 47.5753 120.913 46.4865Z" fill="#163C6C"/>
<path fill-rule="evenodd" clip-rule="evenodd" d="M30.6847 46.7351C34.7098 46.4838 36.8061 51.8442 34.0389 54.3568C28.3368 59.4659 22.2992 47.3214 30.6847 46.7351Z" fill="#163C6C"/>
<path fill-rule="evenodd" clip-rule="evenodd" d="M130.635 46.7373C137.427 44.8947 138.433 54.4428 133.486 55.5316C130.719 56.2016 126.358 54.7778 127.532 49.585C127.7 48.7474 128.874 47.2398 130.635 46.7373Z" fill="#163C6C"/>
<path fill-rule="evenodd" clip-rule="evenodd" d="M141.128 46.7366C148.339 45.229 147.668 55.5309 142.05 55.5309C137.438 55.5309 135.509 47.9092 141.128 46.7366Z" fill="#163C6C"/>
<path fill-rule="evenodd" clip-rule="evenodd" d="M151.78 46.7351C155.722 46.4838 157.902 51.8442 155.135 54.3568C149.432 59.4659 143.479 47.3214 151.78 46.7351Z" fill="#163C6C"/>
<path fill-rule="evenodd" clip-rule="evenodd" d="M161.34 46.987C168.384 45.5631 167.629 55.53 162.094 55.2787C157.986 55.1112 156.057 48.0758 161.34 46.987Z" fill="#163C6C"/>
<path fill-rule="evenodd" clip-rule="evenodd" d="M172.061 46.9865C176.841 46.5677 178.182 53.6869 173.738 55.027C168.371 56.7021 165.436 47.5728 172.061 46.9865Z" fill="#163C6C"/>
<path fill-rule="evenodd" clip-rule="evenodd" d="M181.536 47.239C187.406 45.9827 188.245 54.6932 182.962 55.112C178.853 55.3633 176.086 48.4116 181.536 47.239Z" fill="#163C6C"/>
<path fill-rule="evenodd" clip-rule="evenodd" d="M191.106 47.4884C194.208 46.4833 197.395 48.5772 196.305 52.5137C195.131 56.869 187.165 55.1939 188.674 49.666C188.925 48.7447 189.932 47.8234 191.106 47.4884Z" fill="#163C6C"/>
<path fill-rule="evenodd" clip-rule="evenodd" d="M202.001 47.4901C205.02 46.9876 206.445 48.6627 206.529 50.8403C206.781 55.9494 198.898 56.2844 198.898 51.0916C198.898 48.914 199.989 47.8251 202.001 47.4901Z" fill="#163C6C"/>
<path fill-rule="evenodd" clip-rule="evenodd" d="M211.56 47.6562C214.495 46.8187 215.92 48.2425 216.339 49.8339C217.765 55.4455 208.289 56.9531 209.212 50.3364C209.296 49.3313 209.883 48.1588 211.56 47.6562Z" fill="#163C6C"/>
<path fill-rule="evenodd" clip-rule="evenodd" d="M222.208 47.6574C227.658 46.8198 226.987 54.5253 222.711 54.5253C219.021 54.6091 217.596 48.4112 222.208 47.6574Z" fill="#163C6C"/>
<path fill-rule="evenodd" clip-rule="evenodd" d="M19.9449 47.9094C22.7121 47.1556 24.0538 48.6632 24.2215 50.5058C24.7246 55.0286 17.2615 56.2012 17.5969 50.7571C17.6808 49.5845 18.2678 48.4119 19.9449 47.9094Z" fill="#163C6C"/>
<path fill-rule="evenodd" clip-rule="evenodd" d="M232.023 47.9094C234.79 47.1556 236.132 48.6632 236.3 50.5058C236.803 55.0286 229.34 56.2012 229.675 50.7571C229.675 49.5845 230.262 48.4119 232.023 47.9094Z" fill="#163C6C"/>
<path fill-rule="evenodd" clip-rule="evenodd" d="M241.748 48.1598C244.431 47.2385 246.779 49.4162 246.024 52.1801C245.018 55.6978 239.148 54.3577 239.819 50.2537C239.987 49.6674 240.07 48.7461 241.748 48.1598Z" fill="#163C6C"/>
<path fill-rule="evenodd" clip-rule="evenodd" d="M252.737 48.158C255.001 47.7393 256.175 49.1631 256.343 50.7544C256.595 54.8585 250.138 55.1935 250.138 51.0057C250.054 49.4144 251.06 48.4931 252.737 48.158Z" fill="#163C6C"/>
<path fill-rule="evenodd" clip-rule="evenodd" d="M262.464 48.4126C264.979 47.8263 266.069 49.0827 266.069 51.009C266.069 54.5267 260.367 55.113 260.367 51.009C260.283 49.5852 260.87 48.8314 262.464 48.4126Z" fill="#163C6C"/>
<path fill-rule="evenodd" clip-rule="evenodd" d="M272.194 48.6618C274.542 47.8243 275.548 49.0806 275.8 50.3369C276.554 54.2734 271.188 54.8597 270.601 51.7608C270.181 49.7506 270.852 49.0806 272.194 48.6618Z" fill="#163C6C"/>
<path fill-rule="evenodd" clip-rule="evenodd" d="M282.416 48.9137C283.842 48.3274 285.351 48.8299 285.77 50.0862C286.944 53.939 280.404 54.944 280.99 50.5888C281.074 50.0862 281.242 49.3324 282.416 48.9137Z" fill="#163C6C"/>
<path fill-rule="evenodd" clip-rule="evenodd" d="M292.897 48.9138C294.323 48.5788 295.581 49.0813 295.749 50.8402C296 54.2741 290.969 54.1066 290.969 51.0914C290.969 50.2539 291.22 49.2488 292.897 48.9138Z" fill="#163C6C"/>
<path fill-rule="evenodd" clip-rule="evenodd" d="M302.881 49.0811C304.894 48.3273 305.648 49.4161 305.732 50.7562C306.235 56.2003 298.017 50.8399 302.881 49.0811Z" fill="#163C6C"/>
<path fill-rule="evenodd" clip-rule="evenodd" d="M9.97007 49.3335C10.5571 49.0822 11.0602 48.9984 11.3956 49.0822C14.8337 50.0035 10.0539 55.6989 8.7961 51.6786C8.29297 50.0035 8.96381 49.7522 9.97007 49.3335Z" fill="#163C6C"/>
<path fill-rule="evenodd" clip-rule="evenodd" d="M312.95 49.3335C313.537 49.0822 314.04 48.9984 314.376 49.0822C317.814 50.0035 313.034 55.6989 311.776 51.6786C311.189 50.0035 311.944 49.7522 312.95 49.3335Z" fill="#163C6C"/>
<path fill-rule="evenodd" clip-rule="evenodd" d="M325.27 49.8339C326.444 51.9278 324.012 53.6029 322.419 52.1791C321.245 50.0852 323.677 48.4101 325.27 49.8339Z" fill="#163C6C"/>
<path fill-rule="evenodd" clip-rule="evenodd" d="M333.155 49.8353C334.245 49.1653 335.167 49.9191 335.335 50.5891C336.174 53.6881 330.304 52.348 333.155 49.8353Z" fill="#163C6C"/>
<path fill-rule="evenodd" clip-rule="evenodd" d="M345.063 50.3381C345.314 51.8457 344.643 52.5157 343.134 52.2645C341.541 50.9244 343.805 48.7468 345.063 50.3381Z" fill="#163C6C"/>
<path fill-rule="evenodd" clip-rule="evenodd" d="M355.031 50.7571C355.115 51.6784 354.612 52.0134 353.605 51.9297C353.521 51.6784 353.438 51.5109 353.102 51.4272C352.683 49.9196 354.779 49.6683 355.031 50.7571Z" fill="#163C6C"/>
<path fill-rule="evenodd" clip-rule="evenodd" d="M1.42092 51.2603C0.917793 51.2603 1.0855 51.9303 0.498517 51.7628C0.414662 51.5116 0.330807 51.344 -0.00461345 51.2603C-0.0884686 50.0877 1.50478 50.0877 1.42092 51.2603Z" fill="#163C6C"/>
<path fill-rule="evenodd" clip-rule="evenodd" d="M363.589 50.5053C365.266 49.2489 364.931 52.8504 363.337 51.4266C363.337 51.0916 363.254 50.589 363.589 50.5053Z" fill="#163C6C"/>
<path fill-rule="evenodd" clip-rule="evenodd" d="M374.064 50.5059C374.232 50.5059 374.4 50.5059 374.567 50.5059C374.483 50.6734 374.651 50.7571 374.819 50.7571C374.819 50.9246 374.819 51.0921 374.819 51.2597C374.651 51.1759 374.567 51.3434 374.567 51.5109C374.4 51.5109 374.232 51.5109 374.064 51.5109C374.148 51.3434 373.98 51.2597 373.812 51.2597C373.812 51.0921 373.812 50.9246 373.812 50.7571C373.98 50.8409 374.064 50.6734 374.064 50.5059Z" fill="#163C6C"/>
</g>
<g clip-path="url(#clip1_269_2578)">
<rect width="375" height="1784" transform="translate(0 52)" fill="#163C6C"/>
<g clip-path="url(#clip2_269_2578)">
<path fill-rule="evenodd" clip-rule="evenodd" d="M37.3697 1774.99C36.776 1774.99 36.9739 1775.78 36.2812 1775.58C36.1823 1775.29 36.0833 1775.09 35.6875 1774.99C35.6875 1773.71 37.4687 1773.71 37.3697 1774.99Z" fill="white"/>
<path fill-rule="evenodd" clip-rule="evenodd" d="M49.2409 1774.99C48.6472 1774.99 48.8451 1775.78 48.1524 1775.58C48.0534 1775.29 47.9545 1775.09 47.5587 1774.99C47.4597 1773.71 49.2409 1773.71 49.2409 1774.99Z" fill="white"/>
<path fill-rule="evenodd" clip-rule="evenodd" d="M61.319 1774.99C60.7253 1774.99 60.9232 1775.78 60.2305 1775.58C60.1316 1775.29 59.9337 1775.09 59.6368 1774.99C59.5378 1773.71 61.319 1773.71 61.319 1774.99Z" fill="white"/>
<path fill-rule="evenodd" clip-rule="evenodd" d="M73.1003 1774.99C72.5065 1774.99 72.7045 1775.78 72.0118 1775.58C71.9128 1775.29 71.8139 1775.09 71.418 1774.99C71.3191 1773.71 73.1003 1773.71 73.1003 1774.99Z" fill="white"/>
<path fill-rule="evenodd" clip-rule="evenodd" d="M84.8735 1774.99C84.2798 1774.99 84.4777 1775.78 83.785 1775.58C83.6861 1775.29 83.5871 1775.09 83.1913 1774.99C83.0923 1773.71 84.9725 1773.71 84.8735 1774.99Z" fill="white"/>
<path fill-rule="evenodd" clip-rule="evenodd" d="M96.9438 1774.99C96.3501 1774.99 96.548 1775.78 95.8553 1775.58C95.7564 1775.29 95.6574 1775.09 95.2616 1774.99C95.1626 1773.71 97.0428 1773.71 96.9438 1774.99Z" fill="white"/>
<path fill-rule="evenodd" clip-rule="evenodd" d="M108.713 1774.99C108.12 1774.99 108.318 1775.78 107.625 1775.58C107.526 1775.29 107.427 1775.09 107.031 1774.99C107.031 1773.71 108.812 1773.71 108.713 1774.99Z" fill="white"/>
<path fill-rule="evenodd" clip-rule="evenodd" d="M120.784 1774.99C120.19 1774.99 120.388 1775.78 119.695 1775.58C119.596 1775.29 119.497 1775.09 119.102 1774.99C119.102 1773.71 120.883 1773.71 120.784 1774.99Z" fill="white"/>
<path fill-rule="evenodd" clip-rule="evenodd" d="M132.565 1774.99C131.971 1774.99 132.169 1775.78 131.477 1775.58C131.378 1775.29 131.279 1775.09 130.883 1774.99C130.883 1773.71 132.664 1773.71 132.565 1774.99Z" fill="white"/>
<path fill-rule="evenodd" clip-rule="evenodd" d="M144.628 1774.99C144.034 1774.99 144.232 1775.78 143.539 1775.58C143.44 1775.29 143.242 1775.09 142.945 1774.99C142.945 1773.71 144.727 1773.71 144.628 1774.99Z" fill="white"/>
<path fill-rule="evenodd" clip-rule="evenodd" d="M12.4297 1774.2C12.6276 1774.2 12.8255 1774.2 13.0234 1774.2C12.9245 1774.4 13.1224 1774.5 13.3203 1774.5C13.3203 1774.7 13.3203 1774.89 13.3203 1775.09C13.1224 1774.99 13.0234 1775.19 13.0234 1775.39C12.8255 1775.39 12.6276 1775.39 12.4297 1775.39C12.5286 1775.19 12.3307 1775.09 12.1328 1775.09C12.1328 1774.89 12.1328 1774.7 12.1328 1774.5C12.3307 1774.5 12.4297 1774.4 12.4297 1774.2Z" fill="white"/>
<path fill-rule="evenodd" clip-rule="evenodd" d="M24.2031 1774.2C24.401 1774.2 24.5989 1774.2 24.7968 1774.2C24.6979 1774.4 24.8958 1774.5 25.0937 1774.5C25.0937 1774.7 25.0937 1774.89 25.0937 1775.09C24.8958 1774.99 24.7968 1775.19 24.7968 1775.39C24.5989 1775.39 24.401 1775.39 24.2031 1775.39C24.3021 1775.19 24.1042 1775.09 23.9062 1775.09C23.9062 1774.89 23.9062 1774.7 23.9062 1774.5C24.2031 1774.5 24.2031 1774.4 24.2031 1774.2Z" fill="white"/>
<path fill-rule="evenodd" clip-rule="evenodd" d="M155.328 1774.2C155.526 1774.2 155.724 1774.2 155.922 1774.2C155.823 1774.4 156.021 1774.5 156.219 1774.5C156.219 1774.7 156.219 1774.89 156.219 1775.09C156.021 1774.99 155.922 1775.19 155.922 1775.39C155.724 1775.39 155.526 1775.39 155.328 1775.39C155.427 1775.19 155.229 1775.09 155.031 1775.09C155.031 1774.89 155.031 1774.7 155.031 1774.5C155.328 1774.5 155.328 1774.4 155.328 1774.2Z" fill="white"/>
<path fill-rule="evenodd" clip-rule="evenodd" d="M167.102 1774.2C167.299 1774.2 167.497 1774.2 167.695 1774.2C167.596 1774.4 167.794 1774.5 167.992 1774.5C167.992 1774.7 167.992 1774.89 167.992 1775.09C167.794 1774.99 167.695 1775.19 167.695 1775.39C167.497 1775.39 167.299 1775.39 167.102 1775.39C167.201 1775.19 167.003 1775.09 166.805 1775.09C166.805 1774.89 166.805 1774.7 166.805 1774.5C167.102 1774.5 167.102 1774.4 167.102 1774.2Z" fill="white"/>
<path fill-rule="evenodd" clip-rule="evenodd" d="M179.172 1774.2C179.37 1774.2 179.568 1774.2 179.766 1774.2C179.667 1774.4 179.865 1774.5 180.062 1774.5C180.062 1774.7 180.062 1774.89 180.062 1775.09C179.865 1774.99 179.766 1775.19 179.766 1775.39C179.568 1775.39 179.37 1775.39 179.172 1775.39C179.271 1775.19 179.073 1775.09 178.875 1775.09C178.875 1774.89 178.875 1774.7 178.875 1774.5C179.172 1774.5 179.172 1774.4 179.172 1774.2Z" fill="white"/>
<path fill-rule="evenodd" clip-rule="evenodd" d="M191.039 1774.2C191.237 1774.2 191.435 1774.2 191.633 1774.2C191.534 1774.4 191.732 1774.5 191.93 1774.5C191.93 1774.7 191.93 1774.89 191.93 1775.09C191.732 1774.99 191.633 1775.19 191.633 1775.39C191.435 1775.39 191.237 1775.39 191.039 1775.39C191.138 1775.19 190.94 1775.09 190.742 1775.09C190.742 1774.89 190.742 1774.7 190.742 1774.5C190.94 1774.5 190.94 1774.4 191.039 1774.2Z" fill="white"/>
<path fill-rule="evenodd" clip-rule="evenodd" d="M203.117 1774.2C203.315 1774.2 203.513 1774.2 203.711 1774.2C203.612 1774.4 203.81 1774.5 204.008 1774.5C204.008 1774.7 204.008 1774.89 204.008 1775.09C203.81 1774.99 203.711 1775.19 203.711 1775.39C203.513 1775.39 203.315 1775.39 203.117 1775.39C203.216 1775.19 203.018 1775.09 202.82 1775.09C202.82 1774.89 202.82 1774.7 202.82 1774.5C203.018 1774.5 203.117 1774.4 203.117 1774.2Z" fill="white"/>
<path fill-rule="evenodd" clip-rule="evenodd" d="M214.891 1774.2C215.089 1774.2 215.286 1774.2 215.484 1774.2C215.385 1774.4 215.583 1774.5 215.781 1774.5C215.781 1774.7 215.781 1774.89 215.781 1775.09C215.583 1774.99 215.484 1775.19 215.484 1775.39C215.286 1775.39 215.089 1775.39 214.891 1775.39C214.99 1775.19 214.792 1775.09 214.594 1775.09C214.594 1774.89 214.594 1774.7 214.594 1774.5C214.792 1774.5 214.891 1774.4 214.891 1774.2Z" fill="white"/>
<path fill-rule="evenodd" clip-rule="evenodd" d="M226.961 1774.2C227.159 1774.2 227.357 1774.2 227.555 1774.2C227.456 1774.4 227.654 1774.5 227.852 1774.5C227.852 1774.7 227.852 1774.89 227.852 1775.09C227.654 1774.99 227.555 1775.19 227.555 1775.39C227.357 1775.39 227.159 1775.39 226.961 1775.39C227.06 1775.19 226.862 1775.09 226.664 1775.09C226.664 1774.89 226.664 1774.7 226.664 1774.5C226.862 1774.5 226.961 1774.4 226.961 1774.2Z" fill="white"/>
<path fill-rule="evenodd" clip-rule="evenodd" d="M238.742 1774.2C238.94 1774.2 239.138 1774.2 239.336 1774.2C239.237 1774.4 239.435 1774.5 239.633 1774.5C239.633 1774.7 239.633 1774.89 239.633 1775.09C239.336 1774.99 239.336 1775.19 239.336 1775.29C239.138 1775.29 238.94 1775.29 238.742 1775.29C238.841 1775.09 238.643 1774.99 238.445 1774.99C238.445 1774.79 238.445 1774.6 238.445 1774.4C238.742 1774.5 238.742 1774.4 238.742 1774.2Z" fill="white"/>
<path fill-rule="evenodd" clip-rule="evenodd" d="M250.516 1774.2C250.714 1774.2 250.911 1774.2 251.109 1774.2C251.01 1774.4 251.208 1774.5 251.406 1774.5C251.406 1774.7 251.406 1774.89 251.406 1775.09C251.208 1774.99 251.109 1775.19 251.109 1775.39C250.911 1775.39 250.714 1775.39 250.516 1775.39C250.615 1775.19 250.417 1775.09 250.219 1775.09C250.219 1774.89 250.219 1774.7 250.219 1774.5C250.516 1774.5 250.516 1774.4 250.516 1774.2Z" fill="white"/>
<path fill-rule="evenodd" clip-rule="evenodd" d="M262.586 1774.2C262.784 1774.2 262.982 1774.2 263.18 1774.2C263.081 1774.4 263.279 1774.5 263.477 1774.5C263.477 1774.7 263.477 1774.89 263.477 1775.09C263.279 1774.99 263.18 1775.19 263.18 1775.39C262.982 1775.39 262.784 1775.39 262.586 1775.39C262.685 1775.19 262.487 1775.09 262.289 1775.09C262.289 1774.89 262.289 1774.7 262.289 1774.5C262.586 1774.5 262.586 1774.4 262.586 1774.2Z" fill="white"/>
<path fill-rule="evenodd" clip-rule="evenodd" d="M274.367 1774.2C274.565 1774.2 274.763 1774.2 274.961 1774.2C274.862 1774.4 275.06 1774.5 275.258 1774.5C275.258 1774.7 275.258 1774.89 275.258 1775.09C275.06 1774.99 274.961 1775.19 274.961 1775.29C274.763 1775.29 274.565 1775.29 274.367 1775.29C274.466 1775.09 274.268 1774.99 274.07 1774.99C274.07 1774.79 274.07 1774.6 274.07 1774.4C274.367 1774.5 274.367 1774.4 274.367 1774.2Z" fill="white"/>
<path fill-rule="evenodd" clip-rule="evenodd" d="M286.43 1774.2C286.628 1774.2 286.826 1774.2 287.023 1774.2C286.924 1774.4 287.122 1774.5 287.32 1774.5C287.32 1774.7 287.32 1774.89 287.32 1775.09C287.122 1774.99 287.023 1775.19 287.023 1775.39C286.826 1775.39 286.628 1775.39 286.43 1775.39C286.529 1775.19 286.331 1775.09 286.133 1775.09C286.133 1774.89 286.133 1774.7 286.133 1774.5C286.43 1774.5 286.43 1774.4 286.43 1774.2Z" fill="white"/>
<path fill-rule="evenodd" clip-rule="evenodd" d="M298.313 1774.2C298.51 1774.2 298.708 1774.2 298.906 1774.2C298.807 1774.4 299.005 1774.5 299.203 1774.5C299.203 1774.7 299.203 1774.89 299.203 1775.09C299.005 1774.99 298.906 1775.19 298.906 1775.39C298.708 1775.39 298.51 1775.39 298.313 1775.39C298.411 1775.19 298.214 1775.09 298.016 1775.09C298.016 1774.89 298.016 1774.7 298.016 1774.5C298.214 1774.5 298.214 1774.4 298.313 1774.2Z" fill="white"/>
<path fill-rule="evenodd" clip-rule="evenodd" d="M322.156 1774.2C322.354 1774.2 322.552 1774.2 322.75 1774.2C322.651 1774.4 322.849 1774.5 323.047 1774.5C323.047 1774.7 323.047 1774.89 323.047 1775.09C322.849 1774.99 322.75 1775.19 322.75 1775.39C322.552 1775.39 322.354 1775.39 322.156 1775.39C322.255 1775.19 322.057 1775.09 321.859 1775.09C321.859 1774.89 321.859 1774.7 321.859 1774.5C322.057 1774.5 322.156 1774.4 322.156 1774.2Z" fill="white"/>
<path fill-rule="evenodd" clip-rule="evenodd" d="M333.938 1774.2C334.135 1774.2 334.333 1774.2 334.531 1774.2C334.531 1774.4 334.63 1774.5 334.828 1774.5C334.828 1774.7 334.828 1774.89 334.828 1775.09C334.63 1774.99 334.531 1775.19 334.531 1775.39C334.333 1775.39 334.135 1775.39 333.938 1775.39C334.036 1775.19 333.839 1775.09 333.641 1775.09C333.641 1774.89 333.641 1774.7 333.641 1774.5C333.937 1774.5 333.938 1774.4 333.938 1774.2Z" fill="white"/>
<path fill-rule="evenodd" clip-rule="evenodd" d="M35.9752 1785.17C37.2616 1784.68 38.3501 1785.17 38.548 1786.56C39.1418 1791.5 31.4233 1786.75 35.9752 1785.17Z" fill="white"/>
<path fill-rule="evenodd" clip-rule="evenodd" d="M47.7564 1785.17C49.0429 1784.68 50.1314 1785.17 50.3293 1786.56C50.923 1791.5 43.2045 1786.75 47.7564 1785.17Z" fill="white"/>
<path fill-rule="evenodd" clip-rule="evenodd" d="M59.8346 1785.17C61.121 1784.68 62.2095 1785.17 62.4074 1786.56C63.0011 1791.5 55.2826 1786.75 59.8346 1785.17Z" fill="white"/>
<path fill-rule="evenodd" clip-rule="evenodd" d="M71.7077 1785.17C72.9941 1784.68 74.0826 1785.17 74.2805 1786.56C74.7753 1791.5 67.0568 1786.75 71.7077 1785.17Z" fill="white"/>
<path fill-rule="evenodd" clip-rule="evenodd" d="M83.4795 1785.17C84.766 1784.68 85.8545 1785.17 86.0524 1786.56C86.5472 1791.5 78.9276 1786.75 83.4795 1785.17Z" fill="white"/>
<path fill-rule="evenodd" clip-rule="evenodd" d="M95.5499 1785.17C96.8363 1784.68 97.9248 1785.17 98.1227 1786.56C98.6175 1791.5 90.9979 1786.75 95.5499 1785.17Z" fill="white"/>
<path fill-rule="evenodd" clip-rule="evenodd" d="M107.617 1785.17C108.607 1784.98 109.299 1785.27 109.596 1785.77C111.575 1788.93 106.133 1789.72 105.935 1787.15C105.836 1786.26 105.737 1785.57 107.617 1785.17Z" fill="white"/>
<path fill-rule="evenodd" clip-rule="evenodd" d="M119.695 1785.17C120.685 1784.98 121.377 1785.27 121.674 1785.77C123.653 1788.93 118.211 1789.72 118.013 1787.15C117.914 1786.26 117.815 1785.57 119.695 1785.17Z" fill="white"/>
<path fill-rule="evenodd" clip-rule="evenodd" d="M23.9208 1785.37C24.5145 1785.17 25.8999 1784.68 26.1968 1786.46C26.7905 1790.41 19.9626 1787.05 23.9208 1785.37Z" fill="white"/>
<path fill-rule="evenodd" clip-rule="evenodd" d="M130.884 1785.37C132.17 1784.58 133.259 1785.47 133.457 1786.26C134.446 1790.01 127.618 1788.33 130.884 1785.37Z" fill="white"/>
<path fill-rule="evenodd" clip-rule="evenodd" d="M142.946 1785.37C144.233 1784.58 145.321 1785.47 145.519 1786.26C146.509 1790.01 139.681 1788.33 142.946 1785.37Z" fill="white"/>
<path fill-rule="evenodd" clip-rule="evenodd" d="M154.837 1785.37C156.124 1784.58 157.212 1785.47 157.41 1786.26C158.301 1790.01 151.473 1788.33 154.837 1785.37Z" fill="white"/>
<path fill-rule="evenodd" clip-rule="evenodd" d="M166.894 1785.37C167.487 1785.17 168.873 1784.68 169.17 1786.46C169.664 1790.41 162.935 1787.05 166.894 1785.37Z" fill="white"/>
<path fill-rule="evenodd" clip-rule="evenodd" d="M178.972 1785.37C179.566 1785.17 180.951 1784.68 181.248 1786.46C181.743 1790.41 175.014 1787.05 178.972 1785.37Z" fill="white"/>
<path fill-rule="evenodd" clip-rule="evenodd" d="M193.021 1786.56C192.823 1787.74 192.229 1788.34 191.042 1788.53C190.547 1788.14 190.052 1787.64 189.656 1787.15C189.755 1784.88 192.328 1784.78 193.021 1786.56Z" fill="white"/>
<path fill-rule="evenodd" clip-rule="evenodd" d="M204.798 1785.96C205.094 1787.74 204.303 1788.53 202.522 1788.24C200.641 1786.75 203.313 1784.08 204.798 1785.96Z" fill="white"/>
<path fill-rule="evenodd" clip-rule="evenodd" d="M216.579 1785.96C216.876 1787.74 216.084 1788.53 214.303 1788.24C212.423 1786.75 215.095 1784.08 216.579 1785.96Z" fill="white"/>
<path fill-rule="evenodd" clip-rule="evenodd" d="M226.072 1787.94C225.082 1786.36 226.665 1784.78 228.348 1785.67C229.337 1787.35 227.754 1788.93 226.072 1787.94Z" fill="white"/>
<path fill-rule="evenodd" clip-rule="evenodd" d="M240.419 1787.05C239.825 1788.33 238.143 1788.33 237.648 1787.05C237.648 1785.07 240.419 1785.07 240.419 1787.05Z" fill="white"/>
<path fill-rule="evenodd" clip-rule="evenodd" d="M252.193 1787.05C251.599 1788.33 249.917 1788.33 249.422 1787.05C249.422 1785.07 252.193 1785.07 252.193 1787.05Z" fill="white"/>
<path fill-rule="evenodd" clip-rule="evenodd" d="M13.8214 1785.96C13.8214 1786.55 13.8214 1787.05 13.8214 1787.64C13.4256 1788.04 12.6339 1787.94 11.8423 1787.94C10.6548 1786.55 12.436 1784.77 13.8214 1785.96Z" fill="white"/>
<path fill-rule="evenodd" clip-rule="evenodd" d="M263.976 1785.96C263.976 1786.55 263.976 1787.05 263.976 1787.64C263.581 1788.04 262.789 1787.94 261.997 1787.94C260.909 1786.55 262.591 1784.77 263.976 1785.96Z" fill="white"/>
<path fill-rule="evenodd" clip-rule="evenodd" d="M275.849 1786.56C275.948 1787.64 275.354 1788.04 274.167 1787.94C274.068 1787.64 273.969 1787.45 273.573 1787.35C273.078 1785.57 275.552 1785.17 275.849 1786.56Z" fill="white"/>
<path fill-rule="evenodd" clip-rule="evenodd" d="M287.919 1786.56C288.018 1787.64 287.425 1788.04 286.237 1787.94C286.138 1787.64 286.039 1787.45 285.643 1787.35C285.149 1785.57 287.622 1785.17 287.919 1786.56Z" fill="white"/>
<path fill-rule="evenodd" clip-rule="evenodd" d="M297.422 1787.05C300.489 1790.01 299.104 1783 297.422 1787.05Z" fill="white"/>
<path fill-rule="evenodd" clip-rule="evenodd" d="M0.0578603 1786.26C2.03696 1784.77 1.64114 1789.02 -0.239005 1787.34C-0.239005 1786.95 -0.33796 1786.26 0.0578603 1786.26Z" fill="white"/>
<path fill-rule="evenodd" clip-rule="evenodd" d="M309.792 1786.26C311.771 1784.77 311.376 1789.02 309.495 1787.34C309.495 1786.95 309.396 1786.26 309.792 1786.26Z" fill="white"/>
<path fill-rule="evenodd" clip-rule="evenodd" d="M321.87 1786.26C323.849 1784.77 323.454 1789.02 321.573 1787.34C321.573 1786.95 321.475 1786.26 321.87 1786.26Z" fill="white"/>
<path fill-rule="evenodd" clip-rule="evenodd" d="M333.641 1786.26C335.62 1784.77 335.224 1789.02 333.344 1787.34C333.443 1786.95 333.245 1786.26 333.641 1786.26Z" fill="white"/>
<path fill-rule="evenodd" clip-rule="evenodd" d="M345.711 1786.26C347.69 1784.77 347.294 1789.02 345.414 1787.34C345.513 1786.95 345.315 1786.26 345.711 1786.26Z" fill="white"/>
<path fill-rule="evenodd" clip-rule="evenodd" d="M358.967 1787.05C358.374 1787.05 358.572 1787.84 357.879 1787.64C357.78 1787.35 357.582 1787.15 357.285 1787.05C357.186 1785.76 358.967 1785.76 358.967 1787.05Z" fill="white"/>
<path fill-rule="evenodd" clip-rule="evenodd" d="M371.038 1787.05C370.444 1787.05 370.642 1787.84 369.949 1787.64C369.85 1787.35 369.652 1787.15 369.356 1787.05C369.257 1785.76 371.038 1785.76 371.038 1787.05Z" fill="white"/>
<path fill-rule="evenodd" clip-rule="evenodd" d="M47.753 1795.55C51.9091 1794.76 53.1955 1801.68 48.6436 1801.98C44.9822 1802.17 43.201 1796.34 47.753 1795.55Z" fill="white"/>
<path fill-rule="evenodd" clip-rule="evenodd" d="M60.1219 1795.55C61.8041 1795.35 63.6842 1796.74 63.7832 1798.32C64.0801 1802.96 57.2522 1802.47 57.0542 1798.91C56.9553 1796.84 57.8459 1795.85 60.1219 1795.55Z" fill="white"/>
<path fill-rule="evenodd" clip-rule="evenodd" d="M35.487 1795.75C38.2578 1794.76 39.4452 1796.24 39.7421 1797.72C40.6327 1802.37 34.2996 1803.06 33.6069 1799.4C33.0132 1797.03 33.9038 1796.34 35.487 1795.75Z" fill="white"/>
<path fill-rule="evenodd" clip-rule="evenodd" d="M74.4729 1796.04C77.0458 1799.01 73.5823 1803.46 70.0199 1801.08C69.0304 1800 68.9314 1797.62 69.7231 1796.34C70.7126 1795.35 73.1865 1795.25 74.4729 1796.04Z" fill="white"/>
<path fill-rule="evenodd" clip-rule="evenodd" d="M82.886 1795.75C85.6567 1794.76 86.8442 1796.24 87.141 1797.72C88.0316 1802.37 81.6985 1803.06 81.0058 1799.4C80.5111 1797.03 81.3027 1796.34 82.886 1795.75Z" fill="white"/>
<path fill-rule="evenodd" clip-rule="evenodd" d="M94.9563 1795.75C97.727 1794.76 98.9145 1796.24 99.2114 1797.72C100.102 1802.37 93.7688 1803.06 93.0761 1799.4C92.5814 1797.03 93.373 1796.34 94.9563 1795.75Z" fill="white"/>
<path fill-rule="evenodd" clip-rule="evenodd" d="M107.034 1795.75C109.705 1795.06 110.794 1796.34 110.992 1798.02C111.586 1802.37 105.055 1803.16 104.857 1798.91C104.659 1796.84 105.253 1796.24 107.034 1795.75Z" fill="white"/>
<path fill-rule="evenodd" clip-rule="evenodd" d="M119.097 1795.75C121.274 1795.15 122.858 1796.14 123.056 1798.32C123.55 1806.32 111.577 1797.92 119.097 1795.75Z" fill="white"/>
<path fill-rule="evenodd" clip-rule="evenodd" d="M131.474 1795.75C134.74 1795.35 135.828 1800.09 133.156 1801.38C129.396 1803.06 126.428 1796.44 131.474 1795.75Z" fill="white"/>
<path fill-rule="evenodd" clip-rule="evenodd" d="M23.6146 1796.04C26.0885 1795.25 27.177 1796.64 27.276 1798.32C27.5728 1801.97 21.9324 1802.76 21.6355 1798.91C21.5366 1797.33 22.1303 1796.54 23.6146 1796.04Z" fill="white"/>
<path fill-rule="evenodd" clip-rule="evenodd" d="M142.758 1796.04C144.44 1795.35 146.221 1795.94 146.716 1797.43C148.101 1801.97 140.383 1803.16 141.075 1798.02C141.075 1797.53 141.273 1796.64 142.758 1796.04Z" fill="white"/>
<path fill-rule="evenodd" clip-rule="evenodd" d="M154.834 1796.04C157.308 1795.25 158.297 1796.63 158.495 1798.02C159.584 1805.63 147.907 1798.22 154.834 1796.04Z" fill="white"/>
<path fill-rule="evenodd" clip-rule="evenodd" d="M166.607 1796.04C169.081 1795.25 170.169 1796.64 170.268 1798.32C170.565 1801.97 164.925 1802.76 164.628 1798.91C164.529 1797.33 165.122 1796.54 166.607 1796.04Z" fill="white"/>
<path fill-rule="evenodd" clip-rule="evenodd" d="M181.743 1796.93C182.238 1797.92 182.139 1799.9 181.446 1800.59C180.457 1801.48 177.884 1801.28 177.191 1800.29C175.41 1796.93 179.665 1794.66 181.743 1796.93Z" fill="white"/>
<path fill-rule="evenodd" clip-rule="evenodd" d="M190.16 1796.34C192.238 1795.45 193.524 1796.64 193.821 1797.43C195.998 1803.65 184.223 1800.29 190.16 1796.34Z" fill="white"/>
<path fill-rule="evenodd" clip-rule="evenodd" d="M202.525 1796.34C204.9 1795.45 205.79 1796.74 205.889 1798.32C206.384 1804.74 196.686 1798.42 202.525 1796.34Z" fill="white"/>
<path fill-rule="evenodd" clip-rule="evenodd" d="M214.891 1796.34C217.166 1795.95 218.552 1799.11 216.87 1800.59C214.297 1802.67 209.943 1797.23 214.891 1796.34Z" fill="white"/>
<path fill-rule="evenodd" clip-rule="evenodd" d="M12.4344 1796.64C14.1166 1796.34 14.8093 1797.23 15.0072 1798.32C15.502 1804.15 6.39809 1797.82 12.4344 1796.64Z" fill="white"/>
<path fill-rule="evenodd" clip-rule="evenodd" d="M226.076 1796.64C226.274 1796.04 227.659 1796.54 228.352 1796.34C231.717 1798.51 227.165 1803.06 224.988 1799.7C224.79 1798.12 225.087 1796.93 226.076 1796.64Z" fill="white"/>
<path fill-rule="evenodd" clip-rule="evenodd" d="M238.15 1796.64C238.842 1796.34 239.436 1796.24 239.832 1796.34C243.889 1797.43 238.249 1804.15 236.764 1799.4C236.171 1797.43 236.962 1797.13 238.15 1796.64Z" fill="white"/>
<path fill-rule="evenodd" clip-rule="evenodd" d="M250.522 1796.64C252.204 1796.34 252.897 1797.23 253.095 1798.32C253.689 1804.15 244.486 1797.82 250.522 1796.64Z" fill="white"/>
<path fill-rule="evenodd" clip-rule="evenodd" d="M264.566 1797.23C265.951 1799.7 263.081 1801.68 261.201 1800C259.816 1797.53 262.685 1795.55 264.566 1797.23Z" fill="white"/>
<path fill-rule="evenodd" clip-rule="evenodd" d="M274.161 1796.93C275.447 1796.44 276.536 1796.93 276.734 1798.32C277.228 1803.26 269.51 1798.51 274.161 1796.93Z" fill="white"/>
<path fill-rule="evenodd" clip-rule="evenodd" d="M286.433 1796.93C287.423 1796.74 288.115 1797.03 288.412 1797.53C290.391 1800.69 284.949 1801.48 284.751 1798.91C284.751 1798.02 284.652 1797.33 286.433 1796.93Z" fill="white"/>
<path fill-rule="evenodd" clip-rule="evenodd" d="M298.015 1797.23C298.608 1797.03 299.994 1796.54 300.291 1798.32C300.884 1802.17 294.056 1798.81 298.015 1797.23Z" fill="white"/>
<path fill-rule="evenodd" clip-rule="evenodd" d="M312.06 1798.32C311.862 1799.5 311.268 1800.1 310.081 1800.29C309.586 1799.9 309.091 1799.4 308.695 1798.91C308.794 1796.64 311.367 1796.54 312.06 1798.32Z" fill="white"/>
<path fill-rule="evenodd" clip-rule="evenodd" d="M321.267 1799.7C320.277 1798.12 321.861 1796.54 323.543 1797.43C324.533 1799.11 322.949 1800.69 321.267 1799.7Z" fill="white"/>
<path fill-rule="evenodd" clip-rule="evenodd" d="M1.75107 1797.72C1.75107 1798.32 1.75107 1798.81 1.75107 1799.4C1.35525 1799.8 0.563612 1799.7 -0.228029 1799.7C-1.41549 1798.32 0.365701 1796.54 1.75107 1797.72Z" fill="white"/>
<path fill-rule="evenodd" clip-rule="evenodd" d="M335.312 1797.72C335.312 1798.32 335.312 1798.81 335.312 1799.4C334.917 1799.8 334.125 1799.7 333.333 1799.7C332.245 1798.32 333.927 1796.54 335.312 1797.72Z" fill="white"/>
<path fill-rule="evenodd" clip-rule="evenodd" d="M347.388 1798.31C347.487 1799.4 346.893 1799.8 345.706 1799.7C345.607 1799.4 345.409 1799.2 345.112 1799.11C344.617 1797.33 347.091 1796.93 347.388 1798.31Z" fill="white"/>
<path fill-rule="evenodd" clip-rule="evenodd" d="M356.992 1798.91C360.06 1801.77 358.674 1794.86 356.992 1798.91Z" fill="white"/>
<path fill-rule="evenodd" clip-rule="evenodd" d="M369.555 1798.02C371.534 1796.54 371.138 1800.79 369.258 1799.11C369.357 1798.71 369.159 1798.12 369.555 1798.02Z" fill="white"/>
<path fill-rule="evenodd" clip-rule="evenodd" d="M47.5598 1806.42C51.1222 1805.83 52.8044 1807.8 52.9033 1810.37C53.2002 1816.4 43.8984 1816.8 43.8984 1810.67C43.8984 1808.1 45.0859 1806.91 47.5598 1806.42Z" fill="white"/>
<path fill-rule="evenodd" clip-rule="evenodd" d="M59.6379 1806.42C63.2003 1805.83 64.8825 1807.8 64.9815 1810.37C65.2783 1816.4 55.9766 1816.8 55.9766 1810.67C55.9766 1808.1 57.164 1806.91 59.6379 1806.42Z" fill="white"/>
<path fill-rule="evenodd" clip-rule="evenodd" d="M71.7025 1806.42C73.2857 1806.22 74.7701 1806.62 75.6607 1807.51C81.3011 1813.73 67.8432 1818.68 67.8432 1810.57C67.7443 1808.4 68.6349 1806.92 71.7025 1806.42Z" fill="white"/>
<path fill-rule="evenodd" clip-rule="evenodd" d="M35.1971 1806.72C38.6605 1805.73 40.3427 1807.41 40.8375 1809.29C42.5198 1815.91 31.3378 1817.69 32.4263 1809.88C32.5253 1808.7 33.218 1807.31 35.1971 1806.72Z" fill="white"/>
<path fill-rule="evenodd" clip-rule="evenodd" d="M82.5934 1806.72C85.8589 1805.83 89.2234 1807.9 88.2338 1812.05C87.0464 1816.8 78.2394 1815.91 79.8226 1809.29C80.0205 1808.59 80.9111 1807.21 82.5934 1806.72Z" fill="white"/>
<path fill-rule="evenodd" clip-rule="evenodd" d="M94.6658 1806.72C98.1293 1805.73 99.8115 1807.41 100.306 1809.29C101.989 1815.91 90.8066 1817.69 91.8951 1809.88C92.093 1808.7 92.6867 1807.31 94.6658 1806.72Z" fill="white"/>
<path fill-rule="evenodd" clip-rule="evenodd" d="M106.735 1806.72C110.198 1805.83 111.782 1807.71 112.078 1809.78C112.969 1815.81 102.975 1817.29 103.667 1810.08C103.766 1808.7 104.558 1807.31 106.735 1806.72Z" fill="white"/>
<path fill-rule="evenodd" clip-rule="evenodd" d="M119.402 1806.72C125.834 1805.73 125.043 1814.82 119.996 1814.82C115.642 1814.82 113.96 1807.61 119.402 1806.72Z" fill="white"/>
<path fill-rule="evenodd" clip-rule="evenodd" d="M130.39 1807.02C132.864 1806.23 135.14 1807.12 135.734 1809.29C137.317 1815.62 125.838 1817.2 127.917 1809.29C128.016 1808.5 128.906 1807.51 130.39 1807.02Z" fill="white"/>
<path fill-rule="evenodd" clip-rule="evenodd" d="M142.752 1807.01C146.018 1806.12 147.601 1807.9 147.799 1810.08C148.393 1815.41 139.586 1816.8 139.982 1810.37C139.982 1808.89 140.674 1807.61 142.752 1807.01Z" fill="white"/>
<path fill-rule="evenodd" clip-rule="evenodd" d="M154.832 1807.01C157.999 1806.32 159.483 1808.1 159.582 1810.37C159.879 1815.61 151.765 1816.2 151.765 1810.67C151.666 1808.5 152.655 1807.51 154.832 1807.01Z" fill="white"/>
<path fill-rule="evenodd" clip-rule="evenodd" d="M23.1122 1807.31C26.2788 1806.22 29.0496 1808.79 28.159 1812.05C26.9715 1816.21 20.0446 1814.62 20.8363 1809.78C20.9352 1809.09 21.1331 1808 23.1122 1807.31Z" fill="white"/>
<path fill-rule="evenodd" clip-rule="evenodd" d="M166.003 1807.31C169.169 1806.22 171.94 1808.79 171.05 1812.05C169.862 1816.21 162.935 1814.62 163.727 1809.78C163.925 1809.09 164.024 1808 166.003 1807.31Z" fill="white"/>
<path fill-rule="evenodd" clip-rule="evenodd" d="M178.673 1807.31C180.553 1806.92 182.037 1807.51 182.631 1808.4C186.49 1814.23 175.902 1816.8 175.902 1810.67C175.803 1809.19 176.001 1807.9 178.673 1807.31Z" fill="white"/>
<path fill-rule="evenodd" clip-rule="evenodd" d="M190.755 1807.31C193.427 1806.82 194.812 1808.5 195.01 1810.37C195.307 1815.22 187.688 1815.61 187.688 1810.67C187.688 1808.79 188.776 1807.61 190.755 1807.31Z" fill="white"/>
<path fill-rule="evenodd" clip-rule="evenodd" d="M202.22 1807.61C204.001 1807.11 205.288 1807.61 205.882 1808.2C211.027 1813.34 199.153 1817.39 199.944 1810.18C200.043 1809.49 199.944 1808.3 202.22 1807.61Z" fill="white"/>
<path fill-rule="evenodd" clip-rule="evenodd" d="M214.293 1807.61C219.933 1806.13 219.141 1814.03 215.183 1814.03C212.313 1814.03 209.939 1808.7 214.293 1807.61Z" fill="white"/>
<path fill-rule="evenodd" clip-rule="evenodd" d="M226.073 1807.81C228.844 1806.82 230.032 1808.3 230.329 1809.78C231.219 1814.43 224.886 1815.12 224.193 1811.46C223.699 1809.09 224.49 1808.4 226.073 1807.81Z" fill="white"/>
<path fill-rule="evenodd" clip-rule="evenodd" d="M238.144 1807.81C240.321 1807.21 241.905 1808.2 242.103 1810.38C242.597 1818.38 230.624 1809.98 238.144 1807.81Z" fill="white"/>
<path fill-rule="evenodd" clip-rule="evenodd" d="M11.5388 1808.1C13.2211 1807.41 15.0023 1808 15.497 1809.49C16.8824 1814.03 9.16391 1815.22 9.85659 1810.08C9.95555 1809.58 10.1535 1808.7 11.5388 1808.1Z" fill="white"/>
<path fill-rule="evenodd" clip-rule="evenodd" d="M249.726 1808.1C251.409 1807.41 253.19 1808 253.685 1809.49C255.07 1814.03 247.351 1815.22 248.044 1810.08C248.044 1809.58 248.341 1808.7 249.726 1808.1Z" fill="white"/>
<path fill-rule="evenodd" clip-rule="evenodd" d="M262.092 1808.1C264.566 1807.31 265.555 1808.7 265.753 1810.08C266.842 1817.69 255.165 1810.28 262.092 1808.1Z" fill="white"/>
<path fill-rule="evenodd" clip-rule="evenodd" d="M276.931 1808.99C277.425 1809.98 277.326 1811.96 276.634 1812.65C275.644 1813.54 273.071 1813.34 272.379 1812.35C270.598 1808.99 274.853 1806.72 276.931 1808.99Z" fill="white"/>
<path fill-rule="evenodd" clip-rule="evenodd" d="M285.946 1808.4C288.321 1807.51 289.212 1808.79 289.311 1810.38C289.806 1816.8 280.108 1810.47 285.946 1808.4Z" fill="white"/>
<path fill-rule="evenodd" clip-rule="evenodd" d="M297.414 1808.69C297.612 1808.1 298.997 1808.6 299.69 1808.4C303.055 1810.57 298.503 1815.12 296.326 1811.76C296.128 1810.18 296.326 1808.99 297.414 1808.69Z" fill="white"/>
<path fill-rule="evenodd" clip-rule="evenodd" d="M309.786 1808.69C314.437 1807.31 311.963 1815.51 308.697 1812.35C307.609 1811.36 308.005 1809.19 309.786 1808.69Z" fill="white"/>
<path fill-rule="evenodd" clip-rule="evenodd" d="M324.134 1809.29C325.519 1811.76 322.649 1813.73 320.769 1812.05C319.285 1809.58 322.253 1807.61 324.134 1809.29Z" fill="white"/>
<path fill-rule="evenodd" clip-rule="evenodd" d="M333.93 1808.99C334.919 1808.79 335.612 1809.09 335.909 1809.58C337.888 1812.75 332.445 1813.54 332.247 1810.97C332.148 1810.08 332.049 1809.39 333.93 1808.99Z" fill="white"/>
<path fill-rule="evenodd" clip-rule="evenodd" d="M0.0536224 1809.29C0.647353 1809.09 2.03272 1808.59 2.32959 1810.37C2.92332 1814.33 -3.90458 1810.87 0.0536224 1809.29Z" fill="white"/>
<path fill-rule="evenodd" clip-rule="evenodd" d="M345.702 1809.29C346.296 1809.09 347.681 1808.59 347.978 1810.37C348.572 1814.33 341.744 1810.87 345.702 1809.29Z" fill="white"/>
<path fill-rule="evenodd" clip-rule="evenodd" d="M359.475 1809.78C359.772 1811.56 358.98 1812.35 357.199 1812.05C355.418 1810.57 357.991 1807.9 359.475 1809.78Z" fill="white"/>
<path fill-rule="evenodd" clip-rule="evenodd" d="M371.25 1809.78C371.25 1810.37 371.25 1810.87 371.25 1811.46C370.854 1811.86 370.062 1811.76 369.271 1811.76C368.182 1810.37 369.864 1808.6 371.25 1809.78Z" fill="white"/>
<path fill-rule="evenodd" clip-rule="evenodd" d="M35.6827 1817.39C43.8959 1816.01 43.0053 1827.77 36.5733 1827.77C30.8339 1827.77 29.1516 1818.48 35.6827 1817.39Z" fill="white"/>
<path fill-rule="evenodd" clip-rule="evenodd" d="M46.9737 1817.39C55.9786 1815.32 55.5828 1829.35 46.9737 1827.77C43.2134 1827.08 40.4427 1818.88 46.9737 1817.39Z" fill="white"/>
<path fill-rule="evenodd" clip-rule="evenodd" d="M59.0411 1817.39C62.0098 1816.7 64.6816 1817.89 65.4732 1820.16C69.2335 1829.95 52.708 1829.85 55.3798 1820.75C55.7756 1819.47 55.9735 1818.09 59.0411 1817.39Z" fill="white"/>
<path fill-rule="evenodd" clip-rule="evenodd" d="M71.1081 1817.39C79.6182 1815.61 78.8266 1827.77 72.1966 1827.77C66.754 1827.77 64.4781 1818.78 71.1081 1817.39Z" fill="white"/>
<path fill-rule="evenodd" clip-rule="evenodd" d="M83.1829 1817.39C90.8025 1816.21 91.1983 1827.47 84.2714 1827.77C78.4331 1827.97 76.454 1818.48 83.1829 1817.39Z" fill="white"/>
<path fill-rule="evenodd" clip-rule="evenodd" d="M94.3706 1817.69C103.672 1815.02 102.683 1829.55 94.3706 1827.47C91.4019 1826.78 88.8291 1819.27 94.3706 1817.69Z" fill="white"/>
<path fill-rule="evenodd" clip-rule="evenodd" d="M106.529 1817.69C115.534 1815.41 114.347 1829.15 106.529 1827.47C103.165 1826.78 100.592 1819.17 106.529 1817.69Z" fill="white"/>
<path fill-rule="evenodd" clip-rule="evenodd" d="M118.809 1817.69C127.023 1815.91 126.132 1827.47 119.898 1827.47C114.95 1827.47 112.575 1818.97 118.809 1817.69Z" fill="white"/>
<path fill-rule="evenodd" clip-rule="evenodd" d="M131.467 1817.69C137.108 1817.19 138.691 1825.6 133.446 1827.18C127.113 1829.15 123.65 1818.38 131.467 1817.69Z" fill="white"/>
<path fill-rule="evenodd" clip-rule="evenodd" d="M142.462 1817.98C152.951 1815.32 147.905 1832.71 140.483 1826.09C137.712 1823.62 138.702 1818.87 142.462 1817.98Z" fill="white"/>
<path fill-rule="evenodd" clip-rule="evenodd" d="M154.833 1817.99C158.395 1817.29 160.374 1819.57 160.473 1822.24C160.77 1828.66 150.974 1828.96 150.974 1822.53C150.875 1819.77 152.26 1818.38 154.833 1817.99Z" fill="white"/>
<path fill-rule="evenodd" clip-rule="evenodd" d="M23.119 1818.18C29.4522 1816.5 31.2334 1825.7 25.8898 1826.88C20.2493 1828.17 17.1817 1819.87 23.119 1818.18Z" fill="white"/>
<path fill-rule="evenodd" clip-rule="evenodd" d="M166.013 1818.18C172.346 1816.5 174.128 1825.7 168.784 1826.88C163.144 1828.17 160.175 1819.87 166.013 1818.18Z" fill="white"/>
<path fill-rule="evenodd" clip-rule="evenodd" d="M178.669 1818.18C182.232 1817.59 183.914 1819.57 184.013 1822.14C184.31 1828.16 175.008 1828.56 175.008 1822.43C175.008 1819.86 176.195 1818.68 178.669 1818.18Z" fill="white"/>
<path fill-rule="evenodd" clip-rule="evenodd" d="M189.861 1818.48C193.325 1817.49 195.007 1819.17 195.502 1821.05C197.184 1827.67 186.002 1829.45 187.09 1821.64C187.288 1820.45 187.882 1819.07 189.861 1818.48Z" fill="white"/>
<path fill-rule="evenodd" clip-rule="evenodd" d="M202.529 1818.48C205.893 1817.79 207.476 1819.66 207.575 1822.14C207.872 1827.77 199.164 1828.26 199.164 1822.43C199.164 1820.16 200.253 1818.97 202.529 1818.48Z" fill="white"/>
<path fill-rule="evenodd" clip-rule="evenodd" d="M213.703 1818.78C216.177 1817.99 218.453 1818.88 219.046 1821.05C220.63 1827.38 209.151 1828.96 211.229 1821.05C211.427 1820.26 212.219 1819.27 213.703 1818.78Z" fill="white"/>
<path fill-rule="evenodd" clip-rule="evenodd" d="M226.372 1818.78C229.539 1818.08 231.023 1819.86 231.122 1822.14C231.419 1827.38 223.305 1827.97 223.305 1822.43C223.305 1820.26 224.195 1819.27 226.372 1818.78Z" fill="white"/>
<path fill-rule="evenodd" clip-rule="evenodd" d="M237.651 1819.07C240.818 1817.98 243.589 1820.55 242.698 1823.82C241.511 1827.97 234.584 1826.39 235.375 1821.54C235.474 1820.85 235.672 1819.76 237.651 1819.07Z" fill="white"/>
<path fill-rule="evenodd" clip-rule="evenodd" d="M250.224 1819.07C252.896 1818.58 254.281 1820.26 254.479 1822.14C254.776 1826.98 247.156 1827.38 247.156 1822.43C247.156 1820.56 248.344 1819.47 250.224 1819.07Z" fill="white"/>
<path fill-rule="evenodd" clip-rule="evenodd" d="M11.3466 1819.37C13.5236 1818.58 15.6017 1819.27 16.0964 1821.05C17.7787 1826.68 7.28944 1828.06 9.36749 1821.05C9.5654 1820.36 10.2581 1819.76 11.3466 1819.37Z" fill="white"/>
<path fill-rule="evenodd" clip-rule="evenodd" d="M261.798 1819.37C263.58 1818.87 264.866 1819.37 265.46 1819.96C270.605 1825.1 258.731 1829.15 259.522 1821.94C259.621 1821.25 259.522 1820.06 261.798 1819.37Z" fill="white"/>
<path fill-rule="evenodd" clip-rule="evenodd" d="M274.363 1819.37C276.046 1819.17 277.926 1820.55 278.025 1822.14C278.322 1826.78 271.494 1826.29 271.296 1822.73C271.197 1820.65 272.186 1819.67 274.363 1819.37Z" fill="white"/>
<path fill-rule="evenodd" clip-rule="evenodd" d="M285.936 1819.66C288.113 1819.07 289.696 1820.06 289.894 1822.23C290.389 1830.14 278.316 1821.74 285.936 1819.66Z" fill="white"/>
<path fill-rule="evenodd" clip-rule="evenodd" d="M297.414 1819.86C299.096 1819.17 300.877 1819.76 301.372 1821.25C302.757 1825.79 295.039 1826.98 295.732 1821.84C295.831 1821.34 296.028 1820.45 297.414 1819.86Z" fill="white"/>
<path fill-rule="evenodd" clip-rule="evenodd" d="M309.792 1819.86C311.474 1819.47 312.958 1820.06 313.156 1822.14C313.453 1826.19 307.516 1825.99 307.516 1822.43C307.516 1821.54 307.813 1820.36 309.792 1819.86Z" fill="white"/>
<path fill-rule="evenodd" clip-rule="evenodd" d="M321.566 1820.16C323.94 1819.27 324.831 1820.55 324.93 1822.14C325.524 1828.56 315.826 1822.23 321.566 1820.16Z" fill="white"/>
<path fill-rule="evenodd" clip-rule="evenodd" d="M333.337 1820.46C334.03 1820.16 334.624 1820.06 335.02 1820.16C339.077 1821.25 333.436 1827.97 331.952 1823.22C331.358 1821.25 332.15 1820.95 333.337 1820.46Z" fill="white"/>
<path fill-rule="evenodd" clip-rule="evenodd" d="M-0.245107 1820.75C1.23922 1820.06 2.42668 1820.75 2.52564 1822.14C3.21832 1826.98 -4.30226 1822.73 -0.245107 1820.75Z" fill="white"/>
<path fill-rule="evenodd" clip-rule="evenodd" d="M345.212 1820.75C346.103 1819.96 347.884 1820.66 348.28 1821.35C349.566 1826.78 341.353 1823.62 345.212 1820.75Z" fill="white"/>
<path fill-rule="evenodd" clip-rule="evenodd" d="M357.483 1820.75C358.769 1820.26 359.858 1820.75 360.056 1822.14C360.65 1827.08 352.931 1822.43 357.483 1820.75Z" fill="white"/>
<path fill-rule="evenodd" clip-rule="evenodd" d="M369.552 1821.05C370.146 1820.85 371.532 1820.36 371.828 1822.13C372.422 1826.09 365.693 1822.73 369.552 1821.05Z" fill="white"/>
<path fill-rule="evenodd" clip-rule="evenodd" d="M54.2915 1832.81C55.182 1827.18 64.9786 1826.58 66.364 1832.22C67.7493 1826.98 77.0511 1826.88 78.1396 1832.51C79.1292 1831.53 79.0302 1830.44 79.8219 1829.75C86.5508 1823.42 94.863 1836.57 86.2539 1839.83C87.6393 1840.82 89.4205 1841.51 89.9153 1843.49C91.3007 1842.3 92.0923 1840.42 94.3683 1840.12C93.1808 1839.04 92.0923 1838.94 91.3007 1837.85C85.4623 1829.94 100.8 1823.62 101.988 1833.6C103.571 1822.93 119.206 1831.23 112.081 1838.35C111.29 1839.14 110.399 1839.43 108.717 1839.73C110.993 1840.72 113.368 1841.61 113.763 1844.47C114.951 1839.04 124.846 1838.54 125.836 1844.47C128.409 1835.18 142.856 1843.29 136.226 1850.4C135.435 1851.29 134.544 1851.39 133.159 1852.08C138.997 1853.17 138.997 1862.76 133.159 1863.85C129.992 1864.44 126.826 1862.76 126.133 1859.4C125.044 1865.03 115.05 1865.62 114.06 1859.4C113.467 1864.83 103.472 1865.92 102.285 1860.29C100.899 1865.23 91.7954 1865.72 90.2121 1860.58C89.2226 1865.13 80.1187 1866.02 78.4365 1861.47C76.9522 1862.86 75.7647 1864.44 73.3898 1864.83C79.3271 1865.82 78.6344 1876 71.7075 1875.51C66.265 1875.11 65.0776 1866.32 71.1138 1865.13C69.5305 1864.14 67.3535 1863.65 66.6608 1861.77C65.1765 1862.86 64.2859 1864.64 61.911 1864.83C63.4943 1865.82 64.9786 1866.51 65.5723 1867.9C69.4316 1877.88 51.8176 1877.39 55.4789 1867.9C55.9737 1866.61 57.0622 1865.82 59.1403 1865.13C57.3591 1864.34 55.6768 1863.35 54.6873 1861.77C53.3019 1862.96 52.3124 1864.54 50.0364 1864.74C55.0831 1866.22 54.4894 1874.52 49.7395 1875.41C43.1095 1876.69 40.2398 1867.4 46.6719 1865.03C44.9897 1864.14 43.2085 1863.45 42.4168 1861.67C39.5471 1865.92 30.3443 1865.13 30.0475 1859.1C28.5631 1865.62 18.8655 1864.34 18.8655 1858.01C18.8655 1852.08 28.3652 1850.11 29.8495 1856.93C30.8391 1855.25 31.4328 1853.07 33.5109 1852.48C32.1255 1851.1 30.4433 1850.11 30.1464 1847.74C27.1778 1856.93 13.9178 1848.43 20.6467 1842.1C23.4175 1839.53 29.3548 1840.82 29.9485 1844.87C30.9381 1842.79 31.9276 1840.72 34.4015 1840.12C26.8809 1836.86 32.5213 1824.51 40.0419 1829.15C41.1304 1829.85 41.6252 1830.93 42.3179 1832.51C43.2085 1826.98 53.6977 1826.49 54.2915 1832.81ZM97.8317 1840.12C100.108 1840.52 101.097 1842.2 102.285 1843.78C102.878 1841.51 105.055 1840.72 107.035 1839.83C103.967 1839.53 102.68 1837.36 101.988 1834.79C101.691 1837.65 99.8108 1838.94 97.8317 1840.12ZM51.4218 1839.83C52.8071 1840.32 53.6977 1841.31 54.4894 1842.4C55.281 1841.21 56.4685 1840.52 57.557 1839.63C55.7758 1838.94 54.9841 1837.36 54.1925 1835.68C54.0935 1837.75 52.6092 1838.54 51.4218 1839.83ZM38.8545 1840.12C40.6357 1840.32 41.0315 1841.9 42.5158 1842.4C42.8127 1840.82 44.4949 1840.62 45.2865 1839.63C43.7033 1839.04 43.1095 1837.26 42.2189 1835.97C41.8231 1838.05 39.943 1838.64 38.8545 1840.12ZM74.7751 1839.83C76.4574 1840.42 77.348 1841.71 78.4365 1842.89C79.0302 1841.41 80.2177 1840.52 81.801 1840.12C80.4156 1838.84 78.9313 1837.75 78.1396 1835.87C77.4469 1837.65 76.3584 1838.94 74.7751 1839.83ZM63.2964 1839.83C65.1765 1839.93 65.4734 1842.4 66.6608 1842.4C67.6504 1842.4 68.2441 1839.93 69.7284 1839.63C67.8483 1839.33 67.3535 1837.56 66.364 1836.27C65.7702 1837.85 64.4838 1838.74 63.2964 1839.83ZM110.102 1852.48C112.378 1852.97 113.17 1854.85 114.06 1856.73C114.555 1854.46 116.237 1853.27 118.019 1852.28C115.94 1851.49 114.852 1849.81 113.763 1848.03C113.566 1850.4 111.586 1851.1 110.102 1852.48ZM121.977 1852.48C124.352 1852.87 125.044 1854.95 126.232 1856.73C126.628 1854.16 128.508 1853.17 130.487 1852.28C128.211 1851.59 126.924 1850.11 126.034 1848.03C125.341 1850.31 123.461 1851.1 121.977 1852.48ZM98.9202 1852.48C100.602 1852.97 101.295 1854.56 102.285 1855.84C102.68 1853.86 104.264 1853.17 105.649 1852.18C103.967 1851.59 102.878 1850.21 101.988 1848.82C101.592 1850.6 99.9097 1851.19 98.9202 1852.48ZM87.1445 1852.48C88.8268 1852.78 89.3216 1854.46 90.2121 1855.54C90.8059 1854.06 92.0923 1853.17 93.2798 1852.18C91.7954 1851.49 91.1027 1850.11 89.9153 1849.12C89.6184 1850.8 88.0351 1851.29 87.1445 1852.48ZM75.8637 1852.48C77.0511 1852.87 77.348 1854.16 78.4365 1854.75C78.9313 1853.57 80.0198 1852.97 81.0093 1852.18C79.7229 1851.69 79.0302 1850.6 78.2386 1849.61C77.8428 1851 76.4574 1851.29 75.8637 1852.48ZM39.6461 1852.48C41.0315 1852.68 41.1304 1854.16 42.4168 1854.46C42.7137 1853.47 43.6043 1853.07 44.0991 1852.18C43.1095 1851.79 42.9116 1850.6 41.8231 1850.21C41.4273 1851.19 40.3388 1851.59 39.6461 1852.48ZM54.5883 1854.36C56.6664 1852.87 56.6664 1851.39 54.2915 1850.11C52.6092 1851.99 52.5103 1852.87 54.5883 1854.36ZM66.6608 1854.36C67.0567 1853.27 68.0462 1852.97 68.6399 1852.08C67.7493 1851.59 67.3535 1850.6 66.364 1850.11C64.2859 1851.69 64.2859 1853.07 66.6608 1854.36Z" fill="white"/>
<path fill-rule="evenodd" clip-rule="evenodd" d="M118.602 1828.86C127.606 1826.78 127.409 1841.41 118.602 1839.83C113.555 1838.94 112.466 1830.24 118.602 1828.86Z" fill="white"/>
<path fill-rule="evenodd" clip-rule="evenodd" d="M130.683 1828.86C138.896 1827.28 139.391 1839.53 132.068 1839.83C125.735 1840.03 123.954 1830.14 130.683 1828.86Z" fill="white"/>
<path fill-rule="evenodd" clip-rule="evenodd" d="M24.2111 1829.15C28.9609 1828.86 31.4348 1835.18 28.1693 1838.15C21.4403 1844.18 14.3156 1829.84 24.2111 1829.15Z" fill="white"/>
<path fill-rule="evenodd" clip-rule="evenodd" d="M142.159 1829.15C150.174 1826.98 151.361 1838.24 145.523 1839.53C142.258 1840.32 137.112 1838.64 138.497 1832.51C138.695 1831.52 140.081 1829.74 142.159 1829.15Z" fill="white"/>
<path fill-rule="evenodd" clip-rule="evenodd" d="M154.538 1829.15C163.048 1827.38 162.256 1839.53 155.626 1839.53C150.184 1839.53 147.908 1830.54 154.538 1829.15Z" fill="white"/>
<path fill-rule="evenodd" clip-rule="evenodd" d="M167.097 1829.15C171.748 1828.86 174.321 1835.18 171.055 1838.15C164.326 1844.18 157.3 1829.84 167.097 1829.15Z" fill="white"/>
<path fill-rule="evenodd" clip-rule="evenodd" d="M178.38 1829.45C186.692 1827.77 185.801 1839.53 179.27 1839.23C174.421 1839.04 172.145 1830.73 178.38 1829.45Z" fill="white"/>
<path fill-rule="evenodd" clip-rule="evenodd" d="M191.038 1829.45C196.678 1828.96 198.261 1837.36 193.017 1838.94C186.683 1840.92 183.22 1830.14 191.038 1829.45Z" fill="white"/>
<path fill-rule="evenodd" clip-rule="evenodd" d="M202.231 1829.75C209.158 1828.27 210.148 1838.54 203.914 1839.04C199.065 1839.33 195.799 1831.13 202.231 1829.75Z" fill="white"/>
<path fill-rule="evenodd" clip-rule="evenodd" d="M213.507 1830.04C217.169 1828.86 220.929 1831.33 219.643 1835.97C218.257 1841.11 208.857 1839.14 210.638 1832.61C210.935 1831.53 212.122 1830.44 213.507 1830.04Z" fill="white"/>
<path fill-rule="evenodd" clip-rule="evenodd" d="M226.38 1830.04C229.942 1829.45 231.625 1831.43 231.724 1833.99C232.021 1840.02 222.719 1840.42 222.719 1834.29C222.719 1831.72 224.005 1830.44 226.38 1830.04Z" fill="white"/>
<path fill-rule="evenodd" clip-rule="evenodd" d="M237.65 1830.24C241.114 1829.25 242.796 1830.93 243.291 1832.81C244.973 1839.43 233.791 1841.21 234.879 1833.4C234.978 1832.22 235.671 1830.83 237.65 1830.24Z" fill="white"/>
<path fill-rule="evenodd" clip-rule="evenodd" d="M250.23 1830.24C256.662 1829.25 255.871 1838.35 250.824 1838.35C246.47 1838.44 244.788 1831.13 250.23 1830.24Z" fill="white"/>
<path fill-rule="evenodd" clip-rule="evenodd" d="M11.5493 1830.54C14.8148 1829.65 16.3981 1831.43 16.596 1833.6C17.1898 1838.94 8.38276 1840.32 8.77858 1833.9C8.87754 1832.52 9.57022 1831.13 11.5493 1830.54Z" fill="white"/>
<path fill-rule="evenodd" clip-rule="evenodd" d="M261.799 1830.54C265.065 1829.65 266.648 1831.43 266.846 1833.6C267.44 1838.94 258.633 1840.32 259.029 1833.9C259.029 1832.52 259.721 1831.13 261.799 1830.54Z" fill="white"/>
<path fill-rule="evenodd" clip-rule="evenodd" d="M273.276 1830.83C276.443 1829.75 279.214 1832.32 278.323 1835.58C277.136 1839.73 270.209 1838.15 271 1833.3C271.198 1832.61 271.297 1831.53 273.276 1830.83Z" fill="white"/>
<path fill-rule="evenodd" clip-rule="evenodd" d="M286.23 1830.83C288.901 1830.34 290.287 1832.02 290.485 1833.9C290.782 1838.74 283.162 1839.14 283.162 1834.19C283.063 1832.32 284.25 1831.23 286.23 1830.83Z" fill="white"/>
<path fill-rule="evenodd" clip-rule="evenodd" d="M297.71 1831.13C300.678 1830.44 301.965 1831.92 301.965 1834.19C301.965 1838.35 295.236 1839.04 295.236 1834.19C295.137 1832.51 295.829 1831.62 297.71 1831.13Z" fill="white"/>
<path fill-rule="evenodd" clip-rule="evenodd" d="M309.198 1831.43C311.969 1830.44 313.157 1831.92 313.454 1833.4C314.344 1838.05 308.011 1838.74 307.318 1835.08C306.824 1832.71 307.615 1831.92 309.198 1831.43Z" fill="white"/>
<path fill-rule="evenodd" clip-rule="evenodd" d="M321.273 1831.73C322.955 1831.03 324.737 1831.63 325.231 1833.11C326.617 1837.66 318.898 1838.84 319.591 1833.7C319.69 1833.11 319.888 1832.22 321.273 1831.73Z" fill="white"/>
<path fill-rule="evenodd" clip-rule="evenodd" d="M333.635 1831.72C335.318 1831.33 336.802 1831.92 337 1834C337.297 1838.05 331.359 1837.85 331.359 1834.29C331.359 1833.3 331.656 1832.12 333.635 1831.72Z" fill="white"/>
<path fill-rule="evenodd" clip-rule="evenodd" d="M345.417 1831.92C347.792 1831.03 348.683 1832.31 348.782 1833.9C349.375 1840.32 339.678 1833.99 345.417 1831.92Z" fill="white"/>
<path fill-rule="evenodd" clip-rule="evenodd" d="M-0.233036 1832.22C0.459649 1831.92 1.05338 1831.82 1.4492 1831.92C5.50636 1833.01 -0.134081 1839.73 -1.61841 1834.98C-2.21214 1833.01 -1.4205 1832.71 -0.233036 1832.22Z" fill="white"/>
<path fill-rule="evenodd" clip-rule="evenodd" d="M357.285 1832.22C357.977 1831.92 358.571 1831.82 358.967 1831.92C363.024 1833.01 357.384 1839.73 355.899 1834.98C355.207 1833.01 356.097 1832.71 357.285 1832.22Z" fill="white"/>
<path fill-rule="evenodd" clip-rule="evenodd" d="M371.839 1832.81C373.224 1835.28 370.355 1837.26 368.475 1835.58C367.089 1833.11 369.959 1831.13 371.839 1832.81Z" fill="white"/>
</g>
</g>
<defs>
<clipPath id="clip0_269_2578">
<rect width="375" height="52.2633" fill="white"/>
</clipPath>
<clipPath id="clip1_269_2578">
<rect width="375" height="1784" fill="white" transform="translate(0 52)"/>
</clipPath>
<clipPath id="clip2_269_2578">
<rect width="442.527" height="68" fill="white" transform="translate(-12 1774)"/>
</clipPath>
</defs>
</svg>
