<svg width="1250" height="167" viewBox="0 0 1250 167" fill="none" xmlns="http://www.w3.org/2000/svg">
<path d="M66 158L122 136H1173L66 158Z" fill="url(#paint0_linear_231_330)"/>
<g filter="url(#filter0_d_231_330)">
<path d="M64.5051 99L77.0688 66.251L72.4244 60.5348H128.812L118.511 87.389L99.219 99H64.5051ZM108.984 70.1213H91.7165L84.2736 89.473H92.967L104.28 82.3278L108.984 70.1213ZM187.833 60.5348L178.186 85.6622H169.314L173.006 99H156.81L152.88 85.6622H144.782L139.662 99H123.525L136.089 66.251L131.445 60.5348H187.833ZM150.737 70.1213L148.415 76.1352H165.682L168.005 70.1213H150.737ZM209.699 70.1213L207.853 75.0039H241.257L237.565 84.5309H204.161L202.256 89.473H235.66L232.028 99H182.488L195.051 66.251L190.407 60.5348H246.795L243.103 70.1213H209.699ZM305.815 60.5348L291.048 99H274.912L279.616 86.6745H262.348L257.644 99H241.508L254.072 66.251L249.427 60.5348H305.815ZM268.719 70.1213L266.04 77.1475H283.308L285.987 70.1213H268.719ZM313.034 66.251L308.389 60.5348H384.903L370.136 99H354L365.134 70.0618H354.476L343.341 99H327.205L338.34 70.0618H327.741L316.606 99H300.47L313.034 66.251ZM419.451 70.1213L412.067 60.5348H465.895L462.203 70.1213H446.365L435.289 99H419.153L430.228 70.1213H419.451ZM487.821 70.1213L485.975 75.0039H519.379L515.688 84.5309H482.284L480.378 89.473H513.782L510.15 99H460.61L473.174 66.251L468.529 60.5348H524.917L521.225 70.1213H487.821ZM583.937 60.5348L569.17 99H553.034L557.738 86.6745H540.47L535.766 99H519.63L532.194 66.251L527.549 60.5348H583.937ZM546.842 70.1213L544.162 77.1475H561.43L564.109 70.1213H546.842ZM591.156 66.251L586.512 60.5348H663.025L648.258 99H632.122L643.257 70.0618H632.598L621.464 99H605.327L616.462 70.0618H605.863L594.729 99H578.592L591.156 66.251ZM682.27 99L694.834 66.251L690.19 60.5348H746.577L736.276 87.389L716.984 99H682.27ZM726.749 70.1213H709.482L702.039 89.473H710.732L722.046 82.3278L726.749 70.1213ZM768.502 70.1213L766.656 75.0039H800.06L796.369 84.5309H762.965L761.059 89.473H794.463L790.831 99H741.291L753.854 66.251L749.21 60.5348H805.598L801.906 70.1213H768.502ZM849.792 99H800.311L803.943 89.473H837.288L839.193 84.5309H805.849L812.875 66.251L808.23 60.5348H864.559L860.867 70.1213H827.522L825.677 75.0039H859.021L849.792 99ZM871.837 66.251L867.192 60.5348H890.176L875.409 99H859.273L871.837 66.251ZM934.339 99H884.858L897.422 66.251L892.778 60.5348H949.106L945.414 70.1213H912.07L904.627 89.473H921.835L923.74 84.5309H915.642L919.334 75.0039H943.568L934.339 99ZM956.384 66.251L951.74 60.5348H974.485L985.382 77.7429L991.991 60.5348H1008.13L993.361 99H977.463L966.566 81.7919L959.957 99H943.82L956.384 66.251ZM1030.05 70.1213L1028.21 75.0039H1061.61L1057.92 84.5309H1024.51L1022.61 89.473H1056.01L1052.38 99H1002.84L1015.4 66.251L1010.76 60.5348H1067.15L1063.46 70.1213H1030.05ZM1126.17 60.5348L1116.52 85.6622H1107.65L1111.34 99H1095.15L1091.22 85.6622H1083.12L1078 99H1061.86L1074.42 66.251L1069.78 60.5348H1126.17ZM1089.07 70.1213L1086.75 76.1352H1104.02L1106.34 70.1213H1089.07ZM1170.3 99H1120.82L1124.46 89.473H1157.8L1159.71 84.5309H1126.36L1133.39 66.251L1128.74 60.5348H1185.07L1181.38 70.1213H1148.03L1146.19 75.0039H1179.53L1170.3 99Z" fill="url(#paint1_linear_231_330)"/>
</g>
<defs>
<filter id="filter0_d_231_330" x="0.503906" y="0.535156" width="1248.57" height="166.465" filterUnits="userSpaceOnUse" color-interpolation-filters="sRGB">
<feFlood flood-opacity="0" result="BackgroundImageFix"/>
<feColorMatrix in="SourceAlpha" type="matrix" values="0 0 0 0 0 0 0 0 0 0 0 0 0 0 0 0 0 0 127 0" result="hardAlpha"/>
<feOffset dy="4"/>
<feGaussianBlur stdDeviation="32"/>
<feComposite in2="hardAlpha" operator="out"/>
<feColorMatrix type="matrix" values="0 0 0 0 0.336111 0 0 0 0 0.00416667 0 0 0 0 1 0 0 0 1 0"/>
<feBlend mode="normal" in2="BackgroundImageFix" result="effect1_dropShadow_231_330"/>
<feBlend mode="normal" in="SourceGraphic" in2="effect1_dropShadow_231_330" result="shape"/>
</filter>
<linearGradient id="paint0_linear_231_330" x1="66" y1="147" x2="1173" y2="147" gradientUnits="userSpaceOnUse">
<stop stop-color="#8C7F9C"/>
<stop offset="1" stop-color="#FF161A"/>
</linearGradient>
<linearGradient id="paint1_linear_231_330" x1="57" y1="80" x2="1173" y2="80" gradientUnits="userSpaceOnUse">
<stop stop-color="#B6CDFF"/>
<stop offset="1" stop-color="#FF797B"/>
</linearGradient>
</defs>
</svg>
