<svg width="338" height="106" viewBox="0 0 338 106" fill="none" xmlns="http://www.w3.org/2000/svg">
<path d="M8.64453 99.0005L25.0621 92.5508H333.184L8.64453 99.0005Z" fill="url(#paint0_linear_254_311)"/>
<g filter="url(#filter0_d_254_311)">
<path d="M30.058 46L35.8804 30.8233L33.728 28.1743H59.8596L55.0858 40.6192L46.1453 46H30.058ZM50.6708 32.6169H42.6685L39.2193 41.585H43.248L48.4908 38.2737L50.6708 32.6169ZM87.211 28.1743L82.7408 39.8189H78.6293L80.3401 46H72.8346L71.0134 39.8189H67.2606L64.8875 46H57.4095L63.2319 30.8233L61.0795 28.1743H87.211ZM70.02 32.6169L68.9438 35.4039H76.9461L78.0222 32.6169H70.02ZM97.3445 32.6169L96.4891 34.8796H111.969L110.258 39.2947H94.7783L93.8953 41.585H109.375L107.692 46H84.734L90.5564 30.8233L88.404 28.1743H114.536L112.825 32.6169H97.3445ZM141.887 28.1743L135.044 46H127.566L129.746 40.288H121.743L119.563 46H112.086L117.908 30.8233L115.756 28.1743H141.887ZM124.696 32.6169L123.454 35.873H131.457L132.698 32.6169H124.696ZM145.232 30.8233L143.08 28.1743H178.538L171.695 46H164.217L169.377 32.5893H164.438L159.278 46H151.8L156.96 32.5893H152.048L146.888 46H139.41L145.232 30.8233ZM194.549 32.6169L191.127 28.1743H216.072L214.361 32.6169H207.021L201.889 46H194.411L199.543 32.6169H194.549ZM226.233 32.6169L225.378 34.8796H240.858L239.147 39.2947H223.667L222.784 41.585H238.264L236.581 46H213.623L219.445 30.8233L217.293 28.1743H243.424L241.713 32.6169H226.233ZM270.776 28.1743L263.932 46H256.455L258.634 40.288H250.632L248.452 46H240.974L246.797 30.8233L244.644 28.1743H270.776ZM253.585 32.6169L252.343 35.873H260.345L261.587 32.6169H253.585ZM274.121 30.8233L271.969 28.1743H307.427L300.584 46H293.106L298.266 32.5893H293.327L288.166 46H280.689L285.849 32.5893H280.937L275.777 46H268.299L274.121 30.8233ZM57.9215 74L63.7438 58.8233L61.5915 56.1743H87.723L82.9493 68.6192L74.0088 74H57.9215ZM78.5342 60.6169H70.532L67.0827 69.585H71.1114L76.3543 66.2737L78.5342 60.6169ZM97.8834 60.6169L97.028 62.8796H112.508L110.797 67.2947H95.3172L94.4342 69.585H109.914L108.231 74H85.273L91.0953 58.8233L88.943 56.1743H115.074L113.364 60.6169H97.8834ZM135.555 74H112.624L114.308 69.585H129.76L130.643 67.2947H115.191L118.447 58.8233L116.294 56.1743H142.398L140.688 60.6169H125.235L124.379 62.8796H139.832L135.555 74ZM145.771 58.8233L143.619 56.1743H154.27L147.427 74H139.949L145.771 58.8233ZM174.736 74H151.806L157.628 58.8233L155.476 56.1743H181.58L179.869 60.6169H164.416L160.967 69.585H168.942L169.825 67.2947H166.072L167.783 62.8796H179.013L174.736 74ZM184.953 58.8233L182.8 56.1743H193.341L198.391 64.1489L201.454 56.1743H208.932L202.089 74H194.721L189.671 66.0253L186.608 74H179.13L184.953 58.8233ZM219.092 60.6169L218.237 62.8796H233.717L232.006 67.2947H216.526L215.643 69.585H231.123L229.44 74H206.482L212.304 58.8233L210.152 56.1743H236.283L234.572 60.6169H219.092ZM263.635 56.1743L259.165 67.8189H255.053L256.764 74H249.258L247.437 67.8189H243.684L241.311 74H233.833L239.656 58.8233L237.503 56.1743H263.635ZM246.444 60.6169L245.368 63.4039H253.37L254.446 60.6169H246.444ZM284.088 74H261.158L262.841 69.585H278.294L279.177 67.2947H263.724L266.98 58.8233L264.828 56.1743H290.932L289.221 60.6169H273.768L272.913 62.8796H288.365L284.088 74Z" fill="url(#paint1_linear_254_311)"/>
</g>
<defs>
<filter id="filter0_d_254_311" x="0.399408" y="0.368342" width="336.686" height="105.145" filterUnits="userSpaceOnUse" color-interpolation-filters="sRGB">
<feFlood flood-opacity="0" result="BackgroundImageFix"/>
<feColorMatrix in="SourceAlpha" type="matrix" values="0 0 0 0 0 0 0 0 0 0 0 0 0 0 0 0 0 0 127 0" result="hardAlpha"/>
<feOffset dy="1.8537"/>
<feGaussianBlur stdDeviation="14.8296"/>
<feComposite in2="hardAlpha" operator="out"/>
<feColorMatrix type="matrix" values="0 0 0 0 0.336111 0 0 0 0 0.00416667 0 0 0 0 1 0 0 0 1 0"/>
<feBlend mode="normal" in2="BackgroundImageFix" result="effect1_dropShadow_254_311"/>
<feBlend mode="normal" in="SourceGraphic" in2="effect1_dropShadow_254_311" result="shape"/>
</filter>
<linearGradient id="paint0_linear_254_311" x1="8.64453" y1="95.7757" x2="333.184" y2="95.7757" gradientUnits="userSpaceOnUse">
<stop stop-color="#8C7F9C"/>
<stop offset="1" stop-color="#FF161A"/>
</linearGradient>
<linearGradient id="paint1_linear_254_311" x1="26.3906" y1="51" x2="313.391" y2="51" gradientUnits="userSpaceOnUse">
<stop stop-color="#B6CDFF"/>
<stop offset="1" stop-color="#FF797B"/>
</linearGradient>
</defs>
</svg>
