<svg width="42" height="42" viewBox="0 0 42 42" fill="none" xmlns="http://www.w3.org/2000/svg">
<rect width="42" height="42" rx="21" fill="#B91E5D"/>
<path d="M25.4929 17.3963C25.319 16.8505 25.0851 16.3617 24.7912 15.9299C24.5033 15.4921 24.1585 15.1203 23.7566 14.8144C23.3548 14.5025 22.896 14.2656 22.3802 14.1037C21.8704 13.9418 21.3097 13.8608 20.6979 13.8608C19.6604 13.8608 18.7247 14.1277 17.8911 14.6615C17.0574 15.1952 16.3977 15.9779 15.9119 17.0095C15.4321 18.035 15.1922 19.2915 15.1922 20.7789C15.1922 22.2723 15.4351 23.5347 15.9209 24.5663C16.4067 25.5979 17.0724 26.3805 17.9181 26.9143C18.7637 27.4481 19.7263 27.715 20.8059 27.715C21.8074 27.715 22.6801 27.511 23.4238 27.1032C24.1735 26.6954 24.7522 26.1196 25.16 25.3759C25.5739 24.6263 25.7808 23.7446 25.7808 22.7311L26.5005 22.866H21.2287V20.572H28.4706V22.6681C28.4706 24.2154 28.1408 25.5589 27.4811 26.6984C26.8273 27.8319 25.9217 28.7075 24.7642 29.3253C23.6127 29.943 22.2932 30.2519 20.8059 30.2519C19.1386 30.2519 17.6752 29.8681 16.4157 29.1004C15.1622 28.3327 14.1847 27.2442 13.483 25.8348C12.7813 24.4193 12.4304 22.7401 12.4304 20.7969C12.4304 19.3275 12.6343 18.008 13.0421 16.8385C13.45 15.669 14.0227 14.6765 14.7604 13.8608C15.5041 13.0391 16.3767 12.4124 17.3783 11.9806C18.3859 11.5428 19.4864 11.3239 20.6799 11.3239C21.6755 11.3239 22.6021 11.4708 23.4598 11.7647C24.3234 12.0586 25.0911 12.4754 25.7628 13.0152C26.4405 13.5549 27.0013 14.1967 27.4451 14.9403C27.8889 15.678 28.1888 16.4967 28.3447 17.3963H25.4929Z" fill="white"/>
</svg>
