<svg width="42" height="42" viewBox="0 0 42 42" fill="none" xmlns="http://www.w3.org/2000/svg">
<rect width="42" height="42" rx="21" fill="#F4891E"/>
<path d="M22.1851 12.5758H24.956V25.6383C24.956 26.8198 24.7221 27.8303 24.2543 28.67C23.7925 29.5096 23.1417 30.1514 22.3021 30.5952C21.4624 31.033 20.4789 31.2519 19.3513 31.2519C18.3138 31.2519 17.3812 31.063 16.5535 30.6851C15.7318 30.3073 15.0811 29.7585 14.6013 29.0388C14.1275 28.3131 13.8906 27.4315 13.8906 26.3939H16.6525C16.6525 26.9037 16.7694 27.3445 17.0033 27.7164C17.2432 28.0882 17.5701 28.3791 17.9839 28.589C18.4037 28.7929 18.8835 28.8949 19.4233 28.8949C20.011 28.8949 20.5088 28.7719 20.9167 28.526C21.3305 28.2741 21.6454 27.9053 21.8613 27.4195C22.0772 26.9337 22.1851 26.34 22.1851 25.6383V12.5758Z" fill="white"/>
</svg>
