<svg width="42" height="42" viewBox="0 0 42 42" fill="none" xmlns="http://www.w3.org/2000/svg">
<rect width="42" height="42" rx="21" fill="#F4511E"/>
<path d="M24.0729 16.4157C23.977 15.5641 23.5811 14.9044 22.8854 14.4366C22.1897 13.9628 21.3141 13.7259 20.2585 13.7259C19.5028 13.7259 18.8491 13.8458 18.2973 14.0857C17.7456 14.3196 17.3168 14.6435 17.0109 15.0573C16.711 15.4651 16.5611 15.9299 16.5611 16.4517C16.5611 16.8895 16.663 17.2674 16.867 17.5852C17.0769 17.9031 17.3497 18.17 17.6856 18.3859C18.0275 18.5958 18.3933 18.7727 18.7831 18.9167C19.173 19.0546 19.5478 19.1686 19.9077 19.2585L21.7069 19.7263C22.2947 19.8703 22.8974 20.0652 23.5152 20.3111C24.1329 20.557 24.7057 20.8808 25.2334 21.2827C25.7612 21.6845 26.187 22.1823 26.5109 22.776C26.8408 23.3698 27.0057 24.0805 27.0057 24.9081C27.0057 25.9517 26.7358 26.8783 26.196 27.688C25.6622 28.4976 24.8856 29.1364 23.866 29.6042C22.8524 30.072 21.6259 30.3059 20.1866 30.3059C18.8071 30.3059 17.6136 30.087 16.6061 29.6491C15.5985 29.2113 14.8098 28.5906 14.2401 27.7869C13.6703 26.9773 13.3554 26.0177 13.2955 24.9081H16.0843C16.1383 25.5739 16.3542 26.1286 16.732 26.5724C17.1158 27.0103 17.6046 27.3371 18.1984 27.553C18.7981 27.7629 19.4549 27.8679 20.1686 27.8679C20.9542 27.8679 21.6529 27.7449 22.2647 27.4991C22.8824 27.2472 23.3682 26.8993 23.7221 26.4555C24.0759 26.0057 24.2528 25.4809 24.2528 24.8812C24.2528 24.3354 24.0969 23.8886 23.785 23.5407C23.4792 23.1929 23.0623 22.905 22.5346 22.6771C22.0128 22.4492 21.422 22.2483 20.7623 22.0743L18.5852 21.4806C17.1098 21.0788 15.9403 20.488 15.0767 19.7083C14.2191 18.9287 13.7902 17.8971 13.7902 16.6136C13.7902 15.5521 14.0781 14.6255 14.6539 13.8338C15.2296 13.0421 16.0093 12.4274 16.9929 11.9896C17.9765 11.5458 19.086 11.3239 20.3215 11.3239C21.569 11.3239 22.6695 11.5428 23.6231 11.9806C24.5827 12.4184 25.3384 13.0211 25.8902 13.7888C26.4419 14.5505 26.7298 15.4261 26.7538 16.4157H24.0729Z" fill="white"/>
</svg>
