<svg width="49" height="26" viewBox="0 0 49 26" fill="none" xmlns="http://www.w3.org/2000/svg">
<g clip-path="url(#clip0_167_307)">
<path opacity="0.7" d="M2.6076 22.1738L3.07181 23.18L4.17223 23.3106L3.35866 24.0628L3.57461 25.1498L2.6076 24.6086L1.64058 25.1499L1.85654 24.063L1.04297 23.3104L2.14353 23.1799L2.6076 22.1738Z" fill="#FFE02F"/>
<path d="M2.6076 22.1738L3.07181 23.18L4.17223 23.3106L3.35866 24.0628L3.57461 25.1498L2.6076 24.6086L1.64058 25.1499L1.85654 24.063L1.04297 23.3104L2.14353 23.1799L2.6076 22.1738Z" stroke="#FFDE21" stroke-width="0.299107" stroke-linejoin="round"/>
</g>
<g clip-path="url(#clip1_167_307)">
<path opacity="0.7" d="M9.44354 22.1738L9.90775 23.18L11.0082 23.3106L10.1946 24.0628L10.4105 25.1498L9.44354 24.6086L8.47652 25.1499L8.69248 24.063L7.87891 23.3104L8.97947 23.1799L9.44354 22.1738Z" fill="#FFE02F"/>
<path d="M9.44354 22.1738L9.90775 23.18L11.0082 23.3106L10.1946 24.0628L10.4105 25.1498L9.44354 24.6086L8.47652 25.1499L8.69248 24.063L7.87891 23.3104L8.97947 23.1799L9.44354 22.1738Z" stroke="#FFDE21" stroke-width="0.299107" stroke-linejoin="round"/>
</g>
<g clip-path="url(#clip2_167_307)">
<path opacity="0.7" d="M16.2795 22.1738L16.7437 23.18L17.8441 23.3106L17.0305 24.0628L17.2465 25.1498L16.2795 24.6086L15.3125 25.1499L15.5284 24.063L14.7148 23.3104L15.8154 23.1799L16.2795 22.1738Z" fill="#FFE02F"/>
<path d="M16.2795 22.1738L16.7437 23.18L17.8441 23.3106L17.0305 24.0628L17.2465 25.1498L16.2795 24.6086L15.3125 25.1499L15.5284 24.063L14.7148 23.3104L15.8154 23.1799L16.2795 22.1738Z" stroke="#FFDE21" stroke-width="0.299107" stroke-linejoin="round"/>
</g>
<g clip-path="url(#clip3_167_307)">
<path opacity="0.7" d="M23.1154 22.1738L23.5796 23.18L24.68 23.3106L23.8665 24.0628L24.0824 25.1498L23.1154 24.6086L22.1484 25.1499L22.3644 24.063L21.5508 23.3104L22.6513 23.1799L23.1154 22.1738Z" fill="#FFE02F"/>
<path d="M23.1154 22.1738L23.5796 23.18L24.68 23.3106L23.8665 24.0628L24.0824 25.1498L23.1154 24.6086L22.1484 25.1499L22.3644 24.063L21.5508 23.3104L22.6513 23.1799L23.1154 22.1738Z" stroke="#FFDE21" stroke-width="0.299107" stroke-linejoin="round"/>
</g>
<g clip-path="url(#clip4_167_307)">
<path opacity="0.7" d="M29.9513 22.1738L30.4156 23.18L31.516 23.3106L30.7024 24.0628L30.9184 25.1498L29.9513 24.6086L28.9843 25.1499L29.2003 24.063L28.3867 23.3104L29.4873 23.1799L29.9513 22.1738Z" fill="#FFE02F"/>
<path d="M29.9513 22.1738L30.4156 23.18L31.516 23.3106L30.7024 24.0628L30.9184 25.1498L29.9513 24.6086L28.9843 25.1499L29.2003 24.063L28.3867 23.3104L29.4873 23.1799L29.9513 22.1738Z" stroke="#FFDE21" stroke-width="0.299107" stroke-linejoin="round"/>
</g>
<rect x="1.12109" y="0.625" width="17.5" height="17.5" rx="8.75" fill="white"/>
<g clip-path="url(#clip5_167_307)">
<path d="M7.68073 3.25514C6.33811 3.7209 5.18024 4.60494 4.37719 5.7774C3.57414 6.94986 3.16824 8.34894 3.2191 9.76914C3.26997 11.1893 3.77492 12.5558 4.65979 13.6678C5.54465 14.7798 6.7628 15.5788 8.13529 15.9473C9.248 16.2344 10.4138 16.247 11.5325 15.984C12.5459 15.7564 13.4828 15.2695 14.2515 14.571C15.0515 13.8218 15.6322 12.8687 15.9311 11.8142C16.2561 10.6675 16.3139 9.46151 16.1002 8.28895H9.85172V10.8809H13.4704C13.3981 11.2943 13.2431 11.6889 13.0147 12.041C12.7864 12.3931 12.4893 12.6955 12.1413 12.9301C11.6995 13.2224 11.2013 13.4191 10.679 13.5075C10.1551 13.6049 9.61768 13.6049 9.09376 13.5075C8.56276 13.3977 8.06044 13.1786 7.61879 12.864C6.90928 12.3618 6.37653 11.6482 6.09657 10.8253C5.81188 9.9869 5.81188 9.07799 6.09657 8.23961C6.29585 7.65195 6.62529 7.11688 7.06029 6.67435C7.5581 6.15863 8.18834 5.78999 8.88187 5.60888C9.57539 5.42777 10.3054 5.44118 10.9918 5.64764C11.528 5.81224 12.0184 6.09983 12.4237 6.48749C12.8318 6.08156 13.2391 5.67459 13.6457 5.26657C13.8557 5.04716 14.0845 4.83824 14.2913 4.61359C13.6726 4.03774 12.9462 3.58967 12.1539 3.29503C10.7112 2.77117 9.13258 2.75709 7.68073 3.25514Z" fill="white"/>
<path d="M7.68333 3.25565C9.13506 2.75726 10.7137 2.77097 12.1565 3.29449C12.949 3.59113 13.675 4.04136 14.2929 4.61935C14.0829 4.844 13.8614 5.05397 13.6473 5.27232C13.2399 5.67895 12.833 6.08417 12.4263 6.488C12.021 6.10034 11.5306 5.81276 10.9944 5.64815C10.3082 5.44097 9.57824 5.42678 8.88453 5.60715C8.19082 5.78752 7.5602 6.15548 7.06184 6.67066C6.62684 7.11319 6.2974 7.64826 6.09812 8.23592L3.92188 6.55099C4.70084 5.00626 6.04957 3.82467 7.68333 3.25565Z" fill="#E33629"/>
<path d="M3.34111 8.21899C3.45808 7.63929 3.65228 7.07788 3.9185 6.5498L6.09475 8.23894C5.81006 9.07732 5.81006 9.98623 6.09475 10.8246C5.36968 11.3845 4.64427 11.9472 3.9185 12.5127C3.25204 11.1861 3.04877 9.67455 3.34111 8.21899Z" fill="#F8BD00"/>
<path d="M9.85203 8.28809H16.1005C16.3142 9.46065 16.2564 10.6666 15.9314 11.8133C15.6325 12.8678 15.0518 13.8209 14.2518 14.5701C13.5494 14.0221 12.844 13.4783 12.1417 12.9303C12.4898 12.6955 12.787 12.3927 13.0154 12.0402C13.2438 11.6877 13.3986 11.2928 13.4707 10.879H9.85203C9.85098 10.0161 9.85203 9.15208 9.85203 8.28809Z" fill="#587DBD"/>
<path d="M3.91797 12.5123C4.64373 11.9524 5.36915 11.3897 6.09421 10.8242C6.37473 11.6475 6.90824 12.361 7.61853 12.8629C8.06156 13.1761 8.56496 13.3934 9.09665 13.5012C9.62057 13.5986 10.1579 13.5986 10.6819 13.5012C11.2042 13.4128 11.7024 13.2161 12.1442 12.9238C12.8466 13.4718 13.552 14.0156 14.2543 14.5636C13.4858 15.2625 12.5489 15.7498 11.5354 15.9777C10.4167 16.2407 9.2509 16.2281 8.13818 15.941C7.25813 15.706 6.43611 15.2918 5.72363 14.7242C4.96952 14.1255 4.35359 13.371 3.91797 12.5123Z" fill="#319F43"/>
</g>
<path d="M25.2114 12.125V8.36833H27.0139C27.4456 8.36833 27.7625 8.48306 27.9647 8.7125C28.167 8.93806 28.2681 9.24333 28.2681 9.62833C28.2681 9.88111 28.202 10.0989 28.0697 10.2817C27.9414 10.4644 27.7586 10.5967 27.5214 10.6783C27.5836 10.7289 27.6322 10.7833 27.6672 10.8417C27.7061 10.9 27.745 10.9778 27.7839 11.075L28.2389 12.125H27.4222L26.9789 11.1158C26.94 11.0303 26.8972 10.97 26.8506 10.935C26.8039 10.9 26.7261 10.8825 26.6172 10.8825H25.9989V12.125H25.2114ZM25.9989 10.2292H26.8097C27.0159 10.2292 27.1772 10.1844 27.2939 10.095C27.4106 10.0017 27.4689 9.84611 27.4689 9.62833C27.4689 9.41833 27.4184 9.26472 27.3172 9.1675C27.2161 9.07028 27.0625 9.02167 26.8564 9.02167H25.9989V10.2292ZM28.8174 12.125V8.36833H31.5124V8.98083H29.6049V9.94333H31.2965V10.55H29.6049V11.5183H31.5124V12.125H28.8174ZM33.2916 12.125L31.8566 8.36833H32.6791L33.7175 11.2442L34.7616 8.36833H35.5841L34.155 12.125H33.2916ZM35.9837 12.125V8.36833H36.7712V12.125H35.9837ZM37.4363 12.125V8.36833H40.1313V8.98083H38.2238V9.94333H39.9155V10.55H38.2238V11.5183H40.1313V12.125H37.4363ZM41.436 12.125L40.561 8.36833H41.3369L41.9027 10.9058L42.5152 8.85833V8.36833H43.1569L43.8802 10.9117L44.4635 8.36833H45.2335L44.3644 12.125H43.6177L42.9294 9.72167L42.1885 12.125H41.436ZM46.8346 12.1833C46.5935 12.1833 46.3679 12.1658 46.1579 12.1308C45.9518 12.0958 45.7729 12.0453 45.6213 11.9792V11.285C45.7924 11.355 45.9771 11.4114 46.1754 11.4542C46.3738 11.4969 46.5682 11.5183 46.7588 11.5183C47.031 11.5183 47.2313 11.4931 47.3596 11.4425C47.4879 11.3919 47.5521 11.2772 47.5521 11.0983C47.5521 10.9856 47.5249 10.8961 47.4704 10.83C47.416 10.7639 47.3207 10.7056 47.1846 10.655C47.0524 10.6006 46.8638 10.5403 46.6188 10.4742C46.226 10.3653 45.9499 10.2292 45.7904 10.0658C45.631 9.9025 45.5513 9.67694 45.5513 9.38917C45.5513 9.04306 45.6777 8.77667 45.9304 8.59C46.1832 8.40333 46.5507 8.31 47.0329 8.31C47.2585 8.31 47.4685 8.32556 47.6629 8.35667C47.8574 8.38778 48.0149 8.42472 48.1354 8.4675V9.16167C47.8166 9.04111 47.4841 8.98083 47.1379 8.98083C46.8929 8.98083 46.7004 9.00806 46.5604 9.0625C46.4204 9.11306 46.3504 9.22194 46.3504 9.38917C46.3504 9.48639 46.3757 9.56417 46.4263 9.6225C46.4768 9.68083 46.5624 9.73333 46.6829 9.78C46.8074 9.82667 46.9804 9.87917 47.2021 9.9375C47.5093 10.0192 47.7466 10.1164 47.9138 10.2292C48.081 10.3419 48.1957 10.4703 48.2579 10.6142C48.3241 10.7581 48.3571 10.9194 48.3571 11.0983C48.3571 11.425 48.2327 11.6875 47.9838 11.8858C47.7349 12.0842 47.3518 12.1833 46.8346 12.1833Z" fill="white"/>
<defs>
<clipPath id="clip0_167_307">
<rect width="3.58929" height="3.58929" fill="white" transform="translate(0.8125 21.875)"/>
</clipPath>
<clipPath id="clip1_167_307">
<rect width="3.58929" height="3.58929" fill="white" transform="translate(7.64844 21.875)"/>
</clipPath>
<clipPath id="clip2_167_307">
<rect width="3.58929" height="3.58929" fill="white" transform="translate(14.4844 21.875)"/>
</clipPath>
<clipPath id="clip3_167_307">
<rect width="3.58929" height="3.58929" fill="white" transform="translate(21.3203 21.875)"/>
</clipPath>
<clipPath id="clip4_167_307">
<rect width="3.58929" height="3.58929" fill="white" transform="translate(28.1562 21.875)"/>
</clipPath>
<clipPath id="clip5_167_307">
<rect width="13.4375" height="13.4375" fill="white" transform="translate(3 2.8125)"/>
</clipPath>
</defs>
</svg>
