<svg width="36" height="36" viewBox="0 0 36 36" fill="none" xmlns="http://www.w3.org/2000/svg">
<path fill-rule="evenodd" clip-rule="evenodd" d="M17.9791 9.36816C16.6876 9.36816 15.449 9.88123 14.5357 10.7945C13.6224 11.7077 13.1094 12.9464 13.1094 14.2379C13.1094 15.5295 13.6224 16.7681 14.5357 17.6814C15.449 18.5946 16.6876 19.1077 17.9791 19.1077C19.2707 19.1077 20.5093 18.5946 21.4226 17.6814C22.3358 16.7681 22.8489 15.5295 22.8489 14.2379C22.8489 12.9464 22.3358 11.7077 21.4226 10.7945C20.5093 9.88123 19.2707 9.36816 17.9791 9.36816ZM15.357 14.2379C15.357 13.5425 15.6332 12.8755 16.125 12.3838C16.6167 11.892 17.2837 11.6157 17.9791 11.6157C18.6746 11.6157 19.3415 11.892 19.8333 12.3838C20.3251 12.8755 20.6013 13.5425 20.6013 14.2379C20.6013 14.9334 20.3251 15.6003 19.8333 16.0921C19.3415 16.5838 18.6746 16.8601 17.9791 16.8601C17.2837 16.8601 16.6167 16.5838 16.125 16.0921C15.6332 15.6003 15.357 14.9334 15.357 14.2379Z" fill="white"/>
<path fill-rule="evenodd" clip-rule="evenodd" d="M17.9781 3.375C16.0187 3.37487 14.0958 3.90467 12.4129 4.90829C10.7301 5.91191 9.35008 7.35199 8.41897 9.07599C7.48787 10.8 7.04037 12.7437 7.12388 14.7013C7.20739 16.6589 7.8188 18.5575 8.89334 20.1959L5.01701 26.9087C4.9094 27.0956 4.85787 27.3096 4.86857 27.525C4.87927 27.7405 4.95175 27.9483 5.07735 28.1237C5.20295 28.299 5.37637 28.4345 5.5769 28.514C5.77743 28.5935 5.99659 28.6136 6.20823 28.5719L10.125 27.8017L11.4151 31.5777C11.4847 31.7822 11.6117 31.9624 11.781 32.0967C11.9503 32.2309 12.1547 32.3135 12.3698 32.3345C12.5848 32.3555 12.8013 32.3141 12.9935 32.2152C13.1856 32.1163 13.3451 31.9642 13.4529 31.7769L17.3188 25.0821C17.7579 25.1098 18.1983 25.1098 18.6374 25.0821L22.5032 31.7769C22.6112 31.9641 22.7708 32.1162 22.963 32.215C23.1552 32.3138 23.3718 32.355 23.5869 32.3338C23.8019 32.3127 24.0063 32.2299 24.1755 32.0955C24.3448 31.9611 24.4717 31.7808 24.541 31.5762L25.8266 27.7912L29.7464 28.5704C29.9582 28.6125 30.1775 28.5926 30.3783 28.5133C30.5791 28.434 30.7528 28.2985 30.8786 28.123C31.0044 27.9476 31.077 27.7396 31.0878 27.524C31.0985 27.3084 31.0469 27.0943 30.9391 26.9072L27.0643 20.1959C28.1389 18.5574 28.7503 16.6587 28.8338 14.7009C28.9172 12.7432 28.4696 10.7994 27.5383 9.07533C26.607 7.35128 25.2268 5.91123 23.5437 4.90771C21.8607 3.9042 19.9376 3.3746 17.9781 3.375ZM9.36234 14.2383C9.36234 11.9533 10.2701 9.76184 11.8858 8.14607C13.5016 6.53031 15.693 5.62258 17.9781 5.62258C20.2631 5.62258 22.4545 6.53031 24.0703 8.14607C25.6861 9.76184 26.5938 11.9533 26.5938 14.2383C26.5938 16.5233 25.6861 18.7148 24.0703 20.3306C22.4545 21.9463 20.2631 22.854 17.9781 22.854C15.693 22.854 13.5016 21.9463 11.8858 20.3306C10.2701 18.7148 9.36234 16.5233 9.36234 14.2383ZM14.9573 24.6761C13.2529 24.1827 11.6955 23.2787 10.4217 22.0434L8.20109 25.8898L10.6539 25.4073C10.9205 25.355 11.197 25.401 11.4322 25.5368C11.6675 25.6726 11.8456 25.889 11.9336 26.146L12.7427 28.512L14.9573 24.6761ZM23.2104 28.506L20.9988 24.6761C22.7032 24.1827 24.2606 23.2787 25.5344 22.0434L27.7521 25.8838L25.2977 25.3953C25.0303 25.3424 24.7528 25.3884 24.5168 25.5249C24.2809 25.6613 24.1026 25.8789 24.0151 26.137L23.2104 28.506Z" fill="white"/>
</svg>
