<svg width="303" height="57" viewBox="0 0 303 57" fill="none" xmlns="http://www.w3.org/2000/svg">
<path d="M1.44 21.332V0.72403H16.928V5.20403H7.456V8.75603H15.712V13.3H7.456V21.332H1.44ZM28.4218 21.652C25.0084 21.652 22.3951 20.82 20.5818 19.156C18.7898 17.492 17.8938 14.804 17.8938 11.092C17.8938 8.53203 18.2991 6.47336 19.1098 4.91603C19.9204 3.33736 21.1044 2.19603 22.6618 1.49203C24.2404 0.766697 26.1604 0.40403 28.4218 0.40403C30.6831 0.40403 32.5924 0.766697 34.1498 1.49203C35.7284 2.19603 36.9231 3.33736 37.7338 4.91603C38.5444 6.47336 38.9498 8.53203 38.9498 11.092C38.9498 14.804 38.0431 17.492 36.2298 19.156C34.4164 20.82 31.8138 21.652 28.4218 21.652ZM28.4218 16.532C29.9578 16.532 31.0671 16.1054 31.7498 15.252C32.4538 14.3774 32.8058 12.9907 32.8058 11.092C32.8058 9.06536 32.4538 7.63603 31.7498 6.80403C31.0671 5.9507 29.9578 5.52403 28.4218 5.52403C26.8858 5.52403 25.7658 5.9507 25.0618 6.80403C24.3791 7.63603 24.0378 9.06536 24.0378 11.092C24.0378 12.9907 24.3791 14.3774 25.0618 15.252C25.7658 16.1054 26.8858 16.532 28.4218 16.532ZM41.19 21.332V0.72403H51.91C53.5953 0.72403 54.9713 1.03336 56.038 1.65203C57.126 2.2707 57.9367 3.1347 58.47 4.24403C59.0033 5.33203 59.27 6.60136 59.27 8.05203C59.27 9.4387 58.918 10.6654 58.214 11.732C57.5313 12.7774 56.614 13.5774 55.462 14.132C55.6967 14.324 55.8993 14.5587 56.07 14.836C56.2407 15.092 56.4327 15.4547 56.646 15.924L59.014 21.332H52.742L50.566 16.372C50.3953 15.988 50.182 15.7214 49.926 15.572C49.6913 15.4014 49.35 15.316 48.902 15.316H47.206V21.332H41.19ZM47.206 10.708H50.374C51.2487 10.708 51.9207 10.484 52.39 10.036C52.8807 9.5667 53.126 8.90536 53.126 8.05203C53.126 6.2387 52.2727 5.33203 50.566 5.33203H47.206V10.708ZM68.065 21.332V0.72403H83.681V5.33203H74.081V8.69203H82.497V13.364H74.081V16.724H83.681V21.332H68.065ZM92.3915 21.332L84.4875 0.72403H90.7595L95.5595 14.356L100.36 0.72403H106.664L98.7595 21.332H92.3915ZM108.44 21.332V0.72403H124.056V5.33203H114.456V8.69203H122.872V13.364H114.456V16.724H124.056V21.332H108.44ZM125.971 21.332V0.72403H136.691C138.377 0.72403 139.753 1.03336 140.819 1.65203C141.907 2.2707 142.718 3.1347 143.251 4.24403C143.785 5.33203 144.051 6.60136 144.051 8.05203C144.051 9.4387 143.699 10.6654 142.995 11.732C142.313 12.7774 141.395 13.5774 140.243 14.132C140.478 14.324 140.681 14.5587 140.851 14.836C141.022 15.092 141.214 15.4547 141.427 15.924L143.795 21.332H137.523L135.347 16.372C135.177 15.988 134.963 15.7214 134.707 15.572C134.473 15.4014 134.131 15.316 133.683 15.316H131.987V21.332H125.971ZM131.987 10.708H135.155C136.03 10.708 136.702 10.484 137.171 10.036C137.662 9.5667 137.907 8.90536 137.907 8.05203C137.907 6.2387 137.054 5.33203 135.347 5.33203H131.987V10.708ZM150.974 21.332V13.78L143.55 0.72403H149.822L153.982 8.50003L158.142 0.72403H164.414L156.99 13.78V21.332H150.974ZM173.221 21.332V0.72403H183.845C185.531 0.72403 186.917 1.06536 188.005 1.74803C189.115 2.40936 189.936 3.31603 190.469 4.46803C191.003 5.62003 191.269 6.90003 191.269 8.30803C191.269 9.7587 190.96 11.0494 190.341 12.18C189.723 13.3107 188.848 14.196 187.717 14.836C186.587 15.476 185.253 15.796 183.717 15.796H179.237V21.332H173.221ZM179.237 11.188H182.341C183.28 11.188 183.973 10.9214 184.421 10.388C184.891 9.8547 185.125 9.16136 185.125 8.30803C185.125 7.3907 184.912 6.66536 184.485 6.13203C184.059 5.5987 183.397 5.33203 182.501 5.33203H179.237V11.188ZM192.878 21.332V0.72403H203.598C205.283 0.72403 206.659 1.03336 207.726 1.65203C208.814 2.2707 209.624 3.1347 210.158 4.24403C210.691 5.33203 210.958 6.60136 210.958 8.05203C210.958 9.4387 210.606 10.6654 209.902 11.732C209.219 12.7774 208.302 13.5774 207.15 14.132C207.384 14.324 207.587 14.5587 207.758 14.836C207.928 15.092 208.12 15.4547 208.333 15.924L210.702 21.332H204.43L202.254 16.372C202.083 15.988 201.87 15.7214 201.614 15.572C201.379 15.4014 201.038 15.316 200.59 15.316H198.894V21.332H192.878ZM198.894 10.708H202.062C202.936 10.708 203.608 10.484 204.078 10.036C204.568 9.5667 204.814 8.90536 204.814 8.05203C204.814 6.2387 203.96 5.33203 202.254 5.33203H198.894V10.708ZM222.609 21.652C219.196 21.652 216.583 20.82 214.769 19.156C212.977 17.492 212.081 14.804 212.081 11.092C212.081 8.53203 212.487 6.47336 213.297 4.91603C214.108 3.33736 215.292 2.19603 216.849 1.49203C218.428 0.766697 220.348 0.40403 222.609 0.40403C224.871 0.40403 226.78 0.766697 228.337 1.49203C229.916 2.19603 231.111 3.33736 231.921 4.91603C232.732 6.47336 233.137 8.53203 233.137 11.092C233.137 14.804 232.231 17.492 230.417 19.156C228.604 20.82 226.001 21.652 222.609 21.652ZM222.609 16.532C224.145 16.532 225.255 16.1054 225.937 15.252C226.641 14.3774 226.993 12.9907 226.993 11.092C226.993 9.06536 226.641 7.63603 225.937 6.80403C225.255 5.9507 224.145 5.52403 222.609 5.52403C221.073 5.52403 219.953 5.9507 219.249 6.80403C218.567 7.63603 218.225 9.06536 218.225 11.092C218.225 12.9907 218.567 14.3774 219.249 15.252C219.953 16.1054 221.073 16.532 222.609 16.532ZM238.994 21.652C238.098 21.652 237.244 21.588 236.434 21.46C235.623 21.3534 234.844 21.172 234.098 20.916V15.924C234.61 16.1374 235.186 16.2974 235.826 16.404C236.466 16.5107 237.106 16.564 237.746 16.564C238.898 16.564 239.719 16.3294 240.21 15.86C240.7 15.3907 240.946 14.612 240.946 13.524V0.72403H246.962V14.484C246.962 16.724 246.279 18.484 244.914 19.764C243.57 21.0227 241.596 21.652 238.994 21.652ZM249.69 21.332V0.72403H265.306V5.33203H255.706V8.69203H264.122V13.364H255.706V16.724H265.306V21.332H249.69ZM278.069 21.652C274.336 21.652 271.488 20.7347 269.525 18.9C267.563 17.0654 266.581 14.4734 266.581 11.124C266.581 7.66803 267.541 5.0227 269.461 3.18803C271.381 1.33203 274.24 0.40403 278.037 0.40403C279.317 0.40403 280.459 0.50003 281.461 0.69203C282.464 0.88403 283.424 1.1507 284.341 1.49203V6.74003C282.507 5.92936 280.544 5.52403 278.453 5.52403C276.512 5.52403 275.072 5.97203 274.133 6.86803C273.195 7.7427 272.725 9.16136 272.725 11.124C272.725 13.044 273.216 14.4307 274.197 15.284C275.2 16.116 276.64 16.532 278.517 16.532C279.541 16.532 280.533 16.436 281.493 16.244C282.475 16.052 283.445 15.7534 284.405 15.348V20.628C283.488 20.948 282.517 21.1934 281.493 21.364C280.491 21.556 279.349 21.652 278.069 21.652ZM291.171 21.332V5.20403H285.379V0.72403H302.979V5.20403H297.187V21.332H291.171ZM8.224 56.332V48.78L0.8 35.724H7.072L11.232 43.5L15.392 35.724H21.664L14.24 48.78V56.332H8.224ZM31.078 56.652C27.6647 56.652 25.0513 55.82 23.238 54.156C21.446 52.492 20.55 49.804 20.55 46.092C20.55 43.532 20.9553 41.4734 21.766 39.916C22.5767 38.3374 23.7607 37.196 25.318 36.492C26.8967 35.7667 28.8167 35.404 31.078 35.404C33.3393 35.404 35.2487 35.7667 36.806 36.492C38.3847 37.196 39.5793 38.3374 40.39 39.916C41.2007 41.4734 41.606 43.532 41.606 46.092C41.606 49.804 40.6993 52.492 38.886 54.156C37.0727 55.82 34.47 56.652 31.078 56.652ZM31.078 51.532C32.614 51.532 33.7233 51.1054 34.406 50.252C35.11 49.3774 35.462 47.9907 35.462 46.092C35.462 44.0654 35.11 42.636 34.406 41.804C33.7233 40.9507 32.614 40.524 31.078 40.524C29.542 40.524 28.422 40.9507 27.718 41.804C27.0353 42.636 26.694 44.0654 26.694 46.092C26.694 47.9907 27.0353 49.3774 27.718 50.252C28.422 51.1054 29.542 51.532 31.078 51.532ZM53.4463 56.652C51.5263 56.652 49.8303 56.3427 48.3583 55.724C46.9076 55.084 45.7663 54.156 44.9343 52.94C44.1023 51.7027 43.6863 50.188 43.6863 48.396V35.724H49.7023V47.756C49.7023 50.2734 50.9503 51.532 53.4463 51.532C54.6409 51.532 55.5583 51.2227 56.1983 50.604C56.8383 49.9854 57.1583 49.036 57.1583 47.756V35.724H63.1743V48.396C63.1743 50.188 62.7583 51.7027 61.9263 52.94C61.1156 54.156 59.9743 55.084 58.5023 55.724C57.0516 56.3427 55.3663 56.652 53.4463 56.652ZM72.4713 56.332V35.724H78.4873V56.332H72.4713ZM81.3775 56.332V35.724H87.2335L92.3535 46.188L97.4415 35.724H103.266V56.332H97.2495V46.028L93.9535 52.812H90.7215L87.3935 46.028V56.332H81.3775ZM105.519 56.332L113.423 35.724H119.791L127.695 56.332H121.423L119.695 51.948H113.487L111.791 56.332H105.519ZM114.287 47.628H118.895L116.591 41.58L114.287 47.628ZM138.814 56.652C135.145 56.652 132.35 55.756 130.43 53.964C128.51 52.1507 127.55 49.5694 127.55 46.22C127.55 42.764 128.542 40.0974 130.526 38.22C132.51 36.3427 135.411 35.404 139.23 35.404C140.51 35.404 141.662 35.4787 142.686 35.628C143.731 35.7774 144.713 36.0014 145.63 36.3V41.452C144.691 41.0894 143.721 40.844 142.718 40.716C141.715 40.588 140.691 40.524 139.646 40.524C137.662 40.524 136.169 40.972 135.166 41.868C134.185 42.764 133.694 44.2147 133.694 46.22C133.694 48.0974 134.121 49.452 134.974 50.284C135.849 51.116 137.129 51.532 138.814 51.532C139.369 51.532 139.891 51.5 140.382 51.436C140.873 51.3507 141.331 51.244 141.758 51.116V48.108H137.662V44.396H146.782V54.764C145.993 55.2547 144.937 55.692 143.614 56.076C142.313 56.46 140.713 56.652 138.814 56.652ZM149.034 56.332V35.724H155.05V56.332H149.034ZM157.94 56.332V35.724H163.06L170.836 46.636V35.724H176.852V56.332H171.7L163.956 45.452V56.332H157.94ZM179.721 56.332V35.724H195.337V40.332H185.737V43.692H194.153V48.364H185.737V51.724H195.337V56.332H179.721Z" fill="url(#paint0_linear_144_320)"/>
<defs>
<linearGradient id="paint0_linear_144_320" x1="0" y1="28.332" x2="342.763" y2="28.332" gradientUnits="userSpaceOnUse">
<stop stop-color="#0E0E0F"/>
<stop offset="1" stop-color="#616D84"/>
</linearGradient>
</defs>
</svg>
