<svg width="567" height="27" viewBox="0 0 567 27" fill="none" xmlns="http://www.w3.org/2000/svg">
<path d="M0.45322 26V0.922639H4.69768V26H0.45322ZM10.0072 26V0.922639H14.3685L22.3122 17.1606L30.2171 0.922639H34.5783V26H30.3728V7.81502L23.5973 21.6777H21.0272L14.2127 7.81502V26H10.0072ZM39.1279 26L48.7072 0.922639H53.4579L62.9592 26H58.5979L56.1058 19.536H46.0203L43.5282 26H39.1279ZM46.6823 16.265H55.4049L51.0436 4.7777L46.6823 16.265ZM77.0753 26.3894C72.9476 26.3894 69.8324 25.2731 67.7297 23.0406C65.6529 20.808 64.6145 17.7837 64.6145 13.9675C64.6145 11.2158 65.0688 8.84044 65.9774 6.84152C66.886 4.81664 68.2619 3.25904 70.105 2.16872C71.9741 1.0784 74.3365 0.533239 77.1921 0.533239C78.6718 0.533239 80.0088 0.637079 81.2029 0.84476C82.423 1.02648 83.5653 1.29906 84.6296 1.6625V5.32286C82.5009 4.54406 80.1386 4.15466 77.5426 4.15466C74.3495 4.15466 72.1039 4.99836 70.8059 6.68576C69.5339 8.37316 68.8979 10.8004 68.8979 13.9675C68.8979 16.8491 69.5728 19.0427 70.9228 20.5484C72.2727 22.0541 74.3625 22.8069 77.1921 22.8069C79.4247 22.8069 81.2289 22.5473 82.6048 22.0281V15.0189H76.3354V12.2542H86.2262V24.3256C85.4214 24.8448 84.2662 25.325 82.7605 25.7664C81.2808 26.1817 79.3857 26.3894 77.0753 26.3894ZM90.7286 26V0.922639H94.9731V26H90.7286ZM100.283 26V0.922639H104.021L117.105 19.3802V0.922639H121.31V26H117.572L104.527 7.58138V26H100.283ZM126.645 26V0.922639H144.129V4.23254H130.889V11.8258H142.688V15.0968H130.889V22.729H144.129V26H126.645ZM157.807 26V0.922639H167.971C171.683 0.922639 174.435 1.90912 176.226 3.88208C178.017 5.82908 178.913 9.07408 178.913 13.6171C178.913 17.9005 178.03 21.0416 176.265 23.0406C174.5 25.0135 171.735 26 167.971 26H157.807ZM162.052 22.729H167.309C168.944 22.729 170.307 22.4954 171.397 22.0281C172.488 21.5349 173.305 20.6263 173.851 19.3023C174.396 17.9784 174.668 16.0833 174.668 13.6171C174.668 11.1509 174.422 9.24282 173.928 7.8929C173.435 6.54298 172.643 5.59544 171.553 5.05028C170.489 4.50512 169.074 4.23254 167.309 4.23254H162.052V22.729ZM183.485 26V0.922639H195.011C197.815 0.922639 199.853 1.64952 201.125 3.10328C202.423 4.53108 203.072 6.47808 203.072 8.94428C203.072 10.7096 202.63 12.2152 201.748 13.4613C200.865 14.7074 199.593 15.5771 197.932 16.0703C198.399 16.4078 198.762 16.7712 199.022 17.1606C199.282 17.55 199.541 18.0692 199.801 18.7182L202.955 26H198.594L195.517 18.9908C195.232 18.3158 194.881 17.8356 194.466 17.55C194.077 17.2645 193.402 17.1217 192.441 17.1217H187.729V26H183.485ZM187.729 13.695H193.882C195.414 13.695 196.621 13.3185 197.503 12.5657C198.386 11.8129 198.827 10.6057 198.827 8.94428C198.827 5.80312 197.309 4.23254 194.271 4.23254H187.729V13.695ZM205.152 26L214.732 0.922639H219.482L228.984 26H224.622L222.13 19.536H212.045L209.552 26H205.152ZM212.707 16.265H221.429L217.068 4.7777L212.707 16.265ZM242.506 26.3894C239.054 26.3894 236.367 25.5587 234.446 23.8972C232.551 22.2358 231.603 19.8345 231.603 16.6933V0.922639H235.848V16.5376C235.848 18.6403 236.419 20.2109 237.561 21.2493C238.729 22.2877 240.378 22.8069 242.506 22.8069C244.609 22.8069 246.232 22.2877 247.374 21.2493C248.542 20.2109 249.126 18.6403 249.126 16.5376V0.922639H253.332V16.6933C253.332 19.8345 252.384 22.2358 250.489 23.8972C248.594 25.5587 245.933 26.3894 242.506 26.3894ZM270.108 26.3894C265.981 26.3894 262.865 25.2731 260.763 23.0406C258.686 20.808 257.647 17.7837 257.647 13.9675C257.647 11.2158 258.102 8.84044 259.01 6.84152C259.919 4.81664 261.295 3.25904 263.138 2.16872C265.007 1.0784 267.369 0.533239 270.225 0.533239C271.705 0.533239 273.042 0.637079 274.236 0.84476C275.456 1.02648 276.598 1.29906 277.663 1.6625V5.32286C275.534 4.54406 273.171 4.15466 270.575 4.15466C267.382 4.15466 265.137 4.99836 263.839 6.68576C262.567 8.37316 261.931 10.8004 261.931 13.9675C261.931 16.8491 262.606 19.0427 263.956 20.5484C265.306 22.0541 267.395 22.8069 270.225 22.8069C272.458 22.8069 274.262 22.5473 275.638 22.0281V15.0189H269.368V12.2542H279.259V24.3256C278.454 24.8448 277.299 25.325 275.793 25.7664C274.314 26.1817 272.419 26.3894 270.108 26.3894ZM283.761 26V0.922639H288.006V11.8258H300.077V0.922639H304.322V26H300.077V15.0968H288.006V26H283.761ZM316.132 26V4.23254H308.111V0.922639H328.359V4.23254H320.377V26H316.132ZM332.151 26V0.922639H336.395V26H332.151ZM341.705 26V0.922639H345.443L358.527 19.3802V0.922639H362.732V26H358.994L345.949 7.58138V26H341.705ZM379.749 26.3894C375.621 26.3894 372.506 25.2731 370.403 23.0406C368.326 20.808 367.288 17.7837 367.288 13.9675C367.288 11.2158 367.742 8.84044 368.651 6.84152C369.559 4.81664 370.935 3.25904 372.778 2.16872C374.647 1.0784 377.01 0.533239 379.865 0.533239C381.345 0.533239 382.682 0.637079 383.876 0.84476C385.096 1.02648 386.239 1.29906 387.303 1.6625V5.32286C385.174 4.54406 382.812 4.15466 380.216 4.15466C377.023 4.15466 374.777 4.99836 373.479 6.68576C372.207 8.37316 371.571 10.8004 371.571 13.9675C371.571 16.8491 372.246 19.0427 373.596 20.5484C374.946 22.0541 377.036 22.8069 379.865 22.8069C382.098 22.8069 383.902 22.5473 385.278 22.0281V15.0189H379.009V12.2542H388.899V24.3256C388.095 24.8448 386.94 25.325 385.434 25.7664C383.954 26.1817 382.059 26.3894 379.749 26.3894ZM410.359 26.3894C407.114 26.3894 404.505 25.974 402.532 25.1433V21.4051C403.648 21.8204 404.843 22.1579 406.115 22.4175C407.413 22.6771 408.698 22.8069 409.97 22.8069C411.969 22.8069 413.461 22.5733 414.448 22.106C415.46 21.6387 415.966 20.7042 415.966 19.3023C415.966 18.4456 415.759 17.7577 415.343 17.2385C414.928 16.7193 414.24 16.278 413.28 15.9145C412.319 15.5251 410.995 15.1228 409.308 14.7074C406.608 14.0065 404.713 13.1238 403.622 12.0595C402.532 10.9692 401.987 9.47646 401.987 7.58138C401.987 5.37478 402.792 3.64844 404.401 2.40236C406.011 1.15628 408.412 0.533239 411.605 0.533239C413.059 0.533239 414.422 0.637079 415.694 0.84476C416.992 1.05244 418.004 1.28608 418.731 1.54568V5.28392C416.758 4.53108 414.578 4.15466 412.189 4.15466C410.32 4.15466 408.866 4.40128 407.828 4.89452C406.79 5.38776 406.27 6.28338 406.27 7.58138C406.27 8.33422 406.452 8.94428 406.816 9.41156C407.179 9.87884 407.802 10.2812 408.685 10.6187C409.593 10.9562 410.839 11.3326 412.423 11.748C414.474 12.2672 416.057 12.8902 417.174 13.6171C418.316 14.318 419.108 15.1487 419.549 16.1092C420.016 17.0438 420.25 18.1082 420.25 19.3023C420.25 21.5089 419.432 23.2482 417.797 24.5203C416.161 25.7664 413.682 26.3894 410.359 26.3894ZM424.755 26V0.922639H442.239V4.23254H428.999V11.8258H440.798V15.0968H428.999V22.729H442.239V26H424.755ZM446.554 26V0.922639H458.08C460.883 0.922639 462.921 1.64952 464.193 3.10328C465.491 4.53108 466.14 6.47808 466.14 8.94428C466.14 10.7096 465.699 12.2152 464.816 13.4613C463.934 14.7074 462.662 15.5771 461 16.0703C461.468 16.4078 461.831 16.7712 462.091 17.1606C462.35 17.55 462.61 18.0692 462.869 18.7182L466.024 26H461.662L458.586 18.9908C458.3 18.3158 457.95 17.8356 457.535 17.55C457.145 17.2645 456.47 17.1217 455.51 17.1217H450.798V26H446.554ZM450.798 13.695H456.95C458.482 13.695 459.689 13.3185 460.572 12.5657C461.455 11.8129 461.896 10.6057 461.896 8.94428C461.896 5.80312 460.377 4.23254 457.34 4.23254H450.798V13.695ZM477.002 26L467.422 0.922639H471.823L479.338 21.444L486.853 0.922639H491.254L481.752 26H477.002ZM495.247 26V0.922639H499.491V26H495.247ZM516.561 26.3894C512.433 26.3894 509.305 25.2601 507.176 23.0016C505.073 20.7431 504.022 17.6928 504.022 13.8507C504.022 11.099 504.463 8.7366 505.346 6.76364C506.254 4.76472 507.63 3.23308 509.474 2.16872C511.317 1.0784 513.666 0.533239 516.522 0.533239C517.975 0.533239 519.299 0.650059 520.494 0.883699C521.714 1.09138 522.843 1.37694 523.881 1.74038V5.43968C522.843 5.02432 521.727 4.7128 520.532 4.50512C519.364 4.27148 518.131 4.15466 516.833 4.15466C513.718 4.15466 511.511 4.98538 510.213 6.64682C508.941 8.30826 508.305 10.7096 508.305 13.8507C508.305 16.7842 509.006 19.0168 510.408 20.5484C511.81 22.0541 513.978 22.8069 516.911 22.8069C518.105 22.8069 519.299 22.7161 520.494 22.5343C521.714 22.3267 522.856 22.0151 523.92 21.5998V25.338C522.882 25.6755 521.753 25.9351 520.532 26.1168C519.338 26.2985 518.014 26.3894 516.561 26.3894ZM528.425 26V0.922639H545.909V4.23254H532.669V11.8258H544.468V15.0968H532.669V22.729H545.909V26H528.425ZM557.056 26.3894C553.811 26.3894 551.202 25.974 549.229 25.1433V21.4051C550.346 21.8204 551.54 22.1579 552.812 22.4175C554.11 22.6771 555.395 22.8069 556.667 22.8069C558.666 22.8069 560.159 22.5733 561.145 22.106C562.158 21.6387 562.664 20.7042 562.664 19.3023C562.664 18.4456 562.456 17.7577 562.041 17.2385C561.625 16.7193 560.937 16.278 559.977 15.9145C559.016 15.5251 557.692 15.1228 556.005 14.7074C553.305 14.0065 551.41 13.1238 550.32 12.0595C549.229 10.9692 548.684 9.47646 548.684 7.58138C548.684 5.37478 549.489 3.64844 551.099 2.40236C552.708 1.15628 555.109 0.533239 558.302 0.533239C559.756 0.533239 561.119 0.637079 562.391 0.84476C563.689 1.05244 564.702 1.28608 565.429 1.54568V5.28392C563.456 4.53108 561.275 4.15466 558.887 4.15466C557.017 4.15466 555.564 4.40128 554.525 4.89452C553.487 5.38776 552.968 6.28338 552.968 7.58138C552.968 8.33422 553.149 8.94428 553.513 9.41156C553.876 9.87884 554.499 10.2812 555.382 10.6187C556.291 10.9562 557.537 11.3326 559.12 11.748C561.171 12.2672 562.755 12.8902 563.871 13.6171C565.013 14.318 565.805 15.1487 566.246 16.1092C566.714 17.0438 566.947 18.1082 566.947 19.3023C566.947 21.5089 566.129 23.2482 564.494 24.5203C562.858 25.7664 560.379 26.3894 557.056 26.3894Z" fill="url(#paint0_linear_106_1581)"/>
<defs>
<linearGradient id="paint0_linear_106_1581" x1="-2" y1="13.5" x2="572" y2="13.5" gradientUnits="userSpaceOnUse">
<stop stop-color="#0E0E0F"/>
<stop offset="1" stop-color="#616D84"/>
</linearGradient>
</defs>
</svg>
