<svg width="335" height="19" viewBox="0 0 335 19" fill="none" xmlns="http://www.w3.org/2000/svg">
<path d="M0.72828 18V0.333135H8.60156C9.95492 0.333135 11.0705 0.589177 11.9484 1.10126C12.8262 1.61334 13.4755 2.31746 13.8961 3.2136C14.3168 4.09146 14.5271 5.09734 14.5271 6.23123C14.5271 7.98695 13.9784 9.39518 12.8811 10.4559C11.8021 11.5167 10.339 12.047 8.49182 12.047H3.71848V18H0.72828ZM3.71848 9.6878H7.94316C9.13193 9.6878 10.0281 9.37689 10.6316 8.75507C11.2351 8.13326 11.5369 7.29198 11.5369 6.23123C11.5369 5.09734 11.2443 4.21948 10.659 3.59766C10.0921 2.97585 9.23252 2.66494 8.08033 2.66494H3.71848V9.6878ZM16.9095 18V0.333135H25.0296C27.0048 0.333135 28.4405 0.845219 29.3366 1.86939C30.2511 2.87526 30.7083 4.24691 30.7083 5.98434C30.7083 7.22797 30.3974 8.28871 29.7756 9.16657C29.1537 10.0444 28.2576 10.6571 27.0871 11.0046C27.4163 11.2423 27.6724 11.4984 27.8552 11.7727C28.0381 12.047 28.221 12.4128 28.4039 12.87L30.626 18H27.5535L25.3863 13.0621C25.1851 12.5866 24.9382 12.2482 24.6456 12.047C24.3713 11.8459 23.8957 11.7453 23.2191 11.7453H19.8997V18H16.9095ZM19.8997 9.33117H24.2341C25.3131 9.33117 26.1635 9.06598 26.7854 8.53561C27.4072 8.00524 27.7181 7.15481 27.7181 5.98434C27.7181 3.77141 26.6482 2.66494 24.5084 2.66494H19.8997V9.33117ZM33.6533 18V0.333135H45.9707V2.66494H36.6435V8.01438H44.9557V10.3188H36.6435V15.6956H45.9707V18H33.6533ZM56.7529 18.2743C53.845 18.2743 51.6412 17.4788 50.1416 15.8877C48.6602 14.2965 47.9195 12.1476 47.9195 9.4409C47.9195 7.5023 48.2304 5.83803 48.8522 4.44809C49.4923 3.03986 50.4616 1.96083 51.7601 1.21099C53.0586 0.442867 54.7137 0.0588052 56.7255 0.0588052C57.7497 0.0588052 58.6824 0.141104 59.5237 0.305702C60.3832 0.452012 61.1788 0.653188 61.9103 0.909229V3.51537C61.1788 3.22275 60.3924 3.00328 59.5511 2.85697C58.7281 2.69237 57.8594 2.61008 56.945 2.61008C54.7503 2.61008 53.1958 3.19531 52.2814 4.36579C51.3852 5.53627 50.9371 7.22797 50.9371 9.4409C50.9371 11.5075 51.4309 13.0803 52.4185 14.1594C53.4061 15.2201 54.9332 15.7505 56.9998 15.7505C57.8411 15.7505 58.6824 15.6865 59.5237 15.5585C60.3832 15.4122 61.1879 15.1927 61.9378 14.9001V17.5336C61.2062 17.7714 60.4107 17.9543 59.5511 18.0823C58.7098 18.2103 57.7771 18.2743 56.7529 18.2743ZM64.8369 18V0.333135H67.8271V18H64.8369ZM76.6427 18.2743C74.3566 18.2743 72.5186 17.9817 71.1287 17.3965V14.7629C71.9151 15.0555 72.7564 15.2933 73.6525 15.4762C74.567 15.659 75.4723 15.7505 76.3684 15.7505C77.7766 15.7505 78.8282 15.5859 79.5232 15.2567C80.2365 14.9275 80.5931 14.2691 80.5931 13.2815C80.5931 12.678 80.4468 12.1933 80.1542 11.8276C79.8615 11.4618 79.3769 11.1509 78.7002 10.8948C78.0235 10.6205 77.0908 10.337 75.902 10.0444C74 9.55063 72.6649 8.92882 71.8968 8.17898C71.1287 7.41085 70.7446 6.35926 70.7446 5.02418C70.7446 3.46964 71.3116 2.25345 72.4455 1.37559C73.5794 0.497734 75.2711 0.0588052 77.5206 0.0588052C78.5448 0.0588052 79.5049 0.13196 80.4011 0.27827C81.3155 0.42458 82.0287 0.589178 82.5408 0.772064V3.40563C81.1509 2.87526 79.6146 2.61008 77.9321 2.61008C76.6153 2.61008 75.5911 2.78382 74.8596 3.1313C74.128 3.47879 73.7623 4.10975 73.7623 5.02418C73.7623 5.55455 73.8903 5.98434 74.1463 6.31353C74.4024 6.64273 74.8413 6.9262 75.4631 7.16396C76.1032 7.40171 76.9811 7.6669 78.0967 7.95951C79.5415 8.32529 80.6571 8.76422 81.4435 9.2763C82.2482 9.77009 82.806 10.3553 83.1169 11.032C83.4461 11.6904 83.6107 12.4402 83.6107 13.2815C83.6107 14.8361 83.0346 16.0614 81.8824 16.9575C80.7302 17.8354 78.9837 18.2743 76.6427 18.2743ZM86.51 18V0.333135H89.5002V18H86.51ZM100.785 18.2743C97.9867 18.2743 95.8926 17.5428 94.5027 16.0797C93.1128 14.5983 92.4178 12.3122 92.4178 9.22143C92.4178 6.00263 93.1128 3.67082 94.5027 2.22601C95.8926 0.781208 97.9867 0.0588052 100.785 0.0588052C103.601 0.0588052 105.695 0.781208 107.067 2.22601C108.457 3.67082 109.152 6.00263 109.152 9.22143C109.152 12.3122 108.457 14.5983 107.067 16.0797C105.695 17.5428 103.601 18.2743 100.785 18.2743ZM100.785 15.7505C102.632 15.7505 103.985 15.2476 104.845 14.2417C105.723 13.2175 106.162 11.5441 106.162 9.22143C106.162 6.77075 105.723 5.06076 104.845 4.09146C103.985 3.10387 102.632 2.61008 100.785 2.61008C98.956 2.61008 97.6026 3.10387 96.7248 4.09146C95.8652 5.06076 95.4354 6.77075 95.4354 9.22143C95.4354 11.5441 95.8652 13.2175 96.7248 14.2417C97.6026 15.2476 98.956 15.7505 100.785 15.7505ZM112.068 18V0.333135H114.701L123.919 13.3364V0.333135H126.882V18H124.248L115.058 5.02418V18H112.068ZM144.973 18.2743C142.065 18.2743 139.861 17.4788 138.361 15.8877C136.88 14.2965 136.139 12.1476 136.139 9.4409C136.139 7.5023 136.45 5.83803 137.072 4.44809C137.712 3.03986 138.681 1.96083 139.98 1.21099C141.278 0.442867 142.933 0.0588052 144.945 0.0588052C145.969 0.0588052 146.902 0.141104 147.743 0.305702C148.603 0.452012 149.398 0.653188 150.13 0.909229V3.51537C149.398 3.22275 148.612 3.00328 147.771 2.85697C146.948 2.69237 146.079 2.61008 145.165 2.61008C142.97 2.61008 141.415 3.19531 140.501 4.36579C139.605 5.53627 139.157 7.22797 139.157 9.4409C139.157 11.5075 139.651 13.0803 140.638 14.1594C141.626 15.2201 143.153 15.7505 145.219 15.7505C146.061 15.7505 146.902 15.6865 147.743 15.5585C148.603 15.4122 149.408 15.1927 150.157 14.9001V17.5336C149.426 17.7714 148.63 17.9543 147.771 18.0823C146.929 18.2103 145.997 18.2743 144.973 18.2743ZM151.437 18L158.185 0.333135H161.532L168.226 18H165.153L163.398 13.4461H156.293L154.537 18H151.437ZM156.759 11.1417H162.904L159.831 3.049L156.759 11.1417ZM171.167 18V0.333135H178.327C180.942 0.333135 182.881 1.02811 184.142 2.41805C185.404 3.7897 186.035 6.07578 186.035 9.2763C186.035 12.2939 185.414 14.5069 184.17 15.9151C182.926 17.305 180.978 18 178.327 18H171.167ZM174.157 15.6956H177.86C179.012 15.6956 179.973 15.531 180.741 15.2018C181.509 14.8543 182.085 14.2142 182.469 13.2815C182.853 12.3488 183.045 11.0137 183.045 9.2763C183.045 7.53888 182.871 6.19466 182.524 5.24365C182.176 4.29263 181.619 3.6251 180.85 3.24104C180.101 2.85697 179.104 2.66494 177.86 2.66494H174.157V15.6956ZM200.654 18.2743C198.368 18.2743 196.53 17.9817 195.14 17.3965V14.7629C195.926 15.0555 196.768 15.2933 197.664 15.4762C198.578 15.659 199.483 15.7505 200.38 15.7505C201.788 15.7505 202.839 15.5859 203.534 15.2567C204.248 14.9275 204.604 14.2691 204.604 13.2815C204.604 12.678 204.458 12.1933 204.165 11.8276C203.873 11.4618 203.388 11.1509 202.711 10.8948C202.035 10.6205 201.102 10.337 199.913 10.0444C198.011 9.55063 196.676 8.92882 195.908 8.17898C195.14 7.41085 194.756 6.35926 194.756 5.02418C194.756 3.46964 195.323 2.25345 196.457 1.37559C197.591 0.497734 199.282 0.0588052 201.532 0.0588052C202.556 0.0588052 203.516 0.13196 204.412 0.27827C205.327 0.42458 206.04 0.589178 206.552 0.772064V3.40563C205.162 2.87526 203.626 2.61008 201.943 2.61008C200.626 2.61008 199.602 2.78382 198.871 3.1313C198.139 3.47879 197.773 4.10975 197.773 5.02418C197.773 5.55455 197.901 5.98434 198.158 6.31353C198.414 6.64273 198.852 6.9262 199.474 7.16396C200.114 7.40171 200.992 7.6669 202.108 7.95951C203.553 8.32529 204.668 8.76422 205.455 9.2763C206.259 9.77009 206.817 10.3553 207.128 11.032C207.457 11.6904 207.622 12.4402 207.622 13.2815C207.622 14.8361 207.046 16.0614 205.894 16.9575C204.741 17.8354 202.995 18.2743 200.654 18.2743ZM218.34 18.2743C215.541 18.2743 213.447 17.5428 212.057 16.0797C210.668 14.5983 209.973 12.3122 209.973 9.22143C209.973 6.00263 210.668 3.67082 212.057 2.22601C213.447 0.781208 215.541 0.0588052 218.34 0.0588052C221.156 0.0588052 223.25 0.781208 224.622 2.22601C226.012 3.67082 226.707 6.00263 226.707 9.22143C226.707 12.3122 226.012 14.5983 224.622 16.0797C223.25 17.5428 221.156 18.2743 218.34 18.2743ZM218.34 15.7505C220.187 15.7505 221.54 15.2476 222.4 14.2417C223.278 13.2175 223.717 11.5441 223.717 9.22143C223.717 6.77075 223.278 5.06076 222.4 4.09146C221.54 3.10387 220.187 2.61008 218.34 2.61008C216.511 2.61008 215.157 3.10387 214.28 4.09146C213.42 5.06076 212.99 6.77075 212.99 9.22143C212.99 11.5441 213.42 13.2175 214.28 14.2417C215.157 15.2476 216.511 15.7505 218.34 15.7505ZM229.623 18V0.333135H232.613V15.6956H241.666V18H229.623ZM251.58 18.2743C249.147 18.2743 247.254 17.6891 245.901 16.5186C244.566 15.3481 243.898 13.6564 243.898 11.4435V0.333135H246.889V11.3338C246.889 12.8152 247.291 13.9216 248.096 14.6532C248.919 15.3847 250.08 15.7505 251.58 15.7505C253.061 15.7505 254.204 15.3847 255.009 14.6532C255.832 13.9216 256.243 12.8152 256.243 11.3338V0.333135H259.206V11.4435C259.206 13.6564 258.539 15.3481 257.203 16.5186C255.868 17.6891 253.994 18.2743 251.58 18.2743ZM267.102 18V2.66494H261.451V0.333135H275.716V2.66494H270.092V18H267.102ZM278.113 18V0.333135H281.103V18H278.113ZM292.387 18.2743C289.589 18.2743 287.495 17.5428 286.105 16.0797C284.715 14.5983 284.02 12.3122 284.02 9.22143C284.02 6.00263 284.715 3.67082 286.105 2.22601C287.495 0.781208 289.589 0.0588052 292.387 0.0588052C295.204 0.0588052 297.298 0.781208 298.67 2.22601C300.059 3.67082 300.754 6.00263 300.754 9.22143C300.754 12.3122 300.059 14.5983 298.67 16.0797C297.298 17.5428 295.204 18.2743 292.387 18.2743ZM292.387 15.7505C294.235 15.7505 295.588 15.2476 296.447 14.2417C297.325 13.2175 297.764 11.5441 297.764 9.22143C297.764 6.77075 297.325 5.06076 296.447 4.09146C295.588 3.10387 294.235 2.61008 292.387 2.61008C290.558 2.61008 289.205 3.10387 288.327 4.09146C287.468 5.06076 287.038 6.77075 287.038 9.22143C287.038 11.5441 287.468 13.2175 288.327 14.2417C289.205 15.2476 290.558 15.7505 292.387 15.7505ZM303.67 18V0.333135H306.304L315.521 13.3364V0.333135H318.484V18H315.85L306.66 5.02418V18H303.67ZM327.317 18.2743C325.031 18.2743 323.193 17.9817 321.803 17.3965V14.7629C322.59 15.0555 323.431 15.2933 324.327 15.4762C325.242 15.659 326.147 15.7505 327.043 15.7505C328.451 15.7505 329.503 15.5859 330.198 15.2567C330.911 14.9275 331.268 14.2691 331.268 13.2815C331.268 12.678 331.121 12.1933 330.829 11.8276C330.536 11.4618 330.051 11.1509 329.375 10.8948C328.698 10.6205 327.765 10.337 326.577 10.0444C324.675 9.55063 323.339 8.92882 322.571 8.17898C321.803 7.41085 321.419 6.35926 321.419 5.02418C321.419 3.46964 321.986 2.25345 323.12 1.37559C324.254 0.497734 325.946 0.0588052 328.195 0.0588052C329.219 0.0588052 330.179 0.13196 331.076 0.27827C331.99 0.42458 332.703 0.589178 333.215 0.772064V3.40563C331.825 2.87526 330.289 2.61008 328.607 2.61008C327.29 2.61008 326.266 2.78382 325.534 3.1313C324.803 3.47879 324.437 4.10975 324.437 5.02418C324.437 5.55455 324.565 5.98434 324.821 6.31353C325.077 6.64273 325.516 6.9262 326.138 7.16396C326.778 7.40171 327.656 7.6669 328.771 7.95951C330.216 8.32529 331.332 8.76422 332.118 9.2763C332.923 9.77009 333.481 10.3553 333.791 11.032C334.121 11.6904 334.285 12.4402 334.285 13.2815C334.285 14.8361 333.709 16.0614 332.557 16.9575C331.405 17.8354 329.658 18.2743 327.317 18.2743Z" fill="url(#paint0_linear_144_319)"/>
<defs>
<linearGradient id="paint0_linear_144_319" x1="-1" y1="9" x2="341.763" y2="9" gradientUnits="userSpaceOnUse">
<stop stop-color="#0E0E0F"/>
<stop offset="1" stop-color="#616D84"/>
</linearGradient>
</defs>
</svg>
