<svg width="564" height="82" viewBox="0 0 564 82" fill="none" xmlns="http://www.w3.org/2000/svg">
<path d="M7.90168 31V8.62722H0V1.41464H25.7264V8.62722H17.7788V31H7.90168ZM27.5443 31V1.41464H37.4214V11.7511H46.1959V1.41464H56.073V31H46.1959V20.6635H37.4214V31H27.5443ZM59.7561 31V1.41464H82.772V8.7191H69.6332V12.4862H81.0723V19.9744H69.6332V23.6955H82.772V31H59.7561ZM108.854 31.4594C106.098 31.4594 103.632 31 101.458 30.0812C99.2833 29.1624 97.5682 27.8148 96.3125 26.0385C95.0874 24.2621 94.4749 22.0723 94.4749 19.4691V1.41464H104.352V18.3206C104.352 21.5057 105.853 23.0983 108.854 23.0983C111.856 23.0983 113.356 21.5057 113.356 18.3206V1.41464H123.233V19.4691C123.233 22.0723 122.605 24.2621 121.35 26.0385C120.125 27.8148 118.425 29.1624 116.25 30.0812C114.107 31 111.641 31.4594 108.854 31.4594ZM126.692 31V1.41464H136.569V10.7864L144.287 1.41464H155.451L145.206 13.6347L156.277 31H145.803L139.142 19.8825L136.569 22.8686V31H126.692ZM157.447 12.3024V1.41464H165.44L164.659 12.3024H157.447ZM178.16 31.4594C176.108 31.4594 174.148 31.291 172.279 30.9541C170.442 30.6172 168.88 30.1425 167.593 29.5299V21.812C169.033 22.4858 170.61 23.0371 172.325 23.4658C174.071 23.8946 175.664 24.109 177.103 24.109C178.328 24.109 179.262 23.9865 179.905 23.7415C180.579 23.4965 180.916 23.0371 180.916 22.3633C180.916 21.5976 180.411 21.0463 179.4 20.7094C178.389 20.3419 176.935 19.8366 175.036 19.1934C173.076 18.5196 171.529 17.7999 170.396 17.0342C169.293 16.2379 168.497 15.2885 168.007 14.186C167.517 13.0528 167.272 11.6746 167.272 10.0514C167.272 3.98728 171.483 0.955239 179.905 0.955239C180.947 0.955239 182.049 1.03181 183.213 1.18494C184.407 1.30745 185.541 1.47589 186.613 1.69028C187.715 1.87404 188.649 2.08843 189.415 2.33344V10.0973C187.853 9.48477 186.414 9.05599 185.097 8.81098C183.81 8.53534 182.631 8.39752 181.559 8.39752C180.487 8.39752 179.507 8.4894 178.619 8.67316C177.761 8.82629 177.333 9.25507 177.333 9.95948C177.333 10.5414 177.716 10.9855 178.481 11.2917C179.247 11.5674 180.533 11.9502 182.34 12.4402C184.76 13.114 186.582 13.9103 187.807 14.8291C189.063 15.7479 189.905 16.8352 190.334 18.0909C190.793 19.3159 191.023 20.7248 191.023 22.3173C191.023 25.0737 189.951 27.2942 187.807 28.9786C185.663 30.6325 182.447 31.4594 178.16 31.4594ZM203.184 31V1.41464H213.061V23.4658H225.741V31H203.184ZM227.59 31V1.41464H250.606V8.7191H237.467V12.4862H248.906V19.9744H237.467V23.6955H250.606V31H227.59ZM252.198 31L263.545 1.41464H273.882L285.275 31H274.984L272.687 25.1197H264.74L262.489 31H252.198ZM265.934 18.2287H271.493L268.69 11.062L265.934 18.2287ZM288.02 31V1.41464H301.665C304.758 1.41464 307.407 1.91998 309.612 2.93066C311.817 3.91071 313.517 5.5033 314.712 7.70842C315.906 9.88291 316.503 12.7771 316.503 16.3911C316.503 21.5057 315.202 25.2269 312.598 27.5545C309.995 29.8515 306.351 31 301.665 31H288.02ZM297.898 23.4658H300.47C301.726 23.4658 302.798 23.2821 303.686 22.9146C304.574 22.547 305.248 21.8579 305.707 20.8473C306.197 19.8366 306.442 18.3512 306.442 16.3911C306.442 14.431 306.228 12.9456 305.799 11.9349C305.37 10.9242 304.712 10.2351 303.824 9.8676C302.936 9.46945 301.818 9.27038 300.47 9.27038H297.898V23.4658ZM319.245 31V1.41464H329.122V31H319.245ZM332.794 31V1.41464H341.109L350.848 15.0588V1.41464H360.726V31H352.319L342.671 17.4018V31H332.794ZM380.18 31.4594C374.759 31.4594 370.625 30.1731 367.776 27.6004C364.928 25.0278 363.504 21.276 363.504 16.3451C363.504 11.353 364.989 7.53997 367.96 4.90608C370.931 2.27219 375.234 0.955239 380.869 0.955239C382.768 0.955239 384.452 1.06243 385.923 1.27682C387.423 1.49121 388.863 1.8281 390.241 2.2875V10.6945C388.832 10.1739 387.408 9.82166 385.968 9.6379C384.529 9.42351 383.059 9.31632 381.558 9.31632C379.047 9.31632 377.087 9.85229 375.678 10.9242C374.269 11.9962 373.565 13.8031 373.565 16.3451C373.565 18.7953 374.116 20.541 375.219 21.5823C376.352 22.593 377.99 23.0983 380.134 23.0983C381.451 23.0983 382.615 22.9452 383.626 22.6389V19.6069H378.251V13.5887H391.849V28.6571C390.654 29.4227 389.092 30.0812 387.163 30.6325C385.233 31.1838 382.906 31.4594 380.18 31.4594ZM403.118 31V26.5898C404.006 25.0584 405.017 23.6802 406.15 22.4552C407.314 21.1995 408.631 19.9131 410.101 18.5962C411.295 17.5549 412.26 16.682 412.995 15.9776C413.761 15.2732 414.312 14.63 414.649 14.0481C415.017 13.4356 415.2 12.7771 415.2 12.0727C415.2 10.2657 413.96 9.36226 411.479 9.36226C410.162 9.36226 408.861 9.51539 407.574 9.82166C406.319 10.1279 405.139 10.5261 404.037 11.0161V2.70096C405.323 2.18031 406.839 1.76685 408.585 1.46058C410.361 1.12369 412.184 0.955239 414.052 0.955239C417.85 0.955239 420.667 1.84341 422.505 3.61976C424.373 5.36548 425.307 7.67779 425.307 10.5567C425.307 11.8736 425.154 13.0221 424.848 14.0022C424.541 14.9516 424.067 15.8398 423.424 16.6667C422.78 17.463 421.923 18.3359 420.851 19.2853C420.085 19.9591 419.274 20.6635 418.416 21.3985C417.589 22.1336 416.961 22.8227 416.533 23.4658H425.537V31H403.118ZM428.308 31V1.41464H441.952C445.045 1.41464 447.695 1.91998 449.9 2.93066C452.105 3.91071 453.805 5.5033 454.999 7.70842C456.194 9.88291 456.791 12.7771 456.791 16.3911C456.791 21.5057 455.489 25.2269 452.886 27.5545C450.283 29.8515 446.638 31 441.952 31H428.308ZM438.185 23.4658H440.758C442.013 23.4658 443.085 23.2821 443.973 22.9146C444.862 22.547 445.535 21.8579 445.995 20.8473C446.485 19.8366 446.73 18.3512 446.73 16.3911C446.73 14.431 446.515 12.9456 446.087 11.9349C445.658 10.9242 444.999 10.2351 444.111 9.8676C443.223 9.46945 442.105 9.27038 440.758 9.27038H438.185V23.4658ZM492.062 31.9647L489.26 29.1165C488.218 29.8821 486.901 30.464 485.309 30.8622C483.716 31.2603 482.047 31.4594 480.301 31.4594C476.534 31.4594 473.548 30.6937 471.343 29.1624C469.138 27.6004 468.035 25.5178 468.035 22.9146C468.035 20.9238 468.525 19.2394 469.505 17.8612C470.485 16.483 471.879 15.2885 473.686 14.2778C472.859 13.4509 472.216 12.6087 471.756 11.7511C471.297 10.8936 471.067 9.8676 471.067 8.67316C471.067 6.34553 471.94 4.47731 473.686 3.06848C475.432 1.65965 477.759 0.955239 480.669 0.955239C483.578 0.955239 485.937 1.65965 487.744 3.06848C489.55 4.44668 490.454 6.31491 490.454 8.67316C490.454 10.082 490.163 11.3071 489.581 12.3484C488.999 13.3897 488.126 14.4003 486.963 15.3804L490.684 19.1934C490.959 18.7646 491.097 18.1827 491.097 17.4477V16.7586H498.356V17.8152C498.356 19.0403 498.141 20.25 497.712 21.4445C497.314 22.6389 496.794 23.6343 496.151 24.4306L498.126 26.4519L492.062 31.9647ZM480.715 11.6593C481.327 11.2917 481.787 10.9242 482.093 10.5567C482.43 10.1892 482.598 9.71447 482.598 9.13256C482.598 8.61191 482.445 8.18313 482.139 7.84624C481.863 7.50935 481.419 7.3409 480.807 7.3409C480.133 7.3409 479.643 7.52466 479.336 7.89218C479.061 8.22907 478.923 8.64253 478.923 9.13256C478.923 9.68384 479.076 10.1432 479.382 10.5108C479.689 10.8783 480.133 11.2611 480.715 11.6593ZM480.301 24.844C481.557 24.844 482.552 24.5225 483.287 23.8793L479.612 20.1582C478.938 20.4032 478.418 20.7248 478.05 21.1229C477.683 21.521 477.499 22.0417 477.499 22.6849C477.499 23.3586 477.744 23.8946 478.234 24.2928C478.755 24.6603 479.444 24.844 480.301 24.844ZM519.371 31.4594C518.514 31.4594 517.442 31.3828 516.156 31.2297C514.9 31.1072 513.644 30.9234 512.389 30.6784C511.133 30.4028 510.092 30.0965 509.265 29.7596V22.1336C510.612 22.7461 512.052 23.1902 513.583 23.4658C515.145 23.7415 516.538 23.8793 517.764 23.8793C519.264 23.8793 520.382 23.7109 521.117 23.374C521.852 23.0064 522.22 22.348 522.22 21.3985C522.22 20.0203 521.102 19.3312 518.866 19.3312H513.675L514.272 12.9456H518.59C519.724 12.9456 520.52 12.7771 520.979 12.4402C521.469 12.0727 521.714 11.5061 521.714 10.7405C521.714 10.036 521.377 9.50008 520.704 9.13256C520.03 8.76504 518.958 8.58128 517.488 8.58128C516.079 8.58128 514.67 8.74973 513.261 9.08662C511.853 9.39289 510.658 9.80635 509.678 10.327V2.70096C510.903 2.21093 512.389 1.79747 514.134 1.46058C515.88 1.12369 517.641 0.955239 519.417 0.955239C522.021 0.955239 524.241 1.33807 526.079 2.10374C527.916 2.86941 529.325 3.91071 530.305 5.22766C531.285 6.51398 531.775 7.99937 531.775 9.68384C531.775 12.5015 530.856 14.6607 529.019 16.1614C530.06 16.6514 530.872 17.4018 531.454 18.4124C532.036 19.3925 532.327 20.6482 532.327 22.1795C532.327 24.3234 531.76 26.0844 530.627 27.4626C529.494 28.8408 527.947 29.8515 525.987 30.4947C524.057 31.1378 521.852 31.4594 519.371 31.4594ZM535.083 31V1.41464H548.727C551.82 1.41464 554.469 1.91998 556.674 2.93066C558.879 3.91071 560.579 5.5033 561.774 7.70842C562.968 9.88291 563.565 12.7771 563.565 16.3911C563.565 21.5057 562.264 25.2269 559.66 27.5545C557.057 29.8515 553.413 31 548.727 31H535.083ZM544.96 23.4658H547.532C548.788 23.4658 549.86 23.2821 550.748 22.9146C551.636 22.547 552.31 21.8579 552.769 20.8473C553.259 19.8366 553.504 18.3512 553.504 16.3911C553.504 14.431 553.29 12.9456 552.861 11.9349C552.433 10.9242 551.774 10.2351 550.886 9.8676C549.998 9.46945 548.88 9.27038 547.532 9.27038H544.96V23.4658ZM18.0085 81.4594C12.4038 81.4594 8.14669 80.1578 5.23716 77.5545C2.35825 74.9512 0.9188 71.1995 0.9188 66.2992C0.9188 61.2764 2.34294 57.4634 5.19122 54.8601C8.0395 52.2569 12.2813 50.9552 17.9166 50.9552C19.8155 50.9552 21.4846 51.0931 22.9241 51.3687C24.3635 51.6443 25.757 52.0425 27.1046 52.5631V61.1539C25.6958 60.5414 24.3023 60.082 22.9241 59.7757C21.5765 59.4695 20.137 59.3163 18.6057 59.3163C16.1249 59.3163 14.2261 59.8523 12.9091 60.9242C11.6228 61.9655 10.9797 63.7572 10.9797 66.2992C10.9797 68.78 11.6534 70.541 13.001 71.5823C14.3792 72.593 16.2781 73.0983 18.6976 73.0983C20.1983 73.0983 21.6377 72.9605 23.0159 72.6849C24.3941 72.3786 25.7877 71.9192 27.1965 71.3067V79.9434C25.8489 80.4334 24.4401 80.8009 22.97 81.0459C21.5305 81.3216 19.8767 81.4594 18.0085 81.4594ZM28.1508 81L39.498 51.4146H49.8345L61.2276 81H50.9371L48.6401 75.1197H40.6924L38.4414 81H28.1508ZM41.8869 68.2287H47.4456L44.6433 61.062L41.8869 68.2287ZM63.9732 81V51.4146H77.6174C80.7107 51.4146 83.3599 51.92 85.565 52.9307C87.7702 53.9107 89.4699 55.5033 90.6644 57.7084C91.8588 59.8829 92.456 62.7771 92.456 66.3911C92.456 71.5057 91.1544 75.2269 88.5511 77.5545C85.9479 79.8515 82.3033 81 77.6174 81H63.9732ZM73.8503 73.4658H76.423C77.6787 73.4658 78.7506 73.2821 79.6388 72.9146C80.527 72.547 81.2007 71.8579 81.6601 70.8473C82.1502 69.8366 82.3952 68.3512 82.3952 66.3911C82.3952 64.431 82.1808 62.9456 81.752 61.9349C81.3232 60.9242 80.6648 60.2351 79.7766 59.8676C78.8884 59.4695 77.7706 59.2704 76.423 59.2704H73.8503V73.4658ZM119.182 81.4594C115.875 81.4594 113.072 80.9541 110.775 79.9434C108.478 78.9327 106.717 77.3095 105.492 75.0737C104.298 72.838 103.701 69.8978 103.701 66.2533C103.701 62.5474 104.298 59.5766 105.492 57.3409C106.717 55.1052 108.478 53.4819 110.775 52.4713C113.072 51.4606 115.875 50.9552 119.182 50.9552C122.49 50.9552 125.292 51.4606 127.589 52.4713C129.886 53.4819 131.632 55.1052 132.827 57.3409C134.052 59.5766 134.664 62.5474 134.664 66.2533C134.664 69.8978 134.052 72.838 132.827 75.0737C131.632 77.3095 129.886 78.9327 127.589 79.9434C125.292 80.9541 122.49 81.4594 119.182 81.4594ZM119.182 73.0983C121.081 73.0983 122.444 72.5624 123.271 71.4904C124.129 70.4185 124.557 68.6728 124.557 66.2533C124.557 63.7112 124.129 61.9349 123.271 60.9242C122.444 59.8829 121.081 59.3623 119.182 59.3623C117.253 59.3623 115.859 59.8829 115.002 60.9242C114.175 61.9349 113.761 63.7112 113.761 66.2533C113.761 68.6728 114.175 70.4185 115.002 71.4904C115.859 72.5624 117.253 73.0983 119.182 73.0983ZM151.564 81.4594C148.808 81.4594 146.342 81 144.168 80.0812C141.993 79.1624 140.278 77.8148 139.022 76.0385C137.797 74.2621 137.185 72.0723 137.185 69.4691V51.4146H147.062V68.3206C147.062 71.5057 148.563 73.0983 151.564 73.0983C154.565 73.0983 156.066 71.5057 156.066 68.3206V51.4146H165.943V69.4691C165.943 72.0723 165.315 74.2621 164.06 76.0385C162.835 77.8148 161.135 79.1624 158.96 80.0812C156.816 81 154.351 81.4594 151.564 81.4594ZM175.466 81V58.6272H167.564V51.4146H193.291V58.6272H185.343V81H175.466ZM205.078 81.4594C203.026 81.4594 201.065 81.291 199.197 80.9541C197.36 80.6172 195.798 80.1425 194.511 79.5299V71.812C195.951 72.4858 197.528 73.0371 199.243 73.4658C200.989 73.8946 202.582 74.109 204.021 74.109C205.246 74.109 206.18 73.9865 206.823 73.7415C207.497 73.4965 207.834 73.0371 207.834 72.3633C207.834 71.5976 207.329 71.0463 206.318 70.7094C205.307 70.3419 203.853 69.8366 201.954 69.1934C199.994 68.5196 198.447 67.7999 197.314 67.0342C196.211 66.2379 195.415 65.2885 194.925 64.186C194.435 63.0528 194.19 61.6746 194.19 60.0514C194.19 53.9873 198.401 50.9552 206.823 50.9552C207.865 50.9552 208.967 51.0318 210.131 51.1849C211.325 51.3074 212.459 51.4759 213.531 51.6903C214.633 51.874 215.567 52.0884 216.333 52.3334V60.0973C214.771 59.4848 213.331 59.056 212.015 58.811C210.728 58.5353 209.549 58.3975 208.477 58.3975C207.405 58.3975 206.425 58.4894 205.537 58.6732C204.679 58.8263 204.251 59.2551 204.251 59.9595C204.251 60.5414 204.634 60.9855 205.399 61.2917C206.165 61.5674 207.451 61.9502 209.258 62.4402C211.678 63.114 213.5 63.9103 214.725 64.8291C215.981 65.7479 216.823 66.8352 217.252 68.0909C217.711 69.3159 217.941 70.7248 217.941 72.3173C217.941 75.0737 216.869 77.2942 214.725 78.9786C212.581 80.6325 209.365 81.4594 205.078 81.4594ZM235.244 81.4594C231.936 81.4594 229.134 80.9541 226.837 79.9434C224.54 78.9327 222.779 77.3095 221.554 75.0737C220.359 72.838 219.762 69.8978 219.762 66.2533C219.762 62.5474 220.359 59.5766 221.554 57.3409C222.779 55.1052 224.54 53.4819 226.837 52.4713C229.134 51.4606 231.936 50.9552 235.244 50.9552C238.551 50.9552 241.354 51.4606 243.651 52.4713C245.948 53.4819 247.693 55.1052 248.888 57.3409C250.113 59.5766 250.725 62.5474 250.725 66.2533C250.725 69.8978 250.113 72.838 248.888 75.0737C247.693 77.3095 245.948 78.9327 243.651 79.9434C241.354 80.9541 238.551 81.4594 235.244 81.4594ZM235.244 73.0983C237.143 73.0983 238.505 72.5624 239.332 71.4904C240.19 70.4185 240.619 68.6728 240.619 66.2533C240.619 63.7112 240.19 61.9349 239.332 60.9242C238.505 59.8829 237.143 59.3623 235.244 59.3623C233.314 59.3623 231.921 59.8829 231.063 60.9242C230.236 61.9349 229.823 63.7112 229.823 66.2533C229.823 68.6728 230.236 70.4185 231.063 71.4904C231.921 72.5624 233.314 73.0983 235.244 73.0983ZM267.625 81.4594C264.869 81.4594 262.403 81 260.229 80.0812C258.054 79.1624 256.339 77.8148 255.084 76.0385C253.859 74.2621 253.246 72.0723 253.246 69.4691V51.4146H263.123V68.3206C263.123 71.5057 264.624 73.0983 267.625 73.0983C270.627 73.0983 272.127 71.5057 272.127 68.3206V51.4146H282.004V69.4691C282.004 72.0723 281.377 74.2621 280.121 76.0385C278.896 77.8148 277.196 79.1624 275.022 80.0812C272.878 81 270.412 81.4594 267.625 81.4594ZM285.463 81V51.4146H301.45C303.931 51.4146 305.968 51.8894 307.56 52.8388C309.184 53.7576 310.378 55.0286 311.144 56.6518C311.94 58.275 312.338 60.1279 312.338 62.2105C312.338 64.2013 311.833 65.9623 310.822 67.4936C309.811 68.9943 308.54 70.1888 307.009 71.077C307.591 71.5364 308.081 72.2101 308.479 73.0983L311.925 81H301.634L298.602 74.1549C298.388 73.6955 298.158 73.374 297.913 73.1902C297.668 73.0064 297.285 72.9146 296.765 72.9146H295.34V81H285.463ZM295.34 65.2885H298.97C301.175 65.2885 302.277 64.2625 302.277 62.2105C302.277 60.1279 301.251 59.0866 299.199 59.0866H295.34V65.2885ZM330.571 81.4594C324.966 81.4594 320.709 80.1578 317.8 77.5545C314.921 74.9512 313.481 71.1995 313.481 66.2992C313.481 61.2764 314.905 57.4634 317.754 54.8601C320.602 52.2569 324.844 50.9552 330.479 50.9552C332.378 50.9552 334.047 51.0931 335.487 51.3687C336.926 51.6443 338.319 52.0425 339.667 52.5631V61.1539C338.258 60.5414 336.865 60.082 335.487 59.7757C334.139 59.4695 332.7 59.3163 331.168 59.3163C328.687 59.3163 326.789 59.8523 325.472 60.9242C324.185 61.9655 323.542 63.7572 323.542 66.2992C323.542 68.78 324.216 70.541 325.563 71.5823C326.942 72.593 328.841 73.0983 331.26 73.0983C332.761 73.0983 334.2 72.9605 335.578 72.6849C336.957 72.3786 338.35 71.9192 339.759 71.3067V79.9434C338.411 80.4334 337.003 80.8009 335.532 81.0459C334.093 81.3216 332.439 81.4594 330.571 81.4594ZM342.529 81V51.4146H365.545V58.7191H352.406V62.4862H363.846V69.9744H352.406V73.6955H365.545V81H342.529ZM387.447 81.4594C385.395 81.4594 383.435 81.291 381.567 80.9541C379.729 80.6172 378.167 80.1425 376.881 79.5299V71.812C378.32 72.4858 379.897 73.0371 381.612 73.4658C383.358 73.8946 384.951 74.109 386.39 74.109C387.615 74.109 388.549 73.9865 389.193 73.7415C389.866 73.4965 390.203 73.0371 390.203 72.3633C390.203 71.5976 389.698 71.0463 388.687 70.7094C387.677 70.3419 386.222 69.8366 384.323 69.1934C382.363 68.5196 380.816 67.7999 379.683 67.0342C378.58 66.2379 377.784 65.2885 377.294 64.186C376.804 63.0528 376.559 61.6746 376.559 60.0514C376.559 53.9873 380.77 50.9552 389.193 50.9552C390.234 50.9552 391.336 51.0318 392.5 51.1849C393.695 51.3074 394.828 51.4759 395.9 51.6903C397.002 51.874 397.936 52.0884 398.702 52.3334V60.0973C397.14 59.4848 395.701 59.056 394.384 58.811C393.097 58.5353 391.918 58.3975 390.846 58.3975C389.774 58.3975 388.794 58.4894 387.906 58.6732C387.049 58.8263 386.62 59.2551 386.62 59.9595C386.62 60.5414 387.003 60.9855 387.768 61.2917C388.534 61.5674 389.82 61.9502 391.627 62.4402C394.047 63.114 395.869 63.9103 397.094 64.8291C398.35 65.7479 399.192 66.8352 399.621 68.0909C400.08 69.3159 400.31 70.7248 400.31 72.3173C400.31 75.0737 399.238 77.2942 397.094 78.9786C394.95 80.6325 391.735 81.4594 387.447 81.4594ZM403.05 81V51.4146H426.066V58.7191H412.927V62.4862H424.366V69.9744H412.927V73.6955H426.066V81H403.05ZM428.577 81V51.4146H444.564C447.045 51.4146 449.082 51.8894 450.674 52.8388C452.297 53.7576 453.492 55.0286 454.258 56.6518C455.054 58.275 455.452 60.1279 455.452 62.2105C455.452 64.2013 454.947 65.9623 453.936 67.4936C452.925 68.9943 451.654 70.1888 450.123 71.077C450.705 71.5364 451.195 72.2101 451.593 73.0983L455.039 81H444.748L441.716 74.1549C441.502 73.6955 441.272 73.374 441.027 73.1902C440.782 73.0064 440.399 72.9146 439.878 72.9146H438.454V81H428.577ZM438.454 65.2885H442.083C444.289 65.2885 445.391 64.2625 445.391 62.2105C445.391 60.1279 444.365 59.0866 442.313 59.0866H438.454V65.2885ZM465.609 81L454.262 51.4146H464.553L470.755 69.4231L477.003 51.4146H487.339L475.946 81H465.609ZM490.085 81V51.4146H499.962V81H490.085ZM519.804 81.4594C514.2 81.4594 509.942 80.1578 507.033 77.5545C504.154 74.9512 502.715 71.1995 502.715 66.2992C502.715 61.2764 504.139 57.4634 506.987 54.8601C509.835 52.2569 514.077 50.9552 519.712 50.9552C521.611 50.9552 523.28 51.0931 524.72 51.3687C526.159 51.6443 527.553 52.0425 528.9 52.5631V61.1539C527.492 60.5414 526.098 60.082 524.72 59.7757C523.372 59.4695 521.933 59.3163 520.401 59.3163C517.921 59.3163 516.022 59.8523 514.705 60.9242C513.419 61.9655 512.775 63.7572 512.775 66.2992C512.775 68.78 513.449 70.541 514.797 71.5823C516.175 72.593 518.074 73.0983 520.493 73.0983C521.994 73.0983 523.434 72.9605 524.812 72.6849C526.19 72.3786 527.583 71.9192 528.992 71.3067V79.9434C527.645 80.4334 526.236 80.8009 524.766 81.0459C523.326 81.3216 521.672 81.4594 519.804 81.4594ZM531.763 81V51.4146H554.779V58.7191H541.64V62.4862H553.079V69.9744H541.64V73.6955H554.779V81H531.763Z" fill="url(#paint0_linear_106_3249)"/>
<defs>
<linearGradient id="paint0_linear_106_3249" x1="0" y1="41" x2="574" y2="41" gradientUnits="userSpaceOnUse">
<stop stop-color="#0E0E0F"/>
<stop offset="1" stop-color="#616D84"/>
</linearGradient>
</defs>
</svg>
