<svg width="567" height="93" viewBox="0 0 567 93" fill="none" xmlns="http://www.w3.org/2000/svg">
<path d="M1.69731 40V1.39845H30.7084V9.79009H12.9661V16.4435H28.4307V24.955H12.9661V40H1.69731ZM52.2378 40.5994C45.8441 40.5994 40.949 39.041 37.5524 35.9241C34.1957 32.8072 32.5174 27.7722 32.5174 20.8191C32.5174 16.0239 33.2766 12.1677 34.7951 9.25063C36.3136 6.29357 38.5314 4.1557 41.4485 2.83702C44.4056 1.47837 48.002 0.799044 52.2378 0.799044C56.4735 0.799044 60.05 1.47837 62.9671 2.83702C65.9241 4.1557 68.1619 6.29357 69.6804 9.25063C71.1989 12.1677 71.9581 16.0239 71.9581 20.8191C71.9581 27.7722 70.2598 32.8072 66.8632 35.9241C63.4666 39.041 58.5914 40.5994 52.2378 40.5994ZM52.2378 31.009C55.1149 31.009 57.1928 30.2098 58.4715 28.6113C59.7902 26.973 60.4496 24.3756 60.4496 20.8191C60.4496 17.0229 59.7902 14.3456 58.4715 12.7871C57.1928 11.1887 55.1149 10.3895 52.2378 10.3895C49.3606 10.3895 47.2627 11.1887 45.944 12.7871C44.6653 14.3456 44.0259 17.0229 44.0259 20.8191C44.0259 24.3756 44.6653 26.973 45.944 28.6113C47.2627 30.2098 49.3606 31.009 52.2378 31.009ZM76.1544 40V1.39845H96.2344C99.3913 1.39845 101.969 1.97787 103.967 3.13672C106.005 4.29556 107.523 5.91395 108.522 7.99188C109.521 10.0299 110.021 12.4075 110.021 15.1248C110.021 17.7222 109.361 20.0199 108.043 22.0179C106.764 23.976 105.046 25.4745 102.888 26.5134C103.327 26.8731 103.707 27.3126 104.027 27.8321C104.346 28.3116 104.706 28.991 105.106 29.8701L109.541 40H97.7929L93.7169 30.7093C93.3972 29.99 92.9976 29.4905 92.5181 29.2107C92.0785 28.8911 91.4392 28.7312 90.6 28.7312H87.4232V40H76.1544ZM87.4232 20.0998H93.3573C94.9956 20.0998 96.2544 19.6802 97.1335 18.8411C98.0526 17.9619 98.5121 16.7232 98.5121 15.1248C98.5121 11.7282 96.9137 10.0299 93.7169 10.0299H87.4232V20.0998ZM126.495 40V1.39845H155.746V10.0299H137.764V16.3236H153.528V25.0749H137.764V31.3686H155.746V40H126.495ZM172.062 40L157.256 1.39845H169.005L177.996 26.933L186.987 1.39845H198.795L183.99 40H172.062ZM202.123 40V1.39845H231.374V10.0299H213.391V16.3236H229.156V25.0749H213.391V31.3686H231.374V40H202.123ZM234.961 40V1.39845H255.041C258.198 1.39845 260.775 1.97787 262.773 3.13672C264.811 4.29556 266.33 5.91395 267.329 7.99188C268.328 10.0299 268.827 12.4075 268.827 15.1248C268.827 17.7222 268.168 20.0199 266.849 22.0179C265.571 23.976 263.852 25.4745 261.694 26.5134C262.134 26.8731 262.514 27.3126 262.833 27.8321C263.153 28.3116 263.513 28.991 263.912 29.8701L268.348 40H256.6L252.524 30.7093C252.204 29.99 251.804 29.4905 251.325 29.2107C250.885 28.8911 250.246 28.7312 249.407 28.7312H246.23V40H234.961ZM246.23 20.0998H252.164C253.802 20.0998 255.061 19.6802 255.94 18.8411C256.859 17.9619 257.319 16.7232 257.319 15.1248C257.319 11.7282 255.72 10.0299 252.524 10.0299H246.23V20.0998ZM281.795 40V25.8541L267.888 1.39845H279.637L287.429 15.9639L295.221 1.39845H306.97L293.063 25.8541V40H281.795ZM323.467 40V1.39845H343.367C346.524 1.39845 349.121 2.03781 351.159 3.31654C353.237 4.5553 354.775 6.25361 355.774 8.41146C356.773 10.5693 357.273 12.9669 357.273 15.6043C357.273 18.3216 356.694 20.7392 355.535 22.8571C354.376 24.975 352.738 26.6333 350.62 27.8321C348.502 29.0309 346.004 29.6303 343.127 29.6303H334.735V40H323.467ZM334.735 20.9989H340.55C342.308 20.9989 343.607 20.4994 344.446 19.5004C345.325 18.5014 345.764 17.2027 345.764 15.6043C345.764 13.886 345.365 12.5274 344.566 11.5284C343.766 10.5294 342.528 10.0299 340.849 10.0299H334.735V20.9989ZM360.285 40V1.39845H380.365C383.522 1.39845 386.1 1.97787 388.098 3.13672C390.136 4.29556 391.654 5.91395 392.653 7.99188C393.652 10.0299 394.152 12.4075 394.152 15.1248C394.152 17.7222 393.492 20.0199 392.174 22.0179C390.895 23.976 389.177 25.4745 387.019 26.5134C387.458 26.8731 387.838 27.3126 388.158 27.8321C388.477 28.3116 388.837 28.991 389.237 29.8701L393.672 40H381.924L377.848 30.7093C377.528 29.99 377.129 29.4905 376.649 29.2107C376.21 28.8911 375.57 28.7312 374.731 28.7312H371.554V40H360.285ZM371.554 20.0998H377.488C379.127 20.0998 380.385 19.6802 381.265 18.8411C382.184 17.9619 382.643 16.7232 382.643 15.1248C382.643 11.7282 381.045 10.0299 377.848 10.0299H371.554V20.0998ZM415.977 40.5994C409.583 40.5994 404.688 39.041 401.292 35.9241C397.935 32.8072 396.257 27.7722 396.257 20.8191C396.257 16.0239 397.016 12.1677 398.534 9.25063C400.053 6.29357 402.271 4.1557 405.188 2.83702C408.145 1.47837 411.741 0.799044 415.977 0.799044C420.213 0.799044 423.789 1.47837 426.706 2.83702C429.663 4.1557 431.901 6.29357 433.42 9.25063C434.938 12.1677 435.697 16.0239 435.697 20.8191C435.697 27.7722 433.999 32.8072 430.602 35.9241C427.206 39.041 422.331 40.5994 415.977 40.5994ZM415.977 31.009C418.854 31.009 420.932 30.2098 422.211 28.6113C423.529 26.973 424.189 24.3756 424.189 20.8191C424.189 17.0229 423.529 14.3456 422.211 12.7871C420.932 11.1887 418.854 10.3895 415.977 10.3895C413.1 10.3895 411.002 11.1887 409.683 12.7871C408.405 14.3456 407.765 17.0229 407.765 20.8191C407.765 24.3756 408.405 26.973 409.683 28.6113C411.002 30.2098 413.1 31.009 415.977 31.009ZM446.667 40.5994C444.989 40.5994 443.39 40.4795 441.872 40.2398C440.353 40.04 438.895 39.7003 437.496 39.2208V29.8701C438.455 30.2697 439.534 30.5694 440.733 30.7692C441.932 30.969 443.13 31.0689 444.329 31.0689C446.487 31.0689 448.026 30.6293 448.945 29.7502C449.864 28.8711 450.323 27.4125 450.323 25.3746V1.39845H461.592V27.1728C461.592 31.3686 460.313 34.6653 457.756 37.0629C455.238 39.4206 451.542 40.5994 446.667 40.5994ZM466.703 40V1.39845H495.954V10.0299H477.972V16.3236H493.736V25.0749H477.972V31.3686H495.954V40H466.703ZM519.861 40.5994C512.868 40.5994 507.533 38.8811 503.857 35.4445C500.181 32.008 498.342 27.1528 498.342 20.879C498.342 14.4055 500.141 9.45043 503.737 6.01385C507.334 2.53731 512.688 0.799044 519.801 0.799044C522.199 0.799044 524.337 0.978865 526.215 1.33851C528.093 1.69815 529.891 2.19765 531.609 2.83702V12.6672C528.173 11.1487 524.496 10.3895 520.58 10.3895C516.944 10.3895 514.247 11.2287 512.488 12.907C510.73 14.5454 509.851 17.2027 509.851 20.879C509.851 24.4755 510.77 27.0729 512.608 28.6713C514.486 30.2297 517.184 31.009 520.7 31.009C522.618 31.009 524.476 30.8291 526.275 30.4695C528.113 30.1099 529.931 29.5504 531.729 28.7912V38.6813C530.011 39.2807 528.193 39.7403 526.275 40.0599C524.397 40.4196 522.259 40.5994 519.861 40.5994ZM544.402 40V9.79009H533.553V1.39845H566.52V9.79009H555.671V40H544.402ZM14.4047 92V77.8541L0.498507 53.3984H12.2468L20.039 67.9639L27.8313 53.3984H39.5796L25.6734 77.8541V92H14.4047ZM57.2133 92.5994C50.8196 92.5994 45.9245 91.041 42.5279 87.9241C39.1712 84.8072 37.4929 79.7722 37.4929 72.8191C37.4929 68.0239 38.2522 64.1677 39.7706 61.2506C41.2891 58.2936 43.5069 56.1557 46.424 54.837C49.3811 53.4784 52.9775 52.799 57.2133 52.799C61.449 52.799 65.0255 53.4784 67.9426 54.837C70.8996 56.1557 73.1374 58.2936 74.6559 61.2506C76.1744 64.1677 76.9336 68.0239 76.9336 72.8191C76.9336 79.7722 75.2353 84.8072 71.8387 87.9241C68.4421 91.041 63.5669 92.5994 57.2133 92.5994ZM57.2133 83.009C60.0904 83.009 62.1683 82.2098 63.4471 80.6113C64.7657 78.973 65.4251 76.3756 65.4251 72.8191C65.4251 69.0229 64.7657 66.3456 63.4471 64.7871C62.1683 63.1887 60.0904 62.3895 57.2133 62.3895C54.3361 62.3895 52.2382 63.1887 50.9195 64.7871C49.6408 66.3456 49.0014 69.0229 49.0014 72.8191C49.0014 76.3756 49.6408 78.973 50.9195 80.6113C52.2382 82.2098 54.3361 83.009 57.2133 83.009ZM99.112 92.5994C95.5156 92.5994 92.3388 92.02 89.5815 90.8611C86.8642 89.6623 84.7263 87.9241 83.1679 85.6463C81.6094 83.3286 80.8302 80.4915 80.8302 77.1348V53.3984H92.099V75.936C92.099 80.6513 94.4367 83.009 99.112 83.009C101.35 83.009 103.068 82.4295 104.267 81.2707C105.466 80.1118 106.065 78.3336 106.065 75.936V53.3984H117.334V77.1348C117.334 80.4915 116.555 83.3286 114.996 85.6463C113.478 87.9241 111.34 89.6623 108.583 90.8611C105.865 92.02 102.708 92.5994 99.112 92.5994ZM134.748 92V53.3984H146.017V92H134.748ZM151.431 92V53.3984H162.4L171.991 72.9989L181.521 53.3984H192.43V92H181.161V72.6992L174.988 85.4066H168.934L162.7 72.6992V92H151.431ZM196.651 92L211.456 53.3984H223.384L238.189 92H226.441L223.204 83.7882H211.576L208.399 92H196.651ZM213.074 75.6962H221.706L217.39 64.3675L213.074 75.6962ZM259.017 92.5994C252.144 92.5994 246.909 90.9211 243.313 87.5644C239.716 84.1678 237.918 79.3326 237.918 73.0589C237.918 66.5853 239.776 61.5903 243.493 58.0738C247.209 54.5573 252.644 52.799 259.796 52.799C262.194 52.799 264.352 52.9389 266.27 53.2186C268.228 53.4983 270.066 53.9179 271.785 54.4774V64.1278C270.026 63.4484 268.208 62.9889 266.33 62.7491C264.452 62.5094 262.534 62.3895 260.576 62.3895C256.859 62.3895 254.062 63.2287 252.184 64.907C250.346 66.5853 249.427 69.3026 249.427 73.0589C249.427 76.5754 250.226 79.1128 251.824 80.6713C253.463 82.2297 255.86 83.009 259.017 83.009C260.056 83.009 261.035 82.949 261.954 82.8291C262.873 82.6693 263.733 82.4695 264.532 82.2297V76.5953H256.859V69.6423H273.942V89.0629C272.464 89.982 270.486 90.8012 268.008 91.5205C265.571 92.2398 262.574 92.5994 259.017 92.5994ZM278.16 92V53.3984H289.429V92H278.16ZM294.843 92V53.3984H304.433L318.999 73.8381V53.3984H330.268V92H320.617L306.112 71.6203V92H294.843ZM335.642 92V53.3984H364.893V62.0299H346.911V68.3236H362.675V77.0749H346.911V83.3686H364.893V92H335.642Z" fill="url(#paint0_linear_106_1691)"/>
<defs>
<linearGradient id="paint0_linear_106_1691" x1="-1" y1="46.5" x2="573" y2="46.5" gradientUnits="userSpaceOnUse">
<stop stop-color="#0E0E0F"/>
<stop offset="1" stop-color="#616D84"/>
</linearGradient>
</defs>
</svg>
