<svg width="104" height="104" viewBox="0 0 104 104" fill="none" xmlns="http://www.w3.org/2000/svg">
<g clip-path="url(#clip0_141_4779)">
<path d="M79.625 0H24.375C10.9131 0 0 10.9131 0 24.375V79.625C0 93.0869 10.9131 104 24.375 104H79.625C93.0869 104 104 93.0869 104 79.625V24.375C104 10.9131 93.0869 0 79.625 0Z" fill="#F4F2ED"/>
<path d="M16.9146 82.4893H29.8407V51.0971L11.375 37.248V76.9496C11.375 80.0148 13.8588 82.4893 16.9146 82.4893Z" fill="#4285F4"/>
<path d="M74.1641 82.4897H87.0905C90.1557 82.4897 92.6302 80.0059 92.6302 76.95V37.248L74.1641 51.0975" fill="#34A853"/>
<path d="M74.1641 27.087V51.0927L92.6302 37.2437V29.8564C92.6302 23.0058 84.8098 19.1002 79.3348 23.209" fill="#FBBC04"/>
<path d="M29.8359 51.0979V27.0926L51.9948 43.7111L74.1538 27.0918V51.0975L51.9948 67.7172" fill="#EA4335"/>
<path d="M11.375 29.8564V37.2429L29.8407 51.0923V27.087L24.6703 23.209C19.186 19.1002 11.375 23.0058 11.375 29.8564Z" fill="#C5221F"/>
</g>
<defs>
<clipPath id="clip0_141_4779">
<rect width="104" height="104" fill="white"/>
</clipPath>
</defs>
</svg>
