<svg width="109" height="109" viewBox="0 0 109 109" fill="none" xmlns="http://www.w3.org/2000/svg">
<g clip-path="url(#clip0_141_4791)">
<path d="M83.4531 0H25.5469C11.4377 0 0 11.4377 0 25.5469V83.4531C0 97.5623 11.4377 109 25.5469 109H83.4531C97.5623 109 109 97.5623 109 83.4531V25.5469C109 11.4377 97.5623 0 83.4531 0Z" fill="url(#paint0_radial_141_4791)"/>
<path d="M83.4531 0H25.5469C11.4377 0 0 11.4377 0 25.5469V83.4531C0 97.5623 11.4377 109 25.5469 109H83.4531C97.5623 109 109 97.5623 109 83.4531V25.5469C109 11.4377 97.5623 0 83.4531 0Z" fill="url(#paint1_radial_141_4791)"/>
<path d="M54.5038 11.9219C42.9405 11.9219 41.489 11.9725 36.9476 12.179C32.4147 12.3868 29.3206 13.1043 26.6135 14.1572C23.8127 15.2447 21.4372 16.6996 19.0707 19.0669C16.7021 21.4338 15.2472 23.8093 14.1564 26.6088C13.1004 29.3167 12.3821 32.4122 12.1782 36.9429C11.9751 41.4847 11.9219 42.9366 11.9219 54.5004C11.9219 66.0642 11.973 67.511 12.179 72.0524C12.3877 76.5853 13.1051 79.6794 14.1572 82.3865C15.2455 85.1873 16.7004 87.5628 19.0678 89.9293C21.4338 92.2979 23.8093 93.7562 26.6079 94.8436C29.3172 95.8966 32.4117 96.614 36.9438 96.8218C41.4856 97.0283 42.9358 97.079 54.4987 97.079C66.0634 97.079 67.5102 97.0283 72.0516 96.8218C76.5844 96.614 79.682 95.8966 82.3912 94.8436C85.1907 93.7562 87.5628 92.2979 89.9284 89.9293C92.297 87.5628 93.7515 85.1873 94.8428 82.3878C95.8893 79.6794 96.6081 76.5844 96.821 72.0533C97.0249 67.5119 97.0781 66.0642 97.0781 54.5004C97.0781 42.9366 97.0249 41.4856 96.821 36.9438C96.6081 32.4109 95.8893 29.3172 94.8428 26.6101C93.7515 23.8093 92.297 21.4338 89.9284 19.0669C87.5602 16.6987 85.1916 15.2438 82.3887 14.1577C79.6743 13.1043 76.5785 12.3864 72.0456 12.179C67.5038 11.9725 66.0578 11.9219 54.4906 11.9219H54.5038ZM50.6842 19.5949C51.818 19.5932 53.083 19.5949 54.5038 19.5949C65.8726 19.5949 67.2198 19.6358 71.7092 19.8397C75.8606 20.0296 78.1138 20.7232 79.6147 21.3061C81.6018 22.0776 83.0184 23.0003 84.5078 24.4909C85.998 25.9812 86.9203 27.4003 87.6939 29.3874C88.2768 30.8862 88.9713 33.1394 89.1603 37.2908C89.3643 41.7794 89.4085 43.1274 89.4085 54.4906C89.4085 65.8539 89.3643 67.2023 89.1603 71.6905C88.9704 75.8419 88.2768 78.0951 87.6939 79.5943C86.9224 81.5814 85.998 82.9963 84.5078 84.4856C83.0176 85.9759 81.6027 86.8981 79.6147 87.6701C78.1155 88.2555 75.8606 88.9474 71.7092 89.1373C67.2206 89.3413 65.8726 89.3855 54.5038 89.3855C43.1346 89.3855 41.787 89.3413 37.2989 89.1373C33.1475 88.9457 30.8943 88.2521 29.3921 87.6692C27.4054 86.8973 25.9859 85.975 24.4956 84.4848C23.0054 82.9946 22.0831 81.5788 21.3095 79.5909C20.7266 78.0917 20.0322 75.8385 19.8431 71.6871C19.6392 67.1985 19.5983 65.8505 19.5983 54.48C19.5983 43.1095 19.6392 41.7687 19.8431 37.2801C20.033 33.1288 20.7266 30.8755 21.3095 29.3746C22.0814 27.3875 23.0054 25.9684 24.496 24.4782C25.9867 22.9879 27.4054 22.0653 29.3925 21.292C30.8934 20.7066 33.1475 20.0147 37.2989 19.8239C41.2267 19.6464 42.7489 19.5932 50.6842 19.5842V19.5949ZM77.232 26.6646C74.4112 26.6646 72.1227 28.951 72.1227 31.7722C72.1227 34.593 74.4112 36.8816 77.232 36.8816C80.0528 36.8816 82.3414 34.593 82.3414 31.7722C82.3414 28.9514 80.0528 26.6628 77.232 26.6628V26.6646ZM54.5038 32.6344C42.4287 32.6344 32.6383 42.4248 32.6383 54.5004C32.6383 66.576 42.4287 76.3617 54.5038 76.3617C66.5794 76.3617 76.3664 66.576 76.3664 54.5004C76.3664 42.4253 66.5786 32.6344 54.503 32.6344H54.5038ZM54.5038 40.3074C62.342 40.3074 68.6968 46.6614 68.6968 54.5004C68.6968 62.3386 62.342 68.6934 54.5038 68.6934C46.6656 68.6934 40.3113 62.3386 40.3113 54.5004C40.3113 46.6614 46.6652 40.3074 54.5038 40.3074Z" fill="white"/>
</g>
<defs>
<radialGradient id="paint0_radial_141_4791" cx="0" cy="0" r="1" gradientUnits="userSpaceOnUse" gradientTransform="translate(28.9531 117.395) rotate(-90) scale(108.027 100.474)">
<stop stop-color="#FFDD55"/>
<stop offset="0.1" stop-color="#FFDD55"/>
<stop offset="0.5" stop-color="#FF543E"/>
<stop offset="1" stop-color="#C837AB"/>
</radialGradient>
<radialGradient id="paint1_radial_141_4791" cx="0" cy="0" r="1" gradientUnits="userSpaceOnUse" gradientTransform="translate(-18.2579 7.85183) rotate(78.681) scale(48.2887 199.048)">
<stop stop-color="#3771C8"/>
<stop offset="0.128" stop-color="#3771C8"/>
<stop offset="1" stop-color="#6600FF" stop-opacity="0"/>
</radialGradient>
<clipPath id="clip0_141_4791">
<rect width="109" height="109" fill="white"/>
</clipPath>
</defs>
</svg>
