<svg width="109" height="109" viewBox="0 0 109 109" fill="none" xmlns="http://www.w3.org/2000/svg">
<g clip-path="url(#clip0_141_4796)">
<path d="M109 54.5C109 24.4007 84.5993 0 54.5 0C24.4007 0 0 24.4007 0 54.5C0 81.7023 19.93 104.25 45.9844 108.338V70.2539H32.1465V54.5H45.9844V42.493C45.9844 28.8339 54.1211 21.2891 66.5701 21.2891C72.5327 21.2891 78.7695 22.3535 78.7695 22.3535V35.7656H71.8974C65.1271 35.7656 63.0156 39.9668 63.0156 44.277V54.5H78.1309L75.7145 70.2539H63.0156V108.338C89.07 104.25 109 81.7027 109 54.5Z" fill="#1877F2"/>
<path d="M75.7165 70.2539L78.1328 54.5H63.0176V44.277C63.0176 39.9664 65.129 35.7656 71.8994 35.7656H78.7715V22.3535C78.7715 22.3535 72.5346 21.2891 66.5716 21.2891C54.123 21.2891 45.9863 28.8339 45.9863 42.493V54.5H32.1484V70.2539H45.9863V108.338C48.8034 108.779 51.6505 109.001 54.502 109C57.3534 109.001 60.2005 108.779 63.0176 108.338V70.2539H75.7165Z" fill="white"/>
</g>
<defs>
<clipPath id="clip0_141_4796">
<rect width="109" height="109" fill="white"/>
</clipPath>
</defs>
</svg>
