<svg width="107" height="107" viewBox="0 0 107 107" fill="none" xmlns="http://www.w3.org/2000/svg">
<path d="M23.91 46.845C31.83 62.41 44.59 75.115 60.155 83.09L72.255 70.99C73.74 69.505 75.94 69.01 77.865 69.67C84.025 71.705 90.68 72.805 97.5 72.805C100.525 72.805 103 75.28 103 78.305V97.5C103 100.525 100.525 103 97.5 103C45.855 103 4 61.145 4 9.5C4 6.475 6.475 4 9.5 4H28.75C31.775 4 34.25 6.475 34.25 9.5C34.25 16.375 35.35 22.975 37.385 29.135C37.99 31.06 37.55 33.205 36.01 34.745L23.91 46.845Z" fill="#3E5E37"/>
</svg>
