<svg width="106" height="107" viewBox="0 0 106 107" fill="none" xmlns="http://www.w3.org/2000/svg">
<g clip-path="url(#clip0_141_4787)">
<path d="M2.26242 52.7751C2.25994 61.7507 4.60519 70.5148 9.06464 78.2395L1.83594 104.633L28.8461 97.5506C36.3167 101.617 44.687 103.748 53.1929 103.749H53.2153C81.2949 103.749 104.152 80.8999 104.164 52.8153C104.17 39.2063 98.8748 26.4093 89.2545 16.7815C79.6358 7.15452 66.8433 1.84996 53.2132 1.84375C25.1303 1.84375 2.27443 24.6917 2.26284 52.7751" fill="url(#paint0_linear_141_4787)"/>
<path d="M0.443047 52.7582C0.440148 62.0568 2.86945 71.1343 7.48791 79.1356L0 106.475L27.9786 99.139C35.6876 103.342 44.3672 105.558 53.1992 105.562H53.2219C82.309 105.562 105.988 81.8904 106 52.8004C106.005 38.7024 100.519 25.4454 90.5555 15.4727C80.5902 5.50123 67.3402 0.00579688 53.2219 0C24.1299 0 0.454641 23.6678 0.443047 52.7582ZM17.1053 77.7576L16.0607 76.0993C11.6691 69.1166 9.35119 61.0473 9.3545 52.7615C9.36361 28.5823 29.0415 8.91063 53.2385 8.91063C64.9565 8.91559 75.9689 13.4835 84.2518 21.7714C92.5343 30.0601 97.0919 41.0783 97.089 52.7971C97.0782 76.9763 77.3999 96.6505 53.2219 96.6505H53.2045C45.332 96.6463 37.611 94.5321 30.8775 90.5368L29.275 89.5866L12.672 93.9396L17.1053 77.7576Z" fill="url(#paint1_linear_141_4787)"/>
<path d="M40.0291 30.7018C39.0412 28.5061 38.0015 28.4618 37.062 28.4233C36.2926 28.3901 35.4132 28.3926 34.5345 28.3926C33.6551 28.3926 32.2261 28.7235 31.0183 30.0422C29.8092 31.3623 26.4023 34.5522 26.4023 41.0402C26.4023 47.5281 31.128 53.7987 31.7868 54.6794C32.4464 55.5584 40.9098 69.2987 54.3139 74.5846C65.4538 78.9774 67.7208 78.1037 70.1385 77.8834C72.5566 77.664 77.9411 74.6943 79.0396 71.6149C80.139 68.536 80.139 65.8967 79.8094 65.3452C79.4798 64.7958 78.6003 64.4657 77.2815 63.8066C75.9627 63.1474 69.4789 59.9566 68.2703 59.5165C67.0612 59.0767 66.1822 58.8573 65.3027 60.1777C64.4232 61.4961 61.8979 64.4657 61.1281 65.3452C60.3592 66.2268 59.5894 66.3365 58.2711 65.6769C56.9515 65.0152 52.7044 63.6244 47.6657 59.1322C43.7454 55.6367 41.0987 51.3201 40.3293 49.9996C39.56 48.6813 40.2469 47.9666 40.9082 47.3095C41.5007 46.7186 42.2274 45.7696 42.8874 44.9998C43.5449 44.2297 43.7644 43.6802 44.2041 42.8008C44.6443 41.9205 44.424 41.1503 44.0948 40.4907C43.7644 39.8311 41.2018 33.3092 40.0291 30.7018Z" fill="white"/>
</g>
<defs>
<linearGradient id="paint0_linear_141_4787" x1="5118.26" y1="10280.7" x2="5118.26" y2="1.84375" gradientUnits="userSpaceOnUse">
<stop stop-color="#1FAF38"/>
<stop offset="1" stop-color="#60D669"/>
</linearGradient>
<linearGradient id="paint1_linear_141_4787" x1="5300" y1="10647.5" x2="5300" y2="0" gradientUnits="userSpaceOnUse">
<stop stop-color="#F9F9F9"/>
<stop offset="1" stop-color="white"/>
</linearGradient>
<clipPath id="clip0_141_4787">
<rect width="106" height="106.828" fill="white"/>
</clipPath>
</defs>
</svg>
