<svg width="76" height="28" viewBox="0 0 76 28" fill="none" xmlns="http://www.w3.org/2000/svg">
<path d="M17.9333 8.22713C17.5984 7.88736 17.1883 7.60737 16.7265 7.40319C16.2647 7.199 15.7603 7.07464 15.2422 7.03722C16.0828 6.90428 16.8311 6.49983 17.3317 5.90788C17.871 5.31109 18.1601 4.57695 18.1527 3.8231C18.1647 3.41306 18.0794 3.00519 17.9019 2.62408C17.7244 2.24296 17.4584 1.89649 17.1199 1.60554C16.3373 0.928548 15.2503 0.589333 13.859 0.587891H5.95241C6.71815 0.709767 7.10122 1.34745 7.10165 2.50095L7.10355 11.4172C6.97519 10.6031 6.50688 9.85602 5.78484 9.31348C5.06279 8.77095 4.13561 8.46948 3.17399 8.46457L0.59375 8.46132L0.597233 10.6986C0.589479 11.6045 1.00323 12.4758 1.7475 13.1211C2.49177 13.7664 3.5056 14.1328 4.56605 14.1396H7.10323V17.9076C7.06541 17.5954 6.894 17.306 6.62187 17.0951C6.34973 16.8841 5.99602 16.7664 5.62854 16.7645L4.66388 16.7629V17.599C4.66237 17.7667 4.69956 17.933 4.77331 18.0884C4.84705 18.2438 4.95592 18.3853 5.09369 18.5048C5.23145 18.6242 5.39542 18.7194 5.57622 18.7847C5.75703 18.85 5.95113 18.8843 6.14743 18.8855H7.10228L7.10576 27.5226L7.75383 27.531V18.8841H8.70963C8.90616 18.8833 9.10056 18.8493 9.28169 18.7841C9.46282 18.719 9.62712 18.6239 9.7652 18.5045C9.90327 18.385 10.0124 18.2434 10.0863 18.0879C10.1603 17.9323 10.1975 17.7658 10.196 17.598L10.1979 16.7618L9.2339 16.7634C8.86281 16.7652 8.50585 16.8851 8.2327 17.0997C7.95955 17.3143 7.78983 17.6081 7.75668 17.9238V14.1377H14.5099C15.8998 14.1377 17.0091 13.7712 17.838 13.0382C18.5658 12.3876 18.9616 11.5169 18.9384 10.6172C18.9531 9.74262 18.596 8.89314 17.9333 8.22632" fill="white"/>
<path d="M13.6021 8.46191L13.5996 10.4599C13.6029 10.8605 13.5139 11.2577 13.3375 11.6289C13.1611 12.0001 12.9008 12.3379 12.5715 12.6232C12.2423 12.9084 11.8504 13.1355 11.4184 13.2914C10.9864 13.4473 10.5227 13.529 10.0537 13.5318H7.75717L7.75401 11.5381C7.75046 11.1375 7.83933 10.7403 8.01553 10.369C8.19173 9.99776 8.45182 9.6598 8.78094 9.37442C9.11006 9.08903 9.50177 8.86183 9.9337 8.70577C10.3656 8.54971 10.8293 8.46786 11.2983 8.46489L13.6021 8.46191Z" fill="black"/>
<path d="M25.9559 0.641602C25.7426 0.678922 25.6364 0.85191 25.6375 1.16057V4.52126L22.8407 1.38935V3.84517C22.8407 4.15401 22.9536 4.32528 23.1794 4.359H22.1698C22.3788 4.32546 22.4833 4.15419 22.4836 3.84517V1.21655C22.4875 1.09062 22.4442 0.96692 22.36 0.863491C22.2758 0.760061 22.1552 0.682316 22.0156 0.641602H22.8163L25.2857 3.41572V1.16057C25.2853 0.851729 25.1783 0.678741 24.9647 0.641602H25.9559Z" fill="white"/>
<path d="M28.9972 3.00275C29.0077 3.35059 28.8845 3.69178 28.6464 3.97415C28.5249 4.12373 28.3615 4.24497 28.1712 4.32682C27.9808 4.40868 27.7694 4.44855 27.5564 4.44282C27.356 4.4494 27.1568 4.41365 26.9764 4.33874C26.7961 4.26383 26.6401 4.15207 26.5224 4.01337C26.2998 3.74683 26.1852 3.42549 26.196 3.09822C26.1862 2.74861 26.3093 2.40571 26.5468 2.12086C26.6656 1.97171 26.8265 1.85056 27.0147 1.76864C27.2028 1.68672 27.4121 1.64667 27.6232 1.6522C27.8254 1.64529 28.0264 1.68144 28.2082 1.75739C28.39 1.83335 28.5468 1.94673 28.6645 2.08733C28.8918 2.35221 29.0092 2.67447 28.9972 3.00275ZM28.5106 3.12039C28.5178 2.83881 28.4349 2.56089 28.2706 2.31666C28.1999 2.19839 28.0926 2.09892 27.9604 2.02903C27.8282 1.95915 27.6761 1.92151 27.5206 1.9202C27.3831 1.92019 27.2484 1.95382 27.1326 2.01713C27.0167 2.08044 26.9245 2.17078 26.8669 2.27745C26.7312 2.48924 26.6633 2.72785 26.67 2.96922C26.6623 3.25331 26.7474 3.53361 26.9159 3.77863C26.9869 3.89702 27.0945 3.99656 27.227 4.06645C27.3595 4.13634 27.5118 4.17391 27.6675 4.17509C27.8041 4.1751 27.9378 4.14136 28.0525 4.07792C28.1671 4.01449 28.2579 3.92407 28.3137 3.81757C28.4489 3.60366 28.5168 3.36343 28.5106 3.12039Z" fill="white"/>
<path d="M31.1069 2.29392C31.0638 2.22184 30.9987 2.16104 30.9185 2.11791C30.8383 2.07479 30.746 2.05095 30.6513 2.04891C30.5432 2.05496 30.4389 2.08544 30.3491 2.13723C30.2593 2.18903 30.1873 2.26028 30.1403 2.34368C29.9875 2.57082 29.9128 2.83018 29.9247 3.09197V3.86785C29.9247 4.16911 30.0109 4.33282 30.1834 4.35896H29.2168C29.3928 4.33264 29.4811 4.16893 29.4815 3.86785V2.37775C29.4942 2.2552 29.4688 2.13195 29.4077 2.02051C29.3864 1.99304 29.3567 1.97109 29.3218 1.95702C29.2869 1.94296 29.2482 1.93732 29.2099 1.94073H29.1484L29.9241 1.63379V2.33827C29.9922 2.1553 30.1154 1.99081 30.2812 1.86122C30.4273 1.73134 30.6276 1.65609 30.8384 1.65191C30.9323 1.65385 31.0244 1.6749 31.1069 1.7133V2.29392Z" fill="white"/>
<path d="M32.9114 3.81058C32.8089 4.23138 32.5605 4.44169 32.1665 4.4415C32.077 4.4438 31.9881 4.42783 31.9073 4.39491C31.8265 4.36198 31.756 4.31306 31.7017 4.2522C31.5753 4.09914 31.5134 3.91401 31.526 3.72702V2.01354H31.1445L31.9696 1.12598V1.73986H32.813V2.01354H31.9696V3.60911C31.9696 3.94769 32.0946 4.11689 32.3447 4.11671C32.4611 4.10812 32.5733 4.07575 32.6719 4.02233C32.7706 3.9689 32.8527 3.896 32.9114 3.80977" fill="white"/>
<path d="M35.7834 4.35769H34.8416C34.997 4.33524 35.0755 4.17731 35.0755 3.88281V2.62177C35.0755 2.18619 34.8912 1.96849 34.5224 1.96867C34.4154 1.97068 34.3099 1.99085 34.2121 2.02799C34.1143 2.06513 34.026 2.11851 33.9526 2.18502C33.8701 2.24855 33.8042 2.32614 33.759 2.41278C33.7138 2.49941 33.6903 2.59318 33.6901 2.68803V3.88281C33.6901 4.17722 33.7763 4.33552 33.9488 4.35769H32.9825C33.1586 4.33137 33.2467 4.16911 33.2469 3.87091V1.30881C33.26 1.16122 33.2326 1.01305 33.1668 0.876115C33.1399 0.843776 33.1036 0.817988 33.0614 0.801295C33.0193 0.784601 32.9728 0.77758 32.9265 0.780922H32.8711L33.6898 0.462891V2.14716C33.7993 1.99763 33.9541 1.87616 34.1378 1.79559C34.3147 1.70547 34.5157 1.65565 34.7216 1.65091C34.8309 1.64614 34.94 1.66274 35.0407 1.69943C35.1414 1.73612 35.2309 1.79195 35.3025 1.86266C35.4594 2.05101 35.5357 2.27967 35.5188 2.51035V3.87199C35.5188 4.16983 35.607 4.33209 35.7834 4.35877" fill="white"/>
<path d="M41.4131 3.8829C41.283 4.25141 41.082 4.43567 40.8099 4.43567C40.5879 4.43567 40.2291 4.26638 39.7335 3.92779C39.384 4.24089 38.9038 4.42341 38.3975 4.43567C38.067 4.44938 37.7419 4.36042 37.4822 4.18525C37.3665 4.10054 37.2749 3.99434 37.2145 3.87477C37.1542 3.7552 37.1266 3.62543 37.134 3.49537C37.1349 3.26654 37.2309 3.04542 37.405 2.87147C37.5877 2.69609 37.7991 2.54424 38.0328 2.42066C37.7488 2.14084 37.5727 1.79305 37.5285 1.42465C37.5234 1.30842 37.547 1.19258 37.5979 1.0847C37.6488 0.976817 37.7258 0.879325 37.8238 0.798593C37.9219 0.718176 38.0377 0.655238 38.1645 0.61345C38.2913 0.571663 38.4266 0.551861 38.5624 0.555201C38.8198 0.547985 39.0721 0.616965 39.2767 0.750455C39.3782 0.814952 39.4598 0.899557 39.5145 0.996982C39.5692 1.09441 39.5954 1.20173 39.5907 1.30971C39.5891 1.54764 39.4838 1.77651 39.2954 1.95173C39.0986 2.1256 38.8773 2.27794 38.6365 2.40524C38.9915 2.7783 39.3827 3.12506 39.806 3.44182C39.9793 3.23955 40.1239 3.0204 40.2366 2.78899C40.3462 2.5892 40.4091 2.37304 40.4218 2.15266C40.4268 2.09175 40.4129 2.03079 40.3816 1.97591C40.3502 1.92103 40.3025 1.87417 40.2432 1.84004H41.1791C40.9752 1.99273 40.8366 2.19898 40.7849 2.42634C40.6295 2.85841 40.388 3.26434 40.071 3.62626C40.502 3.92392 40.8241 4.07275 41.0373 4.07275C41.112 4.06551 41.184 4.04492 41.2488 4.0123C41.3135 3.97968 41.3695 3.93577 41.4131 3.88344M39.4613 3.73578C39.016 3.39774 38.6042 3.02888 38.23 2.63295C37.8195 2.88031 37.6143 3.12956 37.6143 3.3807C37.613 3.47854 37.6359 3.57551 37.6815 3.66526C37.7271 3.75502 37.7944 3.83554 37.8789 3.90156C37.9616 3.97134 38.0598 4.0264 38.1676 4.06353C38.2754 4.10067 38.3908 4.11915 38.507 4.11791C38.6879 4.11177 38.8656 4.07475 39.0295 4.00902C39.1934 3.9433 39.3402 3.85021 39.4613 3.73524M39.1719 1.39923C39.1733 1.325 39.1575 1.25127 39.1253 1.18232C39.093 1.11337 39.0451 1.05059 38.9842 0.997632C38.9248 0.943382 38.8528 0.900432 38.7727 0.871587C38.6926 0.842742 38.6063 0.828651 38.5194 0.830233C38.4421 0.82818 38.3652 0.840024 38.2937 0.864996C38.2221 0.889967 38.1575 0.927509 38.104 0.975186C38.0492 1.02522 38.0066 1.08404 37.9786 1.14824C37.9506 1.21244 37.9378 1.28074 37.941 1.3492C38.0103 1.6696 38.1829 1.96714 38.4393 2.20837C38.6378 2.09962 38.8197 1.97026 38.981 1.82327C39.102 1.70607 39.1695 1.5555 39.1709 1.39923" fill="white"/>
<path d="M47.8461 0.641602C47.7778 0.653923 47.7143 0.680811 47.6615 0.719757C47.4902 0.862301 47.3668 1.04153 47.3044 1.23872L46.038 4.51314L44.9875 1.80096L43.9048 4.51206L42.6561 1.22195C42.5202 0.868586 42.3458 0.675135 42.1328 0.641602H43.2966C43.1856 0.664138 43.1302 0.748063 43.1304 0.893376C43.136 1.00386 43.1599 1.11312 43.2013 1.2179L44.0219 3.37975L44.8346 1.37042L44.7814 1.19951C44.67 0.861104 44.5116 0.675135 44.3062 0.641602H45.402C45.2829 0.664048 45.2237 0.749775 45.2237 0.898244C45.2319 1.00716 45.259 1.11443 45.3041 1.21655L46.1358 3.36623L46.9713 1.18842C47.0081 1.10242 47.0295 1.01215 47.0346 0.92069C47.0334 0.760322 46.9555 0.668645 46.7997 0.641602H47.8461Z" fill="white"/>
<path d="M50.3392 3.60479C50.1672 4.16369 49.7978 4.44314 49.2311 4.44314C49.0433 4.44755 48.8572 4.41199 48.6896 4.33967C48.5219 4.26734 48.3779 4.16053 48.2706 4.02884C48.0481 3.75415 47.9358 3.42529 47.9505 3.09151C47.9352 2.72599 48.0572 2.36588 48.2988 2.06386C48.3973 1.93561 48.5321 1.83061 48.6907 1.75854C48.8493 1.68647 49.0265 1.64964 49.2061 1.65144C49.3754 1.64941 49.5421 1.68741 49.6877 1.76124C49.8333 1.83508 49.9522 1.94187 50.0312 2.06981C50.2159 2.35499 50.3114 2.67606 50.3085 3.002H48.394C48.3773 3.2932 48.4823 3.58 48.6904 3.81114C48.7721 3.90092 48.8771 3.97334 48.997 4.02274C49.117 4.07214 49.2487 4.09718 49.3818 4.0959C49.5767 4.08893 49.7665 4.04032 49.9337 3.95452C50.101 3.86873 50.2404 3.74849 50.3392 3.60479ZM49.7972 2.77321C49.8044 2.57101 49.7556 2.37022 49.6547 2.18718C49.6172 2.10036 49.5496 2.02538 49.4609 1.97223C49.3722 1.91908 49.2666 1.89029 49.1583 1.8897C49.043 1.89125 48.9303 1.91913 48.8319 1.97044C48.7335 2.02175 48.6529 2.09462 48.5986 2.1815C48.4693 2.35941 48.3986 2.56384 48.394 2.77321H49.7972Z" fill="white"/>
<path d="M52.3584 3.67737C52.3639 3.78215 52.342 3.88665 52.2941 3.98324C52.2462 4.07982 52.1736 4.16603 52.0817 4.23555C51.8698 4.38142 51.6022 4.45512 51.3304 4.44243C51.0361 4.4554 50.746 4.37874 50.5117 4.22608V3.4594C50.6172 3.9433 50.9022 4.18525 51.3665 4.18525C51.4984 4.18884 51.6287 4.15972 51.7417 4.10141C51.8057 4.0712 51.8587 4.02642 51.8948 3.97206C51.9309 3.91769 51.9487 3.85585 51.9462 3.79339C51.9354 3.69875 51.8963 3.60808 51.8327 3.53008C51.769 3.45208 51.683 3.38937 51.5828 3.34798C51.3569 3.23296 51.1311 3.11757 50.9052 3.00182C50.7941 2.93621 50.7031 2.84869 50.64 2.74669C50.5768 2.64468 50.5434 2.53118 50.5424 2.41579C50.5386 2.31338 50.5602 2.21145 50.6059 2.11669C50.6515 2.02193 50.7201 1.93649 50.8071 1.866C50.9968 1.71839 51.2473 1.64115 51.5036 1.65127C51.7517 1.64826 51.9949 1.71058 52.2001 1.82976V2.51099C52.172 2.33114 52.0714 2.1653 51.9155 2.04205C51.7902 1.95094 51.6308 1.90132 51.4662 1.90224C51.3286 1.89874 51.194 1.93707 51.0863 2.01041C51.0359 2.04354 50.9953 2.08633 50.9678 2.13533C50.9403 2.18432 50.9267 2.23815 50.928 2.29247C50.9236 2.39387 50.9652 2.4928 51.0442 2.56859C51.1971 2.68603 51.3682 2.78495 51.5527 2.86255C51.7599 2.95258 51.9541 3.06313 52.1311 3.19194C52.2051 3.25598 52.2634 3.33206 52.3025 3.41567C52.3415 3.49928 52.3605 3.58872 52.3584 3.67872" fill="white"/>
<path d="M54.2044 3.81058C54.1018 4.23138 53.8535 4.44169 53.4595 4.4415C53.37 4.4438 53.2811 4.42783 53.2003 4.39491C53.1194 4.36198 53.049 4.31306 52.9947 4.2522C52.8681 4.09923 52.8061 3.91403 52.819 3.72702V2.01354H52.4375L53.2625 1.12598V1.73986H54.1059V2.01354H53.2625V3.60911C53.2625 3.94769 53.3876 4.11689 53.6377 4.11671C53.7541 4.10812 53.8663 4.07575 53.9649 4.02233C54.0635 3.9689 54.1457 3.896 54.2044 3.80977" fill="white"/>
<path d="M56.6791 3.60479C56.5071 4.16369 56.1377 4.44314 55.571 4.44314C55.3833 4.44762 55.1972 4.4121 55.0295 4.33976C54.8619 4.26743 54.718 4.16057 54.6108 4.02883C54.388 3.75425 54.2756 3.42534 54.2904 3.09151C54.2749 2.72596 54.3969 2.3658 54.6386 2.06385C54.7372 1.93549 54.8721 1.83042 55.0308 1.75834C55.1895 1.68626 55.3669 1.64949 55.5466 1.65144C55.7156 1.64971 55.8819 1.68785 56.0271 1.76166C56.1724 1.83548 56.2909 1.94211 56.3698 2.0698C56.555 2.35489 56.6509 2.67596 56.6484 3.00199H54.7339C54.7174 3.29317 54.8224 3.57991 55.0303 3.81113C55.1121 3.90089 55.2171 3.97329 55.3371 4.02269C55.4571 4.07208 55.5888 4.09714 55.722 4.0959C55.9169 4.08893 56.1066 4.04032 56.2738 3.95452C56.441 3.86872 56.5803 3.74848 56.6791 3.60479ZM56.1377 2.7732C56.1449 2.57094 56.0959 2.37011 55.9946 2.18717C55.9571 2.10036 55.8895 2.02538 55.8008 1.97223C55.7121 1.91908 55.6065 1.89029 55.4982 1.88969C55.383 1.89134 55.2704 1.91927 55.1721 1.97057C55.0738 2.02188 54.9934 2.0947 54.9391 2.18149C54.8096 2.35935 54.7387 2.56378 54.7339 2.7732H56.1377Z" fill="white"/>
<path d="M58.7045 2.29392C58.6615 2.22181 58.5964 2.16097 58.5162 2.11784C58.436 2.07471 58.3437 2.05089 58.249 2.04891C58.1409 2.05496 58.0366 2.08544 57.9468 2.13723C57.857 2.18903 57.7849 2.26028 57.738 2.34368C57.5851 2.57082 57.5104 2.83018 57.5224 3.09197V3.86785C57.5224 4.16911 57.6087 4.33282 57.7814 4.35896H56.8145C56.9909 4.33264 57.0792 4.16893 57.0792 3.86785V2.37775C57.0919 2.2552 57.0664 2.13195 57.0054 2.02051C56.9841 1.99302 56.9544 1.97105 56.9195 1.95698C56.8846 1.94291 56.8459 1.93729 56.8075 1.94073H56.7461L57.5217 1.63379V2.33827C57.5902 2.15544 57.7133 1.99102 57.8789 1.86122C58.0251 1.73124 58.2257 1.65598 58.4367 1.65191C58.5304 1.65393 58.6222 1.67497 58.7045 1.7133V2.29392Z" fill="white"/>
<path d="M61.6212 4.35842H60.6666C60.826 4.3321 60.9057 4.172 60.9057 3.87813V2.6225C60.9057 2.18692 60.7243 1.96922 60.3614 1.9694C60.2545 1.9716 60.149 1.99185 60.0512 2.02898C59.9534 2.06611 59.8652 2.11939 59.7916 2.18575C59.7084 2.24878 59.6417 2.32608 59.5958 2.41261C59.5499 2.49914 59.5259 2.59296 59.5253 2.68794V3.88353C59.5253 4.17398 59.6134 4.33228 59.7897 4.35842H58.8196C58.9961 4.3321 59.0843 4.17209 59.0843 3.8784V2.44915C59.099 2.30799 59.0721 2.16595 59.0061 2.03593C58.9823 2.00507 58.9491 1.98039 58.91 1.9646C58.8709 1.94881 58.8275 1.94252 58.7845 1.94641H58.7148L59.5279 1.63379V2.15843C59.6398 2.00639 59.797 1.88246 59.9834 1.7993C60.1601 1.70768 60.3616 1.65671 60.5682 1.65137C60.67 1.64801 60.7714 1.66316 60.8658 1.69579C60.9602 1.72842 61.0455 1.77781 61.1159 1.84067C61.2946 2.02927 61.3827 2.2688 61.3625 2.51081V3.87245C61.3625 4.17029 61.4487 4.33255 61.6212 4.35923" fill="white"/>
<path d="M24.9138 8.30049L24.7663 9.24376H22.1743C22.3628 9.21401 22.4571 9.02795 22.4573 8.68558V6.04533C22.4573 5.73307 22.3609 5.56008 22.168 5.52637H23.2444C23.0475 5.55648 22.949 5.72946 22.949 6.04533V8.96603H23.9536C24.1677 8.97799 24.3801 8.92662 24.5551 8.82053C24.7215 8.67408 24.8444 8.49577 24.9138 8.30049Z" fill="white"/>
<path d="M27.8191 9.0358L27.3578 9.34815C27.2329 9.32933 27.119 9.27547 27.0339 9.19508C26.9487 9.12325 26.8917 9.03053 26.8709 8.92979C26.7913 9.0606 26.6614 9.16402 26.503 9.22267C26.3308 9.29193 26.1425 9.32724 25.9521 9.32597C25.7406 9.33217 25.5333 9.27388 25.3674 9.16155C25.2904 9.10725 25.2291 9.03842 25.1885 8.96047C25.1479 8.88252 25.1291 8.79759 25.1334 8.71236C25.1334 8.2546 25.6958 7.91403 26.8206 7.69066V7.39994C26.8206 6.98347 26.6245 6.77523 26.2323 6.77523C26.0693 6.76646 25.9078 6.8059 25.7748 6.88692C25.7248 6.9186 25.6842 6.95987 25.6563 7.0074C25.6283 7.05494 25.6139 7.10741 25.614 7.1606C25.614 7.29798 25.6653 7.38164 25.7679 7.41157L25.2696 7.59573C25.2145 7.50026 25.1871 7.39492 25.1895 7.28852C25.189 7.19013 25.2144 7.0929 25.2637 7.00398C25.313 6.91507 25.385 6.83672 25.4744 6.77469C25.7195 6.60667 26.0283 6.52132 26.3422 6.53482C26.471 6.52775 26.6001 6.54396 26.7211 6.5824C26.8421 6.62085 26.9523 6.68066 27.0444 6.75793C27.2 6.91471 27.2794 7.11653 27.266 7.32178V8.52765C27.266 8.87381 27.4179 9.04679 27.7216 9.04661C27.7548 9.04603 27.7878 9.04231 27.82 9.03553M26.8218 8.50575V7.91944C26.0048 8.09072 25.5964 8.32879 25.5966 8.63366C25.5934 8.6913 25.6048 8.74885 25.6301 8.80235C25.6554 8.85585 25.694 8.90403 25.7432 8.94358C25.8439 9.02112 25.9759 9.06223 26.1114 9.05824C26.2943 9.05918 26.471 9.00125 26.6062 8.89598C26.6739 8.84876 26.7284 8.78922 26.7657 8.7217C26.803 8.65419 26.8222 8.5804 26.8218 8.50575Z" fill="white"/>
<path d="M30.5135 9.24194H29.5593C29.7186 9.21598 29.7983 9.05597 29.7983 8.76192V7.50629C29.7983 7.07107 29.6169 6.85337 29.2541 6.85319C29.147 6.8556 29.0415 6.87607 28.9437 6.91343C28.8459 6.9508 28.7577 7.00431 28.6842 7.07089C28.601 7.13392 28.5343 7.21122 28.4884 7.29775C28.4426 7.38428 28.4185 7.4781 28.418 7.57308V8.76759C28.418 9.05768 28.5062 9.2158 28.6826 9.24194H27.7126C27.8886 9.21598 27.9767 9.05597 27.9769 8.76192V7.33321C27.9914 7.19193 27.964 7.04981 27.8972 6.91998C27.8736 6.88923 27.8407 6.86459 27.8019 6.84875C27.7631 6.83292 27.7199 6.8265 27.6771 6.8302H27.6094L28.4221 6.51758V7.04195C28.5338 6.89025 28.6904 6.76639 28.8761 6.68281C29.0528 6.59128 29.2542 6.54032 29.4608 6.53489C29.5627 6.53151 29.6642 6.54663 29.7588 6.57927C29.8533 6.6119 29.9386 6.6613 30.0092 6.72419C30.1874 6.91284 30.2753 7.15222 30.2551 7.39406V8.75651C30.2551 9.0538 30.3414 9.21607 30.5138 9.24329" fill="white"/>
<path d="M32.993 8.47946C32.9402 8.723 32.7981 8.94586 32.5871 9.1158C32.4144 9.25458 32.1854 9.33061 31.9483 9.32782C31.7671 9.33484 31.5866 9.30403 31.4225 9.23806C31.2584 9.17209 31.1155 9.07295 31.0064 8.94921C30.7901 8.68658 30.6814 8.3703 30.6971 8.04947C30.6778 7.65877 30.817 7.27437 31.0912 6.96124C31.2042 6.8291 31.3523 6.72177 31.5233 6.6481C31.6943 6.57442 31.8834 6.5365 32.0749 6.53747C32.1878 6.5344 32.3002 6.55083 32.4055 6.58578C32.5107 6.62073 32.6067 6.67347 32.6875 6.74084C32.8562 6.88975 32.95 7.0891 32.949 7.29631L32.464 7.49129C32.4815 7.433 32.4899 7.37298 32.489 7.31281C32.4927 7.24747 32.481 7.18216 32.4545 7.12078C32.428 7.0594 32.3873 7.00321 32.3348 6.95556C32.2855 6.91193 32.2262 6.87753 32.1605 6.85453C32.0948 6.83153 32.0243 6.82045 31.9533 6.82197C31.8327 6.82155 31.7141 6.84811 31.6093 6.89902C31.5045 6.94994 31.4171 7.02342 31.3559 7.11215C31.194 7.33628 31.1146 7.59677 31.128 7.8599C31.118 8.13648 31.2014 8.40968 31.3683 8.64686C31.4387 8.75577 31.5422 8.84644 31.6679 8.90931C31.7936 8.97218 31.9368 9.00493 32.0825 9.00411C32.2741 8.99027 32.4583 8.9348 32.6177 8.84297C32.777 8.75114 32.9062 8.626 32.993 8.47946Z" fill="white"/>
<path d="M35.8894 9.03483L35.4281 9.34718C35.3032 9.32837 35.1893 9.2745 35.1043 9.19412C35.0191 9.12218 34.9622 9.02951 34.9412 8.92882C34.8616 9.05963 34.7317 9.16305 34.5733 9.2217C34.4011 9.29097 34.2128 9.32627 34.0225 9.32501C33.8109 9.3312 33.6036 9.27292 33.4377 9.16058C33.3607 9.10629 33.2994 9.03745 33.2588 8.95951C33.2182 8.88156 33.1994 8.79662 33.2037 8.71139C33.2037 8.25364 33.7661 7.91307 34.8909 7.68969V7.39897C34.8909 6.9825 34.6949 6.77427 34.303 6.77427C34.1399 6.76546 33.9782 6.8049 33.8452 6.88596C33.7952 6.91769 33.7547 6.95897 33.7267 7.0065C33.6988 7.05402 33.6843 7.10646 33.6843 7.15964C33.6843 7.29702 33.7357 7.38067 33.8385 7.4106L33.3396 7.59477C33.2845 7.49929 33.2571 7.39395 33.2595 7.28755C33.259 7.18916 33.2844 7.09194 33.3337 7.00302C33.383 6.9141 33.455 6.83575 33.5444 6.77373C33.7896 6.60578 34.0983 6.52043 34.4122 6.53385C34.5409 6.52675 34.67 6.54296 34.7909 6.58141C34.9118 6.61985 35.0218 6.67968 35.1137 6.75696C35.2696 6.91366 35.3489 7.11554 35.3354 7.32082V8.52668C35.3354 8.87284 35.4872 9.04583 35.7909 9.04565C35.8241 9.04507 35.8572 9.04162 35.8894 9.03483ZM34.8921 8.50478V7.91848C34.0751 8.08975 33.6667 8.32783 33.6669 8.63269C33.6638 8.69032 33.6753 8.74784 33.7006 8.80133C33.7259 8.85482 33.7644 8.90301 33.8135 8.94261C33.9142 9.02015 34.0462 9.06126 34.1817 9.05728C34.3646 9.05821 34.5413 9.00028 34.6765 8.89502C34.7442 8.8478 34.7987 8.78825 34.836 8.72074C34.8733 8.65322 34.8925 8.57944 34.8921 8.50478Z" fill="white"/>
<path d="M37.6514 8.56214C37.6569 8.66692 37.6349 8.77143 37.5871 8.86801C37.5392 8.96459 37.4666 9.0508 37.3747 9.12032C37.1627 9.26613 36.8951 9.33981 36.6234 9.3272C36.3291 9.34029 36.0389 9.26362 35.8047 9.11085V8.34471C35.9102 8.82825 36.1952 9.07002 36.6595 9.07002C36.7917 9.07378 36.9224 9.04486 37.0359 8.98672C37.0997 8.95623 37.1525 8.91129 37.1883 8.85685C37.2242 8.80241 37.2418 8.74058 37.2392 8.67816C37.2283 8.58355 37.1892 8.49291 37.1255 8.41492C37.0619 8.33693 36.9759 8.2742 36.8757 8.23275C36.6499 8.11773 36.424 8.00234 36.1982 7.88659C36.0871 7.82109 35.9961 7.73368 35.933 7.63176C35.8698 7.52984 35.8363 7.41642 35.8354 7.3011C35.8314 7.1986 35.853 7.09654 35.8986 7.00167C35.9442 6.9068 36.0129 6.82128 36.1001 6.75077C36.2897 6.60313 36.5403 6.52589 36.7966 6.53604C37.0446 6.53329 37.2877 6.59559 37.4931 6.71453V7.39576C37.4647 7.21599 37.3641 7.05022 37.2085 6.92682C37.083 6.83566 36.9233 6.78613 36.7586 6.78728C36.621 6.78388 36.4864 6.8222 36.3787 6.89545C36.3283 6.92858 36.2877 6.97137 36.2602 7.02037C36.2327 7.06936 36.219 7.12319 36.2204 7.17752C36.2159 7.27901 36.2578 7.37802 36.3372 7.45363C36.49 7.57088 36.6608 7.6697 36.845 7.74732C37.0525 7.83713 37.2468 7.94771 37.4237 8.07671C37.4979 8.14069 37.5563 8.21675 37.5954 8.30037C37.6345 8.38399 37.6535 8.47347 37.6514 8.56349" fill="white"/>
<path d="M40.6152 9.24441H39.6733C39.8293 9.22241 39.9072 9.0643 39.9072 8.77007V7.50849C39.9072 7.07327 39.723 6.85557 39.3545 6.85539C39.2473 6.85762 39.1418 6.87802 39.044 6.91539C38.9461 6.95276 38.858 7.00637 38.7846 7.07309C38.7023 7.13648 38.6365 7.21384 38.5912 7.30023C38.546 7.38661 38.5223 7.48011 38.5218 7.57475V8.77007C38.5218 9.06394 38.6081 9.22205 38.7805 9.24441H37.8142C37.9907 9.21845 38.0789 9.05619 38.0789 8.75763V6.19553C38.092 6.04791 38.0644 5.89974 37.9985 5.76283C37.9717 5.73056 37.9355 5.70481 37.8934 5.68812C37.8514 5.67142 37.805 5.66437 37.7588 5.66764H37.7031L38.5218 5.34961V7.03388C38.6315 6.88443 38.7862 6.76299 38.9698 6.68231C39.1469 6.59229 39.348 6.54239 39.5539 6.53736C39.6632 6.53271 39.7722 6.54938 39.8728 6.58612C39.9733 6.62286 40.0627 6.67869 40.1342 6.74938C40.2912 6.93769 40.3677 7.16635 40.3508 7.39707V8.75898C40.3508 9.05628 40.4389 9.21854 40.6152 9.24576" fill="white"/>
<path d="M41.7668 9.24364H40.7562C40.9407 9.21768 41.0329 9.05542 41.0329 8.75686V7.27758C41.0329 6.98028 40.9364 6.83154 40.7435 6.83136H40.6758L41.4888 6.51955V8.75821C41.4888 9.05551 41.5812 9.21777 41.7661 9.24499M41.5565 5.7745C41.5593 5.855 41.5264 5.93343 41.4644 5.9941C41.4328 6.02442 41.3937 6.04829 41.3498 6.06392C41.306 6.07956 41.2586 6.08657 41.2111 6.08442C41.1637 6.08643 41.1164 6.07936 41.0725 6.06373C41.0287 6.04811 40.9895 6.02431 40.9579 5.9941C40.8961 5.93333 40.8632 5.85497 40.8657 5.7745C40.8632 5.69502 40.8961 5.61768 40.9579 5.55816C40.9902 5.52883 41.0296 5.50584 41.0733 5.49081C41.117 5.47577 41.1641 5.46904 41.2111 5.47108C41.2582 5.46898 41.3053 5.47569 41.349 5.49073C41.3928 5.50577 41.4322 5.52878 41.4644 5.55816C41.5263 5.61758 41.5593 5.69499 41.5565 5.7745Z" fill="white"/>
<path d="M43.7938 7.17636C43.7507 7.10424 43.6856 7.0434 43.6055 7.00027C43.5253 6.95715 43.4329 6.93333 43.3382 6.93134C43.2301 6.93744 43.1259 6.96794 43.0362 7.01974C42.9464 7.07153 42.8744 7.14275 42.8275 7.22612C42.6747 7.45326 42.5999 7.71262 42.6119 7.97441V8.75029C42.6119 9.05155 42.6982 9.21525 42.8709 9.2414H41.904C42.0805 9.21507 42.1687 9.05137 42.1687 8.75029V7.26019C42.1813 7.13761 42.1558 7.01436 42.0946 6.90295C42.0733 6.8755 42.0437 6.85356 42.0089 6.83949C41.974 6.82543 41.9354 6.81978 41.897 6.82317H41.8359L42.6116 6.51758V7.22071C42.6799 7.0378 42.803 6.87334 42.9687 6.74366C43.1147 6.61365 43.3151 6.53838 43.5259 6.53435C43.6196 6.53637 43.7114 6.55741 43.7938 6.59573V7.17636Z" fill="white"/>
<path d="M46.3236 8.48885C46.1516 9.04775 45.7822 9.3272 45.2155 9.3272C45.0278 9.33164 44.8417 9.29612 44.674 9.22384C44.5063 9.15157 44.3623 9.0448 44.2549 8.91316C44.0327 8.63878 43.9204 8.31033 43.9349 7.97692C43.9196 7.6114 44.0416 7.25129 44.2831 6.94927C44.3815 6.82075 44.5162 6.71546 44.6748 6.6431C44.8334 6.57075 45.0107 6.53365 45.1905 6.53523C45.3599 6.53325 45.5266 6.57133 45.6722 6.64526C45.8178 6.71919 45.9366 6.82609 46.0155 6.95413C46.2002 7.23924 46.2958 7.56021 46.2929 7.88605H44.3784C44.3617 8.17726 44.4667 8.46406 44.6748 8.69519C44.7565 8.78498 44.8615 8.8574 44.9814 8.9068C45.1013 8.9562 45.233 8.98124 45.3662 8.97996C45.5611 8.97298 45.7509 8.92437 45.9181 8.83858C46.0854 8.75279 46.2248 8.63254 46.3236 8.48885ZM45.7816 7.65726C45.7887 7.45506 45.7399 7.25427 45.6391 7.07123C45.6016 6.98442 45.534 6.90944 45.4453 6.85629C45.3566 6.80314 45.251 6.77435 45.1427 6.77375C45.0274 6.77531 44.9147 6.80319 44.8163 6.8545C44.7178 6.90581 44.6373 6.97868 44.5829 7.06555C44.4536 7.24346 44.383 7.44789 44.3784 7.65726H45.7816Z" fill="white"/>
<path d="M25.5432 13.676C25.3818 13.8496 25.1754 13.9888 24.9403 14.0826C24.7053 14.1765 24.4479 14.2224 24.1884 14.2168C23.8997 14.2279 23.6119 14.1812 23.3481 14.0804C23.0842 13.9796 22.8516 13.8275 22.6688 13.6362C22.3283 13.271 22.1512 12.8142 22.1692 12.3476C22.1534 11.8444 22.3452 11.3524 22.7112 10.9578C22.9065 10.7504 23.1558 10.5849 23.4393 10.4744C23.7228 10.3639 24.0325 10.3116 24.3439 10.3215C24.7296 10.3161 25.11 10.399 25.4456 10.5614V11.3708C25.3748 11.1448 25.2145 10.9467 24.9921 10.8102C24.7697 10.6736 24.4988 10.607 24.2255 10.6217C24.0022 10.6169 23.7812 10.6605 23.583 10.7486C23.3849 10.8367 23.2162 10.9663 23.0927 11.1252C22.8295 11.451 22.6958 11.8403 22.7112 12.2359C22.6968 12.6416 22.8347 13.0405 23.1048 13.3744C23.2349 13.539 23.4114 13.6729 23.6182 13.7637C23.8249 13.8545 24.0552 13.8993 24.2875 13.8939C24.5353 13.8873 24.7779 13.8313 24.9958 13.7305C25.2138 13.6296 25.4012 13.4867 25.5432 13.3131V13.676Z" fill="white"/>
<path d="M28.5139 14.1262H27.572C27.7275 14.1038 27.806 13.9459 27.806 13.6519V12.3903C27.806 11.9551 27.6216 11.7374 27.2529 11.7372C27.1458 11.7394 27.0402 11.7598 26.9424 11.7972C26.8446 11.8346 26.7564 11.8882 26.683 11.9549C26.6008 12.0183 26.5349 12.0957 26.4897 12.182C26.4445 12.2684 26.421 12.362 26.4206 12.4566V13.6519C26.4206 13.9458 26.5068 14.1039 26.6792 14.1262H25.713C25.889 14.1003 25.9773 13.938 25.9777 13.6395V11.0774C25.9905 10.9298 25.963 10.7816 25.8973 10.6447C25.8703 10.6124 25.834 10.5866 25.7919 10.57C25.7497 10.5533 25.7032 10.5463 25.657 10.5497H25.6016L26.4203 10.2314V11.9157C26.5298 11.7661 26.6847 11.6446 26.8686 11.5641C27.0454 11.4741 27.2463 11.4243 27.4521 11.4195C27.5614 11.4147 27.6705 11.4313 27.7712 11.468C27.8718 11.5047 27.9614 11.5605 28.033 11.6312C28.1898 11.8196 28.2662 12.0482 28.2492 12.2789V13.6408C28.2492 13.9381 28.3375 14.1004 28.5139 14.1276" fill="white"/>
<path d="M31.4363 13.9203L30.975 14.2326C30.8502 14.2136 30.7363 14.1598 30.6511 14.0796C30.5659 14.0077 30.5089 13.915 30.4881 13.8143C30.4085 13.9451 30.2786 14.0485 30.1202 14.1072C29.948 14.1764 29.7597 14.2117 29.5693 14.2105C29.3577 14.2169 29.1504 14.1585 28.9846 14.046C28.9075 13.9917 28.8463 13.9229 28.8057 13.845C28.7651 13.767 28.7463 13.6821 28.7506 13.5969C28.7506 13.1387 29.313 12.7982 30.4377 12.5752V12.2844C30.4377 11.868 30.2418 11.6595 29.8498 11.6592C29.6866 11.6504 29.5249 11.69 29.392 11.7714C29.3421 11.8031 29.3015 11.8443 29.2735 11.8918C29.2456 11.9393 29.2311 11.9917 29.2312 12.0448C29.2312 12.1827 29.2825 12.2665 29.3851 12.2961L28.8868 12.4802C28.8317 12.3848 28.8043 12.2794 28.8067 12.173C28.8063 12.0746 28.8317 11.9774 28.881 11.8885C28.9303 11.7996 29.0023 11.7213 29.0916 11.6592C29.3368 11.4913 29.6455 11.406 29.9594 11.4196C30.0882 11.4125 30.2173 11.4287 30.3383 11.4672C30.4593 11.5056 30.5695 11.5654 30.6616 11.6427C30.8172 11.7994 30.8965 12.0011 30.8832 12.2063V13.4121C30.8832 13.7583 31.035 13.9313 31.3388 13.9311C31.372 13.9305 31.405 13.9268 31.4372 13.92M30.439 13.39V12.8039C29.622 12.9752 29.2136 13.2133 29.2138 13.5182C29.2106 13.5758 29.2221 13.6333 29.2474 13.6868C29.2727 13.7403 29.3112 13.7885 29.3604 13.8281C29.4612 13.9054 29.5932 13.9464 29.7286 13.9422C29.9115 13.9431 30.0882 13.8852 30.2234 13.7799C30.2911 13.7327 30.3455 13.6732 30.3828 13.6058C30.4201 13.5383 30.4393 13.4646 30.439 13.39Z" fill="white"/>
<path d="M35.7502 14.1274H34.8023C34.9663 14.1014 35.0483 13.9392 35.0483 13.6406V12.4358C35.0483 11.9709 34.8833 11.7384 34.5534 11.7384C34.4496 11.7391 34.3471 11.7586 34.2528 11.7956C34.1584 11.8326 34.0743 11.8863 34.006 11.9531C33.8522 12.0862 33.7666 12.2661 33.768 12.4531V13.6431C33.768 13.9404 33.8524 14.1026 34.0212 14.1298H33.0784C33.2424 14.1039 33.3244 13.9416 33.3244 13.6431V12.4358C33.3244 11.9709 33.1595 11.7384 32.8296 11.7384C32.7262 11.7395 32.6242 11.7592 32.5302 11.7962C32.4363 11.8332 32.3526 11.8867 32.2844 11.9531C32.2075 12.0187 32.1466 12.0967 32.1053 12.1825C32.064 12.2683 32.0431 12.3603 32.0438 12.4531V13.6431C32.0438 13.9404 32.126 14.1026 32.2904 14.1298H31.3235C31.4998 14.1023 31.5879 13.9413 31.5879 13.6471V12.2184C31.6013 12.0776 31.576 11.9361 31.5138 11.8052C31.4886 11.7744 31.4542 11.7499 31.4143 11.7342C31.3744 11.7184 31.3303 11.7119 31.2865 11.7154H31.2188L32.0438 11.4033V11.928C32.1522 11.7697 32.3095 11.6401 32.4984 11.5531C32.6637 11.4691 32.8519 11.4233 33.0442 11.4204C33.2048 11.4165 33.3609 11.4654 33.4805 11.5569C33.6042 11.6546 33.6849 11.7856 33.7091 11.928C33.8143 11.7811 33.9601 11.6584 34.1336 11.5707C34.3168 11.4748 34.5269 11.4229 34.7418 11.4204C34.8561 11.4177 34.9691 11.4411 35.0693 11.4881C35.1695 11.5352 35.2531 11.6042 35.3117 11.6881C35.4411 11.8834 35.5029 12.106 35.4899 12.3301V13.6417C35.4899 13.939 35.5761 14.1013 35.7486 14.1285" fill="white"/>
<path d="M38.6441 12.7021C38.6571 13.0717 38.5324 13.4353 38.2879 13.7405C38.1823 13.8832 38.0359 14.0006 37.8624 14.0815C37.689 14.1625 37.4943 14.2044 37.2967 14.2033C37.0956 14.209 36.8951 14.1824 36.7056 14.1248C36.6207 14.0912 36.532 14.065 36.4409 14.0467C36.3548 14.0467 36.2666 14.0989 36.1763 14.2033V11.0613C36.19 10.9104 36.1604 10.7589 36.0901 10.62C36.0642 10.5882 36.0289 10.5627 35.9879 10.5461C35.9468 10.5295 35.9015 10.5224 35.8562 10.5253H35.8008L36.6379 10.2295V11.8986C36.7389 11.7554 36.881 11.6364 37.0507 11.553C37.2114 11.4671 37.3965 11.4204 37.5861 11.4178C37.7368 11.4165 37.8855 11.4472 38.0188 11.5073C38.1521 11.5674 38.2658 11.6548 38.3497 11.7618C38.5629 12.0403 38.666 12.3698 38.6441 12.7021ZM38.1642 12.8194C38.1741 12.563 38.1115 12.3082 37.9815 12.0768C37.9361 11.9794 37.8579 11.8957 37.7569 11.8362C37.6559 11.7767 37.5365 11.744 37.4138 11.7423C37.3082 11.7439 37.2044 11.766 37.1103 11.8071C37.0163 11.8482 36.9345 11.9072 36.8712 11.9795C36.7217 12.1255 36.6391 12.3128 36.6388 12.5068V13.4558C36.6388 13.776 36.8604 13.936 37.3037 13.9358C37.4365 13.9333 37.566 13.8997 37.6781 13.8387C37.7901 13.7776 37.8804 13.6915 37.9391 13.5896C38.0964 13.3557 38.1746 13.0891 38.1651 12.8194" fill="white"/>
<path d="M41.2728 13.3724C41.1004 13.9313 40.731 14.2107 40.1647 14.2107C39.977 14.2151 39.7909 14.1796 39.6232 14.1073C39.4555 14.0349 39.3115 13.9281 39.2042 13.7964C38.9816 13.5216 38.8693 13.1925 38.8841 12.8586C38.8688 12.493 38.9908 12.1329 39.2324 11.8309C39.3311 11.7028 39.4659 11.5979 39.6245 11.526C39.783 11.454 39.9602 11.4172 40.1397 11.419C40.3091 11.4169 40.476 11.4548 40.6217 11.5287C40.7674 11.6025 40.8864 11.7094 40.9654 11.8374C41.1499 12.1226 41.2452 12.4437 41.2421 12.7696H39.3277C39.311 13.0608 39.416 13.3476 39.624 13.5787C39.7058 13.6685 39.8107 13.7409 39.9307 13.7903C40.0506 13.8397 40.1823 13.8647 40.3154 13.8635C40.5104 13.8566 40.7002 13.808 40.8674 13.7222C41.0347 13.6364 41.1741 13.5161 41.2728 13.3724ZM40.7314 12.5408C40.7386 12.3385 40.6896 12.1377 40.5883 11.9548C40.5507 11.868 40.4831 11.7931 40.3944 11.7399C40.3058 11.6868 40.2002 11.658 40.0919 11.6573C39.9767 11.659 39.864 11.6869 39.7656 11.7382C39.6672 11.7895 39.5866 11.8623 39.5322 11.9491C39.403 12.127 39.3324 12.3314 39.3277 12.5408H40.7314Z" fill="white"/>
<path d="M43.2905 12.0605C43.2474 11.9884 43.1824 11.9276 43.1022 11.8844C43.022 11.8413 42.9296 11.8175 42.8349 11.8155C42.7267 11.8215 42.6223 11.852 42.5325 11.9039C42.4426 11.9558 42.3707 12.0272 42.3239 12.1108C42.1711 12.3378 42.0964 12.597 42.1083 12.8586V13.6345C42.1083 13.9357 42.1945 14.0994 42.367 14.1256H41.4001C41.577 14.0996 41.6652 13.9359 41.6648 13.6345V12.1444C41.6773 12.0218 41.652 11.8987 41.5913 11.7871C41.57 11.7597 41.5402 11.7378 41.5054 11.7237C41.4705 11.7096 41.4318 11.704 41.3935 11.7073H41.332L42.1077 11.4004V12.1049C42.1761 11.922 42.2992 11.7576 42.4648 11.6278C42.6111 11.4979 42.8117 11.4227 43.0226 11.4188C43.1164 11.4206 43.2082 11.4417 43.2905 11.4802V12.0605Z" fill="white"/>
<path d="M47.4113 12.7694C47.4216 13.1172 47.2984 13.4584 47.0605 13.7408C46.939 13.8903 46.7756 14.0116 46.5852 14.0934C46.3948 14.1753 46.1835 14.2152 45.9705 14.2094C45.77 14.216 45.5707 14.1802 45.3903 14.1052C45.21 14.0302 45.0541 13.9183 44.9365 13.7794C44.714 13.513 44.5994 13.1919 44.6101 12.8648C44.6002 12.5152 44.7233 12.1723 44.9608 11.8875C45.0796 11.7383 45.2405 11.6172 45.4287 11.5352C45.6169 11.4533 45.8262 11.4133 46.0373 11.4188C46.2395 11.4119 46.4407 11.448 46.6225 11.524C46.8044 11.5999 46.9613 11.7133 47.0792 11.8539C47.3062 12.1189 47.4231 12.4411 47.4113 12.7694ZM46.9247 12.8867C46.9318 12.6051 46.8489 12.3271 46.6847 12.0827C46.6139 11.9645 46.5066 11.8651 46.3744 11.7953C46.2422 11.7255 46.0901 11.6878 45.9347 11.6865C45.7971 11.6866 45.6624 11.7203 45.5466 11.7836C45.4307 11.847 45.3385 11.9373 45.2809 12.044C45.1452 12.2558 45.0773 12.4944 45.084 12.7358C45.0763 13.02 45.1618 13.3003 45.3306 13.5452C45.4015 13.6636 45.5089 13.7631 45.6413 13.833C45.7737 13.9029 45.926 13.9405 46.0816 13.9417C46.2182 13.9417 46.3519 13.908 46.4665 13.8445C46.5812 13.7811 46.6719 13.6907 46.7277 13.5842C46.8626 13.3701 46.9307 13.1298 46.9247 12.8867Z" fill="white"/>
<path d="M49.2325 11.7819H48.4939V13.6182C48.4939 13.9308 48.5821 14.1001 48.7586 14.126H47.7794C47.9598 14.1001 48.0501 13.9308 48.0504 13.6182V11.7819H47.5391V11.5074H48.05V11.3854C48.0326 11.1006 48.1161 10.8178 48.2897 10.5741C48.3613 10.4799 48.46 10.4031 48.5765 10.351C48.6929 10.2989 48.8231 10.2733 48.9546 10.2767C49.0478 10.2756 49.1407 10.2847 49.2313 10.3037V10.8005C49.1973 10.7316 49.1399 10.673 49.0665 10.6322C48.9932 10.5914 48.9072 10.5703 48.8197 10.5717C48.6004 10.5717 48.4908 10.7652 48.4911 11.1521V11.5074H49.2325V11.7819Z" fill="white"/>
<path d="M53.9458 13.676C53.7844 13.8496 53.5781 13.9888 53.343 14.0826C53.1079 14.1765 52.8505 14.2224 52.5911 14.2168C52.3024 14.2278 52.0146 14.1811 51.7508 14.0803C51.4869 13.9795 51.2543 13.8274 51.0714 13.6362C50.7309 13.271 50.5536 12.8142 50.5715 12.3476C50.5559 11.8444 50.7478 11.3525 51.1136 10.9578C51.3089 10.7505 51.5583 10.5849 51.8418 10.4745C52.1253 10.364 52.4351 10.3116 52.7465 10.3215C53.1323 10.3162 53.5126 10.399 53.8483 10.5614V11.3708C53.7774 11.1448 53.6172 10.9467 53.3948 10.8102C53.1724 10.6736 52.9015 10.607 52.6281 10.6217C52.4049 10.6169 52.1839 10.6606 51.9859 10.7487C51.7878 10.8367 51.6192 10.9663 51.4957 11.1252C51.2323 11.4509 51.0983 11.8403 51.1136 12.2359C51.0993 12.6416 51.2375 13.0406 51.5077 13.3744C51.6378 13.539 51.8143 13.6728 52.021 13.7636C52.2277 13.8544 52.4579 13.8992 52.6902 13.8939C52.938 13.8873 53.1805 13.8313 53.3985 13.7304C53.6165 13.6296 53.8039 13.4867 53.9458 13.313V13.676Z" fill="white"/>
<path d="M56.9621 12.7694C56.9724 13.1172 56.8492 13.4584 56.6113 13.7408C56.4898 13.8903 56.3264 14.0116 56.136 14.0934C55.9456 14.1753 55.7343 14.2152 55.5213 14.2094C55.3208 14.216 55.1215 14.1802 54.9411 14.1052C54.7608 14.0302 54.6049 13.9183 54.4873 13.7794C54.2646 13.5131 54.15 13.1919 54.1609 12.8648C54.1512 12.5152 54.2743 12.1724 54.5116 11.8875C54.6304 11.7383 54.7913 11.6171 54.9795 11.5352C55.1676 11.4533 55.377 11.4133 55.5881 11.4188C55.7904 11.4119 55.9915 11.448 56.1734 11.5239C56.3553 11.5999 56.5122 11.7133 56.63 11.8539C56.857 12.1189 56.9739 12.4411 56.9621 12.7694ZM56.4758 12.8867C56.4829 12.605 56.3998 12.3271 56.2355 12.0827C56.1647 11.9646 56.0573 11.8652 55.9251 11.7953C55.7929 11.7255 55.6409 11.6879 55.4855 11.6865C55.3479 11.6866 55.2132 11.7203 55.0974 11.7836C54.9815 11.847 54.8893 11.9374 54.8317 12.0441C54.696 12.2558 54.6281 12.4945 54.6348 12.7358C54.6271 13.02 54.7126 13.3003 54.8814 13.5452C54.9522 13.6635 55.0595 13.763 55.1918 13.8329C55.3241 13.9028 55.4762 13.9404 55.6318 13.9417C55.7685 13.9418 55.9023 13.9081 56.017 13.8446C56.1318 13.7812 56.2226 13.6907 56.2786 13.5842C56.4135 13.3701 56.4817 13.1298 56.4758 12.8867Z" fill="white"/>
<path d="M61.6212 14.1274H60.6715C60.8355 14.1014 60.9177 13.9392 60.9181 13.6406V12.4358C60.9181 11.9709 60.7531 11.7384 60.4233 11.7384C60.3194 11.7391 60.2169 11.7586 60.1226 11.7956C60.0282 11.8326 59.9441 11.8863 59.8759 11.9531C59.7995 12.0189 59.7392 12.097 59.6982 12.1828C59.6573 12.2686 59.6367 12.3605 59.6375 12.4531V13.6431C59.6375 13.9404 59.7219 14.1026 59.8907 14.1298H58.9495C59.1131 14.1039 59.1951 13.9416 59.1955 13.6431V12.4358C59.1955 11.9709 59.0306 11.7384 58.7007 11.7384C58.5973 11.7396 58.4953 11.7593 58.4014 11.7963C58.3075 11.8333 58.2237 11.8867 58.1555 11.9531C58.0786 12.0187 58.0177 12.0967 57.9764 12.1825C57.9351 12.2683 57.9142 12.3603 57.9149 12.4531V13.6431C57.9149 13.9404 57.9969 14.1026 58.1609 14.1298H57.1946C57.3709 14.1023 57.459 13.9413 57.459 13.6471V12.2184C57.4723 12.0777 57.4472 11.9362 57.3855 11.8052C57.3603 11.7744 57.3259 11.7498 57.2859 11.7341C57.2459 11.7183 57.2018 11.7118 57.1579 11.7154H57.0898L57.9149 11.4033V11.928C58.0233 11.7697 58.1806 11.6401 58.3695 11.5531C58.5348 11.4691 58.723 11.4233 58.9153 11.4204C59.0758 11.4166 59.2319 11.4655 59.3516 11.5569C59.4753 11.6546 59.556 11.7856 59.5802 11.928C59.6854 11.7811 59.8312 11.6584 60.0047 11.5707C60.1879 11.4748 60.398 11.4229 60.6129 11.4204C60.7272 11.4177 60.8402 11.4412 60.9403 11.4882C61.0405 11.5353 61.1242 11.6043 61.1828 11.6881C61.3119 11.8834 61.3737 12.106 61.361 12.3301V13.6417C61.361 13.939 61.4472 14.1013 61.6197 14.1285" fill="white"/>
<path d="M66.2186 14.1272H65.271C65.435 14.1013 65.517 13.939 65.517 13.6405V12.4357C65.517 11.9707 65.3521 11.7382 65.0222 11.7382C64.9183 11.7389 64.8158 11.7584 64.7214 11.7954C64.627 11.8324 64.5428 11.8861 64.4745 11.9529C64.3206 12.0861 64.235 12.2659 64.2364 12.453V13.6429C64.2364 13.9402 64.3208 14.1025 64.4897 14.1297H63.5469C63.7108 14.1037 63.7928 13.9415 63.7928 13.6429V12.4357C63.7928 11.9707 63.6279 11.7382 63.298 11.7382C63.1946 11.7394 63.0926 11.7591 62.9987 11.7961C62.9048 11.8331 62.821 11.8865 62.7528 11.9529C62.6758 12.0185 62.6148 12.0964 62.5734 12.1823C62.532 12.2681 62.511 12.3601 62.5116 12.453V13.6429C62.5116 13.9402 62.5936 14.1025 62.7576 14.1297H61.7923C61.9683 14.1021 62.0563 13.9412 62.0563 13.647V12.2182C62.0698 12.0775 62.0444 11.9359 61.9822 11.805C61.9569 11.7744 61.9227 11.7499 61.8828 11.7342C61.843 11.7184 61.799 11.7119 61.7553 11.7152H61.6875L62.5125 11.4023V11.927C62.6209 11.769 62.7782 11.6395 62.9672 11.553C63.1324 11.4689 63.3204 11.4231 63.5127 11.4202C63.6734 11.4163 63.8298 11.4651 63.9496 11.5568C64.0727 11.6547 64.1532 11.7856 64.1775 11.9278C64.2826 11.7809 64.4283 11.6582 64.6017 11.5706C64.7852 11.4746 64.9955 11.4227 65.2106 11.4202C65.3248 11.4176 65.4378 11.441 65.538 11.4881C65.6381 11.5351 65.7218 11.6041 65.7804 11.6879C65.9096 11.8833 65.9714 12.1058 65.9587 12.3299V13.6415C65.9587 13.9388 66.0447 14.1011 66.2167 14.1283" fill="white"/>
<path d="M68.8037 13.3724C68.6313 13.9313 68.2619 14.2107 67.6957 14.2107C67.5079 14.2151 67.3218 14.1795 67.1541 14.1072C66.9864 14.0349 66.8425 13.9281 66.7351 13.7964C66.5128 13.5215 66.4006 13.1925 66.4154 12.8585C66.4 12.493 66.5221 12.1329 66.7636 11.8309C66.8622 11.7027 66.997 11.5978 67.1556 11.5258C67.3142 11.4538 67.4914 11.4171 67.671 11.419C67.8403 11.417 68.0069 11.455 68.1526 11.5288C68.2982 11.6027 68.417 11.7094 68.496 11.8374C68.6809 12.1225 68.7763 12.4436 68.773 12.7696H66.8579C66.8417 13.0607 66.9467 13.3474 67.1543 13.5787C67.2362 13.6685 67.3413 13.7409 67.4613 13.7903C67.5814 13.8397 67.7131 13.8647 67.8464 13.8635C68.0413 13.8566 68.2311 13.808 68.3983 13.7222C68.5656 13.6364 68.705 13.5161 68.8037 13.3724ZM68.262 12.5408C68.2692 12.3386 68.2204 12.1378 68.1196 11.9548C68.0818 11.868 68.014 11.7931 67.9252 11.7399C67.8365 11.6868 67.7309 11.658 67.6225 11.6573C67.5073 11.659 67.3947 11.6869 67.2964 11.7382C67.198 11.7895 67.1175 11.8623 67.0631 11.9491C66.9341 12.1271 66.8633 12.3314 66.8579 12.5408H68.262Z" fill="white"/>
<path d="M70.8314 12.0621C70.7884 11.99 70.7234 11.9291 70.6432 11.886C70.563 11.8428 70.4706 11.819 70.3759 11.8171C70.2677 11.8231 70.1634 11.8536 70.0736 11.9055C69.9838 11.9574 69.9119 12.0288 69.8652 12.1124C69.7127 12.3394 69.6381 12.5986 69.6499 12.8602V13.636C69.6499 13.9373 69.7354 14.1014 69.9086 14.1271H68.9411C69.1179 14.1012 69.2064 13.9375 69.2064 13.636V12.1459C69.2187 12.0234 69.1931 11.9002 69.1323 11.7887C69.111 11.7612 69.0813 11.7393 69.0464 11.7252C69.0115 11.7111 68.9728 11.7055 68.9344 11.7089H68.8711L69.6499 11.4033V12.1065C69.7176 11.9236 69.8402 11.7592 70.0054 11.6294C70.1519 11.4995 70.3525 11.4244 70.5636 11.4204C70.6574 11.4222 70.7492 11.4432 70.8314 11.4817V12.0621Z" fill="white"/>
<path d="M73.2782 13.3613C73.2252 13.6048 73.0831 13.8276 72.8723 13.9976C72.6992 14.1367 72.4695 14.2128 72.2319 14.2096C72.0507 14.2166 71.8703 14.1858 71.7063 14.1198C71.5422 14.0538 71.3994 13.9547 71.2903 13.831C71.0744 13.5683 70.9661 13.252 70.9823 12.9313C70.9627 12.5406 71.102 12.1561 71.3764 11.8431C71.4893 11.7109 71.6374 11.6035 71.8084 11.5299C71.9795 11.4562 72.1685 11.4183 72.3601 11.4193C72.473 11.4163 72.5855 11.4328 72.6908 11.4678C72.7961 11.5028 72.8921 11.5555 72.973 11.6229C73.1414 11.7719 73.2352 11.9711 73.2342 12.1781L72.7492 12.3731C72.7665 12.3148 72.7747 12.2548 72.7736 12.1946C72.7772 12.1294 72.7656 12.0641 72.7392 12.0028C72.7129 11.9414 72.6725 11.8852 72.6203 11.8374C72.5708 11.7938 72.5114 11.7595 72.4456 11.7365C72.3798 11.7135 72.3092 11.7024 72.2382 11.7038C72.1177 11.7035 71.9992 11.7301 71.8944 11.781C71.7897 11.8319 71.7024 11.9053 71.6411 11.994C71.4792 12.2181 71.3998 12.4786 71.4132 12.7417C71.4032 13.0183 71.4865 13.2914 71.6531 13.5287C71.7236 13.6376 71.8272 13.7283 71.953 13.7912C72.0787 13.854 72.222 13.8868 72.3677 13.8859C72.5592 13.8721 72.7435 13.8166 72.9029 13.7248C73.0622 13.633 73.1914 13.5078 73.2782 13.3613Z" fill="white"/>
<path d="M75.8431 13.3724C75.6707 13.9313 75.3013 14.2107 74.7351 14.2107C74.5473 14.2151 74.3612 14.1796 74.1935 14.1072C74.0258 14.0349 73.8818 13.9281 73.7745 13.7964C73.5519 13.5216 73.4396 13.1925 73.4544 12.8585C73.4391 12.493 73.5612 12.1329 73.8027 11.8309C73.9014 11.7027 74.0363 11.5978 74.195 11.5258C74.3537 11.4538 74.531 11.4171 74.7107 11.419C74.8797 11.4173 75.0459 11.4554 75.1912 11.5292C75.3364 11.6031 75.455 11.7097 75.5338 11.8374C75.719 12.1225 75.815 12.4435 75.8124 12.7696H73.8977C73.881 13.0609 73.9863 13.3477 74.1946 13.5787C74.2764 13.6685 74.3814 13.7409 74.5013 13.7903C74.6212 13.8397 74.7529 13.8647 74.8861 13.8635C75.0809 13.8565 75.2707 13.8079 75.4379 13.7221C75.6051 13.6363 75.7444 13.5161 75.8431 13.3724ZM75.3011 12.5408C75.3083 12.3386 75.2595 12.1378 75.1587 11.9547C75.1211 11.8679 75.0535 11.793 74.9648 11.7398C74.8761 11.6867 74.7706 11.6579 74.6622 11.6573C74.547 11.6588 74.4344 11.6867 74.3361 11.738C74.2378 11.7894 74.1573 11.8622 74.1031 11.9491C73.9735 12.1269 73.9025 12.3313 73.8977 12.5408H75.3011Z" fill="white"/>
</svg>
