<svg width="375" height="160" viewBox="0 0 375 160" fill="none" xmlns="http://www.w3.org/2000/svg">
<rect width="93.75" height="80" fill="#3178D0"/>
<path d="M33.1609 35.4459C34.3568 35.4459 35.2732 35.7254 35.9101 36.2843C36.5471 36.8303 36.8655 37.6427 36.8655 38.7216V41.7828C36.8655 42.8877 36.5536 43.7261 35.9296 44.2981C35.3187 44.857 34.4153 45.1235 33.2194 45.0975L27.6819 45V42.8747H34.0383C34.2463 42.8747 34.3503 42.7707 34.3503 42.5627V37.8832C34.3503 37.6752 34.2463 37.5712 34.0383 37.5712H27.8574V29.5379H36.2806V31.6632H30.2752V35.4459H33.1609ZM39.7705 32.4627C39.7705 31.3838 40.0499 30.5973 40.6089 30.1034C41.1808 29.6094 42.0583 29.3625 43.2411 29.3625H46.3804C47.5502 29.3625 48.4212 29.6094 48.9931 30.1034C49.5651 30.5973 49.851 31.3838 49.851 32.4627V42.0948C49.851 43.1607 49.5651 43.9406 48.9931 44.4346C48.4212 44.9285 47.5502 45.1755 46.3804 45.1755H43.2411C42.0583 45.1755 41.1808 44.9285 40.6089 44.4346C40.0499 43.9406 39.7705 43.1607 39.7705 42.0948V32.4627ZM42.5392 31.5658C42.3572 31.5658 42.2662 31.6502 42.2662 31.8192V42.7187C42.2662 42.8877 42.3572 42.9722 42.5392 42.9722H47.0823C47.2643 42.9722 47.3553 42.8877 47.3553 42.7187V31.8192C47.3553 31.6502 47.2643 31.5658 47.0823 31.5658H42.5392ZM53.2516 32.4627C53.2516 31.3838 53.5311 30.5973 54.0901 30.1034C54.662 29.6094 55.5394 29.3625 56.7223 29.3625H59.8615C61.0314 29.3625 61.9023 29.6094 62.4743 30.1034C63.0462 30.5973 63.3322 31.3838 63.3322 32.4627V42.0948C63.3322 43.1607 63.0462 43.9406 62.4743 44.4346C61.9023 44.9285 61.0314 45.1755 59.8615 45.1755H56.7223C55.5394 45.1755 54.662 44.9285 54.0901 44.4346C53.5311 43.9406 53.2516 43.1607 53.2516 42.0948V32.4627ZM56.0204 31.5658C55.8384 31.5658 55.7474 31.6502 55.7474 31.8192V42.7187C55.7474 42.8877 55.8384 42.9722 56.0204 42.9722H60.5635C60.7454 42.9722 60.8364 42.8877 60.8364 42.7187V31.8192C60.8364 31.6502 60.7454 31.5658 60.5635 31.5658H56.0204ZM70.6324 42.7967V38.6241H66.3623V36.8693H70.6324V32.6772H72.4848V36.8693H76.7549V38.6241H72.4848V42.7967H70.6324Z" fill="white"/>
<path d="M28.8839 49.9002C28.6085 49.9002 28.3871 49.865 28.2196 49.7945V49.4772C28.3144 49.5125 28.4157 49.5411 28.5237 49.5631C28.6338 49.5852 28.7429 49.5962 28.8508 49.5962C29.0205 49.5962 29.1472 49.5764 29.2309 49.5367C29.3168 49.4971 29.3598 49.4177 29.3598 49.2988C29.3598 49.2261 29.3421 49.1677 29.3069 49.1236C29.2716 49.0795 29.2133 49.0421 29.1317 49.0113C29.0502 48.9782 28.9379 48.9441 28.7947 48.9088C28.5655 48.8493 28.4047 48.7744 28.3122 48.6841C28.2196 48.5915 28.1734 48.4649 28.1734 48.304C28.1734 48.1168 28.2417 47.9702 28.3783 47.8645C28.5148 47.7587 28.7186 47.7059 28.9896 47.7059C29.113 47.7059 29.2287 47.7147 29.3366 47.7323C29.4468 47.7499 29.5327 47.7698 29.5944 47.7918V48.109C29.427 48.0452 29.2419 48.0132 29.0392 48.0132C28.8806 48.0132 28.7572 48.0341 28.6691 48.076C28.5809 48.1179 28.5369 48.1939 28.5369 48.304C28.5369 48.3679 28.5523 48.4197 28.5831 48.4594C28.614 48.499 28.6669 48.5332 28.7418 48.5618C28.8189 48.5904 28.9246 48.6224 29.059 48.6576C29.2331 48.7017 29.3675 48.7546 29.4622 48.8163C29.5592 48.8758 29.6264 48.9463 29.6638 49.0278C29.7035 49.1071 29.7233 49.1974 29.7233 49.2988C29.7233 49.486 29.6539 49.6336 29.5151 49.7416C29.3763 49.8474 29.1659 49.9002 28.8839 49.9002ZM29.829 49.8672L30.642 47.7389H31.0452L31.8516 49.8672H31.4814L31.2699 49.3186H30.414L30.2025 49.8672H29.829ZM30.4702 49.041H31.2104L30.8403 48.0661L30.4702 49.041ZM32.4769 49.8672V48.0198H31.7962V47.7389H33.5146V48.0198H32.8372V49.8672H32.4769ZM33.8034 49.8672V47.7389H34.1636V49.8672H33.8034ZM35.2256 49.9002C34.9502 49.9002 34.7287 49.865 34.5613 49.7945V49.4772C34.656 49.5125 34.7574 49.5411 34.8653 49.5631C34.9755 49.5852 35.0846 49.5962 35.1925 49.5962C35.3622 49.5962 35.4888 49.5764 35.5726 49.5367C35.6585 49.4971 35.7015 49.4177 35.7015 49.2988C35.7015 49.2261 35.6838 49.1677 35.6486 49.1236C35.6133 49.0795 35.5549 49.0421 35.4734 49.0113C35.3919 48.9782 35.2795 48.9441 35.1363 48.9088C34.9072 48.8493 34.7464 48.7744 34.6538 48.6841C34.5613 48.5915 34.515 48.4649 34.515 48.304C34.515 48.1168 34.5833 47.9702 34.7199 47.8645C34.8565 47.7587 35.0603 47.7059 35.3313 47.7059C35.4547 47.7059 35.5704 47.7147 35.6783 47.7323C35.7885 47.7499 35.8744 47.7698 35.9361 47.7918V48.109C35.7687 48.0452 35.5836 48.0132 35.3809 48.0132C35.2223 48.0132 35.0989 48.0341 35.0108 48.076C34.9226 48.1179 34.8786 48.1939 34.8786 48.304C34.8786 48.3679 34.894 48.4197 34.9248 48.4594C34.9557 48.499 35.0086 48.5332 35.0835 48.5618C35.1606 48.5904 35.2663 48.6224 35.4007 48.6576C35.5748 48.7017 35.7092 48.7546 35.8039 48.8163C35.9008 48.8758 35.968 48.9463 36.0055 49.0278C36.0452 49.1071 36.065 49.1974 36.065 49.2988C36.065 49.486 35.9956 49.6336 35.8568 49.7416C35.718 49.8474 35.5076 49.9002 35.2256 49.9002ZM36.4143 49.8672V47.7389H37.8617V48.0198H36.7745V48.6642H37.7395V48.9419H36.7745V49.8672H36.4143ZM38.1473 49.8672V47.7389H38.5075V49.8672H38.1473ZM38.9251 49.8672V47.7389H40.409V48.0198H39.2853V48.6642H40.2867V48.9419H39.2853V49.5896H40.409V49.8672H38.9251ZM40.7421 49.8672V47.7389H41.6046C41.9197 47.7389 42.1532 47.8226 42.3052 47.9901C42.4573 48.1553 42.5333 48.4307 42.5333 48.8163C42.5333 49.1798 42.4584 49.4464 42.3086 49.616C42.1587 49.7835 41.9241 49.8672 41.6046 49.8672H40.7421ZM41.1023 49.5896H41.5485C41.6873 49.5896 41.8029 49.5698 41.8955 49.5301C41.988 49.4882 42.0574 49.4111 42.1037 49.2988C42.1499 49.1864 42.1731 49.0256 42.1731 48.8163C42.1731 48.607 42.1521 48.445 42.1103 48.3305C42.0684 48.2159 42.0012 48.1355 41.9087 48.0892C41.8183 48.043 41.6983 48.0198 41.5485 48.0198H41.1023V49.5896ZM44.6479 49.9002C44.2976 49.9002 44.0322 49.8044 43.8515 49.6127C43.673 49.421 43.5838 49.1622 43.5838 48.8361C43.5838 48.6026 43.6213 48.4021 43.6962 48.2346C43.7733 48.065 43.8901 47.935 44.0465 47.8447C44.2029 47.7521 44.4023 47.7059 44.6446 47.7059C44.768 47.7059 44.8804 47.7158 44.9817 47.7356C45.0853 47.7532 45.1811 47.7775 45.2692 47.8083V48.1223C45.1811 48.087 45.0864 48.0606 44.985 48.043C44.8859 48.0231 44.7812 48.0132 44.6711 48.0132C44.4067 48.0132 44.2194 48.0837 44.1093 48.2247C44.0013 48.3657 43.9473 48.5695 43.9473 48.8361C43.9473 49.0851 44.0068 49.2745 44.1258 49.4045C44.2448 49.5323 44.4287 49.5962 44.6777 49.5962C44.779 49.5962 44.8804 49.5885 44.9817 49.5731C45.0853 49.5554 45.1822 49.529 45.2725 49.4937V49.811C45.1844 49.8396 45.0886 49.8617 44.985 49.8771C44.8837 49.8925 44.7713 49.9002 44.6479 49.9002ZM45.6218 49.8672V47.7389H45.982V49.5896H47.0726V49.8672H45.6218ZM47.3581 49.8672V47.7389H47.7183V49.8672H47.3581ZM48.1359 49.8672V47.7389H49.6197V48.0198H48.4961V48.6642H49.4974V48.9419H48.4961V49.5896H49.6197V49.8672H48.1359ZM49.9529 49.8672V47.7389H50.2701L51.3805 49.3054V47.7389H51.7374V49.8672H51.4202L50.3131 48.304V49.8672H49.9529ZM52.709 49.8672V48.0198H52.0282V47.7389H53.7467V48.0198H53.0692V49.8672H52.709ZM54.5798 49.9002C54.3044 49.9002 54.083 49.865 53.9155 49.7945V49.4772C54.0103 49.5125 54.1116 49.5411 54.2196 49.5631C54.3297 49.5852 54.4388 49.5962 54.5468 49.5962C54.7164 49.5962 54.8431 49.5764 54.9268 49.5367C55.0127 49.4971 55.0557 49.4177 55.0557 49.2988C55.0557 49.2261 55.0381 49.1677 55.0028 49.1236C54.9676 49.0795 54.9092 49.0421 54.8277 49.0113C54.7461 48.9782 54.6338 48.9441 54.4906 48.9088C54.2614 48.8493 54.1006 48.7744 54.0081 48.6841C53.9155 48.5915 53.8693 48.4649 53.8693 48.304C53.8693 48.1168 53.9376 47.9702 54.0742 47.8645C54.2108 47.7587 54.4146 47.7059 54.6856 47.7059C54.8089 47.7059 54.9246 47.7147 55.0326 47.7323C55.1427 47.7499 55.2286 47.7698 55.2903 47.7918V48.109C55.1229 48.0452 54.9378 48.0132 54.7351 48.0132C54.5765 48.0132 54.4531 48.0341 54.365 48.076C54.2769 48.1179 54.2328 48.1939 54.2328 48.304C54.2328 48.3679 54.2482 48.4197 54.2791 48.4594C54.3099 48.499 54.3628 48.5332 54.4377 48.5618C54.5148 48.5904 54.6206 48.6224 54.755 48.6576C54.929 48.7017 55.0634 48.7546 55.1581 48.8163C55.2551 48.8758 55.3223 48.9463 55.3597 49.0278C55.3994 49.1071 55.4192 49.1974 55.4192 49.2988C55.4192 49.486 55.3498 49.6336 55.211 49.7416C55.0722 49.8474 54.8618 49.9002 54.5798 49.9002Z" fill="white"/>
<rect width="93.75" height="80" transform="translate(93.75)" fill="#333132"/>
<path d="M117.656 43.875V37.3125H120.759C121.484 37.3125 122.122 37.4469 122.672 37.7156C123.222 37.9844 123.65 38.3625 123.956 38.85C124.269 39.3375 124.425 39.9187 124.425 40.5937C124.425 41.2625 124.269 41.8437 123.956 42.3375C123.65 42.825 123.222 43.2031 122.672 43.4719C122.122 43.7406 121.484 43.875 120.759 43.875H117.656ZM119.513 42.3937H120.684C121.059 42.3937 121.384 42.325 121.659 42.1875C121.941 42.0437 122.159 41.8375 122.316 41.5687C122.472 41.2937 122.55 40.9687 122.55 40.5937C122.55 40.2125 122.472 39.8875 122.316 39.6187C122.159 39.35 121.941 39.1469 121.659 39.0094C121.384 38.8656 121.059 38.7937 120.684 38.7937H119.513V42.3937ZM128.983 39.8531H132.03V41.2406H128.983V39.8531ZM129.114 42.4406H132.545V43.875H127.277V37.3125H132.423V38.7469H129.114V42.4406ZM137.757 44.0063C137.219 44.0063 136.7 43.9406 136.2 43.8094C135.707 43.6719 135.304 43.4969 134.991 43.2844L135.6 41.9156C135.894 42.1031 136.232 42.2594 136.613 42.3844C137 42.5031 137.385 42.5625 137.766 42.5625C138.022 42.5625 138.229 42.5406 138.385 42.4969C138.541 42.4469 138.654 42.3844 138.722 42.3094C138.797 42.2281 138.835 42.1344 138.835 42.0281C138.835 41.8781 138.766 41.7594 138.629 41.6719C138.491 41.5844 138.313 41.5125 138.094 41.4562C137.875 41.4 137.632 41.3437 137.363 41.2875C137.1 41.2312 136.835 41.1594 136.566 41.0719C136.304 40.9844 136.063 40.8719 135.844 40.7344C135.625 40.5906 135.447 40.4062 135.31 40.1812C135.172 39.95 135.104 39.6594 135.104 39.3094C135.104 38.9156 135.21 38.5594 135.422 38.2406C135.641 37.9219 135.966 37.6656 136.397 37.4719C136.829 37.2781 137.366 37.1812 138.01 37.1812C138.441 37.1812 138.863 37.2312 139.275 37.3312C139.694 37.425 140.066 37.5656 140.391 37.7531L139.819 39.1312C139.507 38.9625 139.197 38.8375 138.891 38.7562C138.585 38.6687 138.288 38.625 138 38.625C137.744 38.625 137.538 38.6531 137.382 38.7094C137.225 38.7594 137.113 38.8281 137.044 38.9156C136.975 39.0031 136.941 39.1031 136.941 39.2156C136.941 39.3594 137.007 39.475 137.138 39.5625C137.275 39.6437 137.454 39.7125 137.672 39.7687C137.897 39.8187 138.141 39.8719 138.404 39.9281C138.672 39.9844 138.938 40.0562 139.2 40.1437C139.469 40.225 139.713 40.3375 139.932 40.4812C140.15 40.6187 140.325 40.8031 140.457 41.0344C140.594 41.2594 140.663 41.5437 140.663 41.8875C140.663 42.2687 140.554 42.6219 140.335 42.9469C140.122 43.2656 139.8 43.5219 139.369 43.7156C138.944 43.9094 138.407 44.0063 137.757 44.0063ZM143.395 43.875V37.3125H145.252V43.875H143.395ZM151.729 44.0063C151.21 44.0063 150.729 43.925 150.285 43.7625C149.841 43.5937 149.457 43.3562 149.132 43.05C148.813 42.7437 148.563 42.3844 148.382 41.9719C148.2 41.5531 148.11 41.0937 148.11 40.5937C148.11 40.0937 148.2 39.6375 148.382 39.225C148.563 38.8062 148.816 38.4437 149.141 38.1375C149.466 37.8312 149.85 37.5969 150.294 37.4344C150.744 37.2656 151.235 37.1812 151.766 37.1812C152.385 37.1812 152.938 37.2844 153.425 37.4906C153.913 37.6969 154.316 37.9937 154.635 38.3812L153.454 39.45C153.229 39.2062 152.985 39.025 152.722 38.9062C152.466 38.7812 152.179 38.7187 151.86 38.7187C151.579 38.7187 151.322 38.7625 151.091 38.85C150.86 38.9375 150.663 39.0656 150.5 39.2344C150.338 39.3969 150.21 39.5937 150.116 39.825C150.029 40.05 149.985 40.3062 149.985 40.5937C149.985 40.8687 150.029 41.1219 150.116 41.3531C150.21 41.5844 150.338 41.7844 150.5 41.9531C150.663 42.1156 150.857 42.2437 151.082 42.3375C151.313 42.425 151.566 42.4687 151.841 42.4687C152.116 42.4687 152.385 42.425 152.647 42.3375C152.91 42.2437 153.175 42.0875 153.444 41.8687L154.485 43.1719C154.11 43.4406 153.675 43.6469 153.182 43.7906C152.688 43.9344 152.204 44.0063 151.729 44.0063ZM152.844 42.9281V40.4531H154.485V43.1719L152.844 42.9281ZM157.537 43.875V37.3125H159.065L162.683 41.6812H161.962V37.3125H163.78V43.875H162.252L158.633 39.5062H159.355V43.875H157.537Z" fill="white"/>
<rect width="93.75" height="80" transform="translate(187.5)" fill="#3178D0"/>
<g clip-path="url(#clip0_143_6246)">
<path opacity="0.7" d="M194.608 72.1738L195.072 73.18L196.172 73.3106L195.359 74.0628L195.575 75.1498L194.608 74.6086L193.641 75.1499L193.857 74.063L193.043 73.3104L194.144 73.1799L194.608 72.1738Z" fill="#FFE02F"/>
<path d="M194.608 72.1738L195.072 73.18L196.172 73.3106L195.359 74.0628L195.575 75.1498L194.608 74.6086L193.641 75.1499L193.857 74.063L193.043 73.3104L194.144 73.1799L194.608 72.1738Z" stroke="#FFDE21" stroke-width="0.299107" stroke-linejoin="round"/>
</g>
<g clip-path="url(#clip1_143_6246)">
<path opacity="0.7" d="M201.444 72.1738L201.908 73.18L203.008 73.3106L202.195 74.0628L202.411 75.1498L201.444 74.6086L200.477 75.1499L200.692 74.063L199.879 73.3104L200.979 73.1799L201.444 72.1738Z" fill="#FFE02F"/>
<path d="M201.444 72.1738L201.908 73.18L203.008 73.3106L202.195 74.0628L202.411 75.1498L201.444 74.6086L200.477 75.1499L200.692 74.063L199.879 73.3104L200.979 73.1799L201.444 72.1738Z" stroke="#FFDE21" stroke-width="0.299107" stroke-linejoin="round"/>
</g>
<g clip-path="url(#clip2_143_6246)">
<path opacity="0.7" d="M208.279 72.1738L208.744 73.18L209.844 73.3106L209.031 74.0628L209.246 75.1498L208.279 74.6086L207.312 75.1499L207.528 74.063L206.715 73.3104L207.815 73.1799L208.279 72.1738Z" fill="#FFE02F"/>
<path d="M208.279 72.1738L208.744 73.18L209.844 73.3106L209.031 74.0628L209.246 75.1498L208.279 74.6086L207.312 75.1499L207.528 74.063L206.715 73.3104L207.815 73.1799L208.279 72.1738Z" stroke="#FFDE21" stroke-width="0.299107" stroke-linejoin="round"/>
</g>
<g clip-path="url(#clip3_143_6246)">
<path opacity="0.7" d="M215.115 72.1738L215.58 73.18L216.68 73.3106L215.866 74.0628L216.082 75.1498L215.115 74.6086L214.148 75.1499L214.364 74.063L213.551 73.3104L214.651 73.1799L215.115 72.1738Z" fill="#FFE02F"/>
<path d="M215.115 72.1738L215.58 73.18L216.68 73.3106L215.866 74.0628L216.082 75.1498L215.115 74.6086L214.148 75.1499L214.364 74.063L213.551 73.3104L214.651 73.1799L215.115 72.1738Z" stroke="#FFDE21" stroke-width="0.299107" stroke-linejoin="round"/>
</g>
<g clip-path="url(#clip4_143_6246)">
<path opacity="0.7" d="M221.951 72.1738L222.416 73.18L223.516 73.3106L222.702 74.0628L222.918 75.1498L221.951 74.6086L220.984 75.1499L221.2 74.063L220.387 73.3104L221.487 73.1799L221.951 72.1738Z" fill="#FFE02F"/>
<path d="M221.951 72.1738L222.416 73.18L223.516 73.3106L222.702 74.0628L222.918 75.1498L221.951 74.6086L220.984 75.1499L221.2 74.063L220.387 73.3104L221.487 73.1799L221.951 72.1738Z" stroke="#FFDE21" stroke-width="0.299107" stroke-linejoin="round"/>
</g>
<rect x="193.121" y="50.625" width="17.5" height="17.5" rx="8.75" fill="white"/>
<g clip-path="url(#clip5_143_6246)">
<path d="M199.681 53.2551C198.338 53.7209 197.18 54.6049 196.377 55.7774C195.574 56.9499 195.168 58.3489 195.219 59.7691C195.27 61.1893 195.775 62.5558 196.66 63.6678C197.545 64.7798 198.763 65.5788 200.135 65.9473C201.248 66.2344 202.414 66.247 203.532 65.984C204.546 65.7564 205.483 65.2695 206.251 64.571C207.051 63.8218 207.632 62.8687 207.931 61.8142C208.256 60.6675 208.314 59.4615 208.1 58.289H201.852V60.8809H205.47C205.398 61.2943 205.243 61.6889 205.015 62.041C204.786 62.3931 204.489 62.6955 204.141 62.9301C203.699 63.2224 203.201 63.4191 202.679 63.5075C202.155 63.6049 201.618 63.6049 201.094 63.5075C200.563 63.3977 200.06 63.1786 199.619 62.864C198.909 62.3618 198.377 61.6482 198.097 60.8253C197.812 59.9869 197.812 59.078 198.097 58.2396C198.296 57.6519 198.625 57.1169 199.06 56.6744C199.558 56.1586 200.188 55.79 200.882 55.6089C201.575 55.4278 202.305 55.4412 202.992 55.6476C203.528 55.8122 204.018 56.0998 204.424 56.4875C204.832 56.0816 205.239 55.6746 205.646 55.2666C205.856 55.0472 206.085 54.8382 206.291 54.6136C205.673 54.0377 204.946 53.5897 204.154 53.295C202.711 52.7712 201.133 52.7571 199.681 53.2551Z" fill="white"/>
<path d="M199.683 53.2556C201.135 52.7573 202.714 52.771 204.157 53.2945C204.949 53.5911 205.675 54.0414 206.293 54.6193C206.083 54.844 205.861 55.054 205.647 55.2723C205.24 55.6789 204.833 56.0842 204.426 56.488C204.021 56.1003 203.531 55.8128 202.994 55.6482C202.308 55.441 201.578 55.4268 200.885 55.6072C200.191 55.7875 199.56 56.1555 199.062 56.6707C198.627 57.1132 198.297 57.6483 198.098 58.2359L195.922 56.551C196.701 55.0063 198.05 53.8247 199.683 53.2556Z" fill="#E33629"/>
<path d="M195.341 58.219C195.458 57.6393 195.652 57.0779 195.919 56.5498L198.095 58.2389C197.81 59.0773 197.81 59.9862 198.095 60.8246C197.37 61.3845 196.644 61.9472 195.919 62.5127C195.252 61.1861 195.049 59.6746 195.341 58.219Z" fill="#F8BD00"/>
<path d="M201.852 58.2881H208.1C208.314 59.4606 208.256 60.6666 207.931 61.8133C207.633 62.8678 207.052 63.8209 206.252 64.5701C205.549 64.0221 204.844 63.4783 204.142 62.9303C204.49 62.6955 204.787 62.3927 205.015 62.0402C205.244 61.6877 205.399 61.2928 205.471 60.879H201.852C201.851 60.0161 201.852 59.1521 201.852 58.2881Z" fill="#587DBD"/>
<path d="M195.918 62.5123C196.644 61.9524 197.369 61.3897 198.094 60.8242C198.375 61.6475 198.908 62.361 199.619 62.8629C200.062 63.1761 200.565 63.3934 201.097 63.5012C201.621 63.5986 202.158 63.5986 202.682 63.5012C203.204 63.4128 203.702 63.2161 204.144 62.9238C204.847 63.4718 205.552 64.0156 206.254 64.5636C205.486 65.2625 204.549 65.7498 203.535 65.9777C202.417 66.2407 201.251 66.2281 200.138 65.941C199.258 65.706 198.436 65.2918 197.724 64.7242C196.97 64.1255 196.354 63.371 195.918 62.5123Z" fill="#319F43"/>
</g>
<path d="M217.211 62.125V58.3683H219.014C219.446 58.3683 219.763 58.4831 219.965 58.7125C220.167 58.9381 220.268 59.2433 220.268 59.6283C220.268 59.8811 220.202 60.0989 220.07 60.2817C219.941 60.4644 219.759 60.5967 219.521 60.6783C219.584 60.7289 219.632 60.7833 219.667 60.8417C219.706 60.9 219.745 60.9778 219.784 61.075L220.239 62.125H219.422L218.979 61.1158C218.94 61.0303 218.897 60.97 218.851 60.935C218.804 60.9 218.726 60.8825 218.617 60.8825H217.999V62.125H217.211ZM217.999 60.2292H218.81C219.016 60.2292 219.177 60.1844 219.294 60.095C219.411 60.0017 219.469 59.8461 219.469 59.6283C219.469 59.4183 219.418 59.2647 219.317 59.1675C219.216 59.0703 219.063 59.0217 218.856 59.0217H217.999V60.2292ZM220.817 62.125V58.3683H223.512V58.9808H221.605V59.9433H223.297V60.55H221.605V61.5183H223.512V62.125H220.817ZM225.292 62.125L223.857 58.3683H224.679L225.717 61.2442L226.762 58.3683H227.584L226.155 62.125H225.292ZM227.984 62.125V58.3683H228.771V62.125H227.984ZM229.436 62.125V58.3683H232.131V58.9808H230.224V59.9433H231.916V60.55H230.224V61.5183H232.131V62.125H229.436ZM233.436 62.125L232.561 58.3683H233.337L233.903 60.9058L234.515 58.8583V58.3683H235.157L235.88 60.9117L236.464 58.3683H237.234L236.364 62.125H235.618L234.929 59.7217L234.189 62.125H233.436ZM238.835 62.1833C238.594 62.1833 238.368 62.1658 238.158 62.1308C237.952 62.0958 237.773 62.0453 237.621 61.9792V61.285C237.792 61.355 237.977 61.4114 238.175 61.4542C238.374 61.4969 238.568 61.5183 238.759 61.5183C239.031 61.5183 239.231 61.4931 239.36 61.4425C239.488 61.3919 239.552 61.2772 239.552 61.0983C239.552 60.9856 239.525 60.8961 239.47 60.83C239.416 60.7639 239.321 60.7056 239.185 60.655C239.052 60.6006 238.864 60.5403 238.619 60.4742C238.226 60.3653 237.95 60.2292 237.79 60.0658C237.631 59.9025 237.551 59.6769 237.551 59.3892C237.551 59.0431 237.678 58.7767 237.93 58.59C238.183 58.4033 238.551 58.31 239.033 58.31C239.259 58.31 239.469 58.3256 239.663 58.3567C239.857 58.3878 240.015 58.4247 240.135 58.4675V59.1617C239.817 59.0411 239.484 58.9808 239.138 58.9808C238.893 58.9808 238.7 59.0081 238.56 59.0625C238.42 59.1131 238.35 59.2219 238.35 59.3892C238.35 59.4864 238.376 59.5642 238.426 59.6225C238.477 59.6808 238.562 59.7333 238.683 59.78C238.807 59.8267 238.98 59.8792 239.202 59.9375C239.509 60.0192 239.747 60.1164 239.914 60.2292C240.081 60.3419 240.196 60.4703 240.258 60.6142C240.324 60.7581 240.357 60.9194 240.357 61.0983C240.357 61.425 240.233 61.6875 239.984 61.8858C239.735 62.0842 239.352 62.1833 238.835 62.1833Z" fill="white"/>
<rect width="93.75" height="80" transform="translate(281.25)" fill="#333132"/>
<rect width="125" height="80" transform="translate(0 80)" fill="#333132"/>
<path d="M48.3779 153.792V151.455L53.3159 146.837C53.6678 146.511 53.9253 146.222 54.0887 145.97C54.2646 145.719 54.3777 145.493 54.4279 145.292C54.4908 145.078 54.5222 144.883 54.5222 144.708C54.5222 144.28 54.3777 143.947 54.0887 143.709C53.8123 143.47 53.3913 143.351 52.8259 143.351C52.3484 143.351 51.9024 143.457 51.4877 143.671C51.0731 143.885 50.7338 144.205 50.47 144.632L47.6994 143.087C48.1894 142.257 48.8994 141.591 49.8292 141.089C50.759 140.586 51.871 140.335 53.1652 140.335C54.1829 140.335 55.075 140.498 55.8415 140.825C56.608 141.152 57.2048 141.617 57.632 142.22C58.0718 142.823 58.2917 143.533 58.2917 144.349C58.2917 144.777 58.2351 145.204 58.122 145.631C58.0089 146.046 57.7891 146.492 57.4624 146.969C57.1482 147.434 56.6771 147.956 56.0488 148.534L52.1286 152.152L51.5066 150.833H58.6498V153.792H48.3779ZM60.4145 153.792V140.599H66.653C68.1105 140.599 69.3921 140.869 70.4979 141.409C71.6036 141.95 72.4643 142.71 73.0799 143.69C73.7082 144.67 74.0223 145.838 74.0223 147.195C74.0223 148.54 73.7082 149.708 73.0799 150.701C72.4643 151.681 71.6036 152.441 70.4979 152.982C69.3921 153.522 68.1105 153.792 66.653 153.792H60.4145ZM64.1463 150.814H66.5022C67.2561 150.814 67.9095 150.676 68.4623 150.399C69.0278 150.11 69.4675 149.696 69.7817 149.156C70.0958 148.603 70.2528 147.949 70.2528 147.195C70.2528 146.429 70.0958 145.776 69.7817 145.235C69.4675 144.695 69.0278 144.287 68.4623 144.01C67.9095 143.721 67.2561 143.577 66.5022 143.577H64.1463V150.814Z" fill="white"/>
<path d="M12.2386 101.075C11.3214 101.075 10.4041 100.962 9.48688 100.736C8.58221 100.51 7.79062 100.19 7.11211 99.7749L8.46912 96.9667C8.99685 97.3185 9.58112 97.5886 10.2219 97.7771C10.8753 97.9656 11.5098 98.0598 12.1255 98.0598C12.7663 98.0598 13.2752 97.9404 13.6522 97.7017C14.0291 97.463 14.2176 97.1237 14.2176 96.6839C14.2176 96.2944 14.0605 95.9866 13.7464 95.7604C13.4323 95.5217 12.9171 95.4023 12.2009 95.4023H10.6366V93.0464L14.1799 89.2204L14.538 90.502H7.79062V87.6183H17.3274V89.9554L13.7841 93.7814L11.9559 92.7448H12.9737C14.6197 92.7448 15.8636 93.1155 16.7054 93.8568C17.5599 94.5856 17.9871 95.528 17.9871 96.6839C17.9871 97.4378 17.7797 98.1478 17.3651 98.8137C16.963 99.4796 16.3411 100.026 15.4992 100.453C14.6574 100.868 13.5705 101.075 12.2386 101.075ZM19.8631 100.812V87.6183H26.1016C27.5591 87.6183 28.8408 87.8885 29.9465 88.4288C31.0522 88.9691 31.9129 89.7293 32.5286 90.7093C33.1568 91.6894 33.4709 92.8579 33.4709 94.2149C33.4709 95.5594 33.1568 96.7279 32.5286 97.7205C31.9129 98.7006 31.0522 99.4608 29.9465 100.001C28.8408 100.541 27.5591 100.812 26.1016 100.812H19.8631ZM23.5949 97.8336H25.9508C26.7047 97.8336 27.3581 97.6954 27.911 97.419C28.4764 97.13 28.9162 96.7154 29.2303 96.1751C29.5444 95.6222 29.7015 94.9688 29.7015 94.2149C29.7015 93.4485 29.5444 92.7951 29.2303 92.2548C28.9162 91.7145 28.4764 91.3061 27.911 91.0297C27.3581 90.7407 26.7047 90.5962 25.9508 90.5962H23.5949V97.8336Z" fill="white"/>
<rect width="125" height="80" transform="translate(125 80)" fill="#3178D0"/>
<path d="M155.503 114.315C154.972 113.776 154.322 113.332 153.589 113.008C152.857 112.685 152.057 112.487 151.235 112.428C152.568 112.217 153.755 111.576 154.549 110.637C155.405 109.69 155.863 108.526 155.851 107.33C155.87 106.679 155.735 106.033 155.454 105.428C155.172 104.823 154.75 104.274 154.213 103.812C152.972 102.739 151.248 102.201 149.041 102.198H136.5C137.714 102.392 138.322 103.403 138.323 105.233L138.326 119.375C138.122 118.084 137.379 116.899 136.234 116.039C135.089 115.178 133.618 114.7 132.093 114.692L128 114.687L128.006 118.236C127.993 119.672 128.65 121.055 129.83 122.078C131.011 123.102 132.619 123.683 134.301 123.694H138.325V129.67C138.265 129.175 137.993 128.716 137.562 128.382C137.13 128.047 136.569 127.86 135.986 127.857L134.456 127.855V129.181C134.454 129.447 134.513 129.711 134.629 129.957C134.746 130.204 134.919 130.428 135.138 130.618C135.356 130.807 135.616 130.958 135.903 131.061C136.19 131.165 136.498 131.219 136.809 131.221H138.324L138.329 144.921L139.357 144.935V131.219H140.873C141.185 131.218 141.493 131.164 141.781 131.061C142.068 130.957 142.328 130.807 142.547 130.617C142.766 130.427 142.94 130.203 143.057 129.956C143.174 129.709 143.233 129.445 143.231 129.179L143.234 127.853L141.705 127.855C141.116 127.858 140.55 128.048 140.117 128.389C139.683 128.729 139.414 129.195 139.362 129.696V123.691H150.073C152.278 123.691 154.038 123.109 155.352 121.947C156.507 120.915 157.135 119.533 157.098 118.107C157.121 116.719 156.555 115.372 155.503 114.314" fill="white"/>
<path d="M148.632 114.688L148.628 117.857C148.633 118.492 148.492 119.122 148.212 119.711C147.932 120.3 147.519 120.836 146.997 121.288C146.475 121.74 145.853 122.101 145.168 122.348C144.483 122.595 143.747 122.725 143.003 122.729H139.361L139.356 119.567C139.35 118.931 139.491 118.301 139.77 117.712C140.05 117.124 140.462 116.588 140.985 116.135C141.507 115.682 142.128 115.322 142.813 115.074C143.498 114.827 144.234 114.697 144.977 114.692L148.632 114.688Z" fill="black"/>
<path d="M168.227 102.284C167.888 102.343 167.72 102.618 167.721 103.107V108.438L163.285 103.47V107.366C163.285 107.855 163.464 108.127 163.823 108.181H162.221C162.553 108.127 162.718 107.856 162.719 107.366V103.196C162.725 102.996 162.656 102.8 162.523 102.636C162.389 102.472 162.198 102.349 161.977 102.284H163.247L167.163 106.684V103.107C167.163 102.617 166.993 102.343 166.654 102.284H168.227Z" fill="white"/>
<path d="M173.05 106.029C173.066 106.581 172.871 107.122 172.493 107.57C172.301 107.807 172.041 108 171.74 108.129C171.438 108.259 171.102 108.323 170.764 108.313C170.447 108.324 170.131 108.267 169.844 108.148C169.558 108.03 169.311 107.852 169.124 107.632C168.771 107.21 168.589 106.7 168.607 106.181C168.591 105.626 168.786 105.082 169.163 104.63C169.351 104.394 169.607 104.202 169.905 104.072C170.204 103.942 170.536 103.878 170.87 103.887C171.191 103.876 171.51 103.933 171.798 104.054C172.087 104.174 172.335 104.354 172.522 104.577C172.883 104.997 173.069 105.509 173.05 106.029ZM172.278 106.216C172.289 105.769 172.158 105.328 171.897 104.941C171.785 104.753 171.615 104.596 171.405 104.485C171.196 104.374 170.954 104.314 170.708 104.312C170.49 104.312 170.276 104.365 170.092 104.466C169.908 104.566 169.762 104.71 169.671 104.879C169.455 105.215 169.348 105.593 169.358 105.976C169.346 106.427 169.481 106.871 169.749 107.26C169.861 107.448 170.032 107.606 170.242 107.716C170.452 107.827 170.694 107.887 170.941 107.889C171.157 107.889 171.369 107.835 171.551 107.735C171.733 107.634 171.877 107.491 171.966 107.322C172.18 106.982 172.288 106.601 172.278 106.216Z" fill="white"/>
<path d="M176.399 104.905C176.331 104.791 176.228 104.695 176.101 104.626C175.973 104.558 175.827 104.52 175.677 104.517C175.505 104.526 175.34 104.575 175.197 104.657C175.055 104.739 174.941 104.852 174.866 104.984C174.624 105.345 174.505 105.756 174.524 106.171V107.402C174.524 107.88 174.661 108.14 174.935 108.181H173.401C173.681 108.139 173.821 107.88 173.821 107.402V105.038C173.841 104.844 173.801 104.649 173.704 104.472C173.67 104.428 173.623 104.393 173.568 104.371C173.513 104.349 173.451 104.34 173.39 104.345H173.293L174.523 103.858V104.976C174.631 104.686 174.827 104.425 175.09 104.219C175.321 104.013 175.639 103.894 175.974 103.887C176.123 103.89 176.269 103.924 176.399 103.985V104.905Z" fill="white"/>
<path d="M179.264 107.311C179.101 107.978 178.707 108.312 178.082 108.312C177.94 108.315 177.799 108.29 177.671 108.238C177.543 108.186 177.431 108.108 177.345 108.011C177.144 107.769 177.046 107.475 177.066 107.178V104.461H176.461L177.77 103.053V104.026H179.107V104.461H177.77V106.991C177.77 107.528 177.968 107.797 178.365 107.797C178.549 107.783 178.727 107.732 178.884 107.647C179.04 107.562 179.17 107.446 179.264 107.31" fill="white"/>
<path d="M183.811 108.178H182.317C182.563 108.142 182.688 107.892 182.688 107.425V105.424C182.688 104.733 182.396 104.388 181.811 104.388C181.641 104.392 181.474 104.424 181.318 104.483C181.163 104.541 181.023 104.626 180.907 104.732C180.776 104.832 180.671 104.955 180.6 105.093C180.528 105.23 180.491 105.379 180.491 105.529V107.425C180.491 107.892 180.627 108.143 180.901 108.178H179.368C179.647 108.136 179.787 107.879 179.787 107.406V103.342C179.808 103.108 179.765 102.873 179.66 102.655C179.618 102.604 179.56 102.563 179.493 102.537C179.426 102.51 179.353 102.499 179.279 102.504H179.191L180.49 102V104.672C180.664 104.434 180.909 104.242 181.201 104.114C181.481 103.971 181.8 103.892 182.127 103.884C182.3 103.877 182.473 103.903 182.633 103.961C182.792 104.02 182.935 104.108 183.048 104.22C183.297 104.519 183.418 104.882 183.391 105.248V107.407C183.391 107.88 183.531 108.137 183.811 108.18" fill="white"/>
<path d="M192.746 107.425C192.54 108.009 192.221 108.301 191.79 108.301C191.437 108.301 190.868 108.033 190.082 107.496C189.528 107.992 188.766 108.282 187.963 108.301C187.439 108.323 186.923 108.182 186.511 107.904C186.328 107.77 186.182 107.601 186.087 107.412C185.991 107.222 185.947 107.016 185.959 106.81C185.96 106.447 186.113 106.096 186.389 105.82C186.679 105.542 187.014 105.301 187.385 105.105C186.934 104.661 186.655 104.11 186.585 103.525C186.577 103.341 186.614 103.157 186.695 102.986C186.776 102.815 186.898 102.66 187.053 102.532C187.209 102.405 187.392 102.305 187.593 102.239C187.795 102.172 188.009 102.141 188.225 102.146C188.633 102.135 189.033 102.244 189.358 102.456C189.519 102.558 189.648 102.693 189.735 102.847C189.822 103.002 189.863 103.172 189.856 103.343C189.853 103.72 189.686 104.084 189.387 104.361C189.075 104.637 188.724 104.879 188.342 105.081C188.905 105.673 189.526 106.223 190.197 106.725C190.472 106.404 190.701 106.057 190.88 105.689C191.054 105.373 191.154 105.03 191.174 104.68C191.182 104.584 191.16 104.487 191.11 104.4C191.06 104.313 190.985 104.238 190.891 104.184H192.375C192.052 104.426 191.832 104.754 191.75 105.114C191.503 105.8 191.12 106.443 190.618 107.018C191.301 107.49 191.812 107.726 192.15 107.726C192.269 107.714 192.383 107.682 192.486 107.63C192.588 107.578 192.677 107.508 192.746 107.425M189.65 107.191C188.944 106.655 188.291 106.07 187.697 105.442C187.046 105.834 186.721 106.23 186.721 106.628C186.719 106.783 186.755 106.937 186.827 107.079C186.9 107.222 187.006 107.349 187.14 107.454C187.272 107.565 187.427 107.652 187.598 107.711C187.769 107.77 187.952 107.799 188.137 107.797C188.424 107.788 188.706 107.729 188.965 107.625C189.225 107.52 189.458 107.373 189.65 107.19M189.191 103.485C189.194 103.367 189.169 103.25 189.117 103.141C189.066 103.032 188.99 102.932 188.894 102.848C188.799 102.762 188.685 102.694 188.558 102.648C188.431 102.602 188.294 102.58 188.156 102.583C188.034 102.579 187.912 102.598 187.798 102.638C187.685 102.677 187.582 102.737 187.498 102.812C187.411 102.892 187.343 102.985 187.299 103.087C187.254 103.189 187.234 103.297 187.239 103.406C187.349 103.914 187.623 104.386 188.029 104.769C188.344 104.596 188.633 104.391 188.889 104.158C189.081 103.972 189.187 103.733 189.19 103.485" fill="white"/>
<path d="M202.953 102.283C202.845 102.303 202.744 102.345 202.66 102.407C202.388 102.633 202.193 102.918 202.094 103.23L200.085 108.424L198.419 104.122L196.701 108.422L194.721 103.204C194.505 102.643 194.228 102.336 193.891 102.283H195.737C195.561 102.319 195.473 102.452 195.473 102.683C195.482 102.858 195.52 103.031 195.585 103.197L196.887 106.626L198.176 103.439L198.092 103.168C197.915 102.631 197.664 102.336 197.338 102.283H199.076C198.887 102.319 198.793 102.455 198.793 102.69C198.806 102.863 198.849 103.033 198.921 103.195L200.24 106.605L201.565 103.151C201.624 103.014 201.658 102.871 201.666 102.726C201.664 102.472 201.54 102.326 201.293 102.283H202.953Z" fill="white"/>
<path d="M206.904 106.984C206.631 107.871 206.045 108.314 205.147 108.314C204.849 108.321 204.554 108.265 204.288 108.15C204.022 108.035 203.793 107.866 203.623 107.657C203.27 107.221 203.092 106.699 203.115 106.17C203.091 105.59 203.285 105.019 203.668 104.54C203.824 104.337 204.038 104.17 204.289 104.056C204.541 103.941 204.822 103.883 205.107 103.886C205.375 103.883 205.64 103.943 205.871 104.06C206.102 104.177 206.29 104.347 206.416 104.549C206.709 105.002 206.86 105.511 206.855 106.028H203.819C203.792 106.49 203.959 106.945 204.289 107.312C204.419 107.454 204.585 107.569 204.775 107.647C204.966 107.726 205.174 107.765 205.386 107.763C205.695 107.752 205.996 107.675 206.261 107.539C206.526 107.403 206.747 107.212 206.904 106.984ZM206.044 105.665C206.056 105.344 205.978 105.026 205.819 104.736C205.759 104.598 205.652 104.479 205.511 104.395C205.37 104.31 205.203 104.265 205.031 104.264C204.848 104.266 204.669 104.31 204.513 104.392C204.357 104.473 204.229 104.589 204.143 104.727C203.938 105.009 203.826 105.333 203.819 105.665H206.044Z" fill="white"/>
<path d="M210.109 107.099C210.118 107.265 210.083 107.431 210.007 107.584C209.931 107.737 209.816 107.874 209.67 107.984C209.334 108.216 208.909 108.333 208.478 108.312C208.012 108.333 207.551 108.211 207.18 107.969V106.753C207.347 107.521 207.799 107.905 208.536 107.905C208.745 107.91 208.951 107.864 209.131 107.772C209.232 107.724 209.316 107.653 209.374 107.566C209.431 107.48 209.459 107.382 209.455 107.283C209.438 107.133 209.376 106.989 209.275 106.865C209.174 106.742 209.037 106.642 208.879 106.576C208.52 106.394 208.162 106.211 207.804 106.027C207.628 105.923 207.483 105.785 207.383 105.623C207.283 105.461 207.23 105.281 207.228 105.098C207.222 104.935 207.257 104.774 207.329 104.623C207.401 104.473 207.51 104.338 207.648 104.226C207.949 103.992 208.346 103.869 208.753 103.885C209.147 103.88 209.532 103.979 209.858 104.168V105.249C209.813 104.964 209.654 104.701 209.406 104.505C209.208 104.361 208.955 104.282 208.694 104.283C208.475 104.278 208.262 104.339 208.091 104.455C208.011 104.507 207.947 104.575 207.903 104.653C207.86 104.731 207.838 104.816 207.84 104.902C207.833 105.063 207.899 105.22 208.024 105.34C208.267 105.526 208.538 105.683 208.831 105.806C209.16 105.949 209.468 106.125 209.748 106.329C209.866 106.431 209.958 106.551 210.02 106.684C210.082 106.816 210.112 106.958 210.109 107.101" fill="white"/>
<path d="M213.033 107.311C212.87 107.978 212.477 108.312 211.851 108.312C211.709 108.315 211.569 108.29 211.44 108.238C211.312 108.186 211.2 108.108 211.114 108.011C210.913 107.769 210.815 107.475 210.836 107.178V104.461H210.23L211.539 103.053V104.026H212.877V104.461H211.539V106.991C211.539 107.528 211.737 107.797 212.134 107.797C212.319 107.783 212.497 107.732 212.653 107.647C212.81 107.562 212.94 107.446 213.033 107.31" fill="white"/>
<path d="M216.963 106.984C216.69 107.871 216.104 108.314 215.205 108.314C214.907 108.321 214.612 108.265 214.346 108.15C214.08 108.035 213.852 107.866 213.682 107.657C213.329 107.221 213.15 106.7 213.174 106.17C213.149 105.59 213.343 105.019 213.726 104.54C213.883 104.336 214.097 104.17 214.348 104.055C214.6 103.941 214.882 103.883 215.167 103.886C215.435 103.883 215.698 103.944 215.929 104.061C216.159 104.178 216.347 104.347 216.472 104.549C216.766 105.002 216.918 105.511 216.914 106.028H213.877C213.851 106.49 214.018 106.945 214.348 107.312C214.477 107.454 214.644 107.569 214.834 107.647C215.025 107.725 215.234 107.765 215.445 107.763C215.754 107.752 216.055 107.675 216.32 107.539C216.585 107.403 216.806 107.212 216.963 106.984ZM216.104 105.665C216.116 105.344 216.038 105.026 215.877 104.736C215.818 104.598 215.71 104.479 215.57 104.395C215.429 104.31 215.262 104.265 215.09 104.264C214.907 104.266 214.728 104.311 214.573 104.392C214.417 104.473 214.289 104.589 214.203 104.727C213.997 105.009 213.885 105.333 213.877 105.665H216.104Z" fill="white"/>
<path d="M220.173 104.905C220.105 104.791 220.001 104.695 219.874 104.626C219.747 104.558 219.6 104.52 219.45 104.517C219.279 104.526 219.113 104.575 218.971 104.657C218.828 104.739 218.714 104.852 218.64 104.984C218.397 105.345 218.279 105.756 218.298 106.171V107.402C218.298 107.88 218.435 108.14 218.709 108.181H217.175C217.455 108.139 217.595 107.88 217.595 107.402V105.038C217.615 104.844 217.575 104.649 217.478 104.472C217.444 104.428 217.397 104.393 217.341 104.371C217.286 104.349 217.225 104.34 217.164 104.345H217.066L218.297 103.858V104.976C218.405 104.686 218.601 104.425 218.863 104.219C219.095 104.013 219.413 103.894 219.748 103.887C219.897 103.89 220.042 103.924 220.173 103.985V104.905Z" fill="white"/>
<path d="M224.797 108.18H223.283C223.536 108.138 223.663 107.884 223.663 107.418V105.427C223.663 104.736 223.375 104.39 222.799 104.391C222.63 104.394 222.462 104.426 222.307 104.485C222.152 104.544 222.012 104.629 221.895 104.734C221.763 104.834 221.658 104.956 221.585 105.094C221.512 105.231 221.474 105.38 221.473 105.53V107.427C221.473 107.888 221.613 108.139 221.892 108.18H220.354C220.634 108.138 220.774 107.885 220.774 107.419V105.152C220.797 104.928 220.754 104.702 220.649 104.496C220.612 104.447 220.559 104.408 220.497 104.383C220.435 104.358 220.366 104.348 220.298 104.354H220.188L221.477 103.858V104.691C221.655 104.449 221.904 104.253 222.2 104.121C222.48 103.976 222.8 103.895 223.127 103.886C223.289 103.881 223.45 103.905 223.599 103.957C223.749 104.009 223.884 104.087 223.996 104.187C224.279 104.486 224.419 104.866 224.387 105.25V107.409C224.387 107.882 224.524 108.139 224.797 108.181" fill="white"/>
<path d="M166.578 114.432L166.344 115.929H162.233C162.532 115.881 162.681 115.586 162.682 115.043V110.855C162.682 110.36 162.529 110.086 162.223 110.032H163.93C163.618 110.08 163.462 110.354 163.462 110.855V115.488H165.055C165.395 115.507 165.731 115.426 166.009 115.257C166.273 115.025 166.468 114.742 166.578 114.432Z" fill="white"/>
<path d="M171.183 115.598L170.451 116.094C170.253 116.064 170.072 115.979 169.937 115.851C169.802 115.737 169.712 115.59 169.679 115.43C169.552 115.638 169.346 115.802 169.095 115.895C168.822 116.005 168.523 116.061 168.221 116.059C167.886 116.069 167.557 115.976 167.294 115.798C167.172 115.712 167.075 115.603 167.01 115.479C166.946 115.355 166.916 115.221 166.923 115.085C166.923 114.359 167.815 113.819 169.599 113.465V113.004C169.599 112.343 169.288 112.013 168.666 112.013C168.407 111.999 168.151 112.061 167.94 112.19C167.861 112.24 167.796 112.306 167.752 112.381C167.708 112.456 167.685 112.54 167.685 112.624C167.685 112.842 167.767 112.975 167.929 113.022L167.139 113.314C167.051 113.163 167.008 112.996 167.012 112.827C167.011 112.671 167.051 112.517 167.129 112.376C167.208 112.235 167.322 112.11 167.464 112.012C167.852 111.745 168.342 111.61 168.84 111.631C169.044 111.62 169.249 111.646 169.441 111.707C169.633 111.768 169.808 111.863 169.954 111.985C170.201 112.234 170.327 112.554 170.305 112.88V114.792C170.305 115.342 170.546 115.616 171.028 115.616C171.081 115.615 171.133 115.609 171.184 115.598M169.601 114.758V113.828C168.305 114.099 167.657 114.477 167.658 114.961C167.652 115.052 167.671 115.143 167.711 115.228C167.751 115.313 167.812 115.389 167.89 115.452C168.05 115.575 168.259 115.64 168.474 115.634C168.764 115.636 169.044 115.544 169.259 115.377C169.366 115.302 169.453 115.207 169.512 115.1C169.571 114.993 169.602 114.876 169.601 114.758Z" fill="white"/>
<path d="M175.458 115.926H173.944C174.197 115.885 174.324 115.631 174.324 115.164V113.173C174.324 112.482 174.036 112.137 173.46 112.137C173.29 112.141 173.123 112.173 172.968 112.232C172.813 112.292 172.673 112.377 172.556 112.482C172.424 112.582 172.319 112.705 172.246 112.842C172.173 112.979 172.135 113.128 172.134 113.279V115.173C172.134 115.634 172.274 115.884 172.554 115.926H171.015C171.294 115.885 171.434 115.631 171.435 115.164V112.898C171.458 112.674 171.414 112.449 171.308 112.243C171.271 112.194 171.218 112.155 171.157 112.13C171.095 112.105 171.027 112.094 170.959 112.1H170.852L172.141 111.604V112.436C172.318 112.196 172.566 111.999 172.861 111.867C173.141 111.721 173.461 111.641 173.788 111.632C173.95 111.627 174.111 111.651 174.261 111.702C174.411 111.754 174.546 111.832 174.658 111.932C174.941 112.231 175.08 112.611 175.048 112.995V115.156C175.048 115.627 175.185 115.885 175.458 115.928" fill="white"/>
<path d="M179.391 114.717C179.307 115.103 179.081 115.456 178.747 115.726C178.473 115.946 178.11 116.067 177.733 116.062C177.446 116.073 177.16 116.025 176.9 115.92C176.639 115.815 176.413 115.658 176.24 115.462C175.896 115.045 175.724 114.543 175.749 114.035C175.718 113.415 175.939 112.805 176.374 112.308C176.553 112.099 176.788 111.929 177.059 111.812C177.331 111.695 177.631 111.635 177.934 111.636C178.113 111.631 178.292 111.658 178.459 111.713C178.626 111.768 178.778 111.852 178.906 111.959C179.174 112.195 179.322 112.511 179.321 112.84L178.552 113.149C178.579 113.057 178.593 112.962 178.591 112.866C178.597 112.762 178.578 112.659 178.536 112.562C178.494 112.464 178.43 112.375 178.347 112.299C178.268 112.23 178.174 112.176 178.07 112.139C177.966 112.103 177.854 112.085 177.742 112.088C177.55 112.087 177.362 112.129 177.196 112.21C177.03 112.291 176.891 112.407 176.794 112.548C176.537 112.903 176.411 113.317 176.432 113.734C176.417 114.173 176.549 114.606 176.814 114.982C176.925 115.155 177.089 115.299 177.289 115.398C177.488 115.498 177.715 115.55 177.946 115.549C178.25 115.527 178.542 115.439 178.795 115.293C179.048 115.148 179.253 114.949 179.391 114.717Z" fill="white"/>
<path d="M183.987 115.597L183.256 116.092C183.058 116.062 182.877 115.977 182.742 115.849C182.607 115.735 182.517 115.588 182.483 115.428C182.357 115.636 182.151 115.8 181.9 115.893C181.627 116.003 181.328 116.059 181.026 116.057C180.691 116.067 180.362 115.974 180.099 115.796C179.976 115.71 179.879 115.601 179.815 115.477C179.751 115.353 179.721 115.219 179.728 115.083C179.728 114.357 180.62 113.817 182.404 113.463V113.002C182.404 112.341 182.093 112.011 181.471 112.011C181.212 111.997 180.956 112.059 180.745 112.188C180.666 112.238 180.601 112.304 180.557 112.379C180.513 112.455 180.49 112.538 180.49 112.622C180.49 112.84 180.571 112.973 180.734 113.02L179.943 113.312C179.856 113.161 179.812 112.994 179.816 112.825C179.815 112.669 179.855 112.515 179.934 112.374C180.012 112.233 180.126 112.108 180.268 112.01C180.657 111.744 181.146 111.608 181.644 111.63C181.849 111.618 182.053 111.644 182.245 111.705C182.437 111.766 182.611 111.861 182.757 111.983C183.004 112.232 183.13 112.552 183.109 112.878V114.791C183.109 115.34 183.35 115.614 183.831 115.614C183.884 115.613 183.936 115.607 183.987 115.597ZM182.406 114.756V113.826C181.11 114.097 180.462 114.475 180.462 114.959C180.457 115.05 180.475 115.141 180.516 115.226C180.556 115.311 180.617 115.387 180.695 115.45C180.854 115.573 181.064 115.638 181.279 115.632C181.569 115.634 181.849 115.542 182.064 115.375C182.171 115.3 182.257 115.205 182.317 115.098C182.376 114.991 182.406 114.874 182.406 114.756Z" fill="white"/>
<path d="M186.781 114.848C186.79 115.014 186.755 115.18 186.679 115.333C186.603 115.486 186.488 115.623 186.342 115.733C186.006 115.965 185.581 116.081 185.15 116.061C184.683 116.082 184.223 115.961 183.852 115.718V114.503C184.019 115.27 184.471 115.654 185.207 115.654C185.417 115.66 185.625 115.614 185.805 115.521C185.906 115.473 185.989 115.402 186.046 115.315C186.103 115.229 186.131 115.131 186.127 115.032C186.11 114.882 186.048 114.738 185.947 114.614C185.846 114.491 185.709 114.391 185.55 114.325C185.192 114.143 184.834 113.96 184.476 113.776C184.3 113.673 184.155 113.534 184.055 113.372C183.955 113.211 183.902 113.031 183.9 112.848C183.894 112.685 183.928 112.523 184 112.373C184.073 112.222 184.182 112.087 184.32 111.975C184.621 111.741 185.018 111.618 185.425 111.634C185.818 111.63 186.204 111.729 186.53 111.917V112.998C186.485 112.713 186.325 112.45 186.078 112.254C185.879 112.109 185.626 112.031 185.365 112.033C185.146 112.027 184.933 112.088 184.762 112.204C184.682 112.257 184.618 112.325 184.574 112.402C184.53 112.48 184.509 112.566 184.511 112.652C184.504 112.813 184.57 112.97 184.696 113.09C184.939 113.276 185.21 113.432 185.502 113.556C185.831 113.698 186.139 113.873 186.42 114.078C186.537 114.179 186.63 114.3 186.692 114.433C186.754 114.565 186.784 114.707 186.781 114.85" fill="white"/>
<path d="M191.478 115.93H189.984C190.232 115.895 190.355 115.644 190.355 115.177V113.176C190.355 112.486 190.063 112.141 189.479 112.14C189.309 112.144 189.141 112.176 188.986 112.236C188.831 112.295 188.691 112.38 188.575 112.486C188.444 112.586 188.34 112.709 188.268 112.846C188.196 112.983 188.159 113.131 188.158 113.281V115.177C188.158 115.644 188.295 115.894 188.568 115.93H187.036C187.316 115.889 187.455 115.631 187.455 115.158V111.094C187.476 110.86 187.432 110.625 187.328 110.407C187.285 110.356 187.228 110.315 187.161 110.289C187.095 110.262 187.021 110.251 186.948 110.256H186.859L188.158 109.752V112.423C188.332 112.186 188.577 111.994 188.869 111.866C189.149 111.723 189.468 111.644 189.795 111.636C189.968 111.629 190.141 111.655 190.301 111.713C190.46 111.772 190.602 111.86 190.716 111.972C190.965 112.271 191.086 112.634 191.059 113V115.16C191.059 115.631 191.199 115.889 191.478 115.932" fill="white"/>
<path d="M193.305 115.929H191.702C191.994 115.888 192.141 115.63 192.141 115.157V112.81C192.141 112.339 191.988 112.103 191.682 112.103H191.574L192.864 111.608V115.159C192.864 115.63 193.01 115.888 193.304 115.931M192.971 110.426C192.976 110.554 192.923 110.678 192.825 110.775C192.775 110.823 192.713 110.86 192.643 110.885C192.574 110.91 192.499 110.921 192.423 110.918C192.348 110.921 192.273 110.91 192.204 110.885C192.134 110.86 192.072 110.822 192.022 110.775C191.924 110.678 191.871 110.554 191.876 110.426C191.872 110.3 191.924 110.177 192.022 110.083C192.073 110.037 192.135 110 192.205 109.976C192.274 109.952 192.349 109.942 192.423 109.945C192.498 109.942 192.573 109.952 192.642 109.976C192.711 110 192.774 110.036 192.825 110.083C192.923 110.177 192.976 110.3 192.971 110.426Z" fill="white"/>
<path d="M196.519 112.649C196.451 112.535 196.348 112.439 196.221 112.37C196.094 112.302 195.947 112.264 195.797 112.261C195.625 112.27 195.46 112.319 195.318 112.401C195.176 112.483 195.061 112.596 194.987 112.728C194.744 113.089 194.626 113.5 194.645 113.915V115.146C194.645 115.624 194.782 115.883 195.056 115.925H193.522C193.802 115.883 193.942 115.624 193.942 115.146V112.782C193.962 112.588 193.921 112.392 193.824 112.216C193.791 112.172 193.744 112.137 193.688 112.115C193.633 112.093 193.572 112.084 193.511 112.089H193.414L194.644 111.604V112.72C194.753 112.43 194.948 112.169 195.211 111.963C195.442 111.757 195.76 111.637 196.095 111.631C196.243 111.634 196.389 111.668 196.519 111.728V112.649Z" fill="white"/>
<path d="M200.537 114.732C200.264 115.618 199.678 116.061 198.779 116.061C198.482 116.069 198.186 116.012 197.92 115.898C197.655 115.783 197.426 115.614 197.256 115.405C196.903 114.97 196.725 114.449 196.748 113.92C196.724 113.34 196.917 112.769 197.301 112.29C197.457 112.086 197.67 111.919 197.922 111.804C198.173 111.689 198.455 111.63 198.74 111.633C199.008 111.63 199.273 111.69 199.504 111.807C199.735 111.925 199.923 112.094 200.048 112.297C200.341 112.75 200.493 113.259 200.488 113.776H197.452C197.425 114.237 197.592 114.692 197.922 115.059C198.051 115.201 198.218 115.316 198.408 115.395C198.598 115.473 198.807 115.513 199.018 115.511C199.328 115.5 199.629 115.423 199.894 115.286C200.159 115.15 200.38 114.96 200.537 114.732ZM199.677 113.413C199.689 113.092 199.611 112.773 199.451 112.483C199.392 112.345 199.285 112.226 199.144 112.142C199.003 112.058 198.836 112.012 198.664 112.011C198.481 112.014 198.302 112.058 198.146 112.139C197.99 112.221 197.862 112.336 197.776 112.474C197.571 112.756 197.459 113.081 197.452 113.413H199.677Z" fill="white"/>
<path d="M167.576 122.959C167.32 123.235 166.993 123.456 166.62 123.604C166.247 123.753 165.839 123.826 165.427 123.817C164.969 123.835 164.513 123.761 164.095 123.601C163.676 123.441 163.307 123.2 163.017 122.896C162.477 122.317 162.196 121.592 162.225 120.852C162.2 120.054 162.504 119.274 163.084 118.648C163.394 118.319 163.79 118.056 164.239 117.881C164.689 117.706 165.18 117.623 165.674 117.639C166.286 117.63 166.889 117.761 167.422 118.019V119.303C167.309 118.945 167.055 118.63 166.702 118.414C166.349 118.197 165.92 118.092 165.486 118.115C165.132 118.107 164.781 118.176 164.467 118.316C164.153 118.456 163.885 118.661 163.689 118.913C163.272 119.43 163.06 120.048 163.084 120.675C163.061 121.319 163.28 121.951 163.709 122.481C163.915 122.742 164.195 122.954 164.523 123.099C164.851 123.243 165.216 123.314 165.585 123.305C165.978 123.295 166.362 123.206 166.708 123.046C167.054 122.886 167.351 122.659 167.576 122.384V122.959Z" fill="white"/>
<path d="M172.287 123.673H170.793C171.04 123.637 171.165 123.387 171.165 122.921V120.919C171.165 120.229 170.872 119.884 170.287 119.884C170.117 119.887 169.95 119.919 169.795 119.979C169.64 120.038 169.5 120.123 169.383 120.229C169.253 120.329 169.148 120.452 169.077 120.589C169.005 120.726 168.968 120.874 168.967 121.025V122.921C168.967 123.387 169.104 123.637 169.377 123.673H167.845C168.124 123.632 168.264 123.374 168.265 122.901V118.837C168.285 118.603 168.241 118.368 168.137 118.151C168.094 118.099 168.037 118.058 167.97 118.032C167.903 118.006 167.829 117.995 167.756 118H167.668L168.967 117.495V120.167C169.14 119.929 169.386 119.737 169.678 119.609C169.958 119.466 170.277 119.387 170.603 119.38C170.777 119.372 170.95 119.398 171.109 119.456C171.269 119.515 171.411 119.603 171.525 119.715C171.773 120.014 171.895 120.377 171.868 120.743V122.903C171.868 123.375 172.008 123.632 172.287 123.675" fill="white"/>
<path d="M176.921 123.346L176.189 123.842C175.991 123.811 175.811 123.726 175.676 123.599C175.54 123.485 175.45 123.338 175.417 123.178C175.291 123.385 175.085 123.549 174.834 123.642C174.56 123.752 174.262 123.808 173.96 123.806C173.624 123.816 173.295 123.724 173.032 123.546C172.91 123.459 172.813 123.35 172.749 123.227C172.684 123.103 172.654 122.968 172.661 122.833C172.661 122.106 173.553 121.566 175.337 121.212V120.751C175.337 120.091 175.026 119.76 174.405 119.76C174.146 119.746 173.889 119.808 173.679 119.938C173.599 119.988 173.535 120.053 173.491 120.128C173.446 120.204 173.423 120.287 173.423 120.371C173.423 120.59 173.505 120.723 173.667 120.77L172.877 121.062C172.79 120.91 172.746 120.743 172.75 120.575C172.749 120.419 172.79 120.264 172.868 120.123C172.946 119.982 173.06 119.858 173.202 119.76C173.591 119.493 174.081 119.358 174.578 119.38C174.783 119.368 174.988 119.394 175.18 119.455C175.371 119.516 175.546 119.611 175.692 119.733C175.939 119.982 176.065 120.302 176.044 120.627V122.54C176.044 123.089 176.285 123.364 176.766 123.363C176.819 123.362 176.871 123.356 176.923 123.346M175.339 122.505V121.575C174.043 121.847 173.395 122.225 173.396 122.708C173.391 122.8 173.409 122.891 173.449 122.976C173.489 123.061 173.55 123.137 173.628 123.2C173.788 123.323 173.998 123.387 174.212 123.381C174.503 123.382 174.783 123.29 174.997 123.123C175.105 123.049 175.191 122.954 175.25 122.847C175.309 122.74 175.34 122.623 175.339 122.505Z" fill="white"/>
<path d="M183.762 123.675H182.258C182.518 123.634 182.648 123.377 182.648 122.903V120.992C182.648 120.255 182.387 119.886 181.864 119.886C181.699 119.887 181.536 119.918 181.387 119.977C181.237 120.035 181.104 120.121 180.995 120.227C180.751 120.438 180.615 120.723 180.618 121.02V122.907C180.618 123.379 180.752 123.636 181.019 123.679H179.524C179.784 123.638 179.914 123.381 179.914 122.907V120.992C179.914 120.255 179.653 119.886 179.129 119.886C178.965 119.888 178.803 119.919 178.654 119.978C178.506 120.036 178.373 120.121 178.265 120.227C178.143 120.331 178.046 120.454 177.981 120.59C177.915 120.727 177.882 120.872 177.883 121.02V122.907C177.883 123.379 178.013 123.636 178.274 123.679H176.74C177.02 123.635 177.16 123.38 177.16 122.914V120.647C177.181 120.424 177.141 120.2 177.042 119.992C177.002 119.943 176.948 119.904 176.884 119.879C176.821 119.854 176.751 119.844 176.682 119.85H176.574L177.883 119.354V120.187C178.055 119.936 178.304 119.73 178.604 119.592C178.866 119.459 179.165 119.386 179.47 119.382C179.724 119.375 179.972 119.453 180.162 119.598C180.358 119.753 180.486 119.961 180.524 120.187C180.691 119.954 180.922 119.759 181.198 119.62C181.488 119.468 181.822 119.385 182.162 119.382C182.344 119.377 182.523 119.414 182.682 119.489C182.841 119.564 182.973 119.673 183.066 119.806C183.272 120.116 183.37 120.469 183.349 120.825V122.905C183.349 123.377 183.486 123.634 183.759 123.677" fill="white"/>
<path d="M188.354 121.414C188.374 122 188.177 122.577 187.789 123.061C187.621 123.288 187.389 123.474 187.114 123.602C186.839 123.731 186.53 123.797 186.217 123.795C185.898 123.804 185.58 123.762 185.279 123.671C185.144 123.618 185.004 123.576 184.859 123.547C184.723 123.547 184.583 123.63 184.439 123.795V118.812C184.461 118.572 184.414 118.332 184.303 118.112C184.262 118.061 184.206 118.021 184.141 117.994C184.075 117.968 184.003 117.957 183.932 117.961H183.844L185.171 117.492V120.14C185.332 119.912 185.557 119.724 185.826 119.591C186.081 119.455 186.375 119.381 186.675 119.377C186.915 119.375 187.15 119.424 187.362 119.519C187.573 119.614 187.754 119.753 187.887 119.923C188.225 120.364 188.389 120.887 188.354 121.414ZM187.592 121.6C187.608 121.193 187.509 120.789 187.303 120.422C187.231 120.268 187.107 120.135 186.947 120.041C186.786 119.946 186.597 119.894 186.402 119.892C186.235 119.894 186.07 119.929 185.921 119.995C185.772 120.06 185.642 120.153 185.542 120.268C185.304 120.5 185.173 120.797 185.173 121.104V122.61C185.173 123.118 185.525 123.371 186.228 123.371C186.438 123.367 186.644 123.314 186.821 123.217C186.999 123.12 187.142 122.984 187.235 122.822C187.485 122.451 187.609 122.028 187.594 121.6" fill="white"/>
<path d="M192.525 122.477C192.252 123.364 191.666 123.807 190.768 123.807C190.47 123.814 190.175 123.758 189.909 123.643C189.643 123.528 189.414 123.359 189.244 123.15C188.891 122.714 188.713 122.192 188.736 121.662C188.712 121.083 188.906 120.511 189.289 120.032C189.445 119.829 189.659 119.663 189.911 119.549C190.162 119.434 190.443 119.376 190.728 119.379C190.997 119.376 191.261 119.436 191.493 119.553C191.724 119.67 191.912 119.84 192.038 120.043C192.33 120.495 192.482 121.004 192.477 121.521H189.44C189.414 121.983 189.58 122.438 189.91 122.805C190.04 122.947 190.206 123.062 190.396 123.14C190.587 123.219 190.796 123.258 191.007 123.256C191.316 123.245 191.617 123.168 191.882 123.032C192.148 122.896 192.369 122.705 192.525 122.477ZM191.667 121.158C191.678 120.838 191.6 120.519 191.44 120.229C191.38 120.091 191.273 119.972 191.132 119.888C190.991 119.804 190.824 119.758 190.652 119.757C190.469 119.76 190.291 119.804 190.135 119.885C189.979 119.967 189.851 120.082 189.764 120.22C189.56 120.502 189.447 120.826 189.44 121.158H191.667Z" fill="white"/>
<path d="M195.724 120.396C195.655 120.281 195.552 120.185 195.425 120.116C195.298 120.048 195.151 120.01 195.001 120.007C194.829 120.017 194.664 120.065 194.521 120.147C194.379 120.23 194.265 120.343 194.19 120.476C193.948 120.835 193.83 121.247 193.849 121.662V122.892C193.849 123.37 193.985 123.63 194.259 123.671H192.725C193.006 123.63 193.146 123.37 193.145 122.892V120.529C193.165 120.334 193.125 120.139 193.028 119.962C192.995 119.919 192.947 119.884 192.892 119.861C192.837 119.839 192.775 119.83 192.715 119.835H192.617L193.848 119.349V120.466C193.956 120.176 194.151 119.915 194.414 119.709C194.646 119.503 194.964 119.384 195.299 119.378C195.447 119.381 195.593 119.414 195.724 119.475V120.396Z" fill="white"/>
<path d="M202.261 121.52C202.277 122.072 202.082 122.613 201.704 123.061C201.512 123.299 201.252 123.491 200.95 123.621C200.648 123.751 200.313 123.814 199.975 123.805C199.657 123.815 199.341 123.758 199.055 123.639C198.769 123.52 198.522 123.343 198.335 123.123C197.982 122.7 197.801 122.191 197.817 121.672C197.802 121.117 197.997 120.573 198.374 120.122C198.562 119.885 198.818 119.693 199.116 119.563C199.414 119.433 199.746 119.369 200.081 119.378C200.402 119.367 200.721 119.425 201.01 119.545C201.298 119.666 201.547 119.845 201.734 120.068C202.094 120.489 202.279 121 202.261 121.52ZM201.489 121.707C201.5 121.26 201.369 120.819 201.108 120.431C200.996 120.244 200.826 120.086 200.616 119.975C200.406 119.865 200.165 119.805 199.919 119.803C199.7 119.803 199.487 119.856 199.303 119.957C199.119 120.057 198.973 120.201 198.882 120.37C198.666 120.706 198.559 121.084 198.569 121.467C198.557 121.918 198.693 122.363 198.96 122.751C199.073 122.939 199.243 123.097 199.453 123.208C199.663 123.319 199.905 123.378 200.152 123.38C200.368 123.38 200.58 123.327 200.762 123.226C200.944 123.125 201.088 122.982 201.177 122.813C201.39 122.473 201.498 122.092 201.489 121.707Z" fill="white"/>
<path d="M205.147 119.954H203.975V122.867C203.975 123.363 204.115 123.631 204.395 123.673H202.842C203.128 123.631 203.272 123.363 203.272 122.867V119.954H202.461V119.519H203.271V119.326C203.244 118.874 203.376 118.425 203.652 118.039C203.765 117.889 203.922 117.767 204.106 117.685C204.291 117.602 204.498 117.561 204.706 117.567C204.854 117.565 205.001 117.58 205.145 117.61V118.398C205.091 118.288 205 118.195 204.884 118.131C204.767 118.066 204.631 118.033 204.492 118.035C204.144 118.035 203.971 118.342 203.971 118.955V119.519H205.147V119.954Z" fill="white"/>
<path d="M212.62 122.959C212.364 123.235 212.036 123.456 211.664 123.604C211.291 123.753 210.882 123.826 210.471 123.817C210.013 123.835 209.557 123.761 209.138 123.601C208.72 123.441 208.351 123.2 208.061 122.896C207.52 122.317 207.239 121.592 207.268 120.852C207.243 120.054 207.547 119.274 208.127 118.648C208.437 118.319 208.833 118.056 209.282 117.881C209.732 117.706 210.224 117.623 210.718 117.639C211.329 117.63 211.933 117.761 212.465 118.019V119.303C212.353 118.944 212.098 118.63 211.746 118.414C211.393 118.197 210.963 118.091 210.53 118.115C210.176 118.107 209.825 118.176 209.511 118.316C209.197 118.456 208.929 118.661 208.733 118.913C208.316 119.43 208.103 120.048 208.127 120.675C208.105 121.319 208.324 121.952 208.753 122.481C208.959 122.742 209.239 122.954 209.567 123.098C209.895 123.242 210.26 123.314 210.628 123.305C211.021 123.295 211.406 123.206 211.752 123.046C212.097 122.886 212.395 122.659 212.62 122.384V122.959Z" fill="white"/>
<path d="M217.409 121.52C217.426 122.072 217.23 122.613 216.853 123.061C216.66 123.299 216.401 123.491 216.099 123.621C215.797 123.751 215.462 123.814 215.124 123.805C214.806 123.815 214.49 123.758 214.204 123.639C213.918 123.52 213.67 123.343 213.484 123.123C213.131 122.7 212.949 122.191 212.966 121.672C212.951 121.117 213.146 120.574 213.522 120.122C213.711 119.885 213.966 119.693 214.264 119.563C214.563 119.433 214.895 119.369 215.23 119.378C215.551 119.367 215.87 119.425 216.158 119.545C216.447 119.666 216.696 119.845 216.882 120.068C217.243 120.489 217.428 121 217.409 121.52ZM216.638 121.707C216.649 121.26 216.517 120.819 216.257 120.431C216.144 120.244 215.974 120.086 215.764 119.976C215.555 119.865 215.314 119.805 215.067 119.803C214.849 119.803 214.635 119.856 214.451 119.957C214.268 120.057 214.121 120.201 214.03 120.37C213.815 120.706 213.707 121.084 213.718 121.467C213.706 121.918 213.841 122.363 214.109 122.751C214.221 122.939 214.391 123.097 214.601 123.208C214.811 123.318 215.052 123.378 215.299 123.38C215.516 123.38 215.728 123.327 215.91 123.226C216.092 123.125 216.236 122.982 216.325 122.813C216.539 122.473 216.647 122.092 216.638 121.707Z" fill="white"/>
<path d="M224.797 123.675H223.29C223.551 123.634 223.681 123.377 223.682 122.903V120.992C223.682 120.255 223.42 119.886 222.897 119.886C222.732 119.887 222.569 119.918 222.42 119.977C222.27 120.035 222.137 120.121 222.028 120.227C221.907 120.331 221.812 120.455 221.747 120.591C221.682 120.727 221.649 120.873 221.65 121.02V122.907C221.65 123.379 221.784 123.636 222.052 123.679H220.559C220.819 123.638 220.949 123.381 220.949 122.907V120.992C220.949 120.255 220.688 119.886 220.164 119.886C220 119.888 219.839 119.919 219.69 119.978C219.541 120.036 219.408 120.121 219.3 120.227C219.178 120.331 219.081 120.454 219.016 120.59C218.95 120.727 218.917 120.872 218.918 121.02V122.907C218.918 123.379 219.048 123.636 219.308 123.679H217.776C218.055 123.635 218.195 123.38 218.195 122.914V120.647C218.216 120.424 218.176 120.2 218.078 119.992C218.038 119.943 217.984 119.904 217.92 119.879C217.857 119.854 217.787 119.844 217.717 119.85H217.609L218.918 119.354V120.187C219.09 119.936 219.339 119.73 219.639 119.592C219.901 119.459 220.2 119.386 220.505 119.382C220.759 119.376 221.007 119.453 221.197 119.598C221.393 119.753 221.521 119.961 221.559 120.187C221.726 119.954 221.958 119.759 222.233 119.62C222.523 119.468 222.857 119.385 223.198 119.382C223.379 119.377 223.558 119.415 223.717 119.489C223.876 119.564 224.009 119.673 224.101 119.806C224.306 120.116 224.404 120.469 224.384 120.825V122.905C224.384 123.377 224.521 123.634 224.794 123.677" fill="white"/>
<path d="M232.093 123.675H230.59C230.85 123.634 230.981 123.376 230.981 122.903V120.992C230.981 120.254 230.719 119.885 230.196 119.885C230.031 119.886 229.868 119.917 229.718 119.976C229.569 120.035 229.435 120.12 229.327 120.226C229.083 120.437 228.947 120.722 228.949 121.019V122.906C228.949 123.378 229.083 123.635 229.351 123.679H227.856C228.116 123.637 228.246 123.38 228.246 122.906V120.992C228.246 120.254 227.984 119.885 227.461 119.885C227.297 119.887 227.135 119.918 226.986 119.977C226.837 120.036 226.704 120.121 226.596 120.226C226.474 120.33 226.377 120.453 226.311 120.59C226.246 120.726 226.212 120.872 226.213 121.019V122.906C226.213 123.378 226.343 123.635 226.604 123.679H225.072C225.352 123.635 225.491 123.38 225.491 122.913V120.647C225.513 120.423 225.472 120.199 225.374 119.991C225.334 119.943 225.279 119.904 225.216 119.879C225.153 119.854 225.083 119.844 225.014 119.849H224.906L226.215 119.353V120.185C226.387 119.934 226.636 119.729 226.936 119.591C227.198 119.458 227.496 119.385 227.801 119.381C228.056 119.375 228.304 119.452 228.494 119.597C228.69 119.753 228.817 119.96 228.856 120.186C229.023 119.953 229.254 119.758 229.529 119.619C229.82 119.467 230.153 119.385 230.494 119.381C230.676 119.377 230.855 119.414 231.014 119.488C231.173 119.563 231.305 119.673 231.398 119.806C231.603 120.115 231.701 120.468 231.681 120.824V122.904C231.681 123.376 231.817 123.633 232.09 123.676" fill="white"/>
<path d="M236.193 122.477C235.919 123.364 235.333 123.807 234.435 123.807C234.137 123.814 233.842 123.758 233.576 123.643C233.31 123.528 233.082 123.359 232.912 123.15C232.559 122.714 232.381 122.192 232.404 121.662C232.38 121.083 232.574 120.511 232.957 120.032C233.113 119.829 233.327 119.663 233.579 119.548C233.83 119.434 234.111 119.376 234.396 119.379C234.665 119.376 234.929 119.436 235.16 119.553C235.391 119.67 235.579 119.84 235.705 120.043C235.998 120.495 236.149 121.004 236.144 121.521H233.106C233.081 121.983 233.247 122.438 233.576 122.805C233.706 122.947 233.873 123.062 234.063 123.14C234.254 123.219 234.463 123.258 234.674 123.256C234.983 123.245 235.284 123.168 235.55 123.032C235.815 122.896 236.036 122.705 236.193 122.477ZM235.334 121.158C235.345 120.838 235.268 120.519 235.108 120.229C235.048 120.091 234.94 119.972 234.799 119.888C234.659 119.804 234.491 119.758 234.319 119.757C234.136 119.76 233.958 119.804 233.802 119.885C233.646 119.967 233.518 120.082 233.432 120.22C233.227 120.502 233.115 120.826 233.106 121.158H235.334Z" fill="white"/>
<path d="M239.406 120.399C239.338 120.285 239.235 120.188 239.108 120.12C238.98 120.052 238.834 120.014 238.684 120.011C238.512 120.02 238.347 120.069 238.204 120.151C238.062 120.233 237.948 120.347 237.874 120.479C237.632 120.839 237.513 121.25 237.532 121.665V122.896C237.532 123.374 237.668 123.634 237.942 123.675H236.408C236.688 123.634 236.829 123.374 236.829 122.896V120.532C236.848 120.338 236.808 120.143 236.711 119.966C236.677 119.922 236.63 119.887 236.575 119.865C236.52 119.843 236.458 119.834 236.397 119.839H236.297L237.532 119.354V120.47C237.64 120.18 237.834 119.919 238.096 119.713C238.328 119.507 238.647 119.388 238.981 119.382C239.13 119.384 239.276 119.418 239.406 119.479V120.399Z" fill="white"/>
<path d="M243.293 122.46C243.209 122.846 242.984 123.199 242.649 123.469C242.375 123.69 242.01 123.81 241.633 123.805C241.346 123.816 241.06 123.768 240.8 123.663C240.539 123.558 240.313 123.401 240.14 123.205C239.797 122.788 239.626 122.286 239.651 121.778C239.62 121.158 239.841 120.548 240.277 120.052C240.456 119.842 240.69 119.672 240.962 119.555C241.233 119.438 241.533 119.378 241.837 119.379C242.016 119.375 242.194 119.401 242.361 119.456C242.528 119.512 242.681 119.596 242.809 119.702C243.076 119.939 243.225 120.255 243.223 120.583L242.454 120.892C242.481 120.8 242.494 120.705 242.493 120.609C242.498 120.506 242.48 120.402 242.438 120.305C242.396 120.208 242.332 120.118 242.25 120.043C242.171 119.974 242.077 119.919 241.972 119.883C241.868 119.846 241.756 119.828 241.643 119.831C241.452 119.83 241.264 119.872 241.098 119.953C240.932 120.034 240.793 120.15 240.696 120.291C240.44 120.647 240.314 121.06 240.335 121.477C240.319 121.916 240.451 122.349 240.715 122.725C240.827 122.898 240.992 123.042 241.191 123.142C241.39 123.241 241.618 123.293 241.849 123.292C242.153 123.27 242.445 123.182 242.698 123.036C242.95 122.891 243.155 122.692 243.293 122.46Z" fill="white"/>
<path d="M247.357 122.477C247.084 123.364 246.498 123.807 245.6 123.807C245.302 123.814 245.007 123.758 244.741 123.643C244.475 123.528 244.246 123.359 244.076 123.15C243.723 122.714 243.545 122.192 243.568 121.662C243.544 121.083 243.738 120.511 244.121 120.032C244.277 119.829 244.491 119.663 244.743 119.548C244.995 119.434 245.276 119.376 245.561 119.379C245.829 119.376 246.093 119.437 246.323 119.554C246.554 119.671 246.742 119.84 246.867 120.043C247.161 120.495 247.313 121.004 247.309 121.521H244.272C244.245 121.983 244.412 122.438 244.743 122.805C244.872 122.947 245.039 123.062 245.229 123.14C245.419 123.219 245.628 123.258 245.839 123.256C246.148 123.245 246.449 123.168 246.715 123.032C246.98 122.896 247.201 122.705 247.357 122.477ZM246.498 121.158C246.509 120.838 246.432 120.519 246.272 120.229C246.212 120.091 246.105 119.972 245.964 119.888C245.824 119.804 245.656 119.758 245.484 119.757C245.302 119.759 245.123 119.804 244.967 119.885C244.811 119.966 244.683 120.082 244.597 120.22C244.392 120.502 244.279 120.826 244.272 121.158H246.498Z" fill="white"/>
<g clip-path="url(#clip6_143_6246)">
<rect width="125" height="80" transform="translate(250 80)" fill="#333132"/>
<path d="M296.887 118.427L300.392 116.659C300.473 116.609 300.533 116.563 300.573 116.523C300.614 116.483 300.634 116.412 300.634 116.312V114.121C300.634 113.96 300.553 113.879 300.392 113.879H295.558V112.232L299.939 112.157C300.896 112.137 301.57 112.353 301.963 112.807C302.356 113.25 302.552 113.869 302.552 114.665V116.191C302.552 116.735 302.421 117.148 302.16 117.43C301.908 117.712 301.5 117.999 300.936 118.291L297.537 119.998C297.396 120.068 297.305 120.149 297.265 120.24C297.224 120.33 297.204 120.466 297.204 120.647V122.566H302.507V124.213H295.301V120.647C295.301 120.174 295.356 119.812 295.467 119.56C295.588 119.308 295.764 119.101 295.996 118.94C296.237 118.779 296.535 118.608 296.887 118.427ZM304.578 114.499C304.578 113.663 304.795 113.053 305.228 112.671C305.671 112.288 306.351 112.096 307.267 112.096H309.7C310.606 112.096 311.281 112.288 311.724 112.671C312.167 113.053 312.389 113.663 312.389 114.499V121.962C312.389 122.788 312.167 123.392 311.724 123.775C311.281 124.157 310.606 124.349 309.7 124.349H307.267C306.351 124.349 305.671 124.157 305.228 123.775C304.795 123.392 304.578 122.788 304.578 121.962V114.499ZM306.723 113.804C306.582 113.804 306.512 113.869 306.512 114V122.445C306.512 122.576 306.582 122.642 306.723 122.642H310.243C310.384 122.642 310.455 122.576 310.455 122.445V114C310.455 113.869 310.384 113.804 310.243 113.804H306.723ZM321.414 124.213H314.752V122.672H317.426V114.242L314.918 115.768L314.132 114.453L317.577 112.232H319.329V122.672H321.414V124.213ZM326.536 124.288L322.351 124.213V122.566H327.231C327.392 122.566 327.473 122.486 327.473 122.324V119.122C327.473 118.96 327.392 118.88 327.231 118.88H323.469V117.233H327.125C327.296 117.233 327.382 117.153 327.382 116.991V114.121C327.382 113.95 327.296 113.864 327.125 113.864H322.412V112.232L326.491 112.157C327.427 112.137 328.132 112.348 328.606 112.791C329.089 113.225 329.331 113.869 329.331 114.725V116.176C329.331 116.629 329.24 117.012 329.059 117.324C328.878 117.626 328.621 117.863 328.288 118.034C329.044 118.356 329.422 119.021 329.422 120.028V121.69C329.422 122.526 329.175 123.175 328.681 123.639C328.188 124.092 327.473 124.309 326.536 124.288Z" fill="white"/>
<path d="M295.161 127.999C294.947 127.999 294.776 127.972 294.646 127.917V127.671C294.719 127.699 294.798 127.721 294.882 127.738C294.967 127.755 295.051 127.764 295.135 127.764C295.266 127.764 295.365 127.748 295.43 127.718C295.496 127.687 295.529 127.625 295.529 127.533C295.529 127.477 295.516 127.432 295.488 127.397C295.461 127.363 295.416 127.334 295.353 127.31C295.29 127.285 295.202 127.258 295.092 127.231C294.914 127.185 294.789 127.127 294.718 127.057C294.646 126.985 294.61 126.887 294.61 126.762C294.61 126.617 294.663 126.504 294.769 126.422C294.875 126.34 295.033 126.299 295.243 126.299C295.338 126.299 295.428 126.306 295.511 126.319C295.597 126.333 295.663 126.348 295.711 126.366V126.611C295.581 126.562 295.438 126.537 295.281 126.537C295.158 126.537 295.062 126.553 294.994 126.586C294.926 126.618 294.892 126.677 294.892 126.762C294.892 126.812 294.904 126.852 294.928 126.883C294.952 126.914 294.992 126.94 295.051 126.962C295.11 126.984 295.192 127.009 295.296 127.036C295.431 127.071 295.535 127.112 295.609 127.159C295.684 127.205 295.736 127.26 295.765 127.323C295.796 127.385 295.811 127.455 295.811 127.533C295.811 127.678 295.757 127.793 295.65 127.876C295.542 127.958 295.379 127.999 295.161 127.999ZM296.082 127.974V126.325H296.361V127.974H296.082ZM296.684 127.974V126.325H296.93L297.791 127.538V126.325H298.067V127.974H297.821L296.963 126.762V127.974H296.684ZM299.166 127.999C298.894 127.999 298.688 127.925 298.548 127.776C298.41 127.628 298.341 127.427 298.341 127.175C298.341 126.994 298.37 126.838 298.428 126.709C298.488 126.577 298.578 126.477 298.7 126.407C298.821 126.335 298.975 126.299 299.163 126.299C299.259 126.299 299.346 126.307 299.424 126.322C299.504 126.336 299.579 126.354 299.647 126.378V126.622C299.579 126.594 299.505 126.574 299.427 126.56C299.35 126.545 299.269 126.537 299.183 126.537C298.979 126.537 298.834 126.592 298.748 126.701C298.665 126.81 298.623 126.968 298.623 127.175C298.623 127.368 298.669 127.514 298.761 127.615C298.853 127.714 298.996 127.764 299.189 127.764C299.267 127.764 299.346 127.758 299.424 127.746C299.504 127.732 299.58 127.712 299.65 127.684V127.93C299.581 127.952 299.507 127.969 299.427 127.981C299.348 127.993 299.261 127.999 299.166 127.999ZM299.92 127.974V126.325H301.07V126.542H300.199V127.042H300.975V127.257H300.199V127.759H301.07V127.974H299.92Z" fill="white"/>
</g>
<defs>
<clipPath id="clip0_143_6246">
<rect width="3.58929" height="3.58929" fill="white" transform="translate(192.812 71.875)"/>
</clipPath>
<clipPath id="clip1_143_6246">
<rect width="3.58929" height="3.58929" fill="white" transform="translate(199.648 71.875)"/>
</clipPath>
<clipPath id="clip2_143_6246">
<rect width="3.58929" height="3.58929" fill="white" transform="translate(206.484 71.875)"/>
</clipPath>
<clipPath id="clip3_143_6246">
<rect width="3.58929" height="3.58929" fill="white" transform="translate(213.32 71.875)"/>
</clipPath>
<clipPath id="clip4_143_6246">
<rect width="3.58929" height="3.58929" fill="white" transform="translate(220.156 71.875)"/>
</clipPath>
<clipPath id="clip5_143_6246">
<rect width="13.4375" height="13.4375" fill="white" transform="translate(195 52.8125)"/>
</clipPath>
<clipPath id="clip6_143_6246">
<rect width="125" height="80" fill="white" transform="translate(250 80)"/>
</clipPath>
</defs>
</svg>
