<svg width="375" height="160" viewBox="0 0 375 160" fill="none" xmlns="http://www.w3.org/2000/svg">
<rect width="93.75" height="80" fill="#3178D0"/>
<path d="M33.1609 35.4459C34.3568 35.4459 35.2732 35.7254 35.9101 36.2843C36.5471 36.8303 36.8655 37.6427 36.8655 38.7216V41.7828C36.8655 42.8877 36.5536 43.7261 35.9296 44.2981C35.3187 44.857 34.4153 45.1235 33.2194 45.0975L27.6819 45V42.8747H34.0383C34.2463 42.8747 34.3503 42.7707 34.3503 42.5627V37.8832C34.3503 37.6752 34.2463 37.5712 34.0383 37.5712H27.8574V29.5379H36.2806V31.6632H30.2752V35.4459H33.1609ZM39.7705 32.4627C39.7705 31.3838 40.0499 30.5973 40.6089 30.1034C41.1808 29.6094 42.0583 29.3625 43.2411 29.3625H46.3804C47.5502 29.3625 48.4212 29.6094 48.9931 30.1034C49.5651 30.5973 49.851 31.3838 49.851 32.4627V42.0948C49.851 43.1607 49.5651 43.9406 48.9931 44.4346C48.4212 44.9285 47.5502 45.1755 46.3804 45.1755H43.2411C42.0583 45.1755 41.1808 44.9285 40.6089 44.4346C40.0499 43.9406 39.7705 43.1607 39.7705 42.0948V32.4627ZM42.5392 31.5658C42.3572 31.5658 42.2662 31.6502 42.2662 31.8192V42.7187C42.2662 42.8877 42.3572 42.9722 42.5392 42.9722H47.0823C47.2643 42.9722 47.3553 42.8877 47.3553 42.7187V31.8192C47.3553 31.6502 47.2643 31.5658 47.0823 31.5658H42.5392ZM53.2516 32.4627C53.2516 31.3838 53.5311 30.5973 54.0901 30.1034C54.662 29.6094 55.5394 29.3625 56.7223 29.3625H59.8615C61.0314 29.3625 61.9023 29.6094 62.4743 30.1034C63.0462 30.5973 63.3322 31.3838 63.3322 32.4627V42.0948C63.3322 43.1607 63.0462 43.9406 62.4743 44.4346C61.9023 44.9285 61.0314 45.1755 59.8615 45.1755H56.7223C55.5394 45.1755 54.662 44.9285 54.0901 44.4346C53.5311 43.9406 53.2516 43.1607 53.2516 42.0948V32.4627ZM56.0204 31.5658C55.8384 31.5658 55.7474 31.6502 55.7474 31.8192V42.7187C55.7474 42.8877 55.8384 42.9722 56.0204 42.9722H60.5635C60.7454 42.9722 60.8364 42.8877 60.8364 42.7187V31.8192C60.8364 31.6502 60.7454 31.5658 60.5635 31.5658H56.0204ZM70.6324 42.7967V38.6241H66.3623V36.8693H70.6324V32.6772H72.4848V36.8693H76.7549V38.6241H72.4848V42.7967H70.6324Z" fill="white"/>
<path d="M28.8839 49.9002C28.6085 49.9002 28.3871 49.865 28.2196 49.7945V49.4772C28.3144 49.5125 28.4157 49.5411 28.5237 49.5631C28.6338 49.5852 28.7429 49.5962 28.8508 49.5962C29.0205 49.5962 29.1472 49.5764 29.2309 49.5367C29.3168 49.4971 29.3598 49.4177 29.3598 49.2988C29.3598 49.2261 29.3421 49.1677 29.3069 49.1236C29.2716 49.0795 29.2133 49.0421 29.1317 49.0113C29.0502 48.9782 28.9379 48.9441 28.7947 48.9088C28.5655 48.8493 28.4047 48.7744 28.3122 48.6841C28.2196 48.5915 28.1734 48.4649 28.1734 48.304C28.1734 48.1168 28.2417 47.9702 28.3783 47.8645C28.5148 47.7587 28.7186 47.7059 28.9896 47.7059C29.113 47.7059 29.2287 47.7147 29.3366 47.7323C29.4468 47.7499 29.5327 47.7698 29.5944 47.7918V48.109C29.427 48.0452 29.2419 48.0132 29.0392 48.0132C28.8806 48.0132 28.7572 48.0341 28.6691 48.076C28.5809 48.1179 28.5369 48.1939 28.5369 48.304C28.5369 48.3679 28.5523 48.4197 28.5831 48.4594C28.614 48.499 28.6669 48.5332 28.7418 48.5618C28.8189 48.5904 28.9246 48.6224 29.059 48.6576C29.2331 48.7017 29.3675 48.7546 29.4622 48.8163C29.5592 48.8758 29.6264 48.9463 29.6638 49.0278C29.7035 49.1071 29.7233 49.1974 29.7233 49.2988C29.7233 49.486 29.6539 49.6336 29.5151 49.7416C29.3763 49.8474 29.1659 49.9002 28.8839 49.9002ZM29.829 49.8672L30.642 47.7389H31.0452L31.8516 49.8672H31.4814L31.2699 49.3186H30.414L30.2025 49.8672H29.829ZM30.4702 49.041H31.2104L30.8403 48.0661L30.4702 49.041ZM32.4769 49.8672V48.0198H31.7962V47.7389H33.5146V48.0198H32.8372V49.8672H32.4769ZM33.8034 49.8672V47.7389H34.1636V49.8672H33.8034ZM35.2256 49.9002C34.9502 49.9002 34.7287 49.865 34.5613 49.7945V49.4772C34.656 49.5125 34.7574 49.5411 34.8653 49.5631C34.9755 49.5852 35.0846 49.5962 35.1925 49.5962C35.3622 49.5962 35.4888 49.5764 35.5726 49.5367C35.6585 49.4971 35.7015 49.4177 35.7015 49.2988C35.7015 49.2261 35.6838 49.1677 35.6486 49.1236C35.6133 49.0795 35.5549 49.0421 35.4734 49.0113C35.3919 48.9782 35.2795 48.9441 35.1363 48.9088C34.9072 48.8493 34.7464 48.7744 34.6538 48.6841C34.5613 48.5915 34.515 48.4649 34.515 48.304C34.515 48.1168 34.5833 47.9702 34.7199 47.8645C34.8565 47.7587 35.0603 47.7059 35.3313 47.7059C35.4547 47.7059 35.5704 47.7147 35.6783 47.7323C35.7885 47.7499 35.8744 47.7698 35.9361 47.7918V48.109C35.7687 48.0452 35.5836 48.0132 35.3809 48.0132C35.2223 48.0132 35.0989 48.0341 35.0108 48.076C34.9226 48.1179 34.8786 48.1939 34.8786 48.304C34.8786 48.3679 34.894 48.4197 34.9248 48.4594C34.9557 48.499 35.0086 48.5332 35.0835 48.5618C35.1606 48.5904 35.2663 48.6224 35.4007 48.6576C35.5748 48.7017 35.7092 48.7546 35.8039 48.8163C35.9008 48.8758 35.968 48.9463 36.0055 49.0278C36.0452 49.1071 36.065 49.1974 36.065 49.2988C36.065 49.486 35.9956 49.6336 35.8568 49.7416C35.718 49.8474 35.5076 49.9002 35.2256 49.9002ZM36.4143 49.8672V47.7389H37.8617V48.0198H36.7745V48.6642H37.7395V48.9419H36.7745V49.8672H36.4143ZM38.1473 49.8672V47.7389H38.5075V49.8672H38.1473ZM38.9251 49.8672V47.7389H40.409V48.0198H39.2853V48.6642H40.2867V48.9419H39.2853V49.5896H40.409V49.8672H38.9251ZM40.7421 49.8672V47.7389H41.6046C41.9197 47.7389 42.1532 47.8226 42.3052 47.9901C42.4573 48.1553 42.5333 48.4307 42.5333 48.8163C42.5333 49.1798 42.4584 49.4464 42.3086 49.616C42.1587 49.7835 41.9241 49.8672 41.6046 49.8672H40.7421ZM41.1023 49.5896H41.5485C41.6873 49.5896 41.8029 49.5698 41.8955 49.5301C41.988 49.4882 42.0574 49.4111 42.1037 49.2988C42.1499 49.1864 42.1731 49.0256 42.1731 48.8163C42.1731 48.607 42.1521 48.445 42.1103 48.3305C42.0684 48.2159 42.0012 48.1355 41.9087 48.0892C41.8183 48.043 41.6983 48.0198 41.5485 48.0198H41.1023V49.5896ZM44.6479 49.9002C44.2976 49.9002 44.0322 49.8044 43.8515 49.6127C43.673 49.421 43.5838 49.1622 43.5838 48.8361C43.5838 48.6026 43.6213 48.4021 43.6962 48.2346C43.7733 48.065 43.8901 47.935 44.0465 47.8447C44.2029 47.7521 44.4023 47.7059 44.6446 47.7059C44.768 47.7059 44.8804 47.7158 44.9817 47.7356C45.0853 47.7532 45.1811 47.7775 45.2692 47.8083V48.1223C45.1811 48.087 45.0864 48.0606 44.985 48.043C44.8859 48.0231 44.7812 48.0132 44.6711 48.0132C44.4067 48.0132 44.2194 48.0837 44.1093 48.2247C44.0013 48.3657 43.9473 48.5695 43.9473 48.8361C43.9473 49.0851 44.0068 49.2745 44.1258 49.4045C44.2448 49.5323 44.4287 49.5962 44.6777 49.5962C44.779 49.5962 44.8804 49.5885 44.9817 49.5731C45.0853 49.5554 45.1822 49.529 45.2725 49.4937V49.811C45.1844 49.8396 45.0886 49.8617 44.985 49.8771C44.8837 49.8925 44.7713 49.9002 44.6479 49.9002ZM45.6218 49.8672V47.7389H45.982V49.5896H47.0726V49.8672H45.6218ZM47.3581 49.8672V47.7389H47.7183V49.8672H47.3581ZM48.1359 49.8672V47.7389H49.6197V48.0198H48.4961V48.6642H49.4974V48.9419H48.4961V49.5896H49.6197V49.8672H48.1359ZM49.9529 49.8672V47.7389H50.2701L51.3805 49.3054V47.7389H51.7374V49.8672H51.4202L50.3131 48.304V49.8672H49.9529ZM52.709 49.8672V48.0198H52.0282V47.7389H53.7467V48.0198H53.0692V49.8672H52.709ZM54.5798 49.9002C54.3044 49.9002 54.083 49.865 53.9155 49.7945V49.4772C54.0103 49.5125 54.1116 49.5411 54.2196 49.5631C54.3297 49.5852 54.4388 49.5962 54.5468 49.5962C54.7164 49.5962 54.8431 49.5764 54.9268 49.5367C55.0127 49.4971 55.0557 49.4177 55.0557 49.2988C55.0557 49.2261 55.0381 49.1677 55.0028 49.1236C54.9676 49.0795 54.9092 49.0421 54.8277 49.0113C54.7461 48.9782 54.6338 48.9441 54.4906 48.9088C54.2614 48.8493 54.1006 48.7744 54.0081 48.6841C53.9155 48.5915 53.8693 48.4649 53.8693 48.304C53.8693 48.1168 53.9376 47.9702 54.0742 47.8645C54.2108 47.7587 54.4146 47.7059 54.6856 47.7059C54.8089 47.7059 54.9246 47.7147 55.0326 47.7323C55.1427 47.7499 55.2286 47.7698 55.2903 47.7918V48.109C55.1229 48.0452 54.9378 48.0132 54.7351 48.0132C54.5765 48.0132 54.4531 48.0341 54.365 48.076C54.2769 48.1179 54.2328 48.1939 54.2328 48.304C54.2328 48.3679 54.2482 48.4197 54.2791 48.4594C54.3099 48.499 54.3628 48.5332 54.4377 48.5618C54.5148 48.5904 54.6206 48.6224 54.755 48.6576C54.929 48.7017 55.0634 48.7546 55.1581 48.8163C55.2551 48.8758 55.3223 48.9463 55.3597 49.0278C55.3994 49.1071 55.4192 49.1974 55.4192 49.2988C55.4192 49.486 55.3498 49.6336 55.211 49.7416C55.0722 49.8474 54.8618 49.9002 54.5798 49.9002Z" fill="white"/>
<rect width="93.75" height="80" transform="translate(93.75)" fill="#333132"/>
<path d="M117.656 43.875V37.3125H120.759C121.484 37.3125 122.122 37.4469 122.672 37.7156C123.222 37.9844 123.65 38.3625 123.956 38.85C124.269 39.3375 124.425 39.9187 124.425 40.5937C124.425 41.2625 124.269 41.8437 123.956 42.3375C123.65 42.825 123.222 43.2031 122.672 43.4719C122.122 43.7406 121.484 43.875 120.759 43.875H117.656ZM119.513 42.3937H120.684C121.059 42.3937 121.384 42.325 121.659 42.1875C121.941 42.0437 122.159 41.8375 122.316 41.5687C122.472 41.2937 122.55 40.9687 122.55 40.5937C122.55 40.2125 122.472 39.8875 122.316 39.6187C122.159 39.35 121.941 39.1469 121.659 39.0094C121.384 38.8656 121.059 38.7937 120.684 38.7937H119.513V42.3937ZM128.983 39.8531H132.03V41.2406H128.983V39.8531ZM129.114 42.4406H132.545V43.875H127.277V37.3125H132.423V38.7469H129.114V42.4406ZM137.757 44.0063C137.219 44.0063 136.7 43.9406 136.2 43.8094C135.707 43.6719 135.304 43.4969 134.991 43.2844L135.6 41.9156C135.894 42.1031 136.232 42.2594 136.613 42.3844C137 42.5031 137.385 42.5625 137.766 42.5625C138.022 42.5625 138.229 42.5406 138.385 42.4969C138.541 42.4469 138.654 42.3844 138.722 42.3094C138.797 42.2281 138.835 42.1344 138.835 42.0281C138.835 41.8781 138.766 41.7594 138.629 41.6719C138.491 41.5844 138.313 41.5125 138.094 41.4562C137.875 41.4 137.632 41.3437 137.363 41.2875C137.1 41.2312 136.835 41.1594 136.566 41.0719C136.304 40.9844 136.063 40.8719 135.844 40.7344C135.625 40.5906 135.447 40.4062 135.31 40.1812C135.172 39.95 135.104 39.6594 135.104 39.3094C135.104 38.9156 135.21 38.5594 135.422 38.2406C135.641 37.9219 135.966 37.6656 136.397 37.4719C136.829 37.2781 137.366 37.1812 138.01 37.1812C138.441 37.1812 138.863 37.2312 139.275 37.3312C139.694 37.425 140.066 37.5656 140.391 37.7531L139.819 39.1312C139.507 38.9625 139.197 38.8375 138.891 38.7562C138.585 38.6687 138.288 38.625 138 38.625C137.744 38.625 137.538 38.6531 137.382 38.7094C137.225 38.7594 137.113 38.8281 137.044 38.9156C136.975 39.0031 136.941 39.1031 136.941 39.2156C136.941 39.3594 137.007 39.475 137.138 39.5625C137.275 39.6437 137.454 39.7125 137.672 39.7687C137.897 39.8187 138.141 39.8719 138.404 39.9281C138.672 39.9844 138.938 40.0562 139.2 40.1437C139.469 40.225 139.713 40.3375 139.932 40.4812C140.15 40.6187 140.325 40.8031 140.457 41.0344C140.594 41.2594 140.663 41.5437 140.663 41.8875C140.663 42.2687 140.554 42.6219 140.335 42.9469C140.122 43.2656 139.8 43.5219 139.369 43.7156C138.944 43.9094 138.407 44.0063 137.757 44.0063ZM143.395 43.875V37.3125H145.252V43.875H143.395ZM151.729 44.0063C151.21 44.0063 150.729 43.925 150.285 43.7625C149.841 43.5937 149.457 43.3562 149.132 43.05C148.813 42.7437 148.563 42.3844 148.382 41.9719C148.2 41.5531 148.11 41.0937 148.11 40.5937C148.11 40.0937 148.2 39.6375 148.382 39.225C148.563 38.8062 148.816 38.4437 149.141 38.1375C149.466 37.8312 149.85 37.5969 150.294 37.4344C150.744 37.2656 151.235 37.1812 151.766 37.1812C152.385 37.1812 152.938 37.2844 153.425 37.4906C153.913 37.6969 154.316 37.9937 154.635 38.3812L153.454 39.45C153.229 39.2062 152.985 39.025 152.722 38.9062C152.466 38.7812 152.179 38.7187 151.86 38.7187C151.579 38.7187 151.322 38.7625 151.091 38.85C150.86 38.9375 150.663 39.0656 150.5 39.2344C150.338 39.3969 150.21 39.5937 150.116 39.825C150.029 40.05 149.985 40.3062 149.985 40.5937C149.985 40.8687 150.029 41.1219 150.116 41.3531C150.21 41.5844 150.338 41.7844 150.5 41.9531C150.663 42.1156 150.857 42.2437 151.082 42.3375C151.313 42.425 151.566 42.4687 151.841 42.4687C152.116 42.4687 152.385 42.425 152.647 42.3375C152.91 42.2437 153.175 42.0875 153.444 41.8687L154.485 43.1719C154.11 43.4406 153.675 43.6469 153.182 43.7906C152.688 43.9344 152.204 44.0063 151.729 44.0063ZM152.844 42.9281V40.4531H154.485V43.1719L152.844 42.9281ZM157.537 43.875V37.3125H159.065L162.683 41.6812H161.962V37.3125H163.78V43.875H162.252L158.633 39.5062H159.355V43.875H157.537Z" fill="white"/>
<rect width="93.75" height="80" transform="translate(187.5)" fill="#3178D0"/>
<g clip-path="url(#clip0_143_6246)">
<path opacity="0.7" d="M194.608 72.1738L195.072 73.18L196.172 73.3106L195.359 74.0628L195.575 75.1498L194.608 74.6086L193.641 75.1499L193.857 74.063L193.043 73.3104L194.144 73.1799L194.608 72.1738Z" fill="#FFE02F"/>
<path d="M194.608 72.1738L195.072 73.18L196.172 73.3106L195.359 74.0628L195.575 75.1498L194.608 74.6086L193.641 75.1499L193.857 74.063L193.043 73.3104L194.144 73.1799L194.608 72.1738Z" stroke="#FFDE21" stroke-width="0.299107" stroke-linejoin="round"/>
</g>
<g clip-path="url(#clip1_143_6246)">
<path opacity="0.7" d="M201.444 72.1738L201.908 73.18L203.008 73.3106L202.195 74.0628L202.411 75.1498L201.444 74.6086L200.477 75.1499L200.692 74.063L199.879 73.3104L200.979 73.1799L201.444 72.1738Z" fill="#FFE02F"/>
<path d="M201.444 72.1738L201.908 73.18L203.008 73.3106L202.195 74.0628L202.411 75.1498L201.444 74.6086L200.477 75.1499L200.692 74.063L199.879 73.3104L200.979 73.1799L201.444 72.1738Z" stroke="#FFDE21" stroke-width="0.299107" stroke-linejoin="round"/>
</g>
<g clip-path="url(#clip2_143_6246)">
<path opacity="0.7" d="M208.279 72.1738L208.744 73.18L209.844 73.3106L209.031 74.0628L209.246 75.1498L208.279 74.6086L207.312 75.1499L207.528 74.063L206.715 73.3104L207.815 73.1799L208.279 72.1738Z" fill="#FFE02F"/>
<path d="M208.279 72.1738L208.744 73.18L209.844 73.3106L209.031 74.0628L209.246 75.1498L208.279 74.6086L207.312 75.1499L207.528 74.063L206.715 73.3104L207.815 73.1799L208.279 72.1738Z" stroke="#FFDE21" stroke-width="0.299107" stroke-linejoin="round"/>
</g>
<g clip-path="url(#clip3_143_6246)">
<path opacity="0.7" d="M215.115 72.1738L215.58 73.18L216.68 73.3106L215.866 74.0628L216.082 75.1498L215.115 74.6086L214.148 75.1499L214.364 74.063L213.551 73.3104L214.651 73.1799L215.115 72.1738Z" fill="#FFE02F"/>
<path d="M215.115 72.1738L215.58 73.18L216.68 73.3106L215.866 74.0628L216.082 75.1498L215.115 74.6086L214.148 75.1499L214.364 74.063L213.551 73.3104L214.651 73.1799L215.115 72.1738Z" stroke="#FFDE21" stroke-width="0.299107" stroke-linejoin="round"/>
</g>
<g clip-path="url(#clip4_143_6246)">
<path opacity="0.7" d="M221.951 72.1738L222.416 73.18L223.516 73.3106L222.702 74.0628L222.918 75.1498L221.951 74.6086L220.984 75.1499L221.2 74.063L220.387 73.3104L221.487 73.1799L221.951 72.1738Z" fill="#FFE02F"/>
<path d="M221.951 72.1738L222.416 73.18L223.516 73.3106L222.702 74.0628L222.918 75.1498L221.951 74.6086L220.984 75.1499L221.2 74.063L220.387 73.3104L221.487 73.1799L221.951 72.1738Z" stroke="#FFDE21" stroke-width="0.299107" stroke-linejoin="round"/>
</g>
<rect x="193.121" y="50.625" width="17.5" height="17.5" rx="8.75" fill="white"/>
<g clip-path="url(#clip5_143_6246)">
<path d="M199.681 53.2551C198.338 53.7209 197.18 54.6049 196.377 55.7774C195.574 56.9499 195.168 58.3489 195.219 59.7691C195.27 61.1893 195.775 62.5558 196.66 63.6678C197.545 64.7798 198.763 65.5788 200.135 65.9473C201.248 66.2344 202.414 66.247 203.532 65.984C204.546 65.7564 205.483 65.2695 206.251 64.571C207.051 63.8218 207.632 62.8687 207.931 61.8142C208.256 60.6675 208.314 59.4615 208.1 58.289H201.852V60.8809H205.47C205.398 61.2943 205.243 61.6889 205.015 62.041C204.786 62.3931 204.489 62.6955 204.141 62.9301C203.699 63.2224 203.201 63.4191 202.679 63.5075C202.155 63.6049 201.618 63.6049 201.094 63.5075C200.563 63.3977 200.06 63.1786 199.619 62.864C198.909 62.3618 198.377 61.6482 198.097 60.8253C197.812 59.9869 197.812 59.078 198.097 58.2396C198.296 57.6519 198.625 57.1169 199.06 56.6744C199.558 56.1586 200.188 55.79 200.882 55.6089C201.575 55.4278 202.305 55.4412 202.992 55.6476C203.528 55.8122 204.018 56.0998 204.424 56.4875C204.832 56.0816 205.239 55.6746 205.646 55.2666C205.856 55.0472 206.085 54.8382 206.291 54.6136C205.673 54.0377 204.946 53.5897 204.154 53.295C202.711 52.7712 201.133 52.7571 199.681 53.2551Z" fill="white"/>
<path d="M199.683 53.2556C201.135 52.7573 202.714 52.771 204.157 53.2945C204.949 53.5911 205.675 54.0414 206.293 54.6193C206.083 54.844 205.861 55.054 205.647 55.2723C205.24 55.6789 204.833 56.0842 204.426 56.488C204.021 56.1003 203.531 55.8128 202.994 55.6482C202.308 55.441 201.578 55.4268 200.885 55.6072C200.191 55.7875 199.56 56.1555 199.062 56.6707C198.627 57.1132 198.297 57.6483 198.098 58.2359L195.922 56.551C196.701 55.0063 198.05 53.8247 199.683 53.2556Z" fill="#E33629"/>
<path d="M195.341 58.219C195.458 57.6393 195.652 57.0779 195.919 56.5498L198.095 58.2389C197.81 59.0773 197.81 59.9862 198.095 60.8246C197.37 61.3845 196.644 61.9472 195.919 62.5127C195.252 61.1861 195.049 59.6746 195.341 58.219Z" fill="#F8BD00"/>
<path d="M201.852 58.2881H208.1C208.314 59.4606 208.256 60.6666 207.931 61.8133C207.633 62.8678 207.052 63.8209 206.252 64.5701C205.549 64.0221 204.844 63.4783 204.142 62.9303C204.49 62.6955 204.787 62.3927 205.015 62.0402C205.244 61.6877 205.399 61.2928 205.471 60.879H201.852C201.851 60.0161 201.852 59.1521 201.852 58.2881Z" fill="#587DBD"/>
<path d="M195.918 62.5123C196.644 61.9524 197.369 61.3897 198.094 60.8242C198.375 61.6475 198.908 62.361 199.619 62.8629C200.062 63.1761 200.565 63.3934 201.097 63.5012C201.621 63.5986 202.158 63.5986 202.682 63.5012C203.204 63.4128 203.702 63.2161 204.144 62.9238C204.847 63.4718 205.552 64.0156 206.254 64.5636C205.486 65.2625 204.549 65.7498 203.535 65.9777C202.417 66.2407 201.251 66.2281 200.138 65.941C199.258 65.706 198.436 65.2918 197.724 64.7242C196.97 64.1255 196.354 63.371 195.918 62.5123Z" fill="#319F43"/>
</g>
<path d="M217.211 62.125V58.3683H219.014C219.446 58.3683 219.763 58.4831 219.965 58.7125C220.167 58.9381 220.268 59.2433 220.268 59.6283C220.268 59.8811 220.202 60.0989 220.07 60.2817C219.941 60.4644 219.759 60.5967 219.521 60.6783C219.584 60.7289 219.632 60.7833 219.667 60.8417C219.706 60.9 219.745 60.9778 219.784 61.075L220.239 62.125H219.422L218.979 61.1158C218.94 61.0303 218.897 60.97 218.851 60.935C218.804 60.9 218.726 60.8825 218.617 60.8825H217.999V62.125H217.211ZM217.999 60.2292H218.81C219.016 60.2292 219.177 60.1844 219.294 60.095C219.411 60.0017 219.469 59.8461 219.469 59.6283C219.469 59.4183 219.418 59.2647 219.317 59.1675C219.216 59.0703 219.063 59.0217 218.856 59.0217H217.999V60.2292ZM220.817 62.125V58.3683H223.512V58.9808H221.605V59.9433H223.297V60.55H221.605V61.5183H223.512V62.125H220.817ZM225.292 62.125L223.857 58.3683H224.679L225.717 61.2442L226.762 58.3683H227.584L226.155 62.125H225.292ZM227.984 62.125V58.3683H228.771V62.125H227.984ZM229.436 62.125V58.3683H232.131V58.9808H230.224V59.9433H231.916V60.55H230.224V61.5183H232.131V62.125H229.436ZM233.436 62.125L232.561 58.3683H233.337L233.903 60.9058L234.515 58.8583V58.3683H235.157L235.88 60.9117L236.464 58.3683H237.234L236.364 62.125H235.618L234.929 59.7217L234.189 62.125H233.436ZM238.835 62.1833C238.594 62.1833 238.368 62.1658 238.158 62.1308C237.952 62.0958 237.773 62.0453 237.621 61.9792V61.285C237.792 61.355 237.977 61.4114 238.175 61.4542C238.374 61.4969 238.568 61.5183 238.759 61.5183C239.031 61.5183 239.231 61.4931 239.36 61.4425C239.488 61.3919 239.552 61.2772 239.552 61.0983C239.552 60.9856 239.525 60.8961 239.47 60.83C239.416 60.7639 239.321 60.7056 239.185 60.655C239.052 60.6006 238.864 60.5403 238.619 60.4742C238.226 60.3653 237.95 60.2292 237.79 60.0658C237.631 59.9025 237.551 59.6769 237.551 59.3892C237.551 59.0431 237.678 58.7767 237.93 58.59C238.183 58.4033 238.551 58.31 239.033 58.31C239.259 58.31 239.469 58.3256 239.663 58.3567C239.857 58.3878 240.015 58.4247 240.135 58.4675V59.1617C239.817 59.0411 239.484 58.9808 239.138 58.9808C238.893 58.9808 238.7 59.0081 238.56 59.0625C238.42 59.1131 238.35 59.2219 238.35 59.3892C238.35 59.4864 238.376 59.5642 238.426 59.6225C238.477 59.6808 238.562 59.7333 238.683 59.78C238.807 59.8267 238.98 59.8792 239.202 59.9375C239.509 60.0192 239.747 60.1164 239.914 60.2292C240.081 60.3419 240.196 60.4703 240.258 60.6142C240.324 60.7581 240.357 60.9194 240.357 61.0983C240.357 61.425 240.233 61.6875 239.984 61.8858C239.735 62.0842 239.352 62.1833 238.835 62.1833Z" fill="white"/>
<rect width="93.75" height="80" transform="translate(281.25)" fill="#333132"/>
<path d="M307.933 34.2271C307.598 33.8874 307.188 33.6074 306.727 33.4032C306.265 33.199 305.76 33.0746 305.242 33.0372C306.083 32.9043 306.831 32.4998 307.332 31.9079C307.871 31.3111 308.16 30.5769 308.153 29.8231C308.165 29.4131 308.079 29.0052 307.902 28.6241C307.724 28.243 307.458 27.8965 307.12 27.6055C306.337 26.9285 305.25 26.5893 303.859 26.5879H295.952C296.718 26.7098 297.101 27.3475 297.102 28.5009L297.104 37.4172C296.975 36.6031 296.507 35.856 295.785 35.3135C295.063 34.7709 294.136 34.4695 293.174 34.4646L290.594 34.4613L290.597 36.6986C290.589 37.6045 291.003 38.4758 291.747 39.1211C292.492 39.7664 293.506 40.1328 294.566 40.1396H297.103V43.9076C297.065 43.5954 296.894 43.306 296.622 43.0951C296.35 42.8841 295.996 42.7664 295.629 42.7645L294.664 42.7629V43.599C294.662 43.7667 294.7 43.933 294.773 44.0884C294.847 44.2438 294.956 44.3853 295.094 44.5048C295.231 44.6242 295.395 44.7194 295.576 44.7847C295.757 44.85 295.951 44.8843 296.147 44.8855H297.102L297.106 53.5226L297.754 53.531V44.8841H298.71C298.906 44.8833 299.101 44.8493 299.282 44.7841C299.463 44.719 299.627 44.6239 299.765 44.5045C299.903 44.385 300.012 44.2434 300.086 44.0879C300.16 43.9323 300.198 43.7658 300.196 43.598L300.198 42.7618L299.234 42.7634C298.863 42.7652 298.506 42.8851 298.233 43.0997C297.96 43.3143 297.79 43.6081 297.757 43.9238V40.1377H304.51C305.9 40.1377 307.009 39.7712 307.838 39.0382C308.566 38.3876 308.962 37.5169 308.938 36.6172C308.953 35.7426 308.596 34.8931 307.933 34.2263" fill="white"/>
<path d="M303.602 34.4619L303.6 36.4599C303.603 36.8605 303.514 37.2577 303.337 37.6289C303.161 38.0001 302.901 38.3379 302.572 38.6232C302.242 38.9084 301.85 39.1355 301.418 39.2914C300.986 39.4473 300.523 39.529 300.054 39.5318H297.757L297.754 37.5381C297.75 37.1375 297.839 36.7403 298.016 36.369C298.192 35.9978 298.452 35.6598 298.781 35.3744C299.11 35.089 299.502 34.8618 299.934 34.7058C300.366 34.5497 300.829 34.4679 301.298 34.4649L303.602 34.4619Z" fill="black"/>
<path d="M315.956 26.6416C315.743 26.6789 315.636 26.8519 315.637 27.1606V30.5213L312.841 27.3894V29.8452C312.841 30.154 312.954 30.3253 313.179 30.359H312.17C312.379 30.3255 312.483 30.1542 312.484 29.8452V27.2165C312.487 27.0906 312.444 26.9669 312.36 26.8635C312.276 26.7601 312.155 26.6823 312.016 26.6416H312.816L315.286 29.4157V27.1606C315.285 26.8517 315.178 26.6787 314.965 26.6416H315.956Z" fill="white"/>
<path d="M318.997 29.0028C319.008 29.3506 318.884 29.6918 318.646 29.9742C318.525 30.1237 318.362 30.245 318.171 30.3268C317.981 30.4087 317.769 30.4486 317.556 30.4428C317.356 30.4494 317.157 30.4137 316.976 30.3387C316.796 30.2638 316.64 30.1521 316.522 30.0134C316.3 29.7468 316.185 29.4255 316.196 29.0982C316.186 28.7486 316.309 28.4057 316.547 28.1209C316.666 27.9717 316.827 27.8506 317.015 27.7686C317.203 27.6867 317.412 27.6467 317.623 27.6522C317.825 27.6453 318.026 27.6814 318.208 27.7574C318.39 27.8334 318.547 27.9467 318.664 28.0873C318.892 28.3522 319.009 28.6745 318.997 29.0028ZM318.511 29.1204C318.518 28.8388 318.435 28.5609 318.271 28.3167C318.2 28.1984 318.093 28.0989 317.96 28.029C317.828 27.9591 317.676 27.9215 317.521 27.9202C317.383 27.9202 317.248 27.9538 317.133 28.0171C317.017 28.0804 316.925 28.1708 316.867 28.2774C316.731 28.4892 316.663 28.7279 316.67 28.9692C316.662 29.2533 316.747 29.5336 316.916 29.7786C316.987 29.897 317.094 29.9966 317.227 30.0664C317.359 30.1363 317.512 30.1739 317.668 30.1751C317.804 30.1751 317.938 30.1414 318.052 30.0779C318.167 30.0145 318.258 29.9241 318.314 29.8176C318.449 29.6037 318.517 29.3634 318.511 29.1204Z" fill="white"/>
<path d="M321.107 28.2939C321.064 28.2218 320.999 28.161 320.919 28.1179C320.838 28.0748 320.746 28.0509 320.651 28.0489C320.543 28.055 320.439 28.0854 320.349 28.1372C320.259 28.189 320.187 28.2603 320.14 28.3437C319.987 28.5708 319.913 28.8302 319.925 29.092V29.8679C319.925 30.1691 320.011 30.3328 320.183 30.359H319.217C319.393 30.3326 319.481 30.1689 319.481 29.8679V28.3778C319.494 28.2552 319.469 28.1319 319.408 28.0205C319.386 27.993 319.357 27.9711 319.322 27.957C319.287 27.943 319.248 27.9373 319.21 27.9407H319.148L319.924 27.6338V28.3383C319.992 28.1553 320.115 27.9908 320.281 27.8612C320.427 27.7313 320.628 27.6561 320.838 27.6519C320.932 27.6539 321.024 27.6749 321.107 27.7133V28.2939Z" fill="white"/>
<path d="M322.911 29.8106C322.809 30.2314 322.561 30.4417 322.166 30.4415C322.077 30.4438 321.988 30.4278 321.907 30.3949C321.826 30.362 321.756 30.3131 321.702 30.2522C321.575 30.0991 321.513 29.914 321.526 29.727V28.0135H321.145L321.97 27.126V27.7399H322.813V28.0135H321.97V29.6091C321.97 29.9477 322.095 30.1169 322.345 30.1167C322.461 30.1081 322.573 30.0757 322.672 30.0223C322.771 29.9689 322.853 29.896 322.911 29.8098" fill="white"/>
<path d="M325.783 30.3577H324.842C324.997 30.3352 325.076 30.1773 325.076 29.8828V28.6218C325.076 28.1862 324.891 27.9685 324.522 27.9687C324.415 27.9707 324.31 27.9908 324.212 28.028C324.114 28.0651 324.026 28.1185 323.953 28.185C323.87 28.2486 323.804 28.3261 323.759 28.4128C323.714 28.4994 323.69 28.5932 323.69 28.688V29.8828C323.69 30.1772 323.776 30.3355 323.949 30.3577H322.983C323.159 30.3314 323.247 30.1691 323.247 29.8709V27.3088C323.26 27.1612 323.233 27.0131 323.167 26.8761C323.14 26.8438 323.104 26.818 323.061 26.8013C323.019 26.7846 322.973 26.7776 322.926 26.7809H322.871L323.69 26.4629V28.1472C323.799 27.9976 323.954 27.8762 324.138 27.7956C324.315 27.7055 324.516 27.6557 324.722 27.6509C324.831 27.6461 324.94 27.6627 325.041 27.6994C325.141 27.7361 325.231 27.7919 325.303 27.8627C325.459 28.051 325.536 28.2797 325.519 28.5104V29.872C325.519 30.1698 325.607 30.3321 325.783 30.3588" fill="white"/>
<path d="M331.413 29.8829C331.283 30.2514 331.082 30.4357 330.81 30.4357C330.588 30.4357 330.229 30.2664 329.734 29.9278C329.384 30.2409 328.904 30.4234 328.398 30.4357C328.067 30.4494 327.742 30.3604 327.482 30.1852C327.366 30.1005 327.275 29.9943 327.215 29.8748C327.154 29.7552 327.127 29.6254 327.134 29.4954C327.135 29.2665 327.231 29.0454 327.405 28.8715C327.588 28.6961 327.799 28.5442 328.033 28.4207C327.749 28.1408 327.573 27.793 327.528 27.4246C327.523 27.3084 327.547 27.1926 327.598 27.0847C327.649 26.9768 327.726 26.8793 327.824 26.7986C327.922 26.7182 328.038 26.6552 328.164 26.6135C328.291 26.5717 328.427 26.5519 328.562 26.5552C328.82 26.548 329.072 26.617 329.277 26.7505C329.378 26.815 329.46 26.8996 329.515 26.997C329.569 27.0944 329.595 27.2017 329.591 27.3097C329.589 27.5476 329.484 27.7765 329.295 27.9517C329.099 28.1256 328.877 28.2779 328.637 28.4052C328.991 28.7783 329.383 29.1251 329.806 29.4418C329.979 29.2395 330.124 29.0204 330.237 28.789C330.346 28.5892 330.409 28.373 330.422 28.1527C330.427 28.0917 330.413 28.0308 330.382 27.9759C330.35 27.921 330.303 27.8742 330.243 27.84H331.179C330.975 27.9927 330.837 28.199 330.785 28.4263C330.63 28.8584 330.388 29.2643 330.071 29.6263C330.502 29.9239 330.824 30.0727 331.037 30.0727C331.112 30.0655 331.184 30.0449 331.249 30.0123C331.314 29.9797 331.37 29.9358 331.413 29.8834M329.461 29.7358C329.016 29.3977 328.604 29.0289 328.23 28.633C327.82 28.8803 327.614 29.1296 327.614 29.3807C327.613 29.4785 327.636 29.5755 327.682 29.6653C327.727 29.755 327.794 29.8355 327.879 29.9016C327.962 29.9713 328.06 30.0264 328.168 30.0635C328.275 30.1007 328.391 30.1192 328.507 30.1179C328.688 30.1118 328.866 30.0747 329.029 30.009C329.193 29.9433 329.34 29.8502 329.461 29.7352M329.172 27.3992C329.173 27.325 329.157 27.2513 329.125 27.1823C329.093 27.1134 329.045 27.0506 328.984 26.9976C328.925 26.9434 328.853 26.9004 328.773 26.8716C328.693 26.8427 328.606 26.8287 328.519 26.8302C328.442 26.8282 328.365 26.84 328.294 26.865C328.222 26.89 328.157 26.9275 328.104 26.9752C328.049 27.0252 328.007 27.084 327.979 27.1482C327.951 27.2124 327.938 27.2807 327.941 27.3492C328.01 27.6696 328.183 27.9671 328.439 28.2084C328.638 28.0996 328.82 27.9703 328.981 27.8233C329.102 27.7061 329.169 27.5555 329.171 27.3992" fill="white"/>
<path d="M337.846 26.6416C337.778 26.6539 337.714 26.6808 337.661 26.7198C337.49 26.8623 337.367 27.0415 337.304 27.2387L336.038 30.5131L334.988 27.801L333.905 30.5121L332.656 27.222C332.52 26.8686 332.346 26.6751 332.133 26.6416H333.297C333.186 26.6641 333.13 26.7481 333.13 26.8934C333.136 27.0039 333.16 27.1131 333.201 27.2179L334.022 29.3798L334.835 27.3704L334.781 27.1995C334.67 26.8611 334.512 26.6751 334.306 26.6416H335.402C335.283 26.664 335.224 26.7498 335.224 26.8982C335.232 27.0072 335.259 27.1144 335.304 27.2165L336.136 29.3662L336.971 27.1884C337.008 27.1024 337.029 27.0122 337.035 26.9207C337.033 26.7603 336.955 26.6686 336.8 26.6416H337.846Z" fill="white"/>
<path d="M340.339 29.6048C340.167 30.1637 339.798 30.4431 339.231 30.4431C339.043 30.4476 338.857 30.412 338.69 30.3397C338.522 30.2673 338.378 30.1605 338.271 30.0288C338.048 29.7542 337.936 29.4253 337.95 29.0915C337.935 28.726 338.057 28.3659 338.299 28.0639C338.397 27.9356 338.532 27.8306 338.691 27.7585C338.849 27.6865 339.027 27.6496 339.206 27.6514C339.375 27.6494 339.542 27.6874 339.688 27.7612C339.833 27.8351 339.952 27.9419 340.031 28.0698C340.216 28.355 340.311 28.6761 340.308 29.002H338.394C338.377 29.2932 338.482 29.58 338.69 29.8111C338.772 29.9009 338.877 29.9733 338.997 30.0227C339.117 30.0721 339.249 30.0972 339.382 30.0959C339.577 30.0889 339.766 30.0403 339.934 29.9545C340.101 29.8687 340.24 29.7485 340.339 29.6048ZM339.797 28.7732C339.804 28.571 339.756 28.3702 339.655 28.1872C339.617 28.1004 339.55 28.0254 339.461 27.9722C339.372 27.9191 339.267 27.8903 339.158 27.8897C339.043 27.8913 338.93 27.9191 338.832 27.9704C338.733 28.0218 338.653 28.0946 338.599 28.1815C338.469 28.3594 338.399 28.5638 338.394 28.7732H339.797Z" fill="white"/>
<path d="M342.358 29.6774C342.364 29.7821 342.342 29.8867 342.294 29.9832C342.246 30.0798 342.174 30.166 342.082 30.2355C341.87 30.3814 341.602 30.4551 341.33 30.4424C341.036 30.4554 340.746 30.3787 340.512 30.2261V29.4594C340.617 29.9433 340.902 30.1852 341.367 30.1852C341.498 30.1888 341.629 30.1597 341.742 30.1014C341.806 30.0712 341.859 30.0264 341.895 29.9721C341.931 29.9177 341.949 29.8559 341.946 29.7934C341.935 29.6988 341.896 29.6081 341.833 29.5301C341.769 29.4521 341.683 29.3894 341.583 29.348C341.357 29.233 341.131 29.1176 340.905 29.0018C340.794 28.9362 340.703 28.8487 340.64 28.7467C340.577 28.6447 340.543 28.5312 340.542 28.4158C340.539 28.3134 340.56 28.2114 340.606 28.1167C340.651 28.0219 340.72 27.9365 340.807 27.866C340.997 27.7184 341.247 27.6412 341.504 27.6513C341.752 27.6483 341.995 27.7106 342.2 27.8298V28.511C342.172 28.3311 342.071 28.1653 341.915 28.0421C341.79 27.9509 341.631 27.9013 341.466 27.9022C341.329 27.8987 341.194 27.9371 341.086 28.0104C341.036 28.0435 340.995 28.0863 340.968 28.1353C340.94 28.1843 340.927 28.2382 340.928 28.2925C340.924 28.3939 340.965 28.4928 341.044 28.5686C341.197 28.686 341.368 28.7849 341.553 28.8626C341.76 28.9526 341.954 29.0631 342.131 29.1919C342.205 29.256 342.263 29.3321 342.302 29.4157C342.342 29.4993 342.361 29.5887 342.358 29.6787" fill="white"/>
<path d="M344.204 29.8106C344.102 30.2314 343.854 30.4417 343.459 30.4415C343.37 30.4438 343.281 30.4278 343.2 30.3949C343.119 30.362 343.049 30.3131 342.995 30.2522C342.868 30.0992 342.806 29.914 342.819 29.727V28.0135H342.438L343.263 27.126V27.7399H344.106V28.0135H343.263V29.6091C343.263 29.9477 343.388 30.1169 343.638 30.1167C343.754 30.1081 343.866 30.0757 343.965 30.0223C344.064 29.9689 344.146 29.896 344.204 29.8098" fill="white"/>
<path d="M346.679 29.6048C346.507 30.1637 346.138 30.4431 345.571 30.4431C345.383 30.4476 345.197 30.4121 345.03 30.3398C344.862 30.2674 344.718 30.1606 344.611 30.0288C344.388 29.7543 344.276 29.4253 344.29 29.0915C344.275 28.726 344.397 28.3658 344.639 28.0639C344.737 27.9355 344.872 27.8304 345.031 27.7583C345.189 27.6863 345.367 27.6495 345.547 27.6514C345.716 27.6497 345.882 27.6878 346.027 27.7617C346.172 27.8355 346.291 27.9421 346.37 28.0698C346.555 28.3549 346.651 28.676 346.648 29.002H344.734C344.717 29.2932 344.822 29.5799 345.03 29.8111C345.112 29.9009 345.217 29.9733 345.337 30.0227C345.457 30.0721 345.589 30.0971 345.722 30.0959C345.917 30.0889 346.107 30.0403 346.274 29.9545C346.441 29.8687 346.58 29.7485 346.679 29.6048ZM346.138 28.7732C346.145 28.5709 346.096 28.3701 345.995 28.1872C345.957 28.1004 345.889 28.0254 345.801 27.9722C345.712 27.9191 345.607 27.8903 345.498 27.8897C345.383 27.8913 345.27 27.9193 345.172 27.9706C345.074 28.0219 344.993 28.0947 344.939 28.1815C344.81 28.3593 344.739 28.5638 344.734 28.7732H346.138Z" fill="white"/>
<path d="M348.705 28.2939C348.661 28.2218 348.596 28.161 348.516 28.1178C348.436 28.0747 348.344 28.0509 348.249 28.0489C348.141 28.055 348.037 28.0854 347.947 28.1372C347.857 28.189 347.785 28.2603 347.738 28.3437C347.585 28.5708 347.51 28.8302 347.522 29.092V29.8679C347.522 30.1691 347.609 30.3328 347.781 30.359H346.814C346.991 30.3326 347.079 30.1689 347.079 29.8679V28.3778C347.092 28.2552 347.066 28.1319 347.005 28.0205C346.984 27.993 346.954 27.971 346.92 27.957C346.885 27.9429 346.846 27.9373 346.808 27.9407H346.746L347.522 27.6338V28.3383C347.59 28.1554 347.713 27.991 347.879 27.8612C348.025 27.7312 348.226 27.656 348.437 27.6519C348.53 27.6539 348.622 27.675 348.705 27.7133V28.2939Z" fill="white"/>
<path d="M351.621 30.3584H350.667C350.826 30.3321 350.906 30.172 350.906 29.8781V28.6225C350.906 28.1869 350.724 27.9692 350.361 27.9694C350.254 27.9716 350.149 27.9919 350.051 28.029C349.953 28.0661 349.865 28.1194 349.792 28.1857C349.708 28.2488 349.642 28.3261 349.596 28.4126C349.55 28.4991 349.526 28.593 349.525 28.6879V29.8835C349.525 30.174 349.613 30.3323 349.79 30.3584H348.82C348.996 30.3321 349.084 30.1721 349.084 29.8784V28.4491C349.099 28.308 349.072 28.1659 349.006 28.0359C348.982 28.0051 348.949 27.9804 348.91 27.9646C348.871 27.9488 348.827 27.9425 348.784 27.9464H348.715L349.528 27.6338V28.1584C349.64 28.0064 349.797 27.8825 349.983 27.7993C350.16 27.7077 350.362 27.6567 350.568 27.6514C350.67 27.648 350.771 27.6632 350.866 27.6958C350.96 27.7284 351.045 27.7778 351.116 27.8407C351.295 28.0293 351.383 28.2688 351.363 28.5108V29.8724C351.363 30.1703 351.449 30.3325 351.621 30.3592" fill="white"/>
<path d="M314.914 34.3005L314.766 35.2438H312.174C312.363 35.214 312.457 35.028 312.457 34.6856V32.0453C312.457 31.7331 312.361 31.5601 312.168 31.5264H313.244C313.047 31.5565 312.949 31.7295 312.949 32.0453V34.966H313.954C314.168 34.978 314.38 34.9266 314.555 34.8205C314.721 34.6741 314.844 34.4958 314.914 34.3005Z" fill="white"/>
<path d="M317.819 35.0358L317.358 35.3481C317.233 35.3293 317.119 35.2755 317.034 35.1951C316.949 35.1233 316.892 35.0305 316.871 34.9298C316.791 35.0606 316.661 35.164 316.503 35.2227C316.331 35.2919 316.143 35.3272 315.952 35.326C315.741 35.3322 315.533 35.2739 315.367 35.1615C315.29 35.1073 315.229 35.0384 315.189 34.9605C315.148 34.8825 315.129 34.7976 315.133 34.7124C315.133 34.2546 315.696 33.914 316.821 33.6907V33.3999C316.821 32.9835 316.624 32.7752 316.232 32.7752C316.069 32.7665 315.908 32.8059 315.775 32.8869C315.725 32.9186 315.684 32.9599 315.656 33.0074C315.628 33.0549 315.614 33.1074 315.614 33.1606C315.614 33.298 315.665 33.3816 315.768 33.4116L315.27 33.5957C315.215 33.5003 315.187 33.3949 315.189 33.2885C315.189 33.1901 315.214 33.0929 315.264 33.004C315.313 32.9151 315.385 32.8367 315.474 32.7747C315.72 32.6067 316.028 32.5213 316.342 32.5348C316.471 32.5277 316.6 32.544 316.721 32.5824C316.842 32.6208 316.952 32.6807 317.044 32.7579C317.2 32.9147 317.279 33.1165 317.266 33.3218V34.5277C317.266 34.8738 317.418 35.0468 317.722 35.0466C317.755 35.046 317.788 35.0423 317.82 35.0355M316.822 34.5057V33.9194C316.005 34.0907 315.596 34.3288 315.597 34.6337C315.593 34.6913 315.605 34.7488 315.63 34.8023C315.655 34.8558 315.694 34.904 315.743 34.9436C315.844 35.0211 315.976 35.0622 316.111 35.0582C316.294 35.0592 316.471 35.0013 316.606 34.896C316.674 34.8488 316.728 34.7892 316.766 34.7217C316.803 34.6542 316.822 34.5804 316.822 34.5057Z" fill="white"/>
<path d="M320.513 35.2419H319.559C319.719 35.216 319.798 35.056 319.798 34.7619V33.5063C319.798 33.0711 319.617 32.8534 319.254 32.8532C319.147 32.8556 319.041 32.8761 318.944 32.9134C318.846 32.9508 318.758 33.0043 318.684 33.0709C318.601 33.1339 318.534 33.2112 318.488 33.2978C318.443 33.3843 318.419 33.4781 318.418 33.5731V34.7676C318.418 35.0577 318.506 35.2158 318.683 35.2419H317.713C317.889 35.216 317.977 35.056 317.977 34.7619V33.3332C317.991 33.1919 317.964 33.0498 317.897 32.92C317.874 32.8892 317.841 32.8646 317.802 32.8488C317.763 32.8329 317.72 32.8265 317.677 32.8302H317.609L318.422 32.5176V33.042C318.534 32.8903 318.69 32.7664 318.876 32.6828C319.053 32.5913 319.254 32.5403 319.461 32.5349C319.563 32.5315 319.664 32.5466 319.759 32.5793C319.853 32.6119 319.939 32.6613 320.009 32.7242C320.187 32.9128 320.275 33.1522 320.255 33.3941V34.7565C320.255 35.0538 320.341 35.2161 320.514 35.2433" fill="white"/>
<path d="M322.993 34.4795C322.94 34.723 322.798 34.9459 322.587 35.1158C322.414 35.2546 322.185 35.3306 321.948 35.3278C321.767 35.3348 321.587 35.304 321.422 35.2381C321.258 35.1721 321.116 35.0729 321.006 34.9492C320.79 34.6866 320.681 34.3703 320.697 34.0495C320.678 33.6588 320.817 33.2744 321.091 32.9612C321.204 32.8291 321.352 32.7218 321.523 32.6481C321.694 32.5744 321.883 32.5365 322.075 32.5375C322.188 32.5344 322.3 32.5508 322.405 32.5858C322.511 32.6207 322.607 32.6735 322.688 32.7408C322.856 32.8898 322.95 33.0891 322.949 33.2963L322.464 33.4913C322.481 33.433 322.49 33.373 322.489 33.3128C322.493 33.2475 322.481 33.1822 322.454 33.1208C322.428 33.0594 322.387 33.0032 322.335 32.9556C322.286 32.9119 322.226 32.8775 322.161 32.8545C322.095 32.8315 322.024 32.8204 321.953 32.822C321.833 32.8215 321.714 32.8481 321.609 32.899C321.505 32.9499 321.417 33.0234 321.356 33.1121C321.194 33.3363 321.115 33.5968 321.128 33.8599C321.118 34.1365 321.201 34.4097 321.368 34.6469C321.439 34.7558 321.542 34.8464 321.668 34.9093C321.794 34.9722 321.937 35.0049 322.082 35.0041C322.274 34.9903 322.458 34.9348 322.618 34.843C322.777 34.7511 322.906 34.626 322.993 34.4795Z" fill="white"/>
<path d="M325.889 35.0348L325.428 35.3472C325.303 35.3284 325.189 35.2745 325.104 35.1941C325.019 35.1222 324.962 35.0295 324.941 34.9288C324.862 35.0596 324.732 35.1631 324.573 35.2217C324.401 35.291 324.213 35.3263 324.022 35.325C323.811 35.3312 323.604 35.2729 323.438 35.1606C323.361 35.1063 323.299 35.0375 323.259 34.9595C323.218 34.8816 323.199 34.7966 323.204 34.7114C323.204 34.2536 323.766 33.9131 324.891 33.6897V33.399C324.891 32.9825 324.695 32.7743 324.303 32.7743C324.14 32.7655 323.978 32.8049 323.845 32.886C323.795 32.9177 323.755 32.959 323.727 33.0065C323.699 33.054 323.684 33.1065 323.684 33.1596C323.684 33.297 323.736 33.3807 323.839 33.4106L323.34 33.5948C323.285 33.4993 323.257 33.394 323.259 33.2876C323.259 33.1892 323.284 33.0919 323.334 33.003C323.383 32.9141 323.455 32.8358 323.544 32.7737C323.79 32.6058 324.098 32.5204 324.412 32.5339C324.541 32.5268 324.67 32.543 324.791 32.5814C324.912 32.6199 325.022 32.6797 325.114 32.757C325.27 32.9137 325.349 33.1155 325.335 33.3208V34.5267C325.335 34.8728 325.487 35.0458 325.791 35.0456C325.824 35.0451 325.857 35.0416 325.889 35.0348ZM324.892 34.5048V33.9185C324.075 34.0898 323.667 34.3278 323.667 34.6327C323.664 34.6903 323.675 34.7478 323.701 34.8013C323.726 34.8548 323.764 34.903 323.813 34.9426C323.914 35.0202 324.046 35.0613 324.182 35.0573C324.365 35.0582 324.541 35.0003 324.677 34.895C324.744 34.8478 324.799 34.7883 324.836 34.7207C324.873 34.6532 324.892 34.5794 324.892 34.5048Z" fill="white"/>
<path d="M327.651 34.5621C327.657 34.6669 327.635 34.7714 327.587 34.868C327.539 34.9646 327.467 35.0508 327.375 35.1203C327.163 35.2661 326.895 35.3398 326.623 35.3272C326.329 35.3403 326.039 35.2636 325.805 35.1109V34.3447C325.91 34.8282 326.195 35.07 326.659 35.07C326.792 35.0738 326.922 35.0449 327.036 34.9867C327.1 34.9562 327.152 34.9113 327.188 34.8569C327.224 34.8024 327.242 34.7406 327.239 34.6782C327.228 34.5835 327.189 34.4929 327.126 34.4149C327.062 34.3369 326.976 34.2742 326.876 34.2328C326.65 34.1177 326.424 34.0023 326.198 33.8866C326.087 33.8211 325.996 33.7337 325.933 33.6318C325.87 33.5298 325.836 33.4164 325.835 33.3011C325.831 33.1986 325.853 33.0965 325.899 33.0017C325.944 32.9068 326.013 32.8213 326.1 32.7508C326.29 32.6031 326.54 32.5259 326.797 32.536C327.045 32.5333 327.288 32.5956 327.493 32.7145V33.3958C327.465 33.216 327.364 33.0502 327.208 32.9268C327.083 32.8357 326.923 32.7861 326.759 32.7873C326.621 32.7839 326.486 32.8222 326.379 32.8955C326.328 32.9286 326.288 32.9714 326.26 33.0204C326.233 33.0694 326.219 33.1232 326.22 33.1775C326.216 33.279 326.258 33.378 326.337 33.4536C326.49 33.5709 326.661 33.6697 326.845 33.7473C327.053 33.8371 327.247 33.9477 327.424 34.0767C327.498 34.1407 327.556 34.2168 327.595 34.3004C327.634 34.384 327.654 34.4735 327.651 34.5635" fill="white"/>
<path d="M330.615 35.2444H329.673C329.829 35.2224 329.907 35.0643 329.907 34.7701V33.5085C329.907 33.0733 329.723 32.8556 329.354 32.8554C329.247 32.8576 329.142 32.878 329.044 32.9154C328.946 32.9528 328.858 33.0064 328.785 33.0731C328.702 33.1365 328.636 33.2138 328.591 33.3002C328.546 33.3866 328.522 33.4801 328.522 33.5747V34.7701C328.522 35.0639 328.608 35.2221 328.78 35.2444H327.814C327.991 35.2184 328.079 35.0562 328.079 34.7576V32.1955C328.092 32.0479 328.064 31.8997 327.999 31.7628C327.972 31.7306 327.935 31.7048 327.893 31.6881C327.851 31.6714 327.805 31.6644 327.759 31.6676H327.703L328.522 31.3496V33.0339C328.631 32.8844 328.786 32.763 328.97 32.6823C329.147 32.5923 329.348 32.5424 329.554 32.5374C329.663 32.5327 329.772 32.5494 329.873 32.5861C329.973 32.6229 330.063 32.6787 330.134 32.7494C330.291 32.9377 330.368 33.1664 330.351 33.3971V34.759C330.351 35.0563 330.439 35.2185 330.615 35.2458" fill="white"/>
<path d="M331.767 35.2436H330.756C330.941 35.2177 331.033 35.0554 331.033 34.7569V33.2776C331.033 32.9803 330.936 32.8315 330.744 32.8314H330.676L331.489 32.5196V34.7582C331.489 35.0555 331.581 35.2178 331.766 35.245M331.557 31.7745C331.559 31.855 331.526 31.9334 331.464 31.9941C331.433 32.0244 331.394 32.0483 331.35 32.0639C331.306 32.0796 331.259 32.0866 331.211 32.0844C331.164 32.0864 331.116 32.0794 331.073 32.0637C331.029 32.0481 330.99 32.0243 330.958 31.9941C330.896 31.9333 330.863 31.855 330.866 31.7745C330.863 31.695 330.896 31.6177 330.958 31.5582C330.99 31.5288 331.03 31.5058 331.073 31.4908C331.117 31.4758 331.164 31.469 331.211 31.4711C331.258 31.469 331.305 31.4757 331.349 31.4907C331.393 31.5058 331.432 31.5288 331.464 31.5582C331.526 31.6176 331.559 31.695 331.557 31.7745Z" fill="white"/>
<path d="M333.794 33.1764C333.751 33.1042 333.686 33.0434 333.605 33.0003C333.525 32.9571 333.433 32.9333 333.338 32.9313C333.23 32.9374 333.126 32.9679 333.036 33.0197C332.946 33.0715 332.874 33.1428 332.828 33.2261C332.675 33.4533 332.6 33.7126 332.612 33.9744V34.7503C332.612 35.0516 332.698 35.2153 332.871 35.2414H331.904C332.08 35.2151 332.169 35.0514 332.169 34.7503V33.2602C332.181 33.1376 332.156 33.0144 332.095 32.9029C332.073 32.8755 332.044 32.8536 332.009 32.8395C331.974 32.8254 331.935 32.8198 331.897 32.8232H331.836L332.612 32.5176V33.2207C332.68 33.0378 332.803 32.8733 332.969 32.7437C333.115 32.6137 333.315 32.5384 333.526 32.5343C333.62 32.5364 333.711 32.5574 333.794 32.5957V33.1764Z" fill="white"/>
<path d="M336.324 34.4889C336.152 35.0477 335.782 35.3272 335.215 35.3272C335.028 35.3316 334.842 35.2961 334.674 35.2238C334.506 35.1516 334.362 35.0448 334.255 34.9132C334.033 34.6388 333.92 34.3103 333.935 33.9769C333.92 33.6114 334.042 33.2513 334.283 32.9493C334.382 32.8207 334.516 32.7155 334.675 32.6431C334.833 32.5707 335.011 32.5336 335.19 32.5352C335.36 32.5332 335.527 32.5713 335.672 32.6453C335.818 32.7192 335.937 32.8261 336.016 32.9541C336.2 33.2392 336.296 33.5602 336.293 33.8861H334.378C334.362 34.1773 334.467 34.4641 334.675 34.6952C334.757 34.785 334.861 34.8574 334.981 34.9068C335.101 34.9562 335.233 34.9812 335.366 34.98C335.561 34.973 335.751 34.9244 335.918 34.8386C336.085 34.7528 336.225 34.6325 336.324 34.4889ZM335.782 33.6573C335.789 33.4551 335.74 33.2543 335.639 33.0712C335.602 32.9844 335.534 32.9094 335.445 32.8563C335.357 32.8031 335.251 32.7743 335.143 32.7738C335.027 32.7753 334.915 32.8032 334.816 32.8545C334.718 32.9058 334.637 32.9787 334.583 33.0656C334.454 33.2435 334.383 33.4479 334.378 33.6573H335.782Z" fill="white"/>
<path d="M315.543 39.676C315.382 39.8496 315.175 39.9888 314.94 40.0826C314.705 40.1765 314.448 40.2224 314.188 40.2168C313.9 40.2279 313.612 40.1812 313.348 40.0804C313.084 39.9796 312.852 39.8275 312.669 39.6362C312.328 39.271 312.151 38.8142 312.169 38.3476C312.153 37.8444 312.345 37.3524 312.711 36.9578C312.906 36.7504 313.156 36.5849 313.439 36.4744C313.723 36.3639 314.033 36.3116 314.344 36.3215C314.73 36.3161 315.11 36.399 315.446 36.5614V37.3708C315.375 37.1448 315.215 36.9467 314.992 36.8102C314.77 36.6736 314.499 36.607 314.225 36.6217C314.002 36.6169 313.781 36.6605 313.583 36.7486C313.385 36.8367 313.216 36.9663 313.093 37.1252C312.83 37.451 312.696 37.8403 312.711 38.2359C312.697 38.6416 312.835 39.0405 313.105 39.3744C313.235 39.539 313.411 39.6729 313.618 39.7637C313.825 39.8545 314.055 39.8993 314.288 39.8939C314.535 39.8873 314.778 39.8313 314.996 39.7305C315.214 39.6296 315.401 39.4867 315.543 39.3131V39.676Z" fill="white"/>
<path d="M318.514 40.1262H317.572C317.727 40.1038 317.806 39.9459 317.806 39.6519V38.3903C317.806 37.9551 317.622 37.7374 317.253 37.7372C317.146 37.7394 317.04 37.7598 316.942 37.7972C316.845 37.8346 316.756 37.8882 316.683 37.9549C316.601 38.0183 316.535 38.0957 316.49 38.182C316.445 38.2684 316.421 38.362 316.421 38.4566V39.6519C316.421 39.9458 316.507 40.1039 316.679 40.1262H315.713C315.889 40.1003 315.977 39.938 315.978 39.6395V37.0774C315.991 36.9298 315.963 36.7816 315.897 36.6447C315.87 36.6124 315.834 36.5866 315.792 36.57C315.75 36.5533 315.703 36.5463 315.657 36.5497H315.602L316.42 36.2314V37.9157C316.53 37.7661 316.685 37.6446 316.869 37.5641C317.045 37.4741 317.246 37.4243 317.452 37.4195C317.561 37.4147 317.671 37.4313 317.771 37.468C317.872 37.5047 317.961 37.5605 318.033 37.6312C318.19 37.8196 318.266 38.0482 318.249 38.2789V39.6408C318.249 39.9381 318.337 40.1004 318.514 40.1276" fill="white"/>
<path d="M321.436 39.9203L320.975 40.2326C320.85 40.2136 320.736 40.1598 320.651 40.0796C320.566 40.0077 320.509 39.915 320.488 39.8143C320.408 39.9451 320.279 40.0485 320.12 40.1072C319.948 40.1764 319.76 40.2117 319.569 40.2105C319.358 40.2169 319.15 40.1585 318.985 40.046C318.908 39.9917 318.846 39.9229 318.806 39.845C318.765 39.767 318.746 39.6821 318.751 39.5969C318.751 39.1387 319.313 38.7982 320.438 38.5752V38.2844C320.438 37.868 320.242 37.6595 319.85 37.6592C319.687 37.6504 319.525 37.69 319.392 37.7714C319.342 37.8031 319.301 37.8443 319.274 37.8918C319.246 37.9393 319.231 37.9917 319.231 38.0448C319.231 38.1827 319.282 38.2665 319.385 38.2961L318.887 38.4802C318.832 38.3848 318.804 38.2794 318.807 38.173C318.806 38.0746 318.832 37.9774 318.881 37.8885C318.93 37.7996 319.002 37.7213 319.092 37.6592C319.337 37.4913 319.646 37.406 319.959 37.4196C320.088 37.4125 320.217 37.4287 320.338 37.4672C320.459 37.5056 320.569 37.5654 320.662 37.6427C320.817 37.7994 320.896 38.0011 320.883 38.2063V39.4121C320.883 39.7583 321.035 39.9313 321.339 39.9311C321.372 39.9305 321.405 39.9268 321.437 39.92M320.439 39.39V38.8039C319.622 38.9752 319.214 39.2133 319.214 39.5182C319.211 39.5758 319.222 39.6333 319.247 39.6868C319.273 39.7403 319.311 39.7885 319.36 39.8281C319.461 39.9054 319.593 39.9464 319.729 39.9422C319.912 39.9431 320.088 39.8852 320.223 39.7799C320.291 39.7327 320.346 39.6732 320.383 39.6058C320.42 39.5383 320.439 39.4646 320.439 39.39Z" fill="white"/>
<path d="M325.75 40.1274H324.802C324.966 40.1014 325.048 39.9392 325.048 39.6406V38.4358C325.048 37.9709 324.883 37.7384 324.553 37.7384C324.45 37.7391 324.347 37.7586 324.253 37.7956C324.158 37.8326 324.074 37.8863 324.006 37.9531C323.852 38.0862 323.767 38.2661 323.768 38.4531V39.6431C323.768 39.9404 323.852 40.1026 324.021 40.1298H323.078C323.242 40.1039 323.324 39.9416 323.324 39.6431V38.4358C323.324 37.9709 323.159 37.7384 322.83 37.7384C322.726 37.7395 322.624 37.7592 322.53 37.7962C322.436 37.8332 322.353 37.8867 322.284 37.9531C322.208 38.0187 322.147 38.0967 322.105 38.1825C322.064 38.2683 322.043 38.3603 322.044 38.4531V39.6431C322.044 39.9404 322.126 40.1026 322.29 40.1298H321.324C321.5 40.1023 321.588 39.9413 321.588 39.6471V38.2184C321.601 38.0776 321.576 37.9361 321.514 37.8052C321.489 37.7744 321.454 37.7499 321.414 37.7342C321.374 37.7184 321.33 37.7119 321.287 37.7154H321.219L322.044 37.4033V37.928C322.152 37.7697 322.309 37.6401 322.498 37.5531C322.664 37.4691 322.852 37.4233 323.044 37.4204C323.205 37.4165 323.361 37.4654 323.48 37.5569C323.604 37.6546 323.685 37.7856 323.709 37.928C323.814 37.7811 323.96 37.6584 324.134 37.5707C324.317 37.4748 324.527 37.4229 324.742 37.4204C324.856 37.4177 324.969 37.4411 325.069 37.4881C325.169 37.5352 325.253 37.6042 325.312 37.6881C325.441 37.8834 325.503 38.106 325.49 38.3301V39.6417C325.49 39.939 325.576 40.1013 325.749 40.1285" fill="white"/>
<path d="M328.644 38.7021C328.657 39.0717 328.532 39.4353 328.288 39.7405C328.182 39.8832 328.036 40.0006 327.862 40.0815C327.689 40.1625 327.494 40.2044 327.297 40.2033C327.096 40.209 326.895 40.1824 326.706 40.1248C326.621 40.0912 326.532 40.065 326.441 40.0467C326.355 40.0467 326.267 40.0989 326.176 40.2033V37.0613C326.19 36.9104 326.16 36.7589 326.09 36.62C326.064 36.5882 326.029 36.5627 325.988 36.5461C325.947 36.5295 325.901 36.5224 325.856 36.5253H325.801L326.638 36.2295V37.8986C326.739 37.7554 326.881 37.6364 327.051 37.553C327.211 37.4671 327.397 37.4204 327.586 37.4178C327.737 37.4165 327.885 37.4472 328.019 37.5073C328.152 37.5674 328.266 37.6548 328.35 37.7618C328.563 38.0403 328.666 38.3698 328.644 38.7021ZM328.164 38.8194C328.174 38.563 328.111 38.3082 327.981 38.0768C327.936 37.9794 327.858 37.8957 327.757 37.8362C327.656 37.7767 327.537 37.744 327.414 37.7423C327.308 37.7439 327.204 37.766 327.11 37.8071C327.016 37.8482 326.934 37.9072 326.871 37.9795C326.722 38.1255 326.639 38.3128 326.639 38.5068V39.4558C326.639 39.776 326.86 39.936 327.304 39.9358C327.437 39.9333 327.566 39.8997 327.678 39.8387C327.79 39.7776 327.88 39.6915 327.939 39.5896C328.096 39.3557 328.175 39.0891 328.165 38.8194" fill="white"/>
<path d="M331.273 39.3724C331.1 39.9313 330.731 40.2107 330.165 40.2107C329.977 40.2151 329.791 40.1796 329.623 40.1073C329.456 40.0349 329.312 39.9281 329.204 39.7964C328.982 39.5216 328.869 39.1925 328.884 38.8586C328.869 38.493 328.991 38.1329 329.232 37.8309C329.331 37.7028 329.466 37.5979 329.624 37.526C329.783 37.454 329.96 37.4172 330.14 37.419C330.309 37.4169 330.476 37.4548 330.622 37.5287C330.767 37.6025 330.886 37.7094 330.965 37.8374C331.15 38.1226 331.245 38.4437 331.242 38.7696H329.328C329.311 39.0608 329.416 39.3476 329.624 39.5787C329.706 39.6685 329.811 39.7409 329.931 39.7903C330.051 39.8397 330.182 39.8647 330.315 39.8635C330.51 39.8566 330.7 39.808 330.867 39.7222C331.035 39.6364 331.174 39.5161 331.273 39.3724ZM330.731 38.5408C330.739 38.3385 330.69 38.1377 330.588 37.9548C330.551 37.868 330.483 37.7931 330.394 37.7399C330.306 37.6868 330.2 37.658 330.092 37.6573C329.977 37.659 329.864 37.6869 329.766 37.7382C329.667 37.7895 329.587 37.8623 329.532 37.9491C329.403 38.127 329.332 38.3314 329.328 38.5408H330.731Z" fill="white"/>
<path d="M333.29 38.0605C333.247 37.9884 333.182 37.9276 333.102 37.8844C333.022 37.8413 332.93 37.8175 332.835 37.8155C332.727 37.8215 332.622 37.852 332.532 37.9039C332.443 37.9558 332.371 38.0272 332.324 38.1108C332.171 38.3378 332.096 38.597 332.108 38.8586V39.6345C332.108 39.9357 332.195 40.0994 332.367 40.1256H331.4C331.577 40.0996 331.665 39.9359 331.665 39.6345V38.1444C331.677 38.0218 331.652 37.8987 331.591 37.7871C331.57 37.7597 331.54 37.7378 331.505 37.7237C331.471 37.7096 331.432 37.704 331.393 37.7073H331.332L332.108 37.4004V38.1049C332.176 37.922 332.299 37.7576 332.465 37.6278C332.611 37.4979 332.812 37.4227 333.023 37.4188C333.116 37.4206 333.208 37.4417 333.29 37.4802V38.0605Z" fill="white"/>
<path d="M337.411 38.7694C337.422 39.1172 337.298 39.4584 337.06 39.7408C336.939 39.8903 336.776 40.0116 336.585 40.0934C336.395 40.1753 336.183 40.2152 335.97 40.2094C335.77 40.216 335.571 40.1802 335.39 40.1052C335.21 40.0302 335.054 39.9183 334.936 39.7794C334.714 39.513 334.599 39.1919 334.61 38.8648C334.6 38.5152 334.723 38.1723 334.961 37.8875C335.08 37.7383 335.241 37.6172 335.429 37.5352C335.617 37.4533 335.826 37.4133 336.037 37.4188C336.24 37.4119 336.441 37.448 336.623 37.524C336.804 37.5999 336.961 37.7133 337.079 37.8539C337.306 38.1189 337.423 38.4411 337.411 38.7694ZM336.925 38.8867C336.932 38.6051 336.849 38.3271 336.685 38.0827C336.614 37.9645 336.507 37.8651 336.374 37.7953C336.242 37.7255 336.09 37.6878 335.935 37.6865C335.797 37.6866 335.662 37.7203 335.547 37.7836C335.431 37.847 335.339 37.9373 335.281 38.044C335.145 38.2558 335.077 38.4944 335.084 38.7358C335.076 39.02 335.162 39.3003 335.331 39.5452C335.401 39.6636 335.509 39.7631 335.641 39.833C335.774 39.9029 335.926 39.9405 336.082 39.9417C336.218 39.9417 336.352 39.908 336.467 39.8445C336.581 39.7811 336.672 39.6907 336.728 39.5842C336.863 39.3701 336.931 39.1298 336.925 38.8867Z" fill="white"/>
<path d="M339.233 37.7819H338.494V39.6182C338.494 39.9308 338.582 40.1001 338.759 40.126H337.779C337.96 40.1001 338.05 39.9308 338.05 39.6182V37.7819H337.539V37.5074H338.05V37.3854C338.033 37.1006 338.116 36.8178 338.29 36.5741C338.361 36.4799 338.46 36.4031 338.576 36.351C338.693 36.2989 338.823 36.2733 338.955 36.2767C339.048 36.2756 339.141 36.2847 339.231 36.3037V36.8005C339.197 36.7316 339.14 36.673 339.067 36.6322C338.993 36.5914 338.907 36.5703 338.82 36.5717C338.6 36.5717 338.491 36.7652 338.491 37.1521V37.5074H339.233V37.7819Z" fill="white"/>
<path d="M343.946 39.676C343.784 39.8496 343.578 39.9888 343.343 40.0826C343.108 40.1765 342.851 40.2224 342.591 40.2168C342.302 40.2278 342.015 40.1811 341.751 40.0803C341.487 39.9795 341.254 39.8274 341.071 39.6362C340.731 39.271 340.554 38.8142 340.572 38.3476C340.556 37.8444 340.748 37.3525 341.114 36.9578C341.309 36.7505 341.558 36.5849 341.842 36.4745C342.125 36.364 342.435 36.3116 342.747 36.3215C343.132 36.3162 343.513 36.399 343.848 36.5614V37.3708C343.777 37.1448 343.617 36.9467 343.395 36.8102C343.172 36.6736 342.901 36.607 342.628 36.6217C342.405 36.6169 342.184 36.6606 341.986 36.7487C341.788 36.8367 341.619 36.9663 341.496 37.1252C341.232 37.4509 341.098 37.8403 341.114 38.2359C341.099 38.6416 341.237 39.0406 341.508 39.3744C341.638 39.539 341.814 39.6728 342.021 39.7636C342.228 39.8544 342.458 39.8992 342.69 39.8939C342.938 39.8873 343.181 39.8313 343.398 39.7304C343.616 39.6296 343.804 39.4867 343.946 39.313V39.676Z" fill="white"/>
<path d="M346.962 38.7694C346.972 39.1172 346.849 39.4584 346.611 39.7408C346.49 39.8903 346.326 40.0116 346.136 40.0934C345.946 40.1753 345.734 40.2152 345.521 40.2094C345.321 40.216 345.122 40.1802 344.941 40.1052C344.761 40.0302 344.605 39.9183 344.487 39.7794C344.265 39.5131 344.15 39.1919 344.161 38.8648C344.151 38.5152 344.274 38.1724 344.512 37.8875C344.63 37.7383 344.791 37.6171 344.979 37.5352C345.168 37.4533 345.377 37.4133 345.588 37.4188C345.79 37.4119 345.991 37.448 346.173 37.5239C346.355 37.5999 346.512 37.7133 346.63 37.8539C346.857 38.1189 346.974 38.4411 346.962 38.7694ZM346.476 38.8867C346.483 38.605 346.4 38.3271 346.235 38.0827C346.165 37.9646 346.057 37.8652 345.925 37.7953C345.793 37.7255 345.641 37.6879 345.485 37.6865C345.348 37.6866 345.213 37.7203 345.097 37.7836C344.982 37.847 344.889 37.9374 344.832 38.0441C344.696 38.2558 344.628 38.4945 344.635 38.7358C344.627 39.02 344.713 39.3003 344.881 39.5452C344.952 39.6635 345.06 39.763 345.192 39.8329C345.324 39.9028 345.476 39.9404 345.632 39.9417C345.768 39.9418 345.902 39.9081 346.017 39.8446C346.132 39.7812 346.223 39.6907 346.279 39.5842C346.414 39.3701 346.482 39.1298 346.476 38.8867Z" fill="white"/>
<path d="M351.621 40.1274H350.671C350.835 40.1014 350.918 39.9392 350.918 39.6406V38.4358C350.918 37.9709 350.753 37.7384 350.423 37.7384C350.319 37.7391 350.217 37.7586 350.123 37.7956C350.028 37.8326 349.944 37.8863 349.876 37.9531C349.8 38.0189 349.739 38.097 349.698 38.1828C349.657 38.2686 349.637 38.3605 349.637 38.4531V39.6431C349.637 39.9404 349.722 40.1026 349.891 40.1298H348.95C349.113 40.1039 349.195 39.9416 349.196 39.6431V38.4358C349.196 37.9709 349.031 37.7384 348.701 37.7384C348.597 37.7396 348.495 37.7593 348.401 37.7963C348.307 37.8333 348.224 37.8867 348.155 37.9531C348.079 38.0187 348.018 38.0967 347.976 38.1825C347.935 38.2683 347.914 38.3603 347.915 38.4531V39.6431C347.915 39.9404 347.997 40.1026 348.161 40.1298H347.195C347.371 40.1023 347.459 39.9413 347.459 39.6471V38.2184C347.472 38.0777 347.447 37.9362 347.386 37.8052C347.36 37.7744 347.326 37.7498 347.286 37.7341C347.246 37.7183 347.202 37.7118 347.158 37.7154H347.09L347.915 37.4033V37.928C348.023 37.7697 348.181 37.6401 348.37 37.5531C348.535 37.4691 348.723 37.4233 348.915 37.4204C349.076 37.4166 349.232 37.4655 349.352 37.5569C349.475 37.6546 349.556 37.7856 349.58 37.928C349.685 37.7811 349.831 37.6584 350.005 37.5707C350.188 37.4748 350.398 37.4229 350.613 37.4204C350.727 37.4177 350.84 37.4412 350.94 37.4882C351.04 37.5353 351.124 37.6043 351.183 37.6881C351.312 37.8834 351.374 38.106 351.361 38.3301V39.6417C351.361 39.939 351.447 40.1013 351.62 40.1285" fill="white"/>
<path d="M356.219 40.1272H355.271C355.435 40.1013 355.517 39.939 355.517 39.6405V38.4357C355.517 37.9707 355.352 37.7382 355.022 37.7382C354.918 37.7389 354.816 37.7584 354.721 37.7954C354.627 37.8324 354.543 37.8861 354.474 37.9529C354.321 38.0861 354.235 38.2659 354.236 38.453V39.6429C354.236 39.9402 354.321 40.1025 354.49 40.1297H353.547C353.711 40.1037 353.793 39.9415 353.793 39.6429V38.4357C353.793 37.9707 353.628 37.7382 353.298 37.7382C353.195 37.7394 353.093 37.7591 352.999 37.7961C352.905 37.8331 352.821 37.8865 352.753 37.9529C352.676 38.0185 352.615 38.0964 352.573 38.1823C352.532 38.2681 352.511 38.3601 352.512 38.453V39.6429C352.512 39.9402 352.594 40.1025 352.758 40.1297H351.792C351.968 40.1021 352.056 39.9412 352.056 39.647V38.2182C352.07 38.0775 352.044 37.9359 351.982 37.805C351.957 37.7744 351.923 37.7499 351.883 37.7342C351.843 37.7184 351.799 37.7119 351.755 37.7152H351.688L352.513 37.4023V37.927C352.621 37.769 352.778 37.6395 352.967 37.553C353.132 37.4689 353.32 37.4231 353.513 37.4202C353.673 37.4163 353.83 37.4651 353.95 37.5568C354.073 37.6547 354.153 37.7856 354.178 37.9278C354.283 37.7809 354.428 37.6582 354.602 37.5706C354.785 37.4746 354.995 37.4227 355.211 37.4202C355.325 37.4176 355.438 37.441 355.538 37.4881C355.638 37.5351 355.722 37.6041 355.78 37.6879C355.91 37.8833 355.971 38.1058 355.959 38.3299V39.6415C355.959 39.9388 356.045 40.1011 356.217 40.1283" fill="white"/>
<path d="M358.804 39.3724C358.631 39.9313 358.262 40.2107 357.696 40.2107C357.508 40.2151 357.322 40.1795 357.154 40.1072C356.986 40.0349 356.842 39.9281 356.735 39.7964C356.513 39.5215 356.401 39.1925 356.415 38.8585C356.4 38.493 356.522 38.1329 356.764 37.8309C356.862 37.7027 356.997 37.5978 357.156 37.5258C357.314 37.4538 357.491 37.4171 357.671 37.419C357.84 37.417 358.007 37.455 358.153 37.5288C358.298 37.6027 358.417 37.7094 358.496 37.8374C358.681 38.1225 358.776 38.4436 358.773 38.7696H356.858C356.842 39.0607 356.947 39.3474 357.154 39.5787C357.236 39.6685 357.341 39.7409 357.461 39.7903C357.581 39.8397 357.713 39.8647 357.846 39.8635C358.041 39.8566 358.231 39.808 358.398 39.7222C358.566 39.6364 358.705 39.5161 358.804 39.3724ZM358.262 38.5408C358.269 38.3386 358.22 38.1378 358.12 37.9548C358.082 37.868 358.014 37.7931 357.925 37.7399C357.836 37.6868 357.731 37.658 357.623 37.6573C357.507 37.659 357.395 37.6869 357.296 37.7382C357.198 37.7895 357.118 37.8623 357.063 37.9491C356.934 38.1271 356.863 38.3314 356.858 38.5408H358.262Z" fill="white"/>
<path d="M360.831 38.0621C360.788 37.99 360.723 37.9291 360.643 37.886C360.563 37.8428 360.471 37.819 360.376 37.8171C360.268 37.8231 360.163 37.8536 360.074 37.9055C359.984 37.9574 359.912 38.0288 359.865 38.1124C359.713 38.3394 359.638 38.5986 359.65 38.8602V39.636C359.65 39.9373 359.735 40.1014 359.909 40.1271H358.941C359.118 40.1012 359.206 39.9375 359.206 39.636V38.1459C359.219 38.0234 359.193 37.9002 359.132 37.7887C359.111 37.7612 359.081 37.7393 359.046 37.7252C359.012 37.7111 358.973 37.7055 358.934 37.7089H358.871L359.65 37.4033V38.1065C359.718 37.9236 359.84 37.7592 360.005 37.6294C360.152 37.4995 360.353 37.4244 360.564 37.4204C360.657 37.4222 360.749 37.4432 360.831 37.4817V38.0621Z" fill="white"/>
<path d="M363.278 39.3613C363.225 39.6048 363.083 39.8276 362.872 39.9976C362.699 40.1367 362.47 40.2128 362.232 40.2096C362.051 40.2166 361.87 40.1858 361.706 40.1198C361.542 40.0538 361.399 39.9547 361.29 39.831C361.074 39.5683 360.966 39.252 360.982 38.9313C360.963 38.5406 361.102 38.1561 361.376 37.8431C361.489 37.7109 361.637 37.6035 361.808 37.5299C361.979 37.4562 362.169 37.4183 362.36 37.4193C362.473 37.4163 362.586 37.4328 362.691 37.4678C362.796 37.5028 362.892 37.5555 362.973 37.6229C363.141 37.7719 363.235 37.9711 363.234 38.1781L362.749 38.3731C362.766 38.3148 362.775 38.2548 362.774 38.1946C362.777 38.1294 362.766 38.0641 362.739 38.0028C362.713 37.9414 362.672 37.8852 362.62 37.8374C362.571 37.7938 362.511 37.7595 362.446 37.7365C362.38 37.7135 362.309 37.7024 362.238 37.7038C362.118 37.7035 361.999 37.7301 361.894 37.781C361.79 37.8319 361.702 37.9053 361.641 37.994C361.479 38.2181 361.4 38.4786 361.413 38.7417C361.403 39.0183 361.486 39.2914 361.653 39.5287C361.724 39.6376 361.827 39.7283 361.953 39.7912C362.079 39.854 362.222 39.8868 362.368 39.8859C362.559 39.8721 362.743 39.8166 362.903 39.7248C363.062 39.633 363.191 39.5078 363.278 39.3613Z" fill="white"/>
<path d="M365.843 39.3724C365.671 39.9313 365.301 40.2107 364.735 40.2107C364.547 40.2151 364.361 40.1796 364.193 40.1072C364.026 40.0349 363.882 39.9281 363.775 39.7964C363.552 39.5216 363.44 39.1925 363.454 38.8585C363.439 38.493 363.561 38.1329 363.803 37.8309C363.901 37.7027 364.036 37.5978 364.195 37.5258C364.354 37.4538 364.531 37.4171 364.711 37.419C364.88 37.4173 365.046 37.4554 365.191 37.5292C365.336 37.6031 365.455 37.7097 365.534 37.8374C365.719 38.1225 365.815 38.4435 365.812 38.7696H363.898C363.881 39.0609 363.986 39.3477 364.195 39.5787C364.276 39.6685 364.381 39.7409 364.501 39.7903C364.621 39.8397 364.753 39.8647 364.886 39.8635C365.081 39.8565 365.271 39.8079 365.438 39.7221C365.605 39.6363 365.744 39.5161 365.843 39.3724ZM365.301 38.5408C365.308 38.3386 365.259 38.1378 365.159 37.9547C365.121 37.8679 365.054 37.793 364.965 37.7398C364.876 37.6867 364.771 37.6579 364.662 37.6573C364.547 37.6588 364.434 37.6867 364.336 37.738C364.238 37.7894 364.157 37.8622 364.103 37.9491C363.973 38.1269 363.903 38.3313 363.898 38.5408H365.301Z" fill="white"/>
<rect width="125" height="80" transform="translate(0 80)" fill="#333132"/>
<path d="M48.3779 153.792V151.455L53.3159 146.837C53.6678 146.511 53.9253 146.222 54.0887 145.97C54.2646 145.719 54.3777 145.493 54.4279 145.292C54.4908 145.078 54.5222 144.883 54.5222 144.708C54.5222 144.28 54.3777 143.947 54.0887 143.709C53.8123 143.47 53.3913 143.351 52.8259 143.351C52.3484 143.351 51.9024 143.457 51.4877 143.671C51.0731 143.885 50.7338 144.205 50.47 144.632L47.6994 143.087C48.1894 142.257 48.8994 141.591 49.8292 141.089C50.759 140.586 51.871 140.335 53.1652 140.335C54.1829 140.335 55.075 140.498 55.8415 140.825C56.608 141.152 57.2048 141.617 57.632 142.22C58.0718 142.823 58.2917 143.533 58.2917 144.349C58.2917 144.777 58.2351 145.204 58.122 145.631C58.0089 146.046 57.7891 146.492 57.4624 146.969C57.1482 147.434 56.6771 147.956 56.0488 148.534L52.1286 152.152L51.5066 150.833H58.6498V153.792H48.3779ZM60.4145 153.792V140.599H66.653C68.1105 140.599 69.3921 140.869 70.4979 141.409C71.6036 141.95 72.4643 142.71 73.0799 143.69C73.7082 144.67 74.0223 145.838 74.0223 147.195C74.0223 148.54 73.7082 149.708 73.0799 150.701C72.4643 151.681 71.6036 152.441 70.4979 152.982C69.3921 153.522 68.1105 153.792 66.653 153.792H60.4145ZM64.1463 150.814H66.5022C67.2561 150.814 67.9095 150.676 68.4623 150.399C69.0278 150.11 69.4675 149.696 69.7817 149.156C70.0958 148.603 70.2528 147.949 70.2528 147.195C70.2528 146.429 70.0958 145.776 69.7817 145.235C69.4675 144.695 69.0278 144.287 68.4623 144.01C67.9095 143.721 67.2561 143.577 66.5022 143.577H64.1463V150.814Z" fill="white"/>
<path d="M12.2386 101.075C11.3214 101.075 10.4041 100.962 9.48688 100.736C8.58221 100.51 7.79062 100.19 7.11211 99.7749L8.46912 96.9667C8.99685 97.3185 9.58112 97.5886 10.2219 97.7771C10.8753 97.9656 11.5098 98.0598 12.1255 98.0598C12.7663 98.0598 13.2752 97.9404 13.6522 97.7017C14.0291 97.463 14.2176 97.1237 14.2176 96.6839C14.2176 96.2944 14.0605 95.9866 13.7464 95.7604C13.4323 95.5217 12.9171 95.4023 12.2009 95.4023H10.6366V93.0464L14.1799 89.2204L14.538 90.502H7.79062V87.6183H17.3274V89.9554L13.7841 93.7814L11.9559 92.7448H12.9737C14.6197 92.7448 15.8636 93.1155 16.7054 93.8568C17.5599 94.5856 17.9871 95.528 17.9871 96.6839C17.9871 97.4378 17.7797 98.1478 17.3651 98.8137C16.963 99.4796 16.3411 100.026 15.4992 100.453C14.6574 100.868 13.5705 101.075 12.2386 101.075ZM19.8631 100.812V87.6183H26.1016C27.5591 87.6183 28.8408 87.8885 29.9465 88.4288C31.0522 88.9691 31.9129 89.7293 32.5286 90.7093C33.1568 91.6894 33.4709 92.8579 33.4709 94.2149C33.4709 95.5594 33.1568 96.7279 32.5286 97.7205C31.9129 98.7006 31.0522 99.4608 29.9465 100.001C28.8408 100.541 27.5591 100.812 26.1016 100.812H19.8631ZM23.5949 97.8336H25.9508C26.7047 97.8336 27.3581 97.6954 27.911 97.419C28.4764 97.13 28.9162 96.7154 29.2303 96.1751C29.5444 95.6222 29.7015 94.9688 29.7015 94.2149C29.7015 93.4485 29.5444 92.7951 29.2303 92.2548C28.9162 91.7145 28.4764 91.3061 27.911 91.0297C27.3581 90.7407 26.7047 90.5962 25.9508 90.5962H23.5949V97.8336Z" fill="white"/>
<rect width="125" height="80" transform="translate(125 80)" fill="#3178D0"/>
<g clip-path="url(#clip6_143_6246)">
<rect width="125" height="80" transform="translate(250 80)" fill="#333132"/>
<path d="M296.887 118.427L300.392 116.659C300.473 116.609 300.533 116.563 300.573 116.523C300.614 116.483 300.634 116.412 300.634 116.312V114.121C300.634 113.96 300.553 113.879 300.392 113.879H295.558V112.232L299.939 112.157C300.896 112.137 301.57 112.353 301.963 112.807C302.356 113.25 302.552 113.869 302.552 114.665V116.191C302.552 116.735 302.421 117.148 302.16 117.43C301.908 117.712 301.5 117.999 300.936 118.291L297.537 119.998C297.396 120.068 297.305 120.149 297.265 120.24C297.224 120.33 297.204 120.466 297.204 120.647V122.566H302.507V124.213H295.301V120.647C295.301 120.174 295.356 119.812 295.467 119.56C295.588 119.308 295.764 119.101 295.996 118.94C296.237 118.779 296.535 118.608 296.887 118.427ZM304.578 114.499C304.578 113.663 304.795 113.053 305.228 112.671C305.671 112.288 306.351 112.096 307.267 112.096H309.7C310.606 112.096 311.281 112.288 311.724 112.671C312.167 113.053 312.389 113.663 312.389 114.499V121.962C312.389 122.788 312.167 123.392 311.724 123.775C311.281 124.157 310.606 124.349 309.7 124.349H307.267C306.351 124.349 305.671 124.157 305.228 123.775C304.795 123.392 304.578 122.788 304.578 121.962V114.499ZM306.723 113.804C306.582 113.804 306.512 113.869 306.512 114V122.445C306.512 122.576 306.582 122.642 306.723 122.642H310.243C310.384 122.642 310.455 122.576 310.455 122.445V114C310.455 113.869 310.384 113.804 310.243 113.804H306.723ZM321.414 124.213H314.752V122.672H317.426V114.242L314.918 115.768L314.132 114.453L317.577 112.232H319.329V122.672H321.414V124.213ZM326.536 124.288L322.351 124.213V122.566H327.231C327.392 122.566 327.473 122.486 327.473 122.324V119.122C327.473 118.96 327.392 118.88 327.231 118.88H323.469V117.233H327.125C327.296 117.233 327.382 117.153 327.382 116.991V114.121C327.382 113.95 327.296 113.864 327.125 113.864H322.412V112.232L326.491 112.157C327.427 112.137 328.132 112.348 328.606 112.791C329.089 113.225 329.331 113.869 329.331 114.725V116.176C329.331 116.629 329.24 117.012 329.059 117.324C328.878 117.626 328.621 117.863 328.288 118.034C329.044 118.356 329.422 119.021 329.422 120.028V121.69C329.422 122.526 329.175 123.175 328.681 123.639C328.188 124.092 327.473 124.309 326.536 124.288Z" fill="white"/>
<path d="M295.161 127.999C294.947 127.999 294.776 127.972 294.646 127.917V127.671C294.719 127.699 294.798 127.721 294.882 127.738C294.967 127.755 295.051 127.764 295.135 127.764C295.266 127.764 295.365 127.748 295.43 127.718C295.496 127.687 295.529 127.625 295.529 127.533C295.529 127.477 295.516 127.432 295.488 127.397C295.461 127.363 295.416 127.334 295.353 127.31C295.29 127.285 295.202 127.258 295.092 127.231C294.914 127.185 294.789 127.127 294.718 127.057C294.646 126.985 294.61 126.887 294.61 126.762C294.61 126.617 294.663 126.504 294.769 126.422C294.875 126.34 295.033 126.299 295.243 126.299C295.338 126.299 295.428 126.306 295.511 126.319C295.597 126.333 295.663 126.348 295.711 126.366V126.611C295.581 126.562 295.438 126.537 295.281 126.537C295.158 126.537 295.062 126.553 294.994 126.586C294.926 126.618 294.892 126.677 294.892 126.762C294.892 126.812 294.904 126.852 294.928 126.883C294.952 126.914 294.992 126.94 295.051 126.962C295.11 126.984 295.192 127.009 295.296 127.036C295.431 127.071 295.535 127.112 295.609 127.159C295.684 127.205 295.736 127.26 295.765 127.323C295.796 127.385 295.811 127.455 295.811 127.533C295.811 127.678 295.757 127.793 295.65 127.876C295.542 127.958 295.379 127.999 295.161 127.999ZM296.082 127.974V126.325H296.361V127.974H296.082ZM296.684 127.974V126.325H296.93L297.791 127.538V126.325H298.067V127.974H297.821L296.963 126.762V127.974H296.684ZM299.166 127.999C298.894 127.999 298.688 127.925 298.548 127.776C298.41 127.628 298.341 127.427 298.341 127.175C298.341 126.994 298.37 126.838 298.428 126.709C298.488 126.577 298.578 126.477 298.7 126.407C298.821 126.335 298.975 126.299 299.163 126.299C299.259 126.299 299.346 126.307 299.424 126.322C299.504 126.336 299.579 126.354 299.647 126.378V126.622C299.579 126.594 299.505 126.574 299.427 126.56C299.35 126.545 299.269 126.537 299.183 126.537C298.979 126.537 298.834 126.592 298.748 126.701C298.665 126.81 298.623 126.968 298.623 127.175C298.623 127.368 298.669 127.514 298.761 127.615C298.853 127.714 298.996 127.764 299.189 127.764C299.267 127.764 299.346 127.758 299.424 127.746C299.504 127.732 299.58 127.712 299.65 127.684V127.93C299.581 127.952 299.507 127.969 299.427 127.981C299.348 127.993 299.261 127.999 299.166 127.999ZM299.92 127.974V126.325H301.07V126.542H300.199V127.042H300.975V127.257H300.199V127.759H301.07V127.974H299.92Z" fill="white"/>
</g>
<defs>
<clipPath id="clip0_143_6246">
<rect width="3.58929" height="3.58929" fill="white" transform="translate(192.812 71.875)"/>
</clipPath>
<clipPath id="clip1_143_6246">
<rect width="3.58929" height="3.58929" fill="white" transform="translate(199.648 71.875)"/>
</clipPath>
<clipPath id="clip2_143_6246">
<rect width="3.58929" height="3.58929" fill="white" transform="translate(206.484 71.875)"/>
</clipPath>
<clipPath id="clip3_143_6246">
<rect width="3.58929" height="3.58929" fill="white" transform="translate(213.32 71.875)"/>
</clipPath>
<clipPath id="clip4_143_6246">
<rect width="3.58929" height="3.58929" fill="white" transform="translate(220.156 71.875)"/>
</clipPath>
<clipPath id="clip5_143_6246">
<rect width="13.4375" height="13.4375" fill="white" transform="translate(195 52.8125)"/>
</clipPath>
<clipPath id="clip6_143_6246">
<rect width="125" height="80" fill="white" transform="translate(250 80)"/>
</clipPath>
</defs>
</svg>
