<svg width="18" height="18" viewBox="0 0 18 18" fill="none" xmlns="http://www.w3.org/2000/svg">
<path d="M3 7.5C3 4.67175 3 3.25725 3.879 2.379C4.758 1.50075 6.17175 1.5 9 1.5H10.125C12.9532 1.5 14.3677 1.5 15.246 2.379C16.1242 3.258 16.125 4.67175 16.125 7.5V10.5C16.125 13.3282 16.125 14.7427 15.246 15.621C14.367 16.4992 12.9532 16.5 10.125 16.5H9C6.17175 16.5 4.75725 16.5 3.879 15.621C3.00075 14.742 3 13.3282 3 10.5V7.5Z" stroke="black" stroke-width="1.125" stroke-linecap="round" stroke-linejoin="round"/>
<path d="M7.35 8.9805C7.02975 8.4225 6.87525 7.96725 6.78225 7.50525C6.64425 6.82275 6.96 6.15525 7.482 5.72925C7.70325 5.54925 7.956 5.61075 8.0865 5.8455L8.38125 6.37425C8.6145 6.79275 8.7315 7.00275 8.70825 7.22475C8.68575 7.44675 8.52825 7.6275 8.21325 7.98975L7.35 8.9805ZM7.35 8.9805C8.02508 10.1373 8.98772 11.0999 10.1445 11.775M10.1445 11.775C10.7025 12.0952 11.1577 12.2498 11.6197 12.3428C12.3022 12.4808 12.9697 12.165 13.3957 11.643C13.5757 11.4218 13.5142 11.169 13.2795 11.0385L12.7515 10.7437C12.3315 10.5105 12.1222 10.3935 11.9002 10.4167C11.6782 10.4392 11.4975 10.5967 11.1352 10.9117L10.1445 11.775ZM3.75 4.5H1.875M3.75 9H1.875M3.75 13.5H1.875" stroke="black" stroke-width="1.125" stroke-linecap="round" stroke-linejoin="round"/>
</svg>
