<svg width="18" height="14" viewBox="0 0 18 14" fill="none" xmlns="http://www.w3.org/2000/svg">
<path fill-rule="evenodd" clip-rule="evenodd" d="M17.5307 6.46918C17.6711 6.6098 17.75 6.80043 17.75 6.99918C17.75 7.19793 17.6711 7.38855 17.5307 7.52918L11.5307 13.5292C11.462 13.6029 11.3792 13.662 11.2872 13.703C11.1952 13.7439 11.0959 13.766 10.9952 13.7678C10.8945 13.7695 10.7944 13.751 10.7011 13.7133C10.6077 13.6756 10.5228 13.6194 10.4516 13.5482C10.3804 13.477 10.3243 13.3922 10.2865 13.2988C10.2488 13.2054 10.2303 13.1054 10.2321 13.0047C10.2338 12.904 10.2559 12.8046 10.2969 12.7126C10.3379 12.6206 10.397 12.5378 10.4707 12.4692L15.1907 7.74918L1.00066 7.74918C0.801748 7.74918 0.610981 7.67016 0.470329 7.52951C0.329677 7.38885 0.25066 7.19809 0.25066 6.99918C0.25066 6.80026 0.329677 6.6095 0.470329 6.46885C0.610981 6.32819 0.801748 6.24918 1.00066 6.24918L15.1907 6.24918L10.4707 1.52918C10.397 1.46051 10.3379 1.37771 10.2969 1.28571C10.2559 1.19372 10.2338 1.0944 10.2321 0.993699C10.2303 0.892996 10.2488 0.792967 10.2865 0.699579C10.3243 0.606191 10.3804 0.521357 10.4516 0.450138C10.5228 0.378919 10.6077 0.322775 10.7011 0.285054C10.7945 0.247333 10.8945 0.228808 10.9952 0.230585C11.0959 0.232362 11.1952 0.254403 11.2872 0.295395C11.3792 0.336387 11.462 0.39549 11.5307 0.469176L17.5307 6.46918Z" fill="white"/>
</svg>
