<svg width="72" height="72" viewBox="0 0 72 72" fill="none" xmlns="http://www.w3.org/2000/svg">
<path fill-rule="evenodd" clip-rule="evenodd" d="M25.3935 7.76572L51.4683 33.8873C51.703 34.1116 51.8893 34.3816 52.0156 34.6807C52.1419 34.9797 52.2056 35.3015 52.2027 35.6261C52.2042 35.958 52.14 36.2869 52.014 36.594C51.888 36.901 51.7025 37.1801 51.4683 37.4153C42.0363 46.6169 32.9463 55.4981 24.1983 64.0589C23.7483 64.4801 21.9483 65.5277 20.5587 63.9725C19.1691 62.4137 20.0115 61.0565 20.5587 60.4949L46.0035 35.6261L21.7143 11.2937C20.8287 10.0721 20.9007 8.94532 21.9303 7.91332C22.9623 6.88132 24.1167 6.82972 25.3935 7.76572Z" fill="white"/>
</svg>
