<svg width="17" height="17" viewBox="0 0 17 17" fill="none" xmlns="http://www.w3.org/2000/svg">
<path d="M11.3307 7.08529C12.1131 7.08529 12.7474 6.45102 12.7474 5.66862C12.7474 4.88622 12.1131 4.25195 11.3307 4.25195C10.5483 4.25195 9.91406 4.88622 9.91406 5.66862C9.91406 6.45102 10.5483 7.08529 11.3307 7.08529Z" stroke="white" stroke-width="1.0625"/>
<path d="M1.41406 8.85572L2.65506 7.76984C2.96612 7.49789 3.36888 7.35429 3.78182 7.3681C4.19477 7.38191 4.58704 7.5521 4.87923 7.84422L7.91798 10.883C8.15379 11.1187 8.4652 11.2638 8.79741 11.2925C9.12962 11.3213 9.46132 11.2319 9.73415 11.0402L9.94594 10.8915C10.3395 10.6151 10.8151 10.4803 11.2952 10.5093C11.7752 10.5382 12.2313 10.7292 12.5887 11.0508L14.8724 13.1057" stroke="white" stroke-width="1.0625" stroke-linecap="round"/>
<path d="M15.5807 8.5013C15.5807 11.8404 15.5807 13.5099 14.543 14.5469C13.5067 15.5846 11.8365 15.5846 8.4974 15.5846C5.15831 15.5846 3.48877 15.5846 2.45106 14.5469C1.41406 13.5106 1.41406 11.8404 1.41406 8.5013C1.41406 5.16222 1.41406 3.49268 2.45106 2.45497C3.48948 1.41797 5.15831 1.41797 8.4974 1.41797C11.8365 1.41797 13.506 1.41797 14.543 2.45497C15.2329 3.14489 15.4639 4.11459 15.5418 5.66797" stroke="white" stroke-width="1.0625" stroke-linecap="round"/>
</svg>
