<svg width="19" height="19" viewBox="0 0 19 19" fill="none" xmlns="http://www.w3.org/2000/svg">
<path d="M15.5547 14.0002H13.9991V7.19466L9.33247 10.1113L4.6658 7.19466V14.0002H3.11024V4.66688H4.04358L9.33247 7.97244L14.6214 4.66688H15.5547M15.5547 3.11133H3.11024C2.24691 3.11133 1.55469 3.80355 1.55469 4.66688V14.0002C1.55469 14.4128 1.71858 14.8084 2.0103 15.1002C2.30202 15.3919 2.69768 15.5558 3.11024 15.5558H15.5547C15.9672 15.5558 16.3629 15.3919 16.6546 15.1002C16.9464 14.8084 17.1102 14.4128 17.1102 14.0002V4.66688C17.1102 4.25432 16.9464 3.85866 16.6546 3.56694C16.3629 3.27522 15.9672 3.11133 15.5547 3.11133Z" fill="#1C1C1C"/>
</svg>
