<svg width="20" height="20" viewBox="0 0 20 20" fill="none" xmlns="http://www.w3.org/2000/svg">
<path d="M6.07677 9.20908C7.21677 11.4495 9.05344 13.2782 11.2939 14.4262L13.0355 12.6845C13.2493 12.4707 13.5659 12.3995 13.843 12.4945C14.7297 12.7874 15.6876 12.9457 16.6693 12.9457C17.1047 12.9457 17.4609 13.302 17.4609 13.7374V16.5003C17.4609 16.9357 17.1047 17.292 16.6693 17.292C9.23552 17.292 3.21094 11.2674 3.21094 3.83366C3.21094 3.39824 3.56719 3.04199 4.0026 3.04199H6.77344C7.20885 3.04199 7.5651 3.39824 7.5651 3.83366C7.5651 4.82324 7.72344 5.77324 8.01635 6.65991C8.10344 6.93699 8.0401 7.24574 7.81844 7.46741L6.07677 9.20908Z" fill="#1C1C1C"/>
</svg>
