<svg width="16" height="16" viewBox="0 0 16 16" fill="none" xmlns="http://www.w3.org/2000/svg">
<path d="M6.20095 15.3994V1.00098M0.601562 6.60037H15M2.52135 1.00098H13.0802C13.5894 1.00098 14.0777 1.20324 14.4377 1.56327C14.7977 1.9233 15 2.41161 15 2.92077V13.4796C15 13.9888 14.7977 14.4771 14.4377 14.8371C14.0777 15.1972 13.5894 15.3994 13.0802 15.3994H2.52135C2.01219 15.3994 1.52389 15.1972 1.16386 14.8371C0.803826 14.4771 0.601563 13.9888 0.601562 13.4796V2.92077C0.601562 2.66866 0.651219 2.41902 0.747698 2.1861C0.844177 1.95318 0.985587 1.74154 1.16386 1.56327C1.52389 1.20324 2.01219 1.00098 2.52135 1.00098Z" stroke="black" stroke-width="1.19987" stroke-miterlimit="10" stroke-linecap="round" stroke-linejoin="round"/>
</svg>
