<svg width="19" height="19" viewBox="0 0 19 19" fill="none" xmlns="http://www.w3.org/2000/svg">
<path d="M14.918 6.23438C14.8092 7.74361 13.6897 8.90625 12.4688 8.90625C11.2479 8.90625 10.1264 7.74398 10.0195 6.23438C9.90821 4.66428 10.9981 3.5625 12.4688 3.5625C13.9394 3.5625 15.0293 4.69285 14.918 6.23438Z" stroke="black" stroke-width="1.1875" stroke-linecap="round" stroke-linejoin="round"/>
<path d="M12.4686 11.2812C10.0502 11.2812 7.72454 12.4825 7.14192 14.8219C7.06474 15.1313 7.25882 15.4375 7.57684 15.4375H17.3607C17.6788 15.4375 17.8717 15.1313 17.7957 14.8219C17.213 12.445 14.8874 11.2812 12.4686 11.2812Z" stroke="black" stroke-width="1.1875" stroke-miterlimit="10"/>
<path d="M7.42022 6.90012C7.33338 8.10543 6.42865 9.05469 5.45342 9.05469C4.47818 9.05469 3.57197 8.1058 3.48662 6.90012C3.39793 5.64619 4.27854 4.75 5.45342 4.75C6.6283 4.75 7.50891 5.6692 7.42022 6.90012Z" stroke="black" stroke-width="1.1875" stroke-linecap="round" stroke-linejoin="round"/>
<path d="M7.64489 11.3565C6.97507 11.0496 6.23734 10.9316 5.45544 10.9316C3.52575 10.9316 1.66657 11.8909 1.20085 13.7594C1.13962 14.0065 1.29474 14.2511 1.54857 14.2511H5.71521" stroke="black" stroke-width="1.1875" stroke-miterlimit="10" stroke-linecap="round"/>
</svg>
