<svg width="23" height="24" viewBox="0 0 23 24" fill="none" xmlns="http://www.w3.org/2000/svg">
<path d="M12.7013 16.5925L12.694 16.6072C12.7233 16.3652 12.7527 16.1159 12.7527 15.8665C12.7527 15.6172 12.7307 15.3825 12.7013 15.1405L12.7087 15.1552L14.498 13.7472L12.716 10.6525L10.6113 11.5032L10.6187 11.5105C10.2373 11.2172 9.81933 10.9679 9.36467 10.7772H9.372L9.03467 8.5332H5.46333L5.14067 10.7845H5.148C4.69333 10.9752 4.27533 11.2245 3.894 11.5179L3.90133 11.5105L1.78933 10.6525L0 13.7472L1.78933 15.1552L1.79667 15.1405C1.76733 15.3825 1.74533 15.6172 1.74533 15.8665C1.74533 16.1159 1.76733 16.3652 1.804 16.6072L1.79667 16.5925L0.256667 17.8025L0.0146668 17.9932L1.79667 21.0732L3.90867 20.2299L3.894 20.2005C4.28267 20.5012 4.70067 20.7505 5.16267 20.9412H5.14067L5.47067 23.1999H9.02733C9.02733 23.1999 9.04933 23.0679 9.07133 22.8919L9.35 20.9485H9.34267C9.79733 20.7579 10.2227 20.5085 10.6113 20.2079L10.5967 20.2372L12.7087 21.0805L14.4907 18.0005C14.4907 18.0005 14.388 17.9125 14.2487 17.8099L12.7013 16.5925ZM7.24533 18.4332C5.83 18.4332 4.67867 17.2819 4.67867 15.8665C4.67867 14.4512 5.83 13.2999 7.24533 13.2999C8.66067 13.2999 9.812 14.4512 9.812 15.8665C9.812 17.2819 8.66067 18.4332 7.24533 18.4332Z" fill="white"/>
<path d="M14.9793 10.734C16.1943 10.734 17.1793 9.74901 17.1793 8.53398C17.1793 7.31896 16.1943 6.33398 14.9793 6.33398C13.7643 6.33398 12.7793 7.31896 12.7793 8.53398C12.7793 9.74901 13.7643 10.734 14.9793 10.734Z" stroke="white" stroke-width="1.1"/>
<path d="M16.2747 1.31166C16.0056 1.2002 15.6639 1.2002 14.9804 1.2002C14.2969 1.2002 13.9552 1.2002 13.6861 1.31166C13.508 1.38537 13.3462 1.49345 13.2099 1.62973C13.0737 1.766 12.9656 1.92779 12.8919 2.10586C12.8244 2.2694 12.7973 2.4608 12.787 2.73873C12.7822 2.93961 12.7266 3.136 12.6253 3.30952C12.5239 3.48305 12.3803 3.62804 12.2077 3.73093C12.0323 3.82903 11.8348 3.88102 11.6339 3.88205C11.4329 3.88307 11.2349 3.8331 11.0585 3.7368C10.8121 3.60626 10.6339 3.5344 10.4572 3.51093C10.0717 3.46023 9.68186 3.56469 9.37334 3.80133C9.14308 3.97953 8.97148 4.27506 8.62974 4.86686C8.28801 5.45866 8.11641 5.7542 8.07901 6.04386C8.05381 6.23486 8.06648 6.42895 8.11631 6.61505C8.16614 6.80115 8.25214 6.97561 8.36941 7.12846C8.47794 7.26926 8.62974 7.38733 8.86514 7.53546C9.21201 7.75326 9.43494 8.12433 9.43494 8.53353C9.43494 8.94273 9.21201 9.3138 8.86514 9.53086C8.62974 9.67973 8.47721 9.7978 8.36941 9.9386C8.25214 10.0914 8.16614 10.2659 8.11631 10.452C8.06648 10.6381 8.05381 10.8322 8.07901 11.0232C8.11714 11.3121 8.28801 11.6084 8.62901 12.2002C8.97148 12.792 9.14234 13.0875 9.37334 13.2657C9.5262 13.383 9.70065 13.469 9.88675 13.5188C10.0729 13.5687 10.2669 13.5813 10.4579 13.5561C10.6339 13.5327 10.8121 13.4608 11.0585 13.3303C11.2349 13.234 11.4329 13.184 11.6339 13.185C11.8348 13.186 12.0323 13.238 12.2077 13.3361C12.5619 13.5415 12.7723 13.9191 12.787 14.3283C12.7973 14.607 12.8237 14.7977 12.8919 14.9612C12.9656 15.1393 13.0737 15.3011 13.2099 15.4373C13.3462 15.5736 13.508 15.6817 13.6861 15.7554C13.9552 15.8669 14.2969 15.8669 14.9804 15.8669C15.6639 15.8669 16.0056 15.8669 16.2747 15.7554C16.4528 15.6817 16.6146 15.5736 16.7509 15.4373C16.8872 15.3011 16.9952 15.1393 17.0689 14.9612C17.1364 14.7977 17.1635 14.607 17.1738 14.3283C17.1885 13.9191 17.3989 13.5407 17.7531 13.3361C17.9286 13.238 18.126 13.186 18.327 13.185C18.5279 13.184 18.7259 13.234 18.9023 13.3303C19.1487 13.4608 19.3269 13.5327 19.5029 13.5561C19.6939 13.5813 19.888 13.5687 20.0741 13.5188C20.2602 13.469 20.4346 13.383 20.5875 13.2657C20.8185 13.0883 20.9893 12.792 21.3311 12.2002C21.6728 11.6084 21.8444 11.3129 21.8818 11.0232C21.907 10.8322 21.8943 10.6381 21.8445 10.452C21.7947 10.2659 21.7087 10.0914 21.5914 9.9386C21.4829 9.7978 21.3311 9.67973 21.0957 9.5316C20.924 9.42702 20.7817 9.2806 20.6821 9.10605C20.5824 8.93149 20.5287 8.73451 20.5259 8.53353C20.5259 8.12433 20.7488 7.75326 21.0957 7.5362C21.3311 7.38733 21.4836 7.26926 21.5914 7.12846C21.7087 6.97561 21.7947 6.80115 21.8445 6.61505C21.8943 6.42895 21.907 6.23486 21.8818 6.04386C21.8437 5.75493 21.6728 5.45866 21.3318 4.86686C20.9893 4.27506 20.8185 3.97953 20.5875 3.80133C20.4346 3.68406 20.2602 3.59806 20.0741 3.54823C19.888 3.4984 19.6939 3.48573 19.5029 3.51093C19.3269 3.5344 19.1487 3.60626 18.9015 3.7368C18.7252 3.83297 18.5274 3.88287 18.3266 3.88185C18.1258 3.88082 17.9285 3.8289 17.7531 3.73093C17.5805 3.62804 17.4369 3.48305 17.3356 3.30952C17.2342 3.136 17.1786 2.93961 17.1738 2.73873C17.1635 2.46006 17.1371 2.2694 17.0689 2.10586C16.9952 1.92779 16.8872 1.766 16.7509 1.62973C16.6146 1.49345 16.4528 1.38537 16.2747 1.31166Z" stroke="white" stroke-width="1.1"/>
</svg>
