<svg width="20" height="17" viewBox="0 0 20 17" fill="none" xmlns="http://www.w3.org/2000/svg">
<path d="M18.9375 0.958985H14.0219C12.967 0.958985 11.9357 1.26191 11.0484 1.8334L10 2.50586L8.95156 1.8334C8.06514 1.26202 7.03274 0.958421 5.97812 0.958985H1.0625C0.682227 0.958985 0.375 1.26621 0.375 1.64649V13.8496C0.375 14.2299 0.682227 14.5371 1.0625 14.5371H5.97812C7.03301 14.5371 8.06426 14.84 8.95156 15.4115L9.90547 16.026C9.9334 16.0432 9.96562 16.0539 9.99785 16.0539C10.0301 16.0539 10.0623 16.0453 10.0902 16.026L11.0441 15.4115C11.9336 14.84 12.967 14.5371 14.0219 14.5371H18.9375C19.3178 14.5371 19.625 14.2299 19.625 13.8496V1.64649C19.625 1.26621 19.3178 0.958985 18.9375 0.958985ZM5.97812 12.9902H1.92188V2.50586H5.97812C6.73867 2.50586 7.47773 2.72285 8.11582 3.1332L9.16426 3.80566L9.3125 3.90234V13.8281C8.28984 13.2781 7.14687 12.9902 5.97812 12.9902ZM18.0781 12.9902H14.0219C12.8531 12.9902 11.7102 13.2781 10.6875 13.8281V3.90234L10.8357 3.80566L11.8842 3.1332C12.5223 2.72285 13.2613 2.50586 14.0219 2.50586H18.0781V12.9902ZM7.52715 5.25586H3.53535C3.45156 5.25586 3.38281 5.32891 3.38281 5.41699V6.38379C3.38281 6.47188 3.45156 6.54492 3.53535 6.54492H7.525C7.60879 6.54492 7.67754 6.47188 7.67754 6.38379V5.41699C7.67969 5.32891 7.61094 5.25586 7.52715 5.25586ZM12.3203 5.41699V6.38379C12.3203 6.47188 12.3891 6.54492 12.4729 6.54492H16.4625C16.5463 6.54492 16.615 6.47188 16.615 6.38379V5.41699C16.615 5.32891 16.5463 5.25586 16.4625 5.25586H12.4729C12.3891 5.25586 12.3203 5.32891 12.3203 5.41699ZM7.52715 8.26367H3.53535C3.45156 8.26367 3.38281 8.33672 3.38281 8.42481V9.3916C3.38281 9.47969 3.45156 9.55274 3.53535 9.55274H7.525C7.60879 9.55274 7.67754 9.47969 7.67754 9.3916V8.42481C7.67969 8.33672 7.61094 8.26367 7.52715 8.26367ZM16.4646 8.26367H12.4729C12.3891 8.26367 12.3203 8.33672 12.3203 8.42481V9.3916C12.3203 9.47969 12.3891 9.55274 12.4729 9.55274H16.4625C16.5463 9.55274 16.615 9.47969 16.615 9.3916V8.42481C16.6172 8.33672 16.5484 8.26367 16.4646 8.26367Z" fill="white"/>
</svg>
