<svg width="17" height="19" viewBox="0 0 17 19" fill="none" xmlns="http://www.w3.org/2000/svg">
<g clip-path="url(#clip0_141_4739)">
<path d="M0.361367 9.39675C0.360969 10.8362 0.737094 12.2418 1.45229 13.4807L0.292969 17.7135L4.62478 16.5777C5.82291 17.23 7.16531 17.5717 8.52947 17.5718H8.53305C13.0364 17.5718 16.7022 13.9073 16.7041 9.40319C16.705 7.22062 15.8558 5.16827 14.3129 3.62419C12.7703 2.08024 10.7187 1.22951 8.53272 1.22852C4.02885 1.22852 0.363293 4.89281 0.361434 9.39675" fill="url(#paint0_linear_141_4739)"/>
<path d="M0.0710547 9.39481C0.0705898 10.8861 0.460195 12.3419 1.20089 13.6252L0 18.0098L4.48714 16.8332C5.72349 17.5073 7.1155 17.8627 8.53194 17.8633H8.53559C13.2005 17.8633 16.998 14.067 17 9.40159C17.0008 7.14059 16.121 5.01446 14.523 3.41506C12.9248 1.81587 10.7998 0.934523 8.53559 0.933594C3.86989 0.933594 0.0729141 4.72938 0.0710547 9.39481ZM2.74331 13.4042L2.57577 13.1382C1.87146 12.0183 1.49972 10.7242 1.50025 9.39534C1.50171 5.51755 4.6576 2.36266 8.53825 2.36266C10.4175 2.36345 12.1837 3.09605 13.5121 4.42523C14.8404 5.75455 15.5713 7.52163 15.5709 9.40105C15.5691 13.2788 12.4132 16.4341 8.53559 16.4341H8.5328C7.27022 16.4335 6.03195 16.0944 4.95205 15.4537L4.69506 15.3013L2.0323 15.9994L2.74331 13.4042Z" fill="url(#paint1_linear_141_4739)"/>
<path d="M6.4198 5.85668C6.26136 5.50453 6.09461 5.49742 5.94394 5.49125C5.82055 5.48594 5.67951 5.48633 5.53859 5.48633C5.39755 5.48633 5.16838 5.53939 4.97467 5.7509C4.78077 5.9626 4.23438 6.47419 4.23438 7.51471C4.23438 8.55523 4.99227 9.56089 5.09792 9.70214C5.20371 9.84312 6.56105 12.0467 8.71075 12.8945C10.4973 13.599 10.8609 13.4589 11.2487 13.4235C11.6365 13.3883 12.5 12.9121 12.6762 12.4182C12.8525 11.9244 12.8525 11.5011 12.7997 11.4127C12.7468 11.3246 12.6057 11.2716 12.3942 11.1659C12.1827 11.0602 11.1429 10.5485 10.949 10.4779C10.7551 10.4074 10.6142 10.3722 10.4731 10.5839C10.3321 10.7954 9.92705 11.2716 9.8036 11.4127C9.68028 11.5541 9.55683 11.5717 9.3454 11.4659C9.13376 11.3598 8.45263 11.1367 7.64453 10.4163C7.0158 9.85567 6.59133 9.16338 6.46795 8.95161C6.34457 8.74017 6.45473 8.62556 6.56079 8.52017C6.65581 8.42541 6.77236 8.27321 6.87821 8.14976C6.98366 8.02624 7.01886 7.93812 7.08938 7.79707C7.15997 7.65589 7.12464 7.53238 7.07185 7.42659C7.01886 7.32081 6.60787 6.27484 6.4198 5.85668Z" fill="white"/>
</g>
<defs>
<linearGradient id="paint0_linear_141_4739" x1="820.852" y1="1649.73" x2="820.852" y2="1.22852" gradientUnits="userSpaceOnUse">
<stop stop-color="#1FAF38"/>
<stop offset="1" stop-color="#60D669"/>
</linearGradient>
<linearGradient id="paint1_linear_141_4739" x1="850" y1="1708.55" x2="850" y2="0.933594" gradientUnits="userSpaceOnUse">
<stop stop-color="#F9F9F9"/>
<stop offset="1" stop-color="white"/>
</linearGradient>
<clipPath id="clip0_141_4739">
<rect width="17" height="17.1328" fill="white" transform="translate(0 0.933594)"/>
</clipPath>
</defs>
</svg>
