<svg width="18" height="18" viewBox="0 0 18 18" fill="none" xmlns="http://www.w3.org/2000/svg">
<path d="M9 9C7.9 9 6.95833 8.60833 6.175 7.825C5.39167 7.04167 5 6.1 5 5C5 3.9 5.39167 2.95833 6.175 2.175C6.95833 1.39167 7.9 1 9 1C10.1 1 11.0417 1.39167 11.825 2.175C12.6083 2.95833 13 3.9 13 5C13 6.1 12.6083 7.04167 11.825 7.825C11.0417 8.60833 10.1 9 9 9ZM1 17V14.2C1 13.6333 1.146 13.1127 1.438 12.638C1.73 12.1633 2.11733 11.8007 2.6 11.55C3.63333 11.0333 4.68333 10.646 5.75 10.388C6.81667 10.13 7.9 10.0007 9 10C10.1 9.99933 11.1833 10.1287 12.25 10.388C13.3167 10.6473 14.3667 11.0347 15.4 11.55C15.8833 11.8 16.271 12.1627 16.563 12.638C16.855 13.1133 17.0007 13.634 17 14.2V17H1Z" fill="white"/>
</svg>
