<svg width="71" height="71" viewBox="0 0 71 71" fill="none" xmlns="http://www.w3.org/2000/svg">
<rect x="0.5" y="0.5" width="70" height="70" rx="35" fill="#5AA344"/>
<rect x="0.5" y="0.5" width="70" height="70" rx="35" stroke="#3CFF2B"/>
<g clip-path="url(#clip0_131_451)">
<path d="M15.1953 35.2422C15.1943 38.8595 16.1395 42.3916 17.9368 45.5049L15.0234 56.1419L25.9091 53.2876C28.9199 54.9266 32.2933 55.7855 35.7214 55.7857H35.7304C47.047 55.7857 56.2591 46.577 56.2639 35.2584C56.2661 29.7737 54.1321 24.6162 50.2549 20.736C46.3784 16.8562 41.2227 14.7183 35.7295 14.7158C24.4115 14.7158 15.2002 23.924 15.1955 35.2422" fill="url(#paint0_linear_131_451)"/>
<path d="M14.4598 35.2353C14.4586 38.9828 15.4377 42.6412 17.299 45.8659L14.2812 56.8842L25.5572 53.9277C28.6641 55.6216 32.1621 56.5148 35.7216 56.5161H35.7308C47.4535 56.5161 56.9964 46.9761 57.0014 35.2523C57.0034 29.5705 54.7926 24.2277 50.7769 20.2085C46.7607 16.1898 41.4207 13.975 35.7308 13.9727C24.0061 13.9727 14.4645 23.5113 14.4598 35.2353ZM21.175 45.3106L20.754 44.6422C18.9841 41.828 18.05 38.576 18.0513 35.2366C18.055 25.4919 25.9856 17.5638 35.7374 17.5638C40.46 17.5658 44.8983 19.4068 48.2364 22.747C51.5744 26.0875 53.4112 30.5281 53.4101 35.251C53.4057 44.9957 45.475 52.9248 35.7308 52.9248H35.7238C32.551 52.9231 29.4392 52.071 26.7255 50.4608L26.0797 50.0779L19.3883 51.8322L21.175 45.3106Z" fill="url(#paint1_linear_131_451)"/>
<path d="M30.4138 26.3457C30.0156 25.4608 29.5966 25.4429 29.2179 25.4274C28.9079 25.4141 28.5534 25.4151 28.1993 25.4151C27.8449 25.4151 27.269 25.5484 26.7822 26.0799C26.2949 26.6119 24.9219 27.8975 24.9219 30.5123C24.9219 33.127 26.8264 35.6542 27.0919 36.0092C27.3578 36.3634 30.7687 41.901 36.1708 44.0314C40.6604 45.8017 41.5741 45.4496 42.5484 45.3609C43.523 45.2724 45.693 44.0756 46.1358 42.8345C46.5788 41.5936 46.5788 40.53 46.446 40.3077C46.3132 40.0863 45.9587 39.9533 45.4272 39.6876C44.8957 39.4219 42.2826 38.136 41.7955 37.9586C41.3082 37.7814 40.9539 37.6929 40.5995 38.2251C40.2451 38.7564 39.2273 39.9533 38.9171 40.3077C38.6072 40.663 38.297 40.7072 37.7656 40.4414C37.2338 40.1747 35.5221 39.6142 33.4914 37.8037C31.9115 36.395 30.8448 34.6553 30.5347 34.1231C30.2247 33.5918 30.5015 33.3038 30.768 33.0389C31.0068 32.8008 31.2997 32.4183 31.5657 32.1081C31.8307 31.7977 31.9191 31.5763 32.0964 31.2218C32.2737 30.867 32.185 30.5567 32.0523 30.2908C31.9191 30.025 30.8863 27.3965 30.4138 26.3457Z" fill="white"/>
</g>
<defs>
<linearGradient id="paint0_linear_131_451" x1="2077.05" y1="4157.32" x2="2077.05" y2="14.7158" gradientUnits="userSpaceOnUse">
<stop stop-color="#1FAF38"/>
<stop offset="1" stop-color="#60D669"/>
</linearGradient>
<linearGradient id="paint1_linear_131_451" x1="2150.29" y1="4305.13" x2="2150.29" y2="13.9727" gradientUnits="userSpaceOnUse">
<stop stop-color="#F9F9F9"/>
<stop offset="1" stop-color="white"/>
</linearGradient>
<clipPath id="clip0_131_451">
<rect width="42.7202" height="43.0539" fill="white" transform="translate(14.2812 13.9727)"/>
</clipPath>
</defs>
</svg>
