<svg width="116" height="50" viewBox="0 0 116 50" fill="none" xmlns="http://www.w3.org/2000/svg">
<path d="M7.63847 20.4644L18.8545 14.8081C19.1123 14.6469 19.3057 14.5019 19.4346 14.373C19.5635 14.2441 19.628 14.0185 19.628 13.6962V6.68617C19.628 6.1705 19.3701 5.91266 18.8545 5.91266H3.38413V0.64308L17.4041 0.401357C20.4659 0.336898 22.6253 1.02984 23.8823 2.48018C25.1393 3.89829 25.7678 5.88043 25.7678 8.42659V13.3094C25.7678 15.0498 25.3488 16.3712 24.5108 17.2737C23.705 18.1761 22.3997 19.0947 20.5949 20.0293L9.71729 25.4923C9.26608 25.7179 8.97601 25.9757 8.84709 26.2658C8.71817 26.5559 8.65371 26.991 8.65371 27.5711V33.7109H25.6227V38.9805H2.56227V27.5711C2.56227 26.0563 2.73954 24.896 3.09406 24.0903C3.48082 23.2845 4.04484 22.6238 4.78613 22.1082C5.55965 21.5925 6.51043 21.0446 7.63847 20.4644ZM32.2497 7.89479C32.2497 5.21972 32.9427 3.26981 34.3285 2.04508C35.7467 0.820344 37.9222 0.207977 40.8551 0.207977H48.6386C51.5393 0.207977 53.6987 0.820344 55.1168 2.04508C56.5349 3.26981 57.244 5.21972 57.244 7.89479V31.7771C57.244 34.4199 56.5349 36.3537 55.1168 37.5785C53.6987 38.8032 51.5393 39.4156 48.6386 39.4156H40.8551C37.9222 39.4156 35.7467 38.8032 34.3285 37.5785C32.9427 36.3537 32.2497 34.4199 32.2497 31.7771V7.89479ZM39.1147 5.67094C38.6635 5.67094 38.4379 5.88043 38.4379 6.29942V33.3241C38.4379 33.7431 38.6635 33.9526 39.1147 33.9526H50.379C50.8302 33.9526 51.0558 33.7431 51.0558 33.3241V6.29942C51.0558 5.88043 50.8302 5.67094 50.379 5.67094H39.1147ZM86.1254 38.9805H64.8054V34.0493H73.3624V7.07293L65.3372 11.9558L62.8232 7.74976L73.8458 0.64308H79.4538V34.0493H86.1254V38.9805ZM102.515 39.2222L89.1235 38.9805V33.7109H104.739C105.255 33.7109 105.512 33.4531 105.512 32.9374V22.6883C105.512 22.1726 105.255 21.9148 104.739 21.9148H92.7011V16.6452H104.4C104.948 16.6452 105.222 16.3874 105.222 15.8717V6.68617C105.222 6.13827 104.948 5.86431 104.4 5.86431H89.3169V0.64308L102.37 0.401357C105.367 0.336898 107.623 1.01372 109.138 2.43184C110.685 3.81772 111.459 5.88043 111.459 8.61997V13.2611C111.459 14.7114 111.169 15.9361 110.589 16.9353C110.008 17.9022 109.187 18.6596 108.123 19.2075C110.54 20.2388 111.749 22.366 111.749 25.589V30.9069C111.749 33.582 110.959 35.6608 109.38 37.1434C107.801 38.5937 105.512 39.2867 102.515 39.2222Z" fill="white"/>
<path d="M2.11406 49.6952C1.43122 49.6952 0.882223 49.6078 0.467059 49.433V48.6464C0.701955 48.7338 0.953238 48.8048 1.22091 48.8594C1.49404 48.9141 1.76445 48.9414 2.03212 48.9414C2.45274 48.9414 2.76685 48.8922 2.97443 48.7939C3.18748 48.6956 3.294 48.4989 3.294 48.2039C3.294 48.0236 3.2503 47.8789 3.16289 47.7696C3.07549 47.6604 2.93073 47.5675 2.72861 47.491C2.52649 47.4091 2.24789 47.3244 1.89282 47.237C1.3247 47.0895 0.925925 46.9038 0.696492 46.6798C0.467059 46.4504 0.352343 46.1363 0.352343 45.7375C0.352343 45.2732 0.521686 44.9099 0.860373 44.6477C1.19906 44.3855 1.70436 44.2544 2.37627 44.2544C2.68218 44.2544 2.96897 44.2762 3.23664 44.3199C3.50977 44.3636 3.72282 44.4128 3.87577 44.4674V45.2541C3.46061 45.0956 3.00174 45.0164 2.49918 45.0164C2.10586 45.0164 1.79995 45.0683 1.58145 45.1721C1.36294 45.2759 1.25369 45.4644 1.25369 45.7375C1.25369 45.8959 1.29192 46.0243 1.3684 46.1226C1.44488 46.221 1.57598 46.3056 1.76172 46.3766C1.95291 46.4477 2.21512 46.5269 2.54834 46.6143C2.97989 46.7235 3.31312 46.8546 3.54801 47.0076C3.78837 47.1551 3.95498 47.3299 4.04785 47.532C4.14618 47.7287 4.19534 47.9526 4.19534 48.2039C4.19534 48.6682 4.02327 49.0342 3.67912 49.3019C3.33497 49.5641 2.81328 49.6952 2.11406 49.6952ZM5.06135 49.6133V44.3363H5.9545V49.6133H5.06135ZM6.98982 49.6133V44.3363H7.77645L10.5296 48.2203V44.3363H11.4146V49.6133H10.628L7.88297 45.7375V49.6133H6.98982ZM14.9298 49.6952C14.0612 49.6952 13.4029 49.4576 12.955 48.9823C12.5125 48.5071 12.2913 47.8652 12.2913 47.0567C12.2913 46.4777 12.3842 45.9806 12.5699 45.5654C12.7611 45.1448 13.0506 44.8225 13.4385 44.5985C13.8263 44.3691 14.3207 44.2544 14.9216 44.2544C15.2275 44.2544 15.5061 44.279 15.7574 44.3281C16.0141 44.3718 16.2517 44.4319 16.4702 44.5084V45.2868C16.2517 45.1994 16.0168 45.1339 15.7656 45.0902C15.5197 45.041 15.2603 45.0164 14.9871 45.0164C14.3316 45.0164 13.8673 45.1912 13.5941 45.5409C13.3265 45.8905 13.1926 46.3958 13.1926 47.0567C13.1926 47.674 13.3401 48.1438 13.6351 48.4661C13.9301 48.783 14.3862 48.9414 15.0035 48.9414C15.2548 48.9414 15.5061 48.9223 15.7574 48.884C16.0141 48.8403 16.2545 48.7748 16.4784 48.6874V49.474C16.2599 49.545 16.0223 49.5996 15.7656 49.6379C15.5143 49.6761 15.2357 49.6952 14.9298 49.6952ZM17.3444 49.6133V44.3363H21.0235V45.0328H18.2375V46.6307H20.7203V47.319H18.2375V48.925H21.0235V49.6133H17.3444Z" fill="white"/>
</svg>
