<svg width="161" height="67" viewBox="0 0 161 67" fill="none" xmlns="http://www.w3.org/2000/svg">
<path d="M20.7149 20.4269C24.5417 20.4269 27.4742 21.3212 29.5124 23.1098C31.5507 24.8568 32.5698 27.4566 32.5698 30.9091V40.705C32.5698 44.2406 31.5715 46.9236 29.5748 48.7538C27.6198 50.5424 24.7289 51.3952 20.902 51.312L3.1821 51V44.199H23.5226C24.1881 44.199 24.5209 43.8663 24.5209 43.2007V28.2261C24.5209 27.5606 24.1881 27.2278 23.5226 27.2278H3.74365V1.52142H30.6979V8.32238H11.4805V20.4269H20.7149ZM41.8655 10.8805C41.8655 7.42807 42.7598 4.9115 44.5485 3.33085C46.3787 1.7502 49.1864 0.959871 52.9717 0.959871H63.0171C66.7608 0.959871 69.5477 1.7502 71.378 3.33085C73.2082 4.9115 74.1233 7.42807 74.1233 10.8805V41.7033C74.1233 45.1141 73.2082 47.6099 71.378 49.1906C69.5477 50.7712 66.7608 51.5615 63.0171 51.5615H52.9717C49.1864 51.5615 46.3787 50.7712 44.5485 49.1906C42.7598 47.6099 41.8655 45.1141 41.8655 41.7033V10.8805ZM50.7255 8.01041C50.1431 8.01041 49.852 8.28079 49.852 8.82154V43.6999C49.852 44.2406 50.1431 44.511 50.7255 44.511H65.2633C65.8457 44.511 66.1368 44.2406 66.1368 43.6999V8.82154C66.1368 8.28079 65.8457 8.01041 65.2633 8.01041H50.7255ZM85.0052 10.8805C85.0052 7.42807 85.8996 4.9115 87.6882 3.33085C89.5184 1.7502 92.3262 0.959871 96.1114 0.959871H106.157C109.901 0.959871 112.687 1.7502 114.518 3.33085C116.348 4.9115 117.263 7.42807 117.263 10.8805V41.7033C117.263 45.1141 116.348 47.6099 114.518 49.1906C112.687 50.7712 109.901 51.5615 106.157 51.5615H96.1114C92.3262 51.5615 89.5184 50.7712 87.6882 49.1906C85.8996 47.6099 85.0052 45.1141 85.0052 41.7033V10.8805ZM93.8652 8.01041C93.2829 8.01041 92.9917 8.28079 92.9917 8.82154V43.6999C92.9917 44.2406 93.2829 44.511 93.8652 44.511H108.403C108.985 44.511 109.277 44.2406 109.277 43.6999V8.82154C109.277 8.28079 108.985 8.01041 108.403 8.01041H93.8652ZM140.624 43.9495V30.5971H126.959V24.9816H140.624V11.5669H146.551V24.9816H160.216V30.5971H146.551V43.9495H140.624Z" fill="white"/>
<path d="M7.0253 66.2815C6.14402 66.2815 5.43548 66.1687 4.89967 65.9431V64.9279C5.20282 65.0407 5.52713 65.1324 5.87259 65.2029C6.2251 65.2734 6.57409 65.3086 6.91955 65.3086C7.46241 65.3086 7.8678 65.2452 8.1357 65.1183C8.41066 64.9913 8.54814 64.7375 8.54814 64.3568C8.54814 64.1242 8.49174 63.9373 8.37893 63.7963C8.26613 63.6553 8.0793 63.5355 7.81844 63.4368C7.55759 63.331 7.19803 63.2218 6.73977 63.1089C6.00655 62.9186 5.49188 62.6789 5.19577 62.3898C4.89967 62.0937 4.75161 61.6883 4.75161 61.1737C4.75161 60.5744 4.97017 60.1056 5.40728 59.7672C5.84439 59.4288 6.49653 59.2595 7.36371 59.2595C7.75852 59.2595 8.12865 59.2877 8.47411 59.3441C8.82662 59.4005 9.10158 59.464 9.29898 59.5345V60.5497C8.76317 60.3453 8.17095 60.243 7.52234 60.243C7.01472 60.243 6.61991 60.31 6.3379 60.444C6.0559 60.5779 5.91489 60.8212 5.91489 61.1737C5.91489 61.3781 5.96424 61.5438 6.06295 61.6707C6.16165 61.7976 6.33085 61.9069 6.57056 61.9985C6.81732 62.0902 7.15573 62.1924 7.58579 62.3052C8.14275 62.4462 8.57281 62.6154 8.87597 62.8128C9.18618 63.0032 9.40121 63.2288 9.52107 63.4897C9.64797 63.7435 9.71142 64.0325 9.71142 64.3568C9.71142 64.9561 9.48934 65.4285 9.04518 65.7739C8.60102 66.1123 7.92772 66.2815 7.0253 66.2815ZM10.0498 66.1758L12.6513 59.3653H13.9415L16.5219 66.1758H15.3375L14.6607 64.4203H11.9217L11.2448 66.1758H10.0498ZM12.1014 63.532H14.4703L13.2859 60.4123L12.1014 63.532ZM18.5231 66.1758V60.2642H16.3446V59.3653H21.8437V60.2642H19.6758V66.1758H18.5231ZM22.7676 66.1758V59.3653H23.9203V66.1758H22.7676ZM27.3187 66.2815C26.4374 66.2815 25.7289 66.1687 25.1931 65.9431V64.9279C25.4962 65.0407 25.8205 65.1324 26.166 65.2029C26.5185 65.2734 26.8675 65.3086 27.2129 65.3086C27.7558 65.3086 28.1612 65.2452 28.4291 65.1183C28.7041 64.9913 28.8415 64.7375 28.8415 64.3568C28.8415 64.1242 28.7851 63.9373 28.6723 63.7963C28.5595 63.6553 28.3727 63.5355 28.1118 63.4368C27.851 63.331 27.4914 63.2218 27.0332 63.1089C26.2999 62.9186 25.7853 62.6789 25.4892 62.3898C25.1931 62.0937 25.045 61.6883 25.045 61.1737C25.045 60.5744 25.2636 60.1056 25.7007 59.7672C26.1378 59.4288 26.7899 59.2595 27.6571 59.2595C28.0519 59.2595 28.422 59.2877 28.7675 59.3441C29.12 59.4005 29.395 59.464 29.5924 59.5345V60.5497C29.0566 60.3453 28.4643 60.243 27.8157 60.243C27.3081 60.243 26.9133 60.31 26.6313 60.444C26.3493 60.5779 26.2083 60.8212 26.2083 61.1737C26.2083 61.3781 26.2576 61.5438 26.3563 61.6707C26.455 61.7976 26.6242 61.9069 26.864 61.9985C27.1107 62.0902 27.4491 62.1924 27.8792 62.3052C28.4361 62.4462 28.8662 62.6154 29.1694 62.8128C29.4796 63.0032 29.6946 63.2288 29.8145 63.4897C29.9414 63.7435 30.0048 64.0325 30.0048 64.3568C30.0048 64.9561 29.7827 65.4285 29.3386 65.7739C28.8944 66.1123 28.2211 66.2815 27.3187 66.2815ZM31.1225 66.1758V59.3653H35.7545V60.2642H32.2752V62.3264H35.3632V63.2147H32.2752V66.1758H31.1225ZM36.6683 66.1758V59.3653H37.821V66.1758H36.6683ZM39.1572 66.1758V59.3653H43.9055V60.2642H40.3099V62.3264H43.5142V63.2147H40.3099V65.2875H43.9055V66.1758H39.1572ZM44.9716 66.1758V59.3653H47.7317C48.7399 59.3653 49.4872 59.6332 49.9737 60.169C50.4601 60.6978 50.7034 61.5791 50.7034 62.8128C50.7034 63.9761 50.4637 64.8292 49.9842 65.3721C49.5048 65.9079 48.754 66.1758 47.7317 66.1758H44.9716ZM46.1243 65.2875H47.5519C47.9961 65.2875 48.3662 65.224 48.6623 65.0971C48.9584 64.9631 49.1805 64.7164 49.3286 64.3568C49.4766 63.9973 49.5507 63.4826 49.5507 62.8128C49.5507 62.1431 49.4837 61.6249 49.3497 61.2583C49.2158 60.8917 49.0007 60.6343 48.7046 60.4863C48.4156 60.3382 48.0313 60.2642 47.5519 60.2642H46.1243V65.2875ZM57.4703 66.2815C56.3493 66.2815 55.4998 65.9749 54.9217 65.3615C54.3506 64.7481 54.0651 63.9197 54.0651 62.8763C54.0651 62.129 54.1849 61.4874 54.4246 60.9516C54.6714 60.4087 55.045 59.9928 55.5456 59.7037C56.0462 59.4076 56.6842 59.2595 57.4597 59.2595C57.8545 59.2595 58.2141 59.2913 58.5384 59.3547C58.8698 59.4111 59.1765 59.4887 59.4585 59.5874V60.592C59.1765 60.4792 58.8733 60.3946 58.549 60.3382C58.2317 60.2748 57.8968 60.243 57.5443 60.243C56.6983 60.243 56.099 60.4687 55.7465 60.9199C55.4011 61.3711 55.2283 62.0232 55.2283 62.8763C55.2283 63.673 55.4187 64.2793 55.7994 64.6952C56.1801 65.1042 56.7688 65.3086 57.5655 65.3086C57.8898 65.3086 58.2141 65.2839 58.5384 65.2346C58.8698 65.1782 59.18 65.0936 59.469 64.9808V65.996C59.187 66.0877 58.8803 66.1582 58.549 66.2075C58.2247 66.2569 57.8651 66.2815 57.4703 66.2815ZM60.5866 66.1758V59.3653H61.7393V65.2875H65.2292V66.1758H60.5866ZM66.1428 66.1758V59.3653H67.2955V66.1758H66.1428ZM68.6317 66.1758V59.3653H73.38V60.2642H69.7844V62.3264H72.9887V63.2147H69.7844V65.2875H73.38V66.1758H68.6317ZM74.446 66.1758V59.3653H75.4613L79.0146 64.378V59.3653H80.1567V66.1758H79.1415L75.5987 61.1737V66.1758H74.446ZM83.2657 66.1758V60.2642H81.0872V59.3653H86.5864V60.2642H84.4184V66.1758H83.2657ZM89.2523 66.2815C88.371 66.2815 87.6624 66.1687 87.1266 65.9431V64.9279C87.4298 65.0407 87.7541 65.1324 88.0996 65.2029C88.4521 65.2734 88.801 65.3086 89.1465 65.3086C89.6894 65.3086 90.0948 65.2452 90.3627 65.1183C90.6376 64.9913 90.7751 64.7375 90.7751 64.3568C90.7751 64.1242 90.7187 63.9373 90.6059 63.7963C90.4931 63.6553 90.3063 63.5355 90.0454 63.4368C89.7845 63.331 89.425 63.2218 88.9667 63.1089C88.2335 62.9186 87.7188 62.6789 87.4227 62.3898C87.1266 62.0937 86.9786 61.6883 86.9786 61.1737C86.9786 60.5744 87.1971 60.1056 87.6342 59.7672C88.0714 59.4288 88.7235 59.2595 89.5907 59.2595C89.9855 59.2595 90.3556 59.2877 90.7011 59.3441C91.0536 59.4005 91.3285 59.464 91.5259 59.5345V60.5497C90.9901 60.3453 90.3979 60.243 89.7493 60.243C89.2417 60.243 88.8469 60.31 88.5649 60.444C88.2829 60.5779 88.1419 60.8212 88.1419 61.1737C88.1419 61.3781 88.1912 61.5438 88.2899 61.6707C88.3886 61.7976 88.5578 61.9069 88.7975 61.9985C89.0443 62.0902 89.3827 62.1924 89.8127 62.3052C90.3697 62.4462 90.7998 62.6154 91.1029 62.8128C91.4131 63.0032 91.6282 63.2288 91.748 63.4897C91.8749 63.7435 91.9384 64.0325 91.9384 64.3568C91.9384 64.9561 91.7163 65.4285 91.2721 65.7739C90.828 66.1123 90.1547 66.2815 89.2523 66.2815Z" fill="white"/>
</svg>
