<svg width="153" height="80" viewBox="0 0 153 80" fill="none" xmlns="http://www.w3.org/2000/svg">
<g clip-path="url(#clip0_284_257)">
<path opacity="0.7" d="M5.74119 68.957L7.22667 72.1769L10.748 72.5947L8.14457 75.0019L8.83563 78.4801L5.74119 76.7482L2.64675 78.4806L3.3378 75.0023L0.734375 72.5942L4.25618 72.1764L5.74119 68.957Z" fill="#FFE02F"/>
<path d="M5.74119 68.957L7.22667 72.1769L10.748 72.5947L8.14457 75.0019L8.83563 78.4801L5.74119 76.7482L2.64675 78.4806L3.3378 75.0023L0.734375 72.5942L4.25618 72.1764L5.74119 68.957Z" stroke="#FFDE21" stroke-width="0.957143" stroke-linejoin="round"/>
</g>
<g clip-path="url(#clip1_284_257)">
<path opacity="0.7" d="M27.6162 68.957L29.1017 72.1769L32.623 72.5947L30.0196 75.0019L30.7106 78.4801L27.6162 76.7482L24.5217 78.4806L25.2128 75.0023L22.6094 72.5942L26.1312 72.1764L27.6162 68.957Z" fill="#FFE02F"/>
<path d="M27.6162 68.957L29.1017 72.1769L32.623 72.5947L30.0196 75.0019L30.7106 78.4801L27.6162 76.7482L24.5217 78.4806L25.2128 75.0023L22.6094 72.5942L26.1312 72.1764L27.6162 68.957Z" stroke="#FFDE21" stroke-width="0.957143" stroke-linejoin="round"/>
</g>
<path opacity="0.7" d="M49.4951 68.957L50.9806 72.1769L54.5019 72.5947L51.8985 75.0019L52.5895 78.4801L49.4951 76.7482L46.4007 78.4806L47.0917 75.0023L44.4883 72.5942L48.0101 72.1764L49.4951 68.957Z" fill="#FFE02F"/>
<path d="M49.4951 68.957L50.9806 72.1769L54.5019 72.5947L51.8985 75.0019L52.5895 78.4801L49.4951 76.7482L46.4007 78.4806L47.0917 75.0023L44.4883 72.5942L48.0101 72.1764L49.4951 68.957Z" stroke="#FFDE21" stroke-width="0.957143" stroke-linejoin="round"/>
<g clip-path="url(#clip2_284_257)">
<path opacity="0.7" d="M71.3701 68.957L72.8556 72.1769L76.3769 72.5947L73.7735 75.0019L74.4645 78.4801L71.3701 76.7482L68.2757 78.4806L68.9667 75.0023L66.3633 72.5942L69.8851 72.1764L71.3701 68.957Z" fill="#FFE02F"/>
<path d="M71.3701 68.957L72.8556 72.1769L76.3769 72.5947L73.7735 75.0019L74.4645 78.4801L71.3701 76.7482L68.2757 78.4806L68.9667 75.0023L66.3633 72.5942L69.8851 72.1764L71.3701 68.957Z" stroke="#FFDE21" stroke-width="0.957143" stroke-linejoin="round"/>
</g>
<g clip-path="url(#clip3_284_257)">
<path opacity="0.7" d="M93.2451 68.957L94.7306 72.1769L98.2519 72.5947L95.6485 75.0019L96.3395 78.4801L93.2451 76.7482L90.1507 78.4806L90.8417 75.0023L88.2383 72.5942L91.7601 72.1764L93.2451 68.957Z" fill="#FFE02F"/>
<path d="M93.2451 68.957L94.7306 72.1769L98.2519 72.5947L95.6485 75.0019L96.3395 78.4801L93.2451 76.7482L90.1507 78.4806L90.8417 75.0023L88.2383 72.5942L91.7601 72.1764L93.2451 68.957Z" stroke="#FFDE21" stroke-width="0.957143" stroke-linejoin="round"/>
</g>
<rect x="1" width="56" height="56" rx="28" fill="white"/>
<g clip-path="url(#clip4_284_257)">
<path d="M21.9783 8.41527C17.682 9.90572 13.9768 12.7346 11.407 16.4865C8.83725 20.2384 7.53836 24.7154 7.70113 29.2601C7.86389 33.8047 9.47973 38.1774 12.3113 41.7358C15.1429 45.2942 19.041 47.8508 23.4329 49.0301C26.9936 49.9489 30.7242 49.9892 34.3039 49.1477C37.5467 48.4193 40.5449 46.8612 43.0047 44.626C45.5648 42.2286 47.423 39.1787 48.3797 35.8043C49.4195 32.1347 49.6045 28.2757 48.9205 24.5235H28.9255V32.8178H40.5053C40.2739 34.1407 39.7779 35.4032 39.0471 36.53C38.3164 37.6567 37.3658 38.6245 36.2523 39.3753C34.8383 40.3106 33.2443 40.94 31.5727 41.2229C29.8962 41.5347 28.1766 41.5347 26.5 41.2229C24.8008 40.8716 23.1934 40.1703 21.7801 39.1636C19.5097 37.5565 17.8049 35.2732 16.909 32.6397C15.998 29.9569 15.998 27.0484 16.909 24.3656C17.5467 22.4851 18.6009 20.7729 19.9929 19.3568C21.5859 17.7065 23.6027 16.5268 25.822 15.9472C28.0413 15.3677 30.3773 15.4106 32.5738 16.0713C34.2897 16.598 35.8588 17.5183 37.156 18.7588C38.4617 17.4598 39.7651 16.1575 41.0663 14.8518C41.7382 14.1497 42.4705 13.4812 43.1323 12.7623C41.1522 10.9196 38.8279 9.48576 36.2926 8.54293C31.6758 6.86657 26.6243 6.82152 21.9783 8.41527Z" fill="white"/>
<path d="M21.978 8.41691C26.6236 6.82207 31.6752 6.86593 36.2923 8.5412C38.828 9.49044 41.1513 10.9312 43.1287 12.7807C42.4568 13.4996 41.748 14.1715 41.0627 14.8703C39.7592 16.1715 38.4569 17.4682 37.1557 18.7604C35.8585 17.5199 34.2894 16.5996 32.5735 16.0729C30.3777 15.4099 28.0418 15.3645 25.8219 15.9417C23.602 16.5189 21.584 17.6964 19.9893 19.345C18.5973 20.7611 17.5431 22.4733 16.9054 24.3538L9.94141 18.962C12.4341 14.0189 16.75 10.2378 21.978 8.41691Z" fill="#E33629"/>
<path d="M8.09624 24.2984C8.47055 22.4434 9.09197 20.6469 9.9439 18.957L16.9079 24.3623C15.9969 27.0451 15.9969 29.9536 16.9079 32.6364C14.5877 34.4281 12.2663 36.2287 9.9439 38.0383C7.8112 33.7931 7.16076 28.9562 8.09624 24.2984Z" fill="#F8BD00"/>
<path d="M28.9273 24.5215H48.9223C49.6062 28.2737 49.4212 32.1327 48.3814 35.8023C47.4248 39.1767 45.5665 42.2266 43.0064 44.624C40.759 42.8704 38.5015 41.1302 36.2541 39.3766C37.3683 38.6251 38.3193 37.6563 39.0501 36.5283C39.7809 35.4004 40.2765 34.1365 40.507 32.8124H28.9273C28.9239 30.051 28.9273 27.2862 28.9273 24.5215Z" fill="#587DBD"/>
<path d="M9.9375 38.0386C12.2599 36.2469 14.5813 34.4463 16.9015 32.6367C17.7991 35.2711 19.5064 37.5545 21.7793 39.1606C23.197 40.1626 24.8079 40.8582 26.5093 41.2031C28.1858 41.5149 29.9054 41.5149 31.582 41.2031C33.2536 40.9202 34.8475 40.2908 36.2616 39.3555C38.509 41.1091 40.7665 42.8492 43.0139 44.6028C40.5545 46.8392 37.5563 48.3985 34.3131 49.1279C30.7334 49.9694 27.0029 49.9291 23.4422 49.0103C20.626 48.2584 17.9955 46.9329 15.7156 45.1168C13.3025 43.2009 11.3315 40.7865 9.9375 38.0386Z" fill="#319F43"/>
</g>
<path d="M78.064 36V23.9787H83.832C85.2133 23.9787 86.2276 24.3458 86.8747 25.08C87.5218 25.8018 87.8453 26.7787 87.8453 28.0107C87.8453 28.8196 87.6338 29.5164 87.2107 30.1013C86.8 30.6862 86.2151 31.1093 85.456 31.3707C85.6551 31.5324 85.8107 31.7067 85.9227 31.8933C86.0471 32.08 86.1716 32.3289 86.296 32.64L87.752 36H85.1387L83.72 32.7707C83.5956 32.4969 83.4587 32.304 83.3093 32.192C83.16 32.08 82.9111 32.024 82.5627 32.024H80.584V36H78.064ZM80.584 29.9333H83.1787C83.8382 29.9333 84.3547 29.7902 84.728 29.504C85.1013 29.2053 85.288 28.7076 85.288 28.0107C85.288 27.3387 85.1262 26.8471 84.8027 26.536C84.4791 26.2249 83.9876 26.0693 83.328 26.0693H80.584V29.9333ZM89.6031 36V23.9787H98.2271V25.9387H92.1231V29.0187H97.5364V30.96H92.1231V34.0587H98.2271V36H89.6031ZM103.921 36L99.3287 23.9787H101.961L105.283 33.1813L108.625 23.9787H111.257L106.683 36H103.921ZM112.535 36V23.9787H115.055V36H112.535ZM117.184 36V23.9787H125.808V25.9387H119.704V29.0187H125.117V30.96H119.704V34.0587H125.808V36H117.184ZM129.983 36L127.183 23.9787H129.666L131.476 32.0987L133.436 25.5467V23.9787H135.49L137.804 32.1173L139.671 23.9787H142.135L139.354 36H136.964L134.762 28.3093L132.391 36H129.983ZM147.258 36.1867C146.487 36.1867 145.765 36.1307 145.093 36.0187C144.433 35.9067 143.861 35.7449 143.376 35.5333V33.312C143.923 33.536 144.514 33.7164 145.149 33.8533C145.784 33.9902 146.406 34.0587 147.016 34.0587C147.887 34.0587 148.528 33.9778 148.938 33.816C149.349 33.6542 149.554 33.2871 149.554 32.7147C149.554 32.3538 149.467 32.0676 149.293 31.856C149.119 31.6444 148.814 31.4578 148.378 31.296C147.955 31.1218 147.352 30.9289 146.568 30.7173C145.311 30.3689 144.427 29.9333 143.917 29.4107C143.407 28.888 143.152 28.1662 143.152 27.2453C143.152 26.1378 143.556 25.2853 144.365 24.688C145.174 24.0907 146.35 23.792 147.893 23.792C148.615 23.792 149.287 23.8418 149.909 23.9413C150.531 24.0409 151.035 24.1591 151.421 24.296V26.5173C150.401 26.1316 149.337 25.9387 148.229 25.9387C147.445 25.9387 146.829 26.0258 146.381 26.2C145.933 26.3618 145.709 26.7102 145.709 27.2453C145.709 27.5564 145.79 27.8053 145.952 27.992C146.113 28.1787 146.387 28.3467 146.773 28.496C147.171 28.6453 147.725 28.8133 148.434 29C149.417 29.2613 150.177 29.5724 150.712 29.9333C151.247 30.2942 151.614 30.7049 151.813 31.1653C152.025 31.6258 152.13 32.1422 152.13 32.7147C152.13 33.76 151.732 34.6 150.936 35.2347C150.139 35.8693 148.913 36.1867 147.258 36.1867Z" fill="white"/>
<defs>
<clipPath id="clip0_284_257">
<rect width="11.4857" height="11.4857" fill="white" transform="translate(0 68)"/>
</clipPath>
<clipPath id="clip1_284_257">
<rect width="11.4857" height="11.4857" fill="white" transform="translate(21.875 68)"/>
</clipPath>
<clipPath id="clip2_284_257">
<rect width="11.4857" height="11.4857" fill="white" transform="translate(65.6289 68)"/>
</clipPath>
<clipPath id="clip3_284_257">
<rect width="11.4857" height="11.4857" fill="white" transform="translate(87.5039 68)"/>
</clipPath>
<clipPath id="clip4_284_257">
<rect width="43" height="43" fill="white" transform="translate(7 7)"/>
</clipPath>
</defs>
</svg>
