<svg width="125" height="85" viewBox="0 0 125 85" fill="none" xmlns="http://www.w3.org/2000/svg">
<path fill-rule="evenodd" clip-rule="evenodd" d="M17.983 33.8828C16.6915 33.8828 15.4529 34.3959 14.5396 35.3091C13.6263 36.2224 13.1133 37.461 13.1133 38.7526C13.1133 40.0441 13.6263 41.2828 14.5396 42.196C15.4529 43.1093 16.6915 43.6223 17.983 43.6223C19.2746 43.6223 20.5132 43.1093 21.4265 42.196C22.3397 41.2828 22.8528 40.0441 22.8528 38.7526C22.8528 37.461 22.3397 36.2224 21.4265 35.3091C20.5132 34.3959 19.2746 33.8828 17.983 33.8828ZM15.3609 38.7526C15.3609 38.0571 15.6371 37.3902 16.1289 36.8984C16.6206 36.4067 17.2876 36.1304 17.983 36.1304C18.6785 36.1304 19.3455 36.4067 19.8372 36.8984C20.329 37.3902 20.6052 38.0571 20.6052 38.7526C20.6052 39.448 20.329 40.115 19.8372 40.6067C19.3455 41.0985 18.6785 41.3748 17.983 41.3748C17.2876 41.3748 16.6206 41.0985 16.1289 40.6067C15.6371 40.115 15.3609 39.448 15.3609 38.7526Z" fill="white"/>
<path fill-rule="evenodd" clip-rule="evenodd" d="M17.982 27.8906C16.0226 27.8905 14.0997 28.4203 12.4169 29.4239C10.734 30.4275 9.35399 31.8676 8.42288 33.5916C7.49177 35.3156 7.04428 37.2593 7.12779 39.2169C7.21129 41.1745 7.8227 43.0731 8.89725 44.7115L5.02092 51.4243C4.91331 51.6113 4.86178 51.8252 4.87248 52.0407C4.88318 52.2561 4.95565 52.4639 5.08125 52.6393C5.20685 52.8147 5.38027 52.9502 5.5808 53.0296C5.78133 53.1091 6.0005 53.1292 6.21214 53.0875L10.1289 52.3173L11.419 56.0933C11.4886 56.2979 11.6156 56.478 11.7849 56.6123C11.9542 56.7465 12.1586 56.8291 12.3737 56.8501C12.5887 56.8711 12.8053 56.8297 12.9974 56.7308C13.1895 56.632 13.349 56.4798 13.4568 56.2926L17.3227 49.5978C17.7618 49.6254 18.2022 49.6254 18.6413 49.5978L22.5071 56.2926C22.6151 56.4798 22.7747 56.6319 22.9669 56.7306C23.1591 56.8294 23.3757 56.8707 23.5908 56.8495C23.8058 56.8283 24.0102 56.7455 24.1794 56.6112C24.3487 56.4768 24.4756 56.2964 24.5449 56.0918L25.8305 52.3069L29.7503 53.086C29.9621 53.1281 30.1814 53.1083 30.3822 53.0289C30.583 52.9496 30.7567 52.8141 30.8825 52.6387C31.0083 52.4632 31.0809 52.2553 31.0917 52.0396C31.1024 51.824 31.0508 51.6099 30.943 51.4228L27.0682 44.7115C28.1428 43.073 28.7542 41.1743 28.8377 39.2166C28.9211 37.2588 28.4735 35.315 27.5422 33.591C26.6109 31.8669 25.2307 30.4269 23.5476 29.4233C21.8646 28.4198 19.9415 27.8902 17.982 27.8906ZM9.36624 38.7539C9.36624 36.4689 10.274 34.2775 11.8897 32.6617C13.5055 31.0459 15.6969 30.1382 17.982 30.1382C20.267 30.1382 22.4585 31.0459 24.0742 32.6617C25.69 34.2775 26.5977 36.4689 26.5977 38.7539C26.5977 41.039 25.69 43.2304 24.0742 44.8462C22.4585 46.4619 20.267 47.3697 17.982 47.3697C15.6969 47.3697 13.5055 46.4619 11.8897 44.8462C10.274 43.2304 9.36624 41.039 9.36624 38.7539ZM14.9612 49.1917C13.2568 48.6983 11.6994 47.7943 10.4256 46.559L8.20499 50.4054L10.6579 49.9229C10.9244 49.8706 11.2009 49.9166 11.4361 50.0524C11.6714 50.1882 11.8495 50.4046 11.9375 50.6616L12.7466 53.0276L14.9612 49.1917ZM23.2143 53.0216L21.0027 49.1917C22.7072 48.6983 24.2645 47.7943 25.5383 46.559L27.756 50.3994L25.3016 49.9109C25.0342 49.858 24.7567 49.904 24.5208 50.0405C24.2848 50.1769 24.1065 50.3945 24.019 50.6526L23.2143 53.0216Z" fill="white"/>
<path d="M59.1281 54.3031L42.3363 54V47.3924H61.9167C62.5633 47.3924 62.8866 47.0691 62.8866 46.4224V33.5709C62.8866 32.9243 62.5633 32.601 61.9167 32.601H46.8222V25.9933H61.4923C62.1794 25.9933 62.5229 25.67 62.5229 25.0234V13.5055C62.5229 12.8185 62.1794 12.4749 61.4923 12.4749H42.5787V5.92794L58.9463 5.62483C62.7048 5.54401 65.5337 6.39269 67.4332 8.17089C69.373 9.90868 70.3429 12.4952 70.3429 15.9303V21.7499C70.3429 23.5685 69.9792 25.1042 69.2518 26.357C68.5243 27.5695 67.4938 28.5192 66.1601 29.2062C69.1912 30.4995 70.7067 33.1668 70.7067 37.2081V43.8764C70.7067 47.2307 69.7165 49.8374 67.7363 51.6964C65.756 53.515 62.8866 54.3839 59.1281 54.3031ZM80.8956 15.021C80.8956 11.6667 81.7645 9.22165 83.5023 7.68593C85.2805 6.15021 88.0085 5.38235 91.6861 5.38235H101.446C105.083 5.38235 107.791 6.15021 109.569 7.68593C111.347 9.22165 112.236 11.6667 112.236 15.021V44.9675C112.236 48.2815 111.347 50.7063 109.569 52.242C107.791 53.7777 105.083 54.5456 101.446 54.5456H91.6861C88.0085 54.5456 85.2805 53.7777 83.5023 52.242C81.7645 50.7063 80.8956 48.2815 80.8956 44.9675V15.021ZM89.5038 12.2325C88.938 12.2325 88.6551 12.4952 88.6551 13.0205V46.9074C88.6551 47.4328 88.938 47.6955 89.5038 47.6955H103.628C104.194 47.6955 104.477 47.4328 104.477 46.9074V13.0205C104.477 12.4952 104.194 12.2325 103.628 12.2325H89.5038Z" fill="white"/>
<path d="M44.7607 68.8691L47.2882 62.2523H48.5418L51.0488 68.8691H49.898L49.2404 67.1635H46.5793L45.9217 68.8691H44.7607ZM46.754 66.3005H49.0555L47.9047 63.2694L46.754 66.3005ZM52.5229 68.8691L50.9817 62.2523H52.0811L53.201 67.2149L54.4545 63.0537V62.2523H55.3689L56.7766 67.2149L57.9171 62.2523H59.0062L57.4753 68.8691H56.3759L55.0504 64.2353L53.6428 68.8691H52.5229ZM58.9385 68.8691L61.4661 62.2523H62.7196L65.2266 68.8691H64.0758L63.4183 67.1635H60.7571L60.0995 68.8691H58.9385ZM60.9318 66.3005H63.2333L62.0826 63.2694L60.9318 66.3005ZM66.328 68.8691V62.2523H69.3693C70.1091 62.2523 70.6468 62.4441 70.9824 62.8276C71.3249 63.2044 71.4962 63.7181 71.4962 64.3688C71.4962 64.8346 71.3797 65.2319 71.1468 65.5607C70.9139 65.8895 70.5783 66.119 70.1399 66.2491C70.2632 66.3381 70.3591 66.434 70.4276 66.5368C70.4961 66.6395 70.5646 66.7765 70.6331 66.9478L71.4653 68.8691H70.3146L69.5029 67.0197C69.4275 66.8416 69.335 66.7149 69.2255 66.6395C69.1227 66.5642 68.9446 66.5265 68.6912 66.5265H67.4479V68.8691H66.328ZM67.4479 65.6223H69.0713C69.4755 65.6223 69.794 65.523 70.0269 65.3244C70.2598 65.1257 70.3762 64.8072 70.3762 64.3688C70.3762 63.54 69.9755 63.1256 69.1741 63.1256H67.4479V65.6223ZM72.5992 68.8691V62.2523H75.2808C76.2604 62.2523 76.9864 62.5125 77.4591 63.0331C77.9317 63.5469 78.168 64.4031 78.168 65.6018C78.168 66.732 77.9351 67.5608 77.4693 68.0883C77.0036 68.6088 76.2741 68.8691 75.2808 68.8691H72.5992ZM73.7191 68.0061H75.1062C75.5377 68.0061 75.8973 67.9444 76.185 67.8211C76.4727 67.691 76.6885 67.4512 76.8323 67.1019C76.9762 66.7526 77.0481 66.2525 77.0481 65.6018C77.0481 64.9511 76.983 64.4476 76.8529 64.0914C76.7227 63.7352 76.5138 63.4852 76.2261 63.3414C75.9453 63.1975 75.572 63.1256 75.1062 63.1256H73.7191V68.0061ZM82.9856 68.8691L81.4444 62.2523H82.5438L83.6638 67.2149L84.9173 63.0537V62.2523H85.8317L87.2393 67.2149L88.3798 62.2523H89.4689L87.938 68.8691H86.8386L85.5132 64.2353L84.1056 68.8691H82.9856ZM90.5698 68.8691V62.2523H91.6897V68.8691H90.5698ZM92.9879 68.8691V62.2523H93.9743L97.4266 67.1224V62.2523H98.5363V68.8691H97.5499L94.1079 64.0092V68.8691H92.9879ZM99.8411 68.8691V62.2523H100.827L104.28 67.1224V62.2523H105.389V68.8691H104.403L100.961 64.0092V68.8691H99.8411ZM106.694 68.8691V62.2523H107.814V68.8691H106.694ZM109.112 68.8691V62.2523H110.099L113.551 67.1224V62.2523H114.661V68.8691H113.674L110.232 64.0092V68.8691H109.112ZM119.048 68.9719C117.959 68.9719 117.137 68.6773 116.582 68.0883C116.034 67.4992 115.76 66.7012 115.76 65.6943C115.76 64.9682 115.88 64.3414 116.12 63.814C116.359 63.2797 116.722 62.8687 117.209 62.581C117.702 62.2934 118.325 62.1495 119.079 62.1495C119.469 62.1495 119.822 62.1769 120.137 62.2317C120.459 62.2797 120.76 62.3516 121.041 62.4475V63.4133C120.479 63.2078 119.856 63.1051 119.171 63.1051C118.329 63.1051 117.736 63.3277 117.394 63.7729C117.058 64.2181 116.89 64.8586 116.89 65.6943C116.89 66.4546 117.068 67.0334 117.424 67.4307C117.781 67.828 118.332 68.0266 119.079 68.0266C119.668 68.0266 120.144 67.9581 120.507 67.8211V65.9717H118.853V65.2422H121.462V68.4273C121.25 68.5643 120.945 68.691 120.548 68.8075C120.158 68.9171 119.657 68.9719 119.048 68.9719ZM44.9559 78.8691V72.2523H47.6376C48.6171 72.2523 49.3432 72.5125 49.8158 73.0331C50.2884 73.5469 50.5248 74.4031 50.5248 75.6018C50.5248 76.732 50.2919 77.5608 49.8261 78.0883C49.3603 78.6088 48.6308 78.8691 47.6376 78.8691H44.9559ZM46.0758 78.0061H47.4629C47.8945 78.0061 48.2541 77.9444 48.5418 77.8211C48.8294 77.691 49.0452 77.4512 49.1891 77.1019C49.3329 76.7526 49.4048 76.2525 49.4048 75.6018C49.4048 74.9511 49.3398 74.4476 49.2096 74.0914C49.0795 73.7352 48.8705 73.4852 48.5829 73.3414C48.302 73.1975 47.9287 73.1256 47.4629 73.1256H46.0758V78.0061ZM51.6284 78.8691V72.2523H56.2417V73.1256H52.7483V75.1292H55.8616V75.9922H52.7483V78.0061H56.2417V78.8691H51.6284ZM59.0803 78.9719C58.2241 78.9719 57.5357 78.8623 57.0151 78.6431V77.6567C57.3097 77.7663 57.6248 77.8554 57.9604 77.9239C58.3029 77.9924 58.642 78.0266 58.9776 78.0266C59.505 78.0266 59.8989 77.965 60.1592 77.8417C60.4263 77.7184 60.5599 77.4718 60.5599 77.1019C60.5599 76.8759 60.5051 76.6943 60.3955 76.5573C60.2859 76.4203 60.1044 76.3039 59.8509 76.208C59.5975 76.1053 59.2482 75.9991 58.8029 75.8895C58.0906 75.7045 57.5905 75.4717 57.3028 75.1908C57.0151 74.9031 56.8713 74.5093 56.8713 74.0092C56.8713 73.427 57.0836 72.9715 57.5083 72.6427C57.933 72.3139 58.5666 72.1495 59.4091 72.1495C59.7927 72.1495 60.1523 72.1769 60.488 72.2317C60.8305 72.2865 61.0976 72.3482 61.2894 72.4167V73.403C60.7688 73.2044 60.1934 73.1051 59.5633 73.1051C59.0701 73.1051 58.6865 73.1701 58.4125 73.3003C58.1385 73.4304 58.0015 73.6667 58.0015 74.0092C58.0015 74.2079 58.0495 74.3688 58.1454 74.4921C58.2412 74.6154 58.4056 74.7216 58.6385 74.8106C58.8783 74.8997 59.2071 74.999 59.6249 75.1086C60.166 75.2456 60.5839 75.41 60.8784 75.6018C61.1798 75.7867 61.3887 76.0059 61.5052 76.2594C61.6285 76.506 61.6901 76.7868 61.6901 77.1019C61.6901 77.6841 61.4743 78.1431 61.0428 78.4787C60.6113 78.8075 59.9571 78.9719 59.0803 78.9719ZM62.776 78.8691V72.2523H63.896V78.8691H62.776ZM68.2766 78.9719C67.1875 78.9719 66.3655 78.6773 65.8107 78.0883C65.2627 77.4992 64.9887 76.7012 64.9887 75.6943C64.9887 74.9682 65.1086 74.3414 65.3483 73.814C65.588 73.2797 65.9511 72.8687 66.4374 72.581C66.9306 72.2934 67.5539 72.1495 68.3074 72.1495C68.6978 72.1495 69.0506 72.1769 69.3657 72.2317C69.6876 72.2797 69.989 72.3516 70.2699 72.4475V73.4133C69.7082 73.2078 69.0848 73.1051 68.3999 73.1051C67.5573 73.1051 66.9648 73.3277 66.6224 73.7729C66.2867 74.2181 66.1189 74.8586 66.1189 75.6943C66.1189 76.4546 66.297 77.0334 66.6532 77.4307C67.0094 77.828 67.5608 78.0266 68.3074 78.0266C68.8965 78.0266 69.3725 77.9581 69.7356 77.8211V75.9717H68.0814V75.2422H70.6911V78.4273C70.4788 78.5643 70.174 78.691 69.7767 78.8075C69.3862 78.9171 68.8862 78.9719 68.2766 78.9719ZM71.7764 78.8691V72.2523H72.7627L76.215 77.1224V72.2523H77.3247V78.8691H76.3383L72.8963 74.0092V78.8691H71.7764ZM78.6295 78.8691V72.2523H83.2428V73.1256H79.7494V75.1292H82.8627V75.9922H79.7494V78.0061H83.2428V78.8691H78.6295ZM84.2786 78.8691V72.2523H87.3199C88.0596 72.2523 88.5973 72.4441 88.933 72.8276C89.2755 73.2044 89.4467 73.7181 89.4467 74.3688C89.4467 74.8346 89.3303 75.2319 89.0974 75.5607C88.8645 75.8895 88.5288 76.119 88.0905 76.2491C88.2138 76.3381 88.3096 76.434 88.3781 76.5368C88.4466 76.6395 88.5151 76.7765 88.5836 76.9478L89.4159 78.8691H88.2651L87.4534 77.0197C87.3781 76.8416 87.2856 76.7149 87.176 76.6395C87.0733 76.5642 86.8952 76.5265 86.6417 76.5265H85.3985V78.8691H84.2786ZM85.3985 75.6223H87.0219C87.426 75.6223 87.7445 75.523 87.9774 75.3244C88.2103 75.1257 88.3268 74.8072 88.3268 74.3688C88.3268 73.54 87.9261 73.1256 87.1246 73.1256H85.3985V75.6223ZM92.5533 78.9719C91.697 78.9719 91.0086 78.8623 90.4881 78.6431V77.6567C90.7826 77.7663 91.0977 77.8554 91.4333 77.9239C91.7758 77.9924 92.1149 78.0266 92.4505 78.0266C92.978 78.0266 93.3718 77.965 93.6321 77.8417C93.8992 77.7184 94.0328 77.4718 94.0328 77.1019C94.0328 76.8759 93.978 76.6943 93.8684 76.5573C93.7588 76.4203 93.5773 76.3039 93.3239 76.208C93.0704 76.1053 92.7211 75.9991 92.2759 75.8895C91.5635 75.7045 91.0634 75.4717 90.7758 75.1908C90.4881 74.9031 90.3442 74.5093 90.3442 74.0092C90.3442 73.427 90.5566 72.9715 90.9812 72.6427C91.4059 72.3139 92.0395 72.1495 92.8821 72.1495C93.2656 72.1495 93.6253 72.1769 93.9609 72.2317C94.3034 72.2865 94.5705 72.3482 94.7623 72.4167V73.403C94.2417 73.2044 93.6664 73.1051 93.0362 73.1051C92.543 73.1051 92.1594 73.1701 91.8854 73.3003C91.6114 73.4304 91.4744 73.6667 91.4744 74.0092C91.4744 74.2079 91.5224 74.3688 91.6183 74.4921C91.7142 74.6154 91.8786 74.7216 92.1115 74.8106C92.3512 74.8997 92.68 74.999 93.0978 75.1086C93.639 75.2456 94.0568 75.41 94.3513 75.6018C94.6527 75.7867 94.8616 76.0059 94.9781 76.2594C95.1014 76.506 95.163 76.7868 95.163 77.1019C95.163 77.6841 94.9473 78.1431 94.5157 78.4787C94.0842 78.8075 93.43 78.9719 92.5533 78.9719Z" fill="white"/>
</svg>
