<svg width="18" height="18" viewBox="0 0 18 18" fill="none" xmlns="http://www.w3.org/2000/svg">
<path d="M4.77 10.808V9.384H7C7.21933 9.384 7.40233 9.31066 7.549 9.164C7.69566 9.01733 7.769 8.83433 7.769 8.615V7.077C7.769 6.85766 7.69566 6.67467 7.549 6.528C7.40233 6.38133 7.21933 6.308 7 6.308H4.327C4.20033 6.308 4.095 6.35 4.011 6.434C3.927 6.51733 3.885 6.62267 3.885 6.75C3.885 6.87733 3.927 6.98266 4.011 7.066C4.095 7.14933 4.20033 7.19133 4.327 7.192H6.885V8.615H4.653C4.43367 8.615 4.25033 8.68833 4.103 8.835C3.95633 8.98166 3.883 9.165 3.883 9.385V11.25C3.883 11.3767 3.925 11.482 4.009 11.566C4.09367 11.65 4.19933 11.692 4.326 11.692H7.326C7.45267 11.692 7.558 11.65 7.642 11.566C7.726 11.482 7.768 11.3767 7.768 11.25C7.768 11.1233 7.726 11.018 7.642 10.934C7.558 10.85 7.45267 10.808 7.326 10.808H4.77ZM10.289 11.692H13.019C13.359 11.692 13.6457 11.5753 13.879 11.342C14.1137 11.1073 14.231 10.8203 14.231 10.481V7.519C14.231 7.179 14.114 6.89233 13.88 6.659C13.646 6.425 13.3593 6.308 13.02 6.308H10.288C10.1613 6.308 10.056 6.35 9.972 6.434C9.888 6.51733 9.846 6.62267 9.846 6.75V11.25C9.846 11.3767 9.888 11.482 9.972 11.566C10.056 11.65 10.1617 11.692 10.289 11.692ZM10.731 10.808V7.192H13.039C13.1157 7.192 13.186 7.22433 13.25 7.289C13.314 7.353 13.346 7.42333 13.346 7.5V10.5C13.346 10.5773 13.314 10.648 13.25 10.712C13.186 10.776 13.1153 10.808 13.038 10.808H10.731ZM2.616 17C2.15533 17 1.771 16.846 1.463 16.538C1.155 16.23 1.00067 15.8453 1 15.384V2.616C1 2.15533 1.15433 1.771 1.463 1.463C1.77167 1.155 2.156 1.00067 2.616 1H15.385C15.845 1 16.2293 1.15433 16.538 1.463C16.8467 1.77167 17.0007 2.156 17 2.616V15.385C17 15.845 16.846 16.2293 16.538 16.538C16.23 16.8467 15.8453 17.0007 15.384 17H2.616ZM2.616 16H15.385C15.5383 16 15.6793 15.936 15.808 15.808C15.9367 15.68 16.0007 15.5387 16 15.384V2.616C16 2.462 15.936 2.32067 15.808 2.192C15.68 2.06333 15.5387 1.99933 15.384 2H2.616C2.462 2 2.32067 2.064 2.192 2.192C2.06333 2.32 1.99933 2.46133 2 2.616V15.385C2 15.5383 2.064 15.6793 2.192 15.808C2.32 15.9367 2.461 16.0007 2.615 16" fill="white"/>
</svg>
