<svg width="15" height="15" viewBox="0 0 15 15" fill="none" xmlns="http://www.w3.org/2000/svg">
<path d="M7.49993 0.806641L13.3124 4.16255V10.013C13.3124 10.2748 13.2434 10.532 13.1125 10.7588C12.9816 10.9855 12.7933 11.1738 12.5666 11.3047L8.24569 13.8C8.01895 13.9309 7.76175 13.9998 7.49993 13.9998C7.23812 13.9998 6.98092 13.9309 6.75418 13.8L2.43326 11.3047C2.20652 11.1738 2.01824 10.9855 1.88733 10.7588C1.75643 10.532 1.68751 10.2748 1.6875 10.013V4.16255L7.49993 0.806641Z" stroke="white" stroke-width="0.745757" stroke-linecap="round" stroke-linejoin="round"/>
<path d="M7.50257 3.78906V7.51785M7.50257 7.51785L4.27344 9.38224M7.50257 7.51785L10.7317 9.38224" stroke="white" stroke-width="0.745757" stroke-linecap="round" stroke-linejoin="round"/>
</svg>
