<svg width="14" height="14" viewBox="0 0 14 14" fill="none" xmlns="http://www.w3.org/2000/svg">
<g clip-path="url(#clip0_609_147)">
<path fill-rule="evenodd" clip-rule="evenodd" d="M7 0.166016L6.8992 0.341016L5.92298 2.0297H6.65V8.0469L1.43878 11.0555L1.0752 10.4258L0 12.2904H0.20174L2.1525 12.2916L1.78878 11.6618L7 8.65324L12.2112 11.6618L11.8475 12.2916L14 12.2904L13.8992 12.1154L12.9248 10.4258L12.5612 11.0556L7.35 8.04704V2.02956H8.07702L7 0.166016Z" fill="white"/>
<path fill-rule="evenodd" clip-rule="evenodd" d="M6.86816 3.98368L2.77372 6.66874C2.67936 6.73692 2.65402 6.81448 2.65234 6.88504V10.8974C2.65234 10.9856 2.69826 11.0677 2.77372 11.1137L6.86816 13.7987C6.96686 13.8526 7.06724 13.8435 7.13388 13.7973L11.2264 11.1137C11.2634 11.0911 11.2941 11.0593 11.3153 11.0215C11.3366 10.9836 11.3477 10.9409 11.3477 10.8974V6.88504C11.3469 6.77808 11.3015 6.72166 11.2224 6.66608L7.13192 3.98368C7.03448 3.9281 6.95804 3.95456 6.86816 3.98368ZM7.00004 4.49608L10.5721 6.86291L6.9978 9.27176L3.39224 6.8849L7.00004 4.49608ZM3.15844 7.3357L6.74692 9.71234V13.1318L3.15872 10.7552L3.15844 7.3357ZM10.8416 7.3357V10.7551L7.25316 13.1317V9.71205L10.8416 7.3357Z" fill="white"/>
</g>
<defs>
<clipPath id="clip0_609_147">
<rect width="14" height="14" fill="white"/>
</clipPath>
</defs>
</svg>
