<svg width="13" height="12" viewBox="0 0 13 12" fill="none" xmlns="http://www.w3.org/2000/svg">
<path fill-rule="evenodd" clip-rule="evenodd" d="M12.2791 2.7907H8.93023V1.68112C8.93023 0.885488 8.41646 0 7.62167 0H4.94484C4.14921 0 3.62791 0.885488 3.62791 1.68112V2.7907H0.55814C0.251163 2.7907 0 3.04186 0 3.34884V11.4419C0 11.7488 0.251163 12 0.55814 12H12.2791C12.586 12 12.8372 11.7488 12.8372 11.4419V3.34884C12.8372 3.04186 12.586 2.7907 12.2791 2.7907ZM8.09302 2.7907H4.46512V1.68112C4.46512 1.38335 4.76651 0.837209 5.06428 0.837209H7.31135C7.60856 0.837209 8.09302 1.38335 8.09302 1.68112V2.7907ZM1.20783 9.04753C1.56107 9.38887 2.07307 9.55954 2.74383 9.55954C2.978 9.55954 3.18836 9.54366 3.3749 9.51191C3.56144 9.48015 3.73806 9.4365 3.90476 9.38093V8.53553C3.73409 8.60698 3.55747 8.66056 3.3749 8.69628C3.19233 8.72803 3.00777 8.74391 2.82122 8.74391C2.43623 8.74391 2.1465 8.65262 1.95202 8.47005C1.75753 8.28747 1.66029 8.00171 1.66029 7.61274C1.66029 7.20394 1.75158 6.90428 1.93415 6.71377C2.1207 6.52326 2.41242 6.428 2.80932 6.428C3.19034 6.428 3.5535 6.49944 3.89881 6.64233V5.80288C3.72814 5.74335 3.54953 5.69572 3.36299 5.66C3.18042 5.62428 2.97205 5.60642 2.73788 5.60642C2.05521 5.60642 1.54122 5.78105 1.19592 6.13033C0.854589 6.4796 0.683923 6.97374 0.683923 7.61274C0.683923 8.22397 0.858558 8.70223 1.20783 9.04753ZM5.67895 5.66595L4.21439 9.5H5.21457L5.55392 8.63079H6.83392L7.17922 9.5H8.17941L6.71485 5.66595H5.67895ZM6.70295 7.92233H5.6849L6.19095 6.58874L6.70295 7.92233ZM8.72439 5.66595V9.5H10.3854C10.9768 9.5 11.4233 9.34918 11.7249 9.04753C12.0306 8.74589 12.1834 8.26564 12.1834 7.60679C12.1834 7.13845 12.1139 6.76338 11.975 6.48158C11.8361 6.19581 11.6337 5.98943 11.3677 5.86242C11.1018 5.73144 10.7744 5.66595 10.3854 5.66595H8.72439ZM10.2544 8.76177H9.6829V6.40419H10.2544C10.4767 6.40419 10.6573 6.43991 10.7962 6.51135C10.9391 6.57882 11.0423 6.69988 11.1058 6.87451C11.1733 7.04518 11.207 7.28927 11.207 7.60679C11.207 7.92034 11.1693 8.16047 11.0939 8.32716C11.0224 8.49386 10.9153 8.60896 10.7724 8.67247C10.6335 8.732 10.4608 8.76177 10.2544 8.76177Z" fill="white"/>
</svg>
