<svg width="15" height="15" viewBox="0 0 15 15" fill="none" xmlns="http://www.w3.org/2000/svg">
<g clip-path="url(#clip0_609_156)">
<path d="M4.23428 13.2116C3.90591 13.3342 3.54927 13.3602 3.20661 13.2863C2.86396 13.2125 2.54965 13.0419 2.30095 12.7949C2.12956 12.6256 1.99372 12.4238 1.90142 12.2013C1.80911 11.9787 1.76221 11.74 1.76345 11.4991C1.76524 11.3298 1.79048 11.1615 1.83845 10.9991C1.65778 10.6613 1.51791 10.3032 1.42178 9.93242C1.03886 10.4606 0.862832 11.1108 0.926999 11.76C0.991166 12.4092 1.29108 13.0123 1.76998 13.4553C2.24889 13.8983 2.87356 14.1503 3.52578 14.1638C4.178 14.1772 4.81253 13.9511 5.30928 13.5283C4.93988 13.4647 4.57912 13.3585 4.23428 13.2116ZM7.67178 11.5324C7.06978 11.868 6.37485 11.9982 5.69219 11.9035C5.00954 11.8088 4.37634 11.4942 3.88845 11.0074C3.40108 10.5217 3.08566 9.89015 2.99014 9.20875C2.89462 8.52735 3.02424 7.8334 3.35928 7.23242C3.26815 6.84277 3.2165 6.44493 3.20511 6.04492C2.49611 6.80135 2.10923 7.80395 2.12633 8.84057C2.14344 9.87718 2.5632 10.8665 3.29678 11.5991C4.03235 12.3303 5.0225 12.7483 6.05957 12.7654C7.09663 12.7825 8.10002 12.3974 8.85928 11.6908C8.45918 11.6774 8.06139 11.6244 7.67178 11.5324Z" fill="white"/>
<path d="M9.02636 10.9212C7.86017 10.9195 6.73064 10.5135 5.83016 9.77247C4.92969 9.03141 4.31396 8.00111 4.08786 6.85704C3.86176 5.71298 4.03926 4.52591 4.59014 3.49802C5.14102 2.47014 6.03119 1.66501 7.10905 1.21978C8.18691 0.774552 9.38579 0.716753 10.5015 1.05623C11.6172 1.39571 12.5807 2.11146 13.2279 3.08159C13.8751 4.05171 14.166 5.2162 14.051 6.37671C13.936 7.53722 13.4222 8.62198 12.5972 9.44622C12.1282 9.91478 11.5714 10.2862 10.9587 10.5393C10.3459 10.7924 9.68931 10.9222 9.02636 10.9212ZM9.02636 1.66705C8.47282 1.66651 7.92459 1.77506 7.41303 1.98651C6.90146 2.19797 6.43659 2.50817 6.04498 2.89939C5.65337 3.29061 5.34271 3.75518 5.13075 4.26654C4.91879 4.77789 4.80969 5.32601 4.80969 5.87955C4.80977 6.43364 4.92036 6.98215 5.135 7.49298C5.34963 8.0038 5.664 8.46669 6.05969 8.85455C6.85044 9.6451 7.9228 10.0892 9.04094 10.0892C10.1591 10.0892 11.2314 9.6451 12.0222 8.85455C12.6111 8.2642 13.0115 7.51235 13.1728 6.69423C13.3341 5.87611 13.2489 5.02854 12.9281 4.25886C12.6073 3.48918 12.0653 2.83203 11.3707 2.37064C10.6761 1.90925 9.86022 1.66438 9.02636 1.66705Z" fill="white"/>
</g>
<defs>
<clipPath id="clip0_609_156">
<rect width="15" height="15" fill="white"/>
</clipPath>
</defs>
</svg>
