<svg width="12" height="12" viewBox="0 0 12 12" fill="none" xmlns="http://www.w3.org/2000/svg">
<g clip-path="url(#clip0_609_159)">
<path d="M11.625 8.25V7.5H10.8375C10.7887 7.26532 10.6954 7.04217 10.5626 6.84262L11.1214 6.28387L10.5911 5.75363L10.0324 6.31238C9.83281 6.17971 9.60965 6.08652 9.375 6.03787V5.25H8.625V6.03787C8.39035 6.08652 8.16719 6.17971 7.96762 6.31238L7.40887 5.75363L6.87863 6.28387L7.43738 6.84262C7.30457 7.04217 7.21126 7.26532 7.1625 7.5H6.375V8.25H7.1625C7.21125 8.48888 7.3065 8.71088 7.437 8.90738L6.87825 9.46613L7.4085 9.99637L7.96725 9.43762C8.1669 9.57047 8.39019 9.66378 8.625 9.7125V10.5H9.375V9.7125C9.60965 9.66385 9.83281 9.57067 10.0324 9.438L10.5911 9.99675L11.1214 9.4665L10.5626 8.90775C10.6955 8.7081 10.7888 8.48481 10.8375 8.25H11.625ZM9 9C8.70163 9 8.41548 8.88147 8.2045 8.6705C7.99353 8.45952 7.875 8.17337 7.875 7.875C7.875 7.57663 7.99353 7.29048 8.2045 7.0795C8.41548 6.86853 8.70163 6.75 9 6.75C9.29837 6.75 9.58452 6.86853 9.7955 7.0795C10.0065 7.29048 10.125 7.57663 10.125 7.875C10.125 8.17337 10.0065 8.45952 9.7955 8.6705C9.58452 8.88147 9.29837 9 9 9Z" fill="white"/>
<path d="M7.875 2.25C7.875 1.21613 7.03387 0.375 6 0.375C5.3325 0.375 4.71038 0.73425 4.37625 1.3125C4.25682 1.52032 4.17673 1.74839 4.14 1.98525C3.6978 1.66979 3.16819 1.50016 2.625 1.5C1.1775 1.5 0 2.6775 0 4.125C0.000474818 4.60558 0.132873 5.07682 0.382762 5.48732C0.632651 5.89783 0.99044 6.23186 1.41713 6.453C1.0125 6.79725 0.75 7.3035 0.75 7.875C0.75 8.90887 1.59113 9.75 2.625 9.75C2.90025 9.75 3.16013 9.687 3.39563 9.57975C3.4995 10.5161 4.28625 11.25 5.25 11.25C5.49634 11.2507 5.74036 11.2025 5.96796 11.1083C6.19556 11.014 6.40223 10.8756 6.576 10.701L6.04538 10.1704C5.94118 10.2752 5.81723 10.3583 5.68071 10.4149C5.54418 10.4714 5.39779 10.5004 5.25 10.5C4.62975 10.5 4.125 9.99525 4.125 9.375C4.125 8.75475 4.62975 8.25 5.25 8.25V7.5C4.97437 7.5 4.71487 7.56338 4.47937 7.67025C4.42642 7.19725 4.19557 6.76208 3.83362 6.453C4.26017 6.23176 4.61781 5.89769 4.86756 5.48719C5.11731 5.07669 5.2496 4.60551 5.25 4.125C5.25 4.06988 5.24475 4.01588 5.24138 3.9615C5.47388 4.065 5.72962 4.125 6 4.125C7.03387 4.125 7.875 3.28387 7.875 2.25ZM5.025 1.6875C5.12409 1.51663 5.26629 1.37475 5.43738 1.27604C5.60847 1.17733 5.80247 1.12525 6 1.125C6.62025 1.125 7.125 1.62975 7.125 2.25C7.125 2.87025 6.62025 3.375 6 3.375C5.37975 3.375 4.875 2.87025 4.875 2.25H4.86375C4.87725 2.034 4.92825 1.8555 5.025 1.6875ZM3.75 7.875C3.75 8.49525 3.24525 9 2.625 9C2.00475 9 1.5 8.49525 1.5 7.875C1.5 7.25475 2.00475 6.75 2.625 6.75C3.24525 6.75 3.75 7.25475 3.75 7.875ZM2.625 6C1.59113 6 0.75 5.15887 0.75 4.125C0.75 3.09113 1.59113 2.25 2.625 2.25C3.65887 2.25 4.5 3.09113 4.5 4.125C4.5 5.15887 3.65887 6 2.625 6Z" fill="white"/>
</g>
<defs>
<clipPath id="clip0_609_159">
<rect width="12" height="12" fill="white"/>
</clipPath>
</defs>
</svg>
